<?xml version="1.0" encoding="utf-8"?>
<!-- Generator: Adobe Illustrator 17.1.0, SVG Export Plug-In . SVG Version: 6.00 Build 0)  -->
<!DOCTYPE svg PUBLIC "-//W3C//DTD SVG 1.1//EN" "http://www.w3.org/Graphics/SVG/1.1/DTD/svg11.dtd">
<svg version="1.1" id="Слой_1" xmlns="http://www.w3.org/2000/svg" xmlns:xlink="http://www.w3.org/1999/xlink" x="0px" y="0px"
	 viewBox="0 0 1920 1080" enable-background="new 0 0 1920 1080" xml:space="preserve">
<path id="XMLID_183_" fill="#6DBCFD" d="M514,306.5l-16.5,24.3c-0.7,1.1-2.2,1.3-3.2,0.6l0,0c-1.1-0.7-1.3-2.2-0.6-3.2l16.5-24.3
	c0.7-1.1,2.2-1.3,3.2-0.6l0,0C514.4,304,514.7,305.5,514,306.5z"/>
<path id="XMLID_184_" fill="#6DBCFD" d="M514.7,327.6l-24.3-16.5c-1.1-0.7-1.3-2.2-0.6-3.2l0,0c0.7-1.1,2.2-1.3,3.2-0.6l24.3,16.5
	c1.1,0.7,1.3,2.2,0.6,3.2l0,0C517.2,328,515.7,328.3,514.7,327.6z"/>
<circle id="XMLID_179_" fill="none" stroke="#6DBCFD" stroke-width="4.2508" stroke-miterlimit="10" cx="264.5" cy="284.2" r="11"/>
<path id="XMLID_195_" opacity="0.26" fill="#6DBCFD" d="M519.6,312.4l-16.5,24.3c-0.7,1.1-2.2,1.3-3.2,0.6l0,0
	c-1.1-0.7-1.3-2.2-0.6-3.2l16.5-24.3c0.7-1.1,2.2-1.3,3.2-0.6l0,0C520,309.9,520.3,311.3,519.6,312.4z"/>
<path id="XMLID_194_" opacity="0.26" fill="#6DBCFD" d="M520.3,333.4l-24.3-16.5c-1.1-0.7-1.3-2.2-0.6-3.2h0
	c0.7-1.1,2.2-1.3,3.2-0.6l24.3,16.5c1.1,0.7,1.3,2.2,0.6,3.2l0,0C522.8,333.9,521.3,334.1,520.3,333.4z"/>
<path id="XMLID_20_" fill="#6DBCFD" d="M155.4,639l-1.9,29.3c-0.1,1.3-1.2,2.3-2.5,2.2l0,0c-1.3-0.1-2.3-1.2-2.2-2.5l1.9-29.3
	c0.1-1.3,1.2-2.3,2.5-2.2l0,0C154.5,636.6,155.5,637.7,155.4,639z"/>
<path id="XMLID_19_" fill="#6DBCFD" d="M166.6,656.8l-29.3-1.9c-1.3-0.1-2.3-1.2-2.2-2.5l0,0c0.1-1.3,1.2-2.3,2.5-2.2l29.3,1.9
	c1.3,0.1,2.3,1.2,2.2,2.5l0,0C169,655.9,167.9,656.9,166.6,656.8z"/>
<path id="XMLID_18_" opacity="0.26" fill="#6DBCFD" d="M163.2,641.2l-1.9,29.3c-0.1,1.3-1.2,2.3-2.5,2.2l0,0
	c-1.3-0.1-2.3-1.2-2.2-2.5l1.9-29.3c0.1-1.3,1.2-2.3,2.5-2.2l0,0C162.3,638.8,163.2,639.9,163.2,641.2z"/>
<path id="XMLID_17_" opacity="0.26" fill="#6DBCFD" d="M174.4,659l-29.3-1.9c-1.3-0.1-2.3-1.2-2.2-2.5l0,0c0.1-1.3,1.2-2.3,2.5-2.2
	l29.3,1.9c1.3,0.1,2.3,1.2,2.2,2.5l0,0C176.8,658.1,175.7,659.1,174.4,659z"/>
<path id="XMLID_10_" fill="#6DBCFD" d="M396.6,62.8l-16.5,24.3c-0.7,1.1-2.2,1.3-3.2,0.6h0c-1.1-0.7-1.3-2.2-0.6-3.2l16.5-24.3
	c0.7-1.1,2.2-1.3,3.2-0.6v0C397,60.3,397.3,61.8,396.6,62.8z"/>
<path id="XMLID_9_" fill="#6DBCFD" d="M397.2,83.9l-24.3-16.5c-1.1-0.7-1.3-2.2-0.6-3.2v0c0.7-1.1,2.2-1.3,3.2-0.6L399.9,80
	c1.1,0.7,1.3,2.2,0.6,3.2l0,0C399.8,84.3,398.3,84.6,397.2,83.9z"/>
<path id="XMLID_8_" opacity="0.26" fill="#6DBCFD" d="M402.1,68.7L385.6,93c-0.7,1.1-2.2,1.3-3.2,0.6v0c-1.1-0.7-1.3-2.2-0.6-3.2
	l16.5-24.3c0.7-1.1,2.2-1.3,3.2-0.6l0,0C402.6,66.2,402.9,67.6,402.1,68.7z"/>
<path id="XMLID_7_" opacity="0.26" fill="#6DBCFD" d="M402.8,89.7l-24.3-16.5c-1.1-0.7-1.3-2.2-0.6-3.2l0,0c0.7-1.1,2.2-1.3,3.2-0.6
	l24.3,16.5c1.1,0.7,1.3,2.2,0.6,3.2v0C405.3,90.2,403.9,90.4,402.8,89.7z"/>
<circle id="XMLID_193_" opacity="0.27" fill="#6DBCFD" cx="270.1" cy="290.1" r="11"/>
<circle id="XMLID_22_" fill="none" stroke="#6DBCFD" stroke-width="4.2508" stroke-miterlimit="10" cx="90.3" cy="1016.1" r="11"/>
<circle id="XMLID_21_" opacity="0.27" fill="#6DBCFD" cx="95.9" cy="1022" r="11"/>
<circle id="XMLID_24_" fill="none" stroke="#6DBCFD" stroke-width="4.2508" stroke-miterlimit="10" cx="659.8" cy="793.1" r="11"/>
<circle id="XMLID_23_" opacity="0.27" fill="#6DBCFD" cx="665.4" cy="799" r="11"/>
<path id="XMLID_16_" fill="#6DBCFD" d="M107.3,447.8h62.3c2,0,3.6,1.6,3.6,3.6l0,0c0,2-1.6,3.6-3.6,3.6h-62.3c-2,0-3.6-1.6-3.6-3.6
	l0,0C103.7,449.4,105.3,447.8,107.3,447.8z"/>
<path id="XMLID_15_" fill="#6DBCFD" d="M70.2,447.8H87c2,0,3.6,1.6,3.6,3.6l0,0c0,2-1.6,3.6-3.6,3.6H70.2c-2,0-3.6-1.6-3.6-3.6l0,0
	C66.6,449.4,68.2,447.8,70.2,447.8z"/>
<path id="XMLID_14_" opacity="0.31" fill="#6DBCFD" d="M112.3,450.3h62.3c2,0,3.6,1.6,3.6,3.6l0,0c0,2-1.6,3.6-3.6,3.6h-62.3
	c-2,0-3.6-1.6-3.6-3.6l0,0C108.7,451.9,110.3,450.3,112.3,450.3z"/>
<path id="XMLID_13_" opacity="0.31" fill="#6DBCFD" d="M75.2,450.3H92c2,0,3.6,1.6,3.6,3.6l0,0c0,2-1.6,3.6-3.6,3.6H75.2
	c-2,0-3.6-1.6-3.6-3.6l0,0C71.6,451.9,73.2,450.3,75.2,450.3z"/>
<path id="XMLID_6_" fill="#6DBCFD" d="M461.8,731.4h62.3c2,0,3.6,1.6,3.6,3.6l0,0c0,2-1.6,3.6-3.6,3.6h-62.3c-2,0-3.6-1.6-3.6-3.6
	l0,0C458.2,733,459.8,731.4,461.8,731.4z"/>
<path id="XMLID_5_" fill="#6DBCFD" d="M424.7,731.4h16.9c2,0,3.6,1.6,3.6,3.6l0,0c0,2-1.6,3.6-3.6,3.6h-16.9c-2,0-3.6-1.6-3.6-3.6
	l0,0C421.1,733,422.7,731.4,424.7,731.4z"/>
<path id="XMLID_4_" opacity="0.31" fill="#6DBCFD" d="M466.8,733.9h62.3c2,0,3.6,1.6,3.6,3.6l0,0c0,2-1.6,3.6-3.6,3.6h-62.3
	c-2,0-3.6-1.6-3.6-3.6l0,0C463.2,735.5,464.8,733.9,466.8,733.9z"/>
<path id="XMLID_3_" opacity="0.31" fill="#6DBCFD" d="M429.7,733.9h16.9c2,0,3.6,1.6,3.6,3.6l0,0c0,2-1.6,3.6-3.6,3.6h-16.9
	c-2,0-3.6-1.6-3.6-3.6l0,0C426.1,735.5,427.7,733.9,429.7,733.9z"/>
<g>
	
		<circle fill="none" stroke="#6DBCFD" stroke-width="6" stroke-linecap="round" stroke-miterlimit="10" cx="405.2" cy="559.7" r="4.3"/>
	
		<circle fill="none" stroke="#6DBCFD" stroke-width="6" stroke-linecap="round" stroke-miterlimit="10" cx="374.4" cy="547" r="4.3"/>
	<path fill="none" stroke="#6DBCFD" stroke-width="6" stroke-linecap="round" stroke-miterlimit="10" d="M442.9,525.3l-7.1-2.9
		c-1.4-0.6-3.1-0.1-4,1.1l-16.4,22.7c-1,1.4-2.9,1.9-4.5,1.3l-31-12.8c-1.6-0.7-2.5-2.3-2.3-4l2.6-16.8c0.4-2.4,2.9-3.8,5.1-2.9
		l42.7,17.7"/>
	<polyline fill="none" stroke="#6DBCFD" stroke-width="6" stroke-linecap="round" stroke-miterlimit="10" points="419.1,541.1 
		408.1,556.3 376,543 	"/>
</g>
<g opacity="0.21">
	
		<circle fill="none" stroke="#6DBCFD" stroke-width="6" stroke-linecap="round" stroke-miterlimit="10" cx="408.2" cy="565.1" r="4.3"/>
	
		<circle fill="none" stroke="#6DBCFD" stroke-width="6" stroke-linecap="round" stroke-miterlimit="10" cx="377.4" cy="552.4" r="4.3"/>
	<path fill="none" stroke="#6DBCFD" stroke-width="6" stroke-linecap="round" stroke-miterlimit="10" d="M445.9,530.7l-7.1-2.9
		c-1.4-0.6-3.1-0.1-4,1.1l-16.4,22.7c-1,1.4-2.9,1.9-4.5,1.3L383,540c-1.6-0.7-2.5-2.3-2.3-4l2.6-16.8c0.4-2.4,2.9-3.8,5.1-2.9
		l42.7,17.7"/>
	<polyline fill="none" stroke="#6DBCFD" stroke-width="6" stroke-linecap="round" stroke-miterlimit="10" points="422.1,546.5 
		411.1,561.7 379,548.4 	"/>
</g>
<g>
	
		<circle fill="none" stroke="#6DBCFD" stroke-width="6" stroke-linecap="round" stroke-miterlimit="10" cx="652.4" cy="119.5" r="4.3"/>
	
		<circle fill="none" stroke="#6DBCFD" stroke-width="6" stroke-linecap="round" stroke-miterlimit="10" cx="621.6" cy="132.3" r="4.3"/>
	<path fill="none" stroke="#6DBCFD" stroke-width="6" stroke-linecap="round" stroke-miterlimit="10" d="M654.7,68.5l-7.1,2.9
		c-1.4,0.6-2.3,2.1-2,3.6l4.4,27.7c0.3,1.7-0.7,3.4-2.3,4.1l-31,12.9c-1.6,0.7-3.4,0.1-4.5-1.3l-10-13.8c-1.4-2-0.6-4.7,1.6-5.7
		l42.7-17.7"/>
	<polyline fill="none" stroke="#6DBCFD" stroke-width="6" stroke-linecap="round" stroke-miterlimit="10" points="649.1,96.6 
		652,115 619.9,128.4 	"/>
</g>
<g opacity="0.21">
	
		<circle fill="none" stroke="#6DBCFD" stroke-width="6" stroke-linecap="round" stroke-miterlimit="10" cx="658.3" cy="121.2" r="4.3"/>
	
		<circle fill="none" stroke="#6DBCFD" stroke-width="6" stroke-linecap="round" stroke-miterlimit="10" cx="627.5" cy="134" r="4.3"/>
	<path fill="none" stroke="#6DBCFD" stroke-width="6" stroke-linecap="round" stroke-miterlimit="10" d="M660.6,70.2l-7.1,2.9
		c-1.4,0.6-2.3,2.1-2,3.6l4.4,27.7c0.3,1.7-0.7,3.4-2.3,4.1l-31,12.9c-1.6,0.7-3.4,0.1-4.5-1.3l-10-13.8c-1.4-2-0.6-4.7,1.6-5.7
		l42.7-17.7"/>
	<polyline fill="none" stroke="#6DBCFD" stroke-width="6" stroke-linecap="round" stroke-miterlimit="10" points="655,98.3 
		657.9,116.7 625.9,130.1 	"/>
</g>
<g>
	
		<rect x="707.1" y="580.8" transform="matrix(0.996 -8.963899e-002 8.963899e-002 0.996 -50.8181 68.4309)" fill="none" width="58.7" height="38.5"/>
	
		<rect x="727.5" y="593" transform="matrix(0.996 -8.963899e-002 8.963899e-002 0.996 -51.3289 68.5044)" fill="none" width="19.1" height="25.4"/>
	<path fill="none" d="M703.6,566.5l58.9-4.6l8.7,12.7c0,0-3.5,17.9-17.4,5.5c0,0-3.2,6.2-8.9,7c-5.7,0.8-9.7-6.7-9.7-6.7
		s-3.1,7.6-8.4,7.8c-5.4,0.2-10.2-7-10.2-7s-2.2,9.5-8.7,9.2c-6.5-0.3-9.7-8.6-9.7-8.6L703.6,566.5z"/>
	
		<rect x="703.3" y="551.6" transform="matrix(0.996 -8.963899e-002 8.963899e-002 0.996 -47.045 67.9198)" fill="none" width="58.7" height="12.3"/>
	<path fill="none" d="M707.8,590.4c6.5,0.3,8.7-9.2,8.7-9.2s4.8,7.2,10.2,7c5.4-0.2,8.4-7.8,8.4-7.8s4,7.5,9.7,6.7
		c5.7-0.8,8.9-7,8.9-7c12.4,11.1,16.5-1.8,17.3-4.8l-73,6.6C698.1,581.8,701.3,590.1,707.8,590.4z"/>
	<g>
		<g>
			<g>
				<path fill="#6DBCFD" d="M708.9,592.3c-6.1,0.5-11.5-4.3-12.1-10.7c0-0.2,0-0.5,0.1-0.7l4.3-15c0.2-0.8,0.9-1.4,1.8-1.5l12.5-1.1
					c1.1-0.1,2.1,0.7,2.2,1.8l1.3,14.5C719.5,586.1,715,591.8,708.9,592.3z M700.8,581.6c0.5,4.1,3.9,7,7.7,6.7
					c3.9-0.3,6.7-4.1,6.3-8.3l-1.1-12.5l-9.1,0.8L700.8,581.6z"/>
			</g>
		</g>
		<g>
			<g>
				<path fill="#6DBCFD" d="M727,590.7c-6.1,0.5-11.5-4.3-12.1-10.7l-1.3-14.5c-0.1-1.1,0.7-2.1,1.8-2.2l18.1-1.6
					c1.1-0.1,2.1,0.7,2.2,1.8L737,578C737.5,584.5,733.1,590.2,727,590.7z M717.7,567.1l1.1,12.5c0.4,4.2,3.8,7.4,7.7,7.1
					c3.9-0.3,6.7-4.1,6.3-8.3l-1.1-12.5L717.7,567.1z"/>
			</g>
		</g>
		<g>
			<g>
				<path fill="#6DBCFD" d="M745.1,589.1c-6.1,0.5-11.5-4.3-12.1-10.7l-1.3-14.5c-0.1-1.1,0.7-2.1,1.8-2.2l18.1-1.6
					c1.1-0.1,2.1,0.7,2.2,1.8l1.3,14.5C755.6,582.8,751.2,588.5,745.1,589.1z M735.8,565.5L737,578c0.4,4.2,3.8,7.4,7.7,7.1
					c3.9-0.3,6.7-4.1,6.3-8.3l-1.1-12.5L735.8,565.5z"/>
			</g>
		</g>
		<g>
			<g>
				<path fill="#6DBCFD" d="M763.2,587.4c-6.1,0.5-11.5-4.3-12.1-10.7l-1.3-14.5c-0.1-1.1,0.7-2.1,1.8-2.2l11.7-1
					c0.8-0.1,1.6,0.3,1.9,1l7.8,13.9c0.1,0.2,0.2,0.5,0.2,0.8C773.7,581.2,769.3,586.9,763.2,587.4z M753.9,563.9l1.1,12.5
					c0.4,4.2,3.8,7.4,7.7,7.1c3.8-0.3,6.5-3.8,6.4-7.9l-6.9-12.4L753.9,563.9z"/>
			</g>
		</g>
	</g>
	<g>
		<path fill="#3E3B3A" d="M696.9,560.5"/>
	</g>
	<g>
		<path fill="#6DBCFD" d="M762.7,563.2l-58.9,5.3c-1.1,0.1-2.1-0.7-2.2-1.8l-1.1-12.5c-0.1-1.1,0.7-2.1,1.8-2.2l58.9-5.3
			c1.1-0.1,2.1,0.7,2.2,1.8l1.1,12.5C764.6,562.1,763.8,563.1,762.7,563.2z M705.4,564.3l54.9-4.9l-0.8-8.4l-54.9,4.9L705.4,564.3z"
			/>
	</g>
	<g>
		<path fill="#6DBCFD" d="M748,619.1l-19.8,1.8c-0.9,0.1-1.7-0.6-1.8-1.5l-2.1-23.3c-0.2-2.2,1.4-4.2,3.7-4.4l15-1.3
			c2.2-0.2,4.2,1.4,4.4,3.7l2.1,23.3C749.6,618.2,748.9,619,748,619.1z M729.5,617.5l16.6-1.5l-2-21.7c0-0.4-0.4-0.8-0.9-0.7
			l-15,1.3c-0.4,0-0.8,0.4-0.7,0.9L729.5,617.5z"/>
	</g>
	<g>
		<path fill="#6DBCFD" d="M762.9,585.4l2.6,29.1l-54.2,4.9l-2.6-29.1l-4.2,0.4l2.8,31.2c0.1,1.1,1.1,2,2.3,1.9l58.3-5.2
			c1.2-0.1,2-1.1,1.9-2.3l-2.8-31.2L762.9,585.4z"/>
	</g>
</g>
<g opacity="0.22">
	
		<rect x="703.4" y="585.2" transform="matrix(0.996 -8.963899e-002 8.963899e-002 0.996 -51.2279 68.1189)" fill="none" width="58.7" height="38.5"/>
	
		<rect x="723.8" y="597.4" transform="matrix(0.996 -8.963899e-002 8.963899e-002 0.996 -51.7387 68.1924)" fill="none" width="19.1" height="25.4"/>
	<path fill="none" d="M699.9,570.9l58.9-4.6l8.7,12.7c0,0-3.5,17.9-17.4,5.5c0,0-3.2,6.2-8.9,7c-5.7,0.8-9.7-6.7-9.7-6.7
		s-3.1,7.6-8.4,7.8c-5.4,0.2-10.2-7-10.2-7s-2.2,9.5-8.7,9.2c-6.5-0.3-9.7-8.6-9.7-8.6L699.9,570.9z"/>
	
		<rect x="699.6" y="556" transform="matrix(0.996 -8.963899e-002 8.963899e-002 0.996 -47.4548 67.6078)" fill="none" width="58.7" height="12.3"/>
	<path fill="none" d="M704.1,594.8c6.5,0.3,8.7-9.2,8.7-9.2s4.8,7.2,10.2,7c5.4-0.2,8.4-7.8,8.4-7.8s4,7.5,9.7,6.7
		c5.7-0.8,8.9-7,8.9-7c12.4,11.1,16.5-1.8,17.3-4.8l-73,6.6C694.4,586.2,697.6,594.5,704.1,594.8z"/>
	<g>
		<g>
			<g>
				<path fill="#6DBCFD" d="M705.2,596.7c-6.1,0.5-11.5-4.3-12.1-10.7c0-0.2,0-0.5,0.1-0.7l4.3-15c0.2-0.8,0.9-1.4,1.8-1.5l12.5-1.1
					c1.1-0.1,2.1,0.7,2.2,1.8l1.3,14.5C715.8,590.5,711.3,596.2,705.2,596.7z M697.1,586c0.5,4.1,3.9,7,7.7,6.7
					c3.9-0.3,6.7-4.1,6.3-8.3l-1.1-12.5l-9.1,0.8L697.1,586z"/>
			</g>
		</g>
		<g>
			<g>
				<path fill="#6DBCFD" d="M723.3,595.1c-6.1,0.5-11.5-4.3-12.1-10.7l-1.3-14.5c-0.1-1.1,0.7-2.1,1.8-2.2l18.1-1.6
					c1.1-0.1,2.1,0.7,2.2,1.8l1.3,14.5C733.9,588.9,729.4,594.6,723.3,595.1z M714.1,571.5l1.1,12.5c0.4,4.2,3.8,7.4,7.7,7.1
					c3.9-0.3,6.7-4.1,6.3-8.3l-1.1-12.5L714.1,571.5z"/>
			</g>
		</g>
		<g>
			<g>
				<path fill="#6DBCFD" d="M741.4,593.5c-6.1,0.5-11.5-4.3-12.1-10.7l-1.3-14.5c-0.1-1.1,0.7-2.1,1.8-2.2l18.1-1.6
					c1.1-0.1,2.1,0.7,2.2,1.8l1.3,14.5C752,587.2,747.5,592.9,741.4,593.5z M732.2,569.9l1.1,12.5c0.4,4.2,3.8,7.4,7.7,7.1
					c3.9-0.3,6.7-4.1,6.3-8.3l-1.1-12.5L732.2,569.9z"/>
			</g>
		</g>
		<g>
			<g>
				<path fill="#6DBCFD" d="M759.5,591.9c-6.1,0.5-11.5-4.3-12.1-10.7l-1.3-14.5c-0.1-1.1,0.7-2.1,1.8-2.2l11.7-1
					c0.8-0.1,1.6,0.3,1.9,1l7.8,13.9c0.1,0.2,0.2,0.5,0.2,0.8C770.1,585.6,765.6,591.3,759.5,591.9z M750.3,568.3l1.1,12.5
					c0.4,4.2,3.8,7.4,7.7,7.1c3.8-0.3,6.5-3.8,6.4-7.9l-6.9-12.4L750.3,568.3z"/>
			</g>
		</g>
	</g>
	<g>
		<path fill="#3E3B3A" d="M693.2,564.9"/>
	</g>
	<g>
		<path fill="#6DBCFD" d="M759,567.6l-58.9,5.3c-1.1,0.1-2.1-0.7-2.2-1.8l-1.1-12.5c-0.1-1.1,0.7-2.1,1.8-2.2l58.9-5.3
			c1.1-0.1,2.1,0.7,2.2,1.8l1.1,12.5C761,566.5,760.2,567.5,759,567.6z M701.7,568.7l54.9-4.9l-0.8-8.4l-54.9,4.9L701.7,568.7z"/>
	</g>
	<g>
		<path fill="#6DBCFD" d="M744.3,623.5l-19.8,1.8c-0.9,0.1-1.7-0.6-1.8-1.5l-2.1-23.3c-0.2-2.2,1.4-4.2,3.7-4.4l15-1.3
			c2.2-0.2,4.2,1.4,4.4,3.7l2.1,23.3C745.9,622.6,745.2,623.4,744.3,623.5z M725.9,621.9l16.6-1.5l-2-21.7c0-0.4-0.4-0.8-0.9-0.7
			l-15,1.3c-0.4,0-0.8,0.4-0.7,0.9L725.9,621.9z"/>
	</g>
	<g>
		<path fill="#6DBCFD" d="M759.2,589.8l2.6,29.1l-54.2,4.9l-2.6-29.1l-4.2,0.4l2.8,31.2c0.1,1.1,1.1,2,2.3,1.9l58.3-5.2
			c1.2-0.1,2-1.1,1.9-2.3l-2.8-31.2L759.2,589.8z"/>
	</g>
</g>
<g>
	
		<rect x="86.6" y="112.9" transform="matrix(0.7511 0.6602 -0.6602 0.7511 116.0858 -43.6677)" fill="none" width="58.7" height="38.5"/>
	
		<rect x="102.6" y="123.8" transform="matrix(0.7511 0.6602 -0.6602 0.7511 118.022 -40.1017)" fill="none" width="19.1" height="25.4"/>
	<path fill="none" d="M117.6,85.2l43.9,39.6l-3.2,15c0,0-15.4,9.8-16-8.9c0,0-6.7,2-11.2-1.6c-4.5-3.6-1.9-11.6-1.9-11.6
		s-7.6,3-11.4-0.7c-3.8-3.8-1.9-12.2-1.9-12.2s-8.4,5-12.7,0c-4.3-4.9-0.5-13-0.5-13L117.6,85.2z"/>
	
		<rect x="114.6" y="94.1" transform="matrix(0.7511 0.6602 -0.6602 0.7511 102.0176 -70.0977)" fill="none" width="58.7" height="12.3"/>
	<path fill="none" d="M103.2,104.7c4.3,4.9,12.7,0,12.7,0s-1.9,8.4,1.9,12.2c3.8,3.8,11.4,0.7,11.4,0.7s-2.7,8,1.9,11.6
		c4.5,3.6,11.2,1.6,11.2,1.6c0.5,16.6,12.7,10.7,15.4,9.2l-55-48.4C102.7,91.8,98.9,99.8,103.2,104.7z"/>
	<g>
		<g>
			<g>
				<path fill="#6DBCFD" d="M102.5,106.8c-4.6-4-4.9-11.3-0.6-16.2c0.2-0.2,0.4-0.3,0.6-0.5l13.9-7.2c0.7-0.4,1.6-0.3,2.3,0.3
					l9.4,8.3c0.8,0.7,0.9,2,0.2,2.9l-9.6,10.9C114.3,110.2,107.1,110.9,102.5,106.8z M104.7,93.6c-2.6,3.2-2.4,7.7,0.4,10.2
					c2.9,2.6,7.6,2.1,10.4-1.1l8.3-9.4l-6.8-6L104.7,93.6z"/>
			</g>
		</g>
		<g>
			<g>
				<path fill="#6DBCFD" d="M116.1,118.8c-4.6-4-4.9-11.3-0.6-16.2l9.6-10.9c0.7-0.8,2-0.9,2.9-0.2l13.6,12c0.8,0.7,0.9,2,0.2,2.9
					l-9.6,10.9C128,122.2,120.7,122.9,116.1,118.8z M126.9,95.9l-8.3,9.4c-2.8,3.2-2.7,7.9,0.2,10.5c2.9,2.6,7.6,2.1,10.4-1.1
					l8.3-9.4L126.9,95.9z"/>
			</g>
		</g>
		<g>
			<g>
				<path fill="#6DBCFD" d="M129.8,130.8c-4.6-4-4.9-11.3-0.6-16.2l9.6-10.9c0.7-0.8,2-0.9,2.9-0.2l13.6,12c0.8,0.7,0.9,2,0.2,2.9
					l-9.6,10.9C141.6,134.2,134.4,134.9,129.8,130.8z M140.5,107.9l-8.3,9.4c-2.8,3.2-2.7,7.9,0.2,10.5c2.9,2.6,7.6,2.1,10.4-1.1
					l8.3-9.4L140.5,107.9z"/>
			</g>
		</g>
		<g>
			<g>
				<path fill="#6DBCFD" d="M143.4,142.8c-4.6-4-4.9-11.3-0.6-16.2l9.6-10.9c0.7-0.8,2-0.9,2.9-0.2l8.8,7.7c0.6,0.5,0.8,1.4,0.6,2.1
					l-4.8,15.2c-0.1,0.3-0.2,0.5-0.4,0.7C155.3,146.2,148,146.9,143.4,142.8z M154.2,119.9l-8.3,9.4c-2.8,3.2-2.7,7.9,0.2,10.5
					c2.8,2.5,7.3,2.1,10.1-0.8l4.2-13.5L154.2,119.9z"/>
			</g>
		</g>
	</g>
	<g>
		<path fill="#3E3B3A" d="M117.3,76.2"/>
	</g>
	<g>
		<path fill="#6DBCFD" d="M160.7,125.8l-44.4-39.1c-0.8-0.7-0.9-2-0.2-2.9l8.3-9.4c0.7-0.8,2-0.9,2.9-0.2l44.4,39.1
			c0.8,0.7,0.9,2,0.2,2.9l-8.3,9.4C162.8,126.4,161.6,126.5,160.7,125.8z M120.5,85l41.4,36.4l5.6-6.4l-41.4-36.4L120.5,85z"/>
	</g>
	<g>
		<path fill="#6DBCFD" d="M110.1,153.7l-14.9-13.1c-0.7-0.6-0.7-1.6-0.1-2.3l15.5-17.6c1.5-1.7,4-1.8,5.7-0.4l11.3,9.9
			c1.7,1.5,1.8,4,0.4,5.7l-15.5,17.6C111.8,154.2,110.7,154.2,110.1,153.7z M98.5,139.2l12.5,11l14.4-16.4c0.3-0.3,0.3-0.8-0.1-1.1
			l-11.3-9.9c-0.3-0.3-0.8-0.3-1.1,0.1L98.5,139.2z"/>
	</g>
	<g>
		<path fill="#6DBCFD" d="M144.7,141.3l-19.3,21.9l-40.8-35.9l19.3-21.9l-3.1-2.8l-20.7,23.5c-0.8,0.9-0.7,2.2,0.2,3l44,38.7
			c0.9,0.8,2.2,0.7,3-0.2l20.7-23.5L144.7,141.3z"/>
	</g>
</g>
<g opacity="0.22">
	
		<rect x="80.9" y="113.2" transform="matrix(0.7511 0.6602 -0.6602 0.7511 114.9034 -39.7939)" fill="none" width="58.7" height="38.5"/>
	
		<rect x="96.9" y="124.1" transform="matrix(0.7511 0.6602 -0.6602 0.7511 116.8395 -36.2279)" fill="none" width="19.1" height="25.4"/>
	<path fill="none" d="M111.8,85.6l43.9,39.6l-3.2,15c0,0-15.4,9.8-16-8.9c0,0-6.7,2-11.2-1.6c-4.5-3.6-1.9-11.6-1.9-11.6
		s-7.6,3-11.4-0.7c-3.8-3.8-1.9-12.2-1.9-12.2s-8.4,5-12.7,0c-4.3-4.9-0.5-13-0.5-13L111.8,85.6z"/>
	
		<rect x="108.9" y="94.5" transform="matrix(0.7511 0.6602 -0.6602 0.7511 100.8351 -66.2239)" fill="none" width="58.7" height="12.3"/>
	<path fill="none" d="M97.5,105.1c4.3,4.9,12.7,0,12.7,0s-1.9,8.4,1.9,12.2c3.8,3.8,11.4,0.7,11.4,0.7s-2.7,8,1.9,11.6
		c4.5,3.6,11.2,1.6,11.2,1.6c0.5,16.6,12.7,10.7,15.4,9.2L97,92.1C97,92.1,93.2,100.2,97.5,105.1z"/>
	<g>
		<g>
			<g>
				<path fill="#6DBCFD" d="M96.8,107.2c-4.6-4-4.9-11.3-0.6-16.2c0.2-0.2,0.4-0.3,0.6-0.5l13.9-7.2c0.7-0.4,1.6-0.3,2.3,0.3
					l9.4,8.3c0.8,0.7,0.9,2,0.2,2.9l-9.6,10.9C108.6,110.6,101.4,111.2,96.8,107.2z M99,94c-2.6,3.2-2.4,7.7,0.4,10.2
					c2.9,2.6,7.6,2.1,10.4-1.1l8.3-9.4l-6.8-6L99,94z"/>
			</g>
		</g>
		<g>
			<g>
				<path fill="#6DBCFD" d="M110.4,119.2c-4.6-4-4.9-11.3-0.6-16.2l9.6-10.9c0.7-0.8,2-0.9,2.9-0.2l13.6,12c0.8,0.7,0.9,2,0.2,2.9
					l-9.6,10.9C122.2,122.6,115,123.2,110.4,119.2z M121.2,96.3l-8.3,9.4c-2.8,3.2-2.7,7.9,0.2,10.5c2.9,2.6,7.6,2.1,10.4-1.1
					l8.3-9.4L121.2,96.3z"/>
			</g>
		</g>
		<g>
			<g>
				<path fill="#6DBCFD" d="M124.1,131.2c-4.6-4-4.9-11.3-0.6-16.2l9.6-10.9c0.7-0.8,2-0.9,2.9-0.2l13.6,12c0.8,0.7,0.9,2,0.2,2.9
					l-9.6,10.9C135.9,134.6,128.7,135.2,124.1,131.2z M134.8,108.3l-8.3,9.4c-2.8,3.2-2.7,7.9,0.2,10.5c2.9,2.6,7.6,2.1,10.4-1.1
					l8.3-9.4L134.8,108.3z"/>
			</g>
		</g>
		<g>
			<g>
				<path fill="#6DBCFD" d="M137.7,143.2c-4.6-4-4.9-11.3-0.6-16.2l9.6-10.9c0.7-0.8,2-0.9,2.9-0.2l8.8,7.7c0.6,0.5,0.8,1.4,0.6,2.1
					l-4.8,15.2c-0.1,0.3-0.2,0.5-0.4,0.7C149.5,146.6,142.3,147.2,137.7,143.2z M148.5,120.3l-8.3,9.4c-2.8,3.2-2.7,7.9,0.2,10.5
					c2.8,2.5,7.3,2.1,10.1-0.8l4.2-13.5L148.5,120.3z"/>
			</g>
		</g>
	</g>
	<g>
		<path fill="#3E3B3A" d="M111.6,76.6"/>
	</g>
	<g>
		<path fill="#6DBCFD" d="M155,126.2l-44.4-39.1c-0.8-0.7-0.9-2-0.2-2.9l8.3-9.4c0.7-0.8,2-0.9,2.9-0.2l44.4,39.1
			c0.8,0.7,0.9,2,0.2,2.9l-8.3,9.4C157.1,126.8,155.8,126.9,155,126.2z M114.7,85.4l41.4,36.4l5.6-6.4L120.3,79L114.7,85.4z"/>
	</g>
	<g>
		<path fill="#6DBCFD" d="M104.3,154l-14.9-13.1c-0.7-0.6-0.7-1.6-0.1-2.3l15.5-17.6c1.5-1.7,4-1.8,5.7-0.4l11.3,9.9
			c1.7,1.5,1.8,4,0.4,5.7l-15.5,17.6C106,154.5,105,154.6,104.3,154z M92.8,139.5l12.5,11l14.4-16.4c0.3-0.3,0.3-0.8-0.1-1.1
			l-11.3-9.9c-0.3-0.3-0.8-0.3-1.1,0.1L92.8,139.5z"/>
	</g>
	<g>
		<path fill="#6DBCFD" d="M139,141.6l-19.3,21.9l-40.8-35.9l19.3-21.9L95,103l-20.7,23.5c-0.8,0.9-0.7,2.2,0.2,3l44,38.7
			c0.9,0.8,2.2,0.7,3-0.2l20.7-23.5L139,141.6z"/>
	</g>
</g>
<g>
	<polygon fill="none" points="501.5,990.7 534,1031.7 578,987.7 572.2,981.9 537.3,954.9 	"/>
	
		<rect x="520.7" y="997.8" transform="matrix(0.7071 -0.7071 0.7071 0.7071 -548.7943 685.248)" fill="none" width="64.2" height="14.5"/>
	<g>
		<path fill="#6DBCFD" d="M576.1,980.4L540.8,953c-2-1.5-4.8-1.4-6.6,0.4l-6.1,6.1l-3.6-3.6c-6.1-6.1-15.9-6.1-22-0.1
			c-6,6-6,15.9,0.1,22l3.6,3.6l-6.1,6.1c-1.8,1.8-2,4.6-0.4,6.6l27.4,35.3c0.1,0.2,0.3,0.3,0.4,0.5l3.3,3.3c2,2,5.1,2,7.1,0l42-42
			c2-2,2-5.1,0-7.1l-3.3-3.3C576.4,980.7,576.2,980.5,576.1,980.4z M506.1,974.2c-4.1-4.1-4.2-10.8-0.1-14.9
			c4.1-4.1,10.8-4,14.9,0.1l3.6,3.6l-14.8,14.8L506.1,974.2z M503.6,991l6.1-6.1l1.8,1.8l0.7,0.7l2.6,2.6l1.5,1.5l1.7,1.7
			c1,1,2.6,1,3.5,0c1-1,1-2.6,0-3.5l-1.6-1.6l-1.6-1.6l-2.6-2.6l-1-1l-1.5-1.5l14.8-14.8l1.1,1.1l1.4,1.4l2.6,2.6l2.1,2.1l1.1,1.1
			c1,1,2.6,1,3.5,0c1-1,1-2.6,0-3.5l-0.8-0.8l-2.3-2.3l-2.6-2.6l-1.4-1.4l-1.1-1.1l6.1-6.1l33.7,26.2l-2.1,2.1l-3.3,3.3l-6.3,6.3
			l-9.2,9.2l-20.8,20.8L503.6,991z M576.4,987.7l-42,42l-2.4-2.4l21-21l9.2-9.2l6.3-6.3l3.3-3.3l2.3-2.3L576.4,987.7z"/>
	</g>
</g>
<g opacity="0.49">
	<polygon fill="none" points="506.6,989.7 539.1,1030.7 583.1,986.7 577.3,980.9 542.4,953.9 	"/>
	
		<rect x="525.8" y="996.8" transform="matrix(0.7071 -0.7071 0.7071 0.7071 -546.5933 688.5605)" fill="none" width="64.2" height="14.5"/>
	<g>
		<path fill="#6DBCFD" d="M581.2,979.4L545.9,952c-2-1.5-4.8-1.4-6.6,0.4l-6.1,6.1l-3.6-3.6c-6.1-6.1-15.9-6.1-22-0.1
			c-6,6-6,15.9,0.1,22l3.6,3.6l-6.1,6.1c-1.8,1.8-2,4.6-0.4,6.6l27.4,35.3c0.1,0.2,0.3,0.3,0.4,0.5l3.3,3.3c2,2,5.1,2,7.1,0l42-42
			c2-2,2-5.1,0-7.1l-3.3-3.3C581.5,979.7,581.3,979.5,581.2,979.4z M511.2,973.2c-4.1-4.1-4.2-10.8-0.1-14.9
			c4.1-4.1,10.8-4,14.9,0.1l3.6,3.6l-14.8,14.8L511.2,973.2z M508.7,990l6.1-6.1l1.8,1.8l0.7,0.7l2.6,2.6l1.5,1.5l1.7,1.7
			c1,1,2.6,1,3.5,0c1-1,1-2.6,0-3.5L525,987l-1.6-1.6l-2.6-2.6l-1-1l-1.5-1.5l14.8-14.8l1.1,1.1l1.4,1.4l2.6,2.6l2.1,2.1l1.1,1.1
			c1,1,2.6,1,3.5,0c1-1,1-2.6,0-3.5l-0.8-0.8l-2.3-2.3l-2.6-2.6l-1.4-1.4l-1.1-1.1l6.1-6.1l33.7,26.2l-2.1,2.1l-3.3,3.3l-6.3,6.3
			l-9.2,9.2l-20.8,20.8L508.7,990z M581.5,986.7l-42,42l-2.4-2.4l21-21l9.2-9.2l6.3-6.3l3.3-3.3l2.3-2.3L581.5,986.7z"/>
	</g>
</g>
<g>
	<polygon fill="none" points="726.3,315.3 721.7,367.4 783.9,365.7 783.7,357.4 776.9,313.9 	"/>
	
		<rect x="721.6" y="353.7" transform="matrix(0.9996 -2.765352e-002 2.765352e-002 0.9996 -9.6941 20.9794)" fill="none" width="64.2" height="14.5"/>
	<g>
		<path fill="#6DBCFD" d="M787.6,359.1l-6.8-44.2c-0.4-2.5-2.6-4.3-5.1-4.2l-8.6,0.2l-0.1-5.1c-0.2-8.6-7.4-15.4-15.9-15.2
			c-8.5,0.2-15.3,7.4-15.1,16l0.1,5.1l-8.6,0.2c-2.5,0.1-4.6,2-4.8,4.5l-4.4,44.5c0,0.2,0,0.4,0,0.6l0.1,4.7
			c0.1,2.8,2.4,4.9,5.1,4.9l59.4-1.6c2.8-0.1,4.9-2.4,4.9-5.1l-0.1-4.7C787.6,359.5,787.6,359.3,787.6,359.1z M740.9,306.5
			c-0.2-5.8,4.4-10.7,10.2-10.9c5.8-0.2,10.6,4.5,10.8,10.3l0.1,5.1l-21,0.6L740.9,306.5z M727.6,317l8.6-0.2l0.1,2.6l0,0.9l0.1,3.6
			l0.1,2.1l0.1,2.3c0,1.4,1.2,2.5,2.6,2.4c1.4,0,2.5-1.2,2.4-2.6l-0.1-2.2l-0.1-2.2l-0.1-3.6l0-1.4l-0.1-2.2l21-0.6l0,1.5l0.1,2
			l0.1,3.6l0.1,2.9l0,1.5c0,1.4,1.2,2.5,2.6,2.4c1.4,0,2.5-1.2,2.4-2.6l0-1.2l-0.1-3.3l-0.1-3.6l-0.1-2l0-1.5l8.6-0.2l6.5,42.2
			l-3,0.1l-4.6,0.1l-8.9,0.2l-13,0.4l-29.4,0.8L727.6,317z M782.7,364.5l-59.4,1.6l-0.1-3.4L753,362l13-0.4l8.9-0.2l4.6-0.1l3.2-0.1
			L782.7,364.5z"/>
	</g>
</g>
<g opacity="0.49">
	<polygon fill="none" points="730.7,318.1 726.1,370.2 788.3,368.5 788.1,360.2 781.2,316.7 	"/>
	
		<rect x="725.9" y="356.5" transform="matrix(0.9996 -2.765352e-002 2.765352e-002 0.9996 -9.7692 21.1019)" fill="none" width="64.2" height="14.5"/>
	<g>
		<path fill="#6DBCFD" d="M792,361.8l-6.8-44.2c-0.4-2.5-2.6-4.3-5.1-4.2l-8.6,0.2l-0.1-5.1c-0.2-8.6-7.4-15.4-15.9-15.2
			c-8.5,0.2-15.3,7.4-15.1,16l0.1,5.1l-8.6,0.2c-2.5,0.1-4.6,2-4.8,4.5l-4.4,44.5c0,0.2,0,0.4,0,0.6l0.1,4.7
			c0.1,2.8,2.4,4.9,5.1,4.9l59.4-1.6c2.8-0.1,4.9-2.4,4.9-5.1l-0.1-4.7C792,362.3,792,362,792,361.8z M745.3,309.3
			c-0.2-5.8,4.4-10.7,10.2-10.9c5.8-0.2,10.6,4.5,10.8,10.3l0.1,5.1l-21,0.6L745.3,309.3z M732,319.7l8.6-0.2l0.1,2.6l0,0.9l0.1,3.6
			l0.1,2.1l0.1,2.3c0,1.4,1.2,2.5,2.6,2.4c1.4,0,2.5-1.2,2.4-2.6l-0.1-2.2l-0.1-2.2l-0.1-3.6l0-1.4l-0.1-2.2l21-0.6l0,1.5l0.1,2
			l0.1,3.6l0.1,2.9l0,1.5c0,1.4,1.2,2.5,2.6,2.4c1.4,0,2.5-1.2,2.4-2.6l0-1.2l-0.1-3.3l-0.1-3.6l-0.1-2l0-1.5l8.6-0.2l6.5,42.2
			l-3,0.1l-4.6,0.1l-8.9,0.2l-13,0.4l-29.4,0.8L732,319.7z M787.1,367.3l-59.4,1.6l-0.1-3.4l29.7-0.8l13-0.4l8.9-0.2l4.6-0.1
			l3.2-0.1L787.1,367.3z"/>
	</g>
</g>
<g>
	
		<rect x="860.1" y="911.3" transform="matrix(0.7071 0.7071 -0.7071 0.7071 925.6324 -358.7445)" fill="none" width="71.5" height="53.3"/>
	
		<rect x="876.2" y="918" transform="matrix(0.7071 0.7071 -0.7071 0.7071 918.9825 -374.7988)" fill="none" width="71.5" height="7.9"/>
	
		<rect x="885.4" y="911.4" transform="matrix(0.7071 0.7071 -0.7071 0.7071 926.4193 -358.1341)" fill="none" width="20.3" height="55.6"/>
	
		<rect x="908.4" y="912.2" transform="matrix(-0.7071 0.7071 -0.7071 -0.7071 2209.7234 929.4357)" fill="none" width="7.9" height="20.3"/>
	
		<rect x="881.5" y="903.2" transform="matrix(0.7071 0.7071 -0.7071 0.7071 915.8542 -384.2601)" fill="none" width="80.6" height="20.3"/>
	
		<rect x="910" y="904.2" transform="matrix(0.7071 0.7071 -0.7071 0.7071 915.1562 -385.326)" fill="none" width="25.4" height="15.7"/>
	<g>
		<g>
			<path fill="#6DBCFD" d="M943.1,949.1l-57.5-57.5c-1-1-1-2.6,0-3.6l12.6-12.6c1-1,2.6-1,3.6,0l57.5,57.5c1,1,1,2.6,0,3.6
				l-12.6,12.6C945.7,950.1,944.1,950.1,943.1,949.1z M891,889.8l53.9,53.9l9-9L900,880.9L891,889.8z"/>
		</g>
		<g>
			<path fill="#6DBCFD" d="M900,985l-50.3-50.3c-1-1-1-2.6,0-3.6l39.5-39.5c1-1,2.6-1,3.6,0l50.3,50.3c1,1,1,2.6,0,3.6L903.6,985
				C902.6,986,901,986,900,985z M855.1,932.9l46.7,46.7l35.9-35.9L891,897L855.1,932.9z"/>
		</g>
		<g>
			<path fill="#6DBCFD" d="M926.9,907.8l-6.3-6.3c-5.9-5.9-3.2-12.9,0-16.2c4.5-4.5,11.7-4.5,16.2,0c4.5,4.5,4.5,11.7,0,16.2
				l-6.3,6.3C929.5,908.8,927.9,908.8,926.9,907.8z M933.2,888.9c-2.5-2.5-6.5-2.5-9,0c0,0-1.2,1.3-1.8,3.1
				c-0.7,2.1-0.1,4.1,1.8,5.9l4.5,4.5l4.5-4.5C935.7,895.4,935.7,891.4,933.2,888.9z"/>
		</g>
		<g>
			<path fill="#6DBCFD" d="M933.2,914.1l-6.3-6.3c-1-1-1-2.6,0-3.6l6.3-6.3c4.5-4.5,11.7-4.5,16.2,0c4.5,4.5,4.5,11.7,0,16.2
				C946.1,917.3,939.2,920,933.2,914.1z M932.3,906l4.5,4.5c1.9,1.9,3.9,2.5,6,1.7c1.7-0.6,2.9-1.7,2.9-1.7c2.5-2.5,2.5-6.5,0-9
				c-2.5-2.5-6.5-2.5-9,0L932.3,906z"/>
		</g>
		<g>
			<path fill="#6DBCFD" d="M906.2,910.6c-0.6-0.6-0.6-1.4,0-2l12.6-12.6c0.6-0.6,1.4-0.6,2,0c0.6,0.6,0.6,1.4,0,2l-12.6,12.6
				C907.6,911.1,906.7,911.1,906.2,910.6z"/>
		</g>
		<g>
			<path fill="#3E3B3A" d="M935.9,913.2"/>
		</g>
		<g>
			<path fill="#6DBCFD" d="M924.1,928.5c-0.6-0.6-0.6-1.4,0-2l12.6-12.6c0.6-0.6,1.4-0.6,2,0c0.6,0.6,0.6,1.4,0,2l-12.6,12.6
				C925.6,929.1,924.7,929.1,924.1,928.5z"/>
		</g>
		<g>
			<path fill="#6DBCFD" d="M870.3,950.1c-0.6-0.6-0.6-1.4,0-2l37.7-37.7c0.6-0.6,1.4-0.6,2,0c0.6,0.6,0.6,1.4,0,2l-37.7,37.7
				C871.7,950.6,870.8,950.6,870.3,950.1z"/>
		</g>
		<g>
			<path fill="#6DBCFD" d="M869.3,949.1c-0.6-0.6-0.6-1.4,0-2l37.7-37.7c0.6-0.6,1.4-0.6,2,0c0.6,0.6,0.6,1.4,0,2l-37.7,37.7
				C870.7,949.6,869.8,949.6,869.3,949.1z"/>
		</g>
		<g>
			<path fill="#6DBCFD" d="M853.2,933c-0.6-0.6-0.6-1.4,0-2l37.7-37.7c0.6-0.6,1.4-0.6,2,0c0.6,0.6,0.6,1.4,0,2L855.2,933
				C854.6,933.5,853.7,933.5,853.2,933z"/>
		</g>
		<g>
			<path fill="#6DBCFD" d="M851.5,931.3c-0.6-0.6-0.6-1.4,0-2l37.7-37.7c0.6-0.6,1.4-0.6,2,0c0.6,0.6,0.6,1.4,0,2l-37.7,37.7
				C853,931.9,852.1,931.9,851.5,931.3z"/>
		</g>
		<g>
			<path fill="#6DBCFD" d="M870.3,950.1c-0.6-0.6-0.6-1.4,0-2l37.7-37.7c0.6-0.6,1.4-0.6,2,0c0.6,0.6,0.6,1.4,0,2l-37.7,37.7
				C871.7,950.7,870.8,950.7,870.3,950.1z"/>
		</g>
		<g>
			<path fill="#6DBCFD" d="M868.7,948.5c-0.6-0.6-0.6-1.4,0-2l37.7-37.7c0.6-0.6,1.4-0.6,2,0c0.6,0.6,0.6,1.4,0,2l-37.7,37.7
				C870.1,949,869.2,949,868.7,948.5z"/>
		</g>
		<g>
			<path fill="#6DBCFD" d="M919.4,895.3L906,908.7c-0.6,0.6-0.6,1.4,0,2c0.6,0.6,1.4,0.6,2,0l13.4-13.4L919.4,895.3z"/>
		</g>
		<g>
			<path fill="#6DBCFD" d="M917.8,893.7l-13.4,13.4c-0.6,0.6-0.6,1.4,0,2c0.6,0.6,1.4,0.6,2,0l13.4-13.4L917.8,893.7z"/>
		</g>
		<g>
			<path fill="#6DBCFD" d="M939,914.9l-13.4,13.4c-0.6,0.6-0.6,1.4,0,2c0.6,0.6,1.4,0.6,2,0l13.4-13.4L939,914.9z"/>
		</g>
		<g>
			<path fill="#6DBCFD" d="M937.4,913.3L924,926.7c-0.6,0.6-0.6,1.4,0,2c0.6,0.6,1.4,0.6,2,0l13.4-13.4L937.4,913.3z"/>
		</g>
		<g>
			<path fill="#6DBCFD" d="M886.3,966.1c-0.6-0.6-0.6-1.4,0-2l37.7-37.7c0.6-0.6,1.4-0.6,2,0c0.6,0.6,0.6,1.4,0,2l-37.7,37.7
				C887.7,966.6,886.8,966.6,886.3,966.1z"/>
		</g>
		<g>
			<path fill="#6DBCFD" d="M884.6,964.4c-0.6-0.6-0.6-1.4,0-2l37.7-37.7c0.6-0.6,1.4-0.6,2,0c0.6,0.6,0.6,1.4,0,2l-37.7,37.7
				C886.1,965,885.2,965,884.6,964.4z"/>
		</g>
		<g>
			<path fill="#6DBCFD" d="M884.6,964.5c-0.6-0.6-0.6-1.4,0-2l37.7-37.7c0.6-0.6,1.4-0.6,2,0c0.6,0.6,0.6,1.4,0,2l-37.7,37.7
				C886.1,965,885.2,965,884.6,964.5z"/>
		</g>
	</g>
</g>
<g opacity="0.51">
	
		<rect x="860.1" y="918" transform="matrix(0.7071 0.7071 -0.7071 0.7071 930.381 -356.763)" fill="none" width="71.5" height="53.3"/>
	
		<rect x="876.1" y="924.7" transform="matrix(0.7071 0.7071 -0.7071 0.7071 923.7311 -372.8173)" fill="none" width="71.5" height="7.9"/>
	
		<rect x="885.3" y="918.2" transform="matrix(0.7071 0.7071 -0.7071 0.7071 931.168 -356.1526)" fill="none" width="20.3" height="55.6"/>
	
		<rect x="908.4" y="918.9" transform="matrix(-0.7071 0.7071 -0.7071 -0.7071 2214.447 940.9246)" fill="none" width="7.9" height="20.3"/>
	
		<rect x="881.4" y="910" transform="matrix(0.7071 0.7071 -0.7071 0.7071 920.6028 -382.2786)" fill="none" width="80.6" height="20.3"/>
	
		<rect x="910" y="910.9" transform="matrix(0.7071 0.7071 -0.7071 0.7071 919.9048 -383.3445)" fill="none" width="25.4" height="15.7"/>
	<g>
		<g>
			<path fill="#6DBCFD" d="M943.1,955.8l-57.5-57.5c-1-1-1-2.6,0-3.6l12.6-12.6c1-1,2.6-1,3.6,0l57.5,57.5c1,1,1,2.6,0,3.6
				l-12.6,12.6C945.7,956.8,944.1,956.8,943.1,955.8z M891,896.6l53.9,53.9l9-9L900,887.6L891,896.6z"/>
		</g>
		<g>
			<path fill="#6DBCFD" d="M900,991.7l-50.3-50.3c-1-1-1-2.6,0-3.6l39.5-39.5c1-1,2.6-1,3.6,0l50.3,50.3c1,1,1,2.6,0,3.6l-39.5,39.5
				C902.6,992.7,901,992.7,900,991.7z M855.1,939.7l46.7,46.7l35.9-35.9L891,903.7L855.1,939.7z"/>
		</g>
		<g>
			<path fill="#6DBCFD" d="M926.9,914.5l-6.3-6.3c-5.9-5.9-3.2-12.9,0-16.2c4.5-4.5,11.7-4.5,16.2,0c4.5,4.5,4.5,11.7,0,16.2
				l-6.3,6.3C929.5,915.5,927.9,915.5,926.9,914.5z M933.2,895.7c-2.5-2.5-6.5-2.5-9,0c0,0-1.2,1.3-1.8,3.1
				c-0.7,2.1-0.1,4.1,1.8,5.9l4.5,4.5l4.5-4.5C935.7,902.2,935.7,898.1,933.2,895.7z"/>
		</g>
		<g>
			<path fill="#6DBCFD" d="M933.2,920.8l-6.3-6.3c-1-1-1-2.6,0-3.6l6.3-6.3c4.5-4.5,11.7-4.5,16.2,0c4.5,4.5,4.5,11.7,0,16.2
				C946.1,924.1,939.1,926.7,933.2,920.8z M932.3,912.7l4.5,4.5c1.9,1.9,3.9,2.5,6,1.7c1.7-0.6,2.9-1.7,2.9-1.7c2.5-2.5,2.5-6.5,0-9
				c-2.5-2.5-6.5-2.5-9,0L932.3,912.7z"/>
		</g>
		<g>
			<path fill="#6DBCFD" d="M906.2,917.3c-0.6-0.6-0.6-1.4,0-2l12.6-12.6c0.6-0.6,1.4-0.6,2,0c0.6,0.6,0.6,1.4,0,2l-12.6,12.6
				C907.6,917.9,906.7,917.9,906.2,917.3z"/>
		</g>
		<g>
			<path fill="#3E3B3A" d="M935.9,919.9"/>
		</g>
		<g>
			<path fill="#6DBCFD" d="M924.1,935.3c-0.6-0.6-0.6-1.4,0-2l12.6-12.6c0.6-0.6,1.4-0.6,2,0c0.6,0.6,0.6,1.4,0,2l-12.6,12.6
				C925.6,935.8,924.7,935.8,924.1,935.3z"/>
		</g>
		<g>
			<path fill="#6DBCFD" d="M870.3,956.8c-0.6-0.6-0.6-1.4,0-2l37.7-37.7c0.6-0.6,1.4-0.6,2,0c0.6,0.6,0.6,1.4,0,2l-37.7,37.7
				C871.7,957.4,870.8,957.4,870.3,956.8z"/>
		</g>
		<g>
			<path fill="#6DBCFD" d="M869.3,955.8c-0.6-0.6-0.6-1.4,0-2l37.7-37.7c0.6-0.6,1.4-0.6,2,0c0.6,0.6,0.6,1.4,0,2l-37.7,37.7
				C870.7,956.4,869.8,956.4,869.3,955.8z"/>
		</g>
		<g>
			<path fill="#6DBCFD" d="M853.1,939.7c-0.6-0.6-0.6-1.4,0-2l37.7-37.7c0.6-0.6,1.4-0.6,2,0c0.6,0.6,0.6,1.4,0,2l-37.7,37.7
				C854.6,940.2,853.7,940.2,853.1,939.7z"/>
		</g>
		<g>
			<path fill="#6DBCFD" d="M851.5,938.1c-0.6-0.6-0.6-1.4,0-2l37.7-37.7c0.6-0.6,1.4-0.6,2,0c0.6,0.6,0.6,1.4,0,2l-37.7,37.7
				C853,938.6,852.1,938.6,851.5,938.1z"/>
		</g>
		<g>
			<path fill="#6DBCFD" d="M870.3,956.8c-0.6-0.6-0.6-1.4,0-2l37.7-37.7c0.6-0.6,1.4-0.6,2,0c0.6,0.6,0.6,1.4,0,2l-37.7,37.7
				C871.7,957.4,870.8,957.4,870.3,956.8z"/>
		</g>
		<g>
			<path fill="#6DBCFD" d="M868.6,955.2c-0.6-0.6-0.6-1.4,0-2l37.7-37.7c0.6-0.6,1.4-0.6,2,0c0.6,0.6,0.6,1.4,0,2l-37.7,37.7
				C870.1,955.8,869.2,955.8,868.6,955.2z"/>
		</g>
		<g>
			<path fill="#6DBCFD" d="M919.4,902.1L906,915.5c-0.6,0.6-0.6,1.4,0,2c0.6,0.6,1.4,0.6,2,0l13.4-13.4L919.4,902.1z"/>
		</g>
		<g>
			<path fill="#6DBCFD" d="M917.8,900.4l-13.4,13.4c-0.6,0.6-0.6,1.4,0,2c0.6,0.6,1.4,0.6,2,0l13.4-13.4L917.8,900.4z"/>
		</g>
		<g>
			<path fill="#6DBCFD" d="M939,921.7l-13.4,13.4c-0.6,0.6-0.6,1.4,0,2c0.6,0.6,1.4,0.6,2,0l13.4-13.4L939,921.7z"/>
		</g>
		<g>
			<path fill="#6DBCFD" d="M937.4,920L924,933.4c-0.6,0.6-0.6,1.4,0,2c0.6,0.6,1.4,0.6,2,0l13.4-13.4L937.4,920z"/>
		</g>
		<g>
			<path fill="#6DBCFD" d="M886.2,972.8c-0.6-0.6-0.6-1.4,0-2l37.7-37.7c0.6-0.6,1.4-0.6,2,0c0.6,0.6,0.6,1.4,0,2l-37.7,37.7
				C887.7,973.3,886.8,973.3,886.2,972.8z"/>
		</g>
		<g>
			<path fill="#6DBCFD" d="M884.6,971.2c-0.6-0.6-0.6-1.4,0-2l37.7-37.7c0.6-0.6,1.4-0.6,2,0c0.6,0.6,0.6,1.4,0,2l-37.7,37.7
				C886.1,971.7,885.2,971.7,884.6,971.2z"/>
		</g>
		<g>
			<path fill="#6DBCFD" d="M884.6,971.2c-0.6-0.6-0.6-1.4,0-2l37.7-37.7c0.6-0.6,1.4-0.6,2,0c0.6,0.6,0.6,1.4,0,2l-37.7,37.7
				C886.1,971.7,885.2,971.7,884.6,971.2z"/>
		</g>
	</g>
</g>
<g>
	
		<rect x="206.7" y="852.9" transform="matrix(0.7071 -0.7071 0.7071 0.7071 -547.4123 415.1873)" fill="none" width="41.5" height="30.9"/>
	
		<rect x="197.4" y="856.8" transform="matrix(0.7071 -0.7071 0.7071 0.7071 -543.5554 405.876)" fill="none" width="41.5" height="4.6"/>
	
		<rect x="222.3" y="852.5" transform="matrix(0.7071 -0.7071 0.7071 0.7071 -547.3399 415.7604)" fill="none" width="11.8" height="32.2"/>
	
		<rect x="216.1" y="852.9" transform="matrix(0.7071 0.7071 -0.7071 0.7071 671.2399 97.0897)" fill="none" width="4.6" height="11.8"/>
	
		<rect x="189.8" y="847.5" transform="matrix(0.7071 -0.7071 0.7071 0.7071 -540.9582 400.7129)" fill="none" width="46.8" height="11.8"/>
	
		<rect x="205.1" y="848.3" transform="matrix(0.7071 -0.7071 0.7071 0.7071 -540.8073 399.9894)" fill="none" width="14.7" height="9.1"/>
	<g>
		<g>
			<path fill="#6DBCFD" d="M233.9,841l-33.3,33.3c-0.6,0.6-1.5,0.6-2.1,0l-7.3-7.3c-0.6-0.6-0.6-1.5,0-2.1l33.3-33.3
				c0.6-0.6,1.5-0.6,2.1,0l7.3,7.3C234.5,839.5,234.5,840.4,233.9,841z M199.6,871.2l31.2-31.2l-5.2-5.2L194.4,866L199.6,871.2z"/>
		</g>
		<g>
			<path fill="#6DBCFD" d="M254.8,866l-29.2,29.2c-0.6,0.6-1.5,0.6-2.1,0l-22.9-22.9c-0.6-0.6-0.6-1.5,0-2.1l29.2-29.2
				c0.6-0.6,1.5-0.6,2.1,0l22.9,22.9C255.3,864.5,255.3,865.4,254.8,866z M224.6,892l27.1-27.1l-20.8-20.8l-27.1,27.1L224.6,892z"/>
		</g>
		<g>
			<path fill="#6DBCFD" d="M210,850.4l-3.6,3.6c-3.4,3.4-7.5,1.9-9.4,0c-2.6-2.6-2.6-6.8,0-9.4c2.6-2.6,6.8-2.6,9.4,0l3.6,3.6
				C210.5,848.8,210.5,849.8,210,850.4z M199,846.7c-1.4,1.4-1.4,3.8,0,5.2c0,0,0.7,0.7,1.8,1c1.2,0.4,2.3,0,3.4-1l2.6-2.6l-2.6-2.6
				C202.8,845.3,200.5,845.3,199,846.7z"/>
		</g>
		<g>
			<path fill="#6DBCFD" d="M213.6,846.7l-3.6,3.6c-0.6,0.6-1.5,0.6-2.1,0l-3.6-3.6c-2.6-2.6-2.6-6.8,0-9.4c2.6-2.6,6.8-2.6,9.4,0
				C215.5,839.2,217.1,843.3,213.6,846.7z M208.9,847.2l2.6-2.6c1.1-1.1,1.4-2.2,1-3.5c-0.3-1-1-1.7-1-1.7c-1.4-1.4-3.8-1.4-5.2,0
				c-1.4,1.4-1.4,3.8,0,5.2L208.9,847.2z"/>
		</g>
		<g>
			<path fill="#6DBCFD" d="M211.6,862.4c-0.3,0.3-0.8,0.3-1.2,0l-7.3-7.3c-0.3-0.3-0.3-0.8,0-1.2c0.3-0.3,0.8-0.3,1.2,0l7.3,7.3
				C211.9,861.5,211.9,862.1,211.6,862.4z"/>
		</g>
		<g>
			<path fill="#3E3B3A" d="M213.1,845.1"/>
		</g>
		<g>
			<path fill="#6DBCFD" d="M222,852c-0.3,0.3-0.8,0.3-1.2,0l-7.3-7.3c-0.3-0.3-0.3-0.8,0-1.2c0.3-0.3,0.8-0.3,1.2,0l7.3,7.3
				C222.3,851.1,222.3,851.7,222,852z"/>
		</g>
		<g>
			<path fill="#6DBCFD" d="M234.5,883.2c-0.3,0.3-0.8,0.3-1.2,0l-21.9-21.9c-0.3-0.3-0.3-0.8,0-1.2c0.3-0.3,0.8-0.3,1.2,0l21.9,21.9
				C234.8,882.4,234.8,882.9,234.5,883.2z"/>
		</g>
		<g>
			<path fill="#6DBCFD" d="M233.9,883.8c-0.3,0.3-0.8,0.3-1.2,0l-21.9-21.9c-0.3-0.3-0.3-0.8,0-1.2c0.3-0.3,0.8-0.3,1.2,0l21.9,21.9
				C234.2,883,234.2,883.5,233.9,883.8z"/>
		</g>
		<g>
			<path fill="#6DBCFD" d="M224.6,893.1c-0.3,0.3-0.8,0.3-1.2,0l-21.9-21.9c-0.3-0.3-0.3-0.8,0-1.2c0.3-0.3,0.8-0.3,1.2,0l21.9,21.9
				C224.9,892.3,224.9,892.8,224.6,893.1z"/>
		</g>
		<g>
			<path fill="#6DBCFD" d="M223.6,894.1c-0.3,0.3-0.8,0.3-1.2,0l-21.9-21.9c-0.3-0.3-0.3-0.8,0-1.2c0.3-0.3,0.8-0.3,1.2,0l21.9,21.9
				C223.9,893.3,223.9,893.8,223.6,894.1z"/>
		</g>
		<g>
			<path fill="#6DBCFD" d="M234.5,883.2c-0.3,0.3-0.8,0.3-1.2,0l-21.9-21.9c-0.3-0.3-0.3-0.8,0-1.2c0.3-0.3,0.8-0.3,1.2,0l21.9,21.9
				C234.8,882.4,234.8,882.9,234.5,883.2z"/>
		</g>
		<g>
			<path fill="#6DBCFD" d="M233.6,884.1c-0.3,0.3-0.8,0.3-1.2,0l-21.9-21.9c-0.3-0.3-0.3-0.8,0-1.2c0.3-0.3,0.8-0.3,1.2,0l21.9,21.9
				C233.9,883.3,233.9,883.8,233.6,884.1z"/>
		</g>
		<g>
			<path fill="#6DBCFD" d="M202.7,854.7l7.8,7.8c0.3,0.3,0.8,0.3,1.2,0c0.3-0.3,0.3-0.8,0-1.2l-7.8-7.8L202.7,854.7z"/>
		</g>
		<g>
			<path fill="#6DBCFD" d="M201.8,855.6l7.8,7.8c0.3,0.3,0.8,0.3,1.2,0c0.3-0.3,0.3-0.8,0-1.2l-7.8-7.8L201.8,855.6z"/>
		</g>
		<g>
			<path fill="#6DBCFD" d="M214.1,843.3l7.8,7.8c0.3,0.3,0.8,0.3,1.2,0c0.3-0.3,0.3-0.8,0-1.2l-7.8-7.8L214.1,843.3z"/>
		</g>
		<g>
			<path fill="#6DBCFD" d="M213.2,844.3l7.8,7.8c0.3,0.3,0.8,0.3,1.2,0c0.3-0.3,0.3-0.8,0-1.2l-7.8-7.8L213.2,844.3z"/>
		</g>
		<g>
			<path fill="#6DBCFD" d="M243.8,873.9c-0.3,0.3-0.8,0.3-1.2,0l-21.9-21.9c-0.3-0.3-0.3-0.8,0-1.2c0.3-0.3,0.8-0.3,1.2,0l21.9,21.9
				C244.1,873.1,244.1,873.6,243.8,873.9z"/>
		</g>
		<g>
			<path fill="#6DBCFD" d="M242.8,874.9c-0.3,0.3-0.8,0.3-1.2,0L219.8,853c-0.3-0.3-0.3-0.8,0-1.2c0.3-0.3,0.8-0.3,1.2,0l21.9,21.9
				C243.1,874.1,243.1,874.6,242.8,874.9z"/>
		</g>
		<g>
			<path fill="#6DBCFD" d="M242.8,874.9c-0.3,0.3-0.8,0.3-1.2,0L219.8,853c-0.3-0.3-0.3-0.8,0-1.2c0.3-0.3,0.8-0.3,1.2,0l21.9,21.9
				C243.2,874,243.2,874.6,242.8,874.9z"/>
		</g>
	</g>
</g>
<g opacity="0.51">
	
		<rect x="210.6" y="852.9" transform="matrix(0.7071 -0.7071 0.7071 0.7071 -546.2775 417.9474)" fill="none" width="41.5" height="30.9"/>
	
		<rect x="201.3" y="856.8" transform="matrix(0.7071 -0.7071 0.7071 0.7071 -542.4206 408.6361)" fill="none" width="41.5" height="4.6"/>
	
		<rect x="226.2" y="852.5" transform="matrix(0.7071 -0.7071 0.7071 0.7071 -546.2051 418.5204)" fill="none" width="11.8" height="32.2"/>
	
		<rect x="220" y="852.9" transform="matrix(0.7071 0.7071 -0.7071 0.7071 672.3892 94.3355)" fill="none" width="4.6" height="11.8"/>
	
		<rect x="193.7" y="847.5" transform="matrix(0.7071 -0.7071 0.7071 0.7071 -539.8234 403.473)" fill="none" width="46.8" height="11.8"/>
	
		<rect x="209" y="848.3" transform="matrix(0.7071 -0.7071 0.7071 0.7071 -539.6725 402.7495)" fill="none" width="14.7" height="9.1"/>
	<g>
		<g>
			<path fill="#6DBCFD" d="M237.8,841l-33.3,33.3c-0.6,0.6-1.5,0.6-2.1,0l-7.3-7.3c-0.6-0.6-0.6-1.5,0-2.1l33.3-33.3
				c0.6-0.6,1.5-0.6,2.1,0l7.3,7.3C238.4,839.5,238.4,840.4,237.8,841z M203.5,871.2l31.2-31.2l-5.2-5.2L198.3,866L203.5,871.2z"/>
		</g>
		<g>
			<path fill="#6DBCFD" d="M258.7,866l-29.2,29.2c-0.6,0.6-1.5,0.6-2.1,0l-22.9-22.9c-0.6-0.6-0.6-1.5,0-2.1l29.2-29.2
				c0.6-0.6,1.5-0.6,2.1,0l22.9,22.9C259.2,864.5,259.2,865.4,258.7,866z M228.5,892l27.1-27.1l-20.8-20.8l-27.1,27.1L228.5,892z"/>
		</g>
		<g>
			<path fill="#6DBCFD" d="M213.9,850.4l-3.6,3.6c-3.4,3.4-7.5,1.9-9.4,0c-2.6-2.6-2.6-6.8,0-9.4c2.6-2.6,6.8-2.6,9.4,0l3.6,3.6
				C214.4,848.9,214.4,849.8,213.9,850.4z M202.9,846.7c-1.4,1.4-1.4,3.8,0,5.2c0,0,0.7,0.7,1.8,1c1.2,0.4,2.3,0,3.4-1l2.6-2.6
				l-2.6-2.6C206.7,845.3,204.4,845.3,202.9,846.7z"/>
		</g>
		<g>
			<path fill="#6DBCFD" d="M217.5,846.7l-3.6,3.6c-0.6,0.6-1.5,0.6-2.1,0l-3.6-3.6c-2.6-2.6-2.6-6.8,0-9.4c2.6-2.6,6.8-2.6,9.4,0
				C219.4,839.2,221,843.3,217.5,846.7z M212.8,847.2l2.6-2.6c1.1-1.1,1.4-2.2,1-3.5c-0.3-1-1-1.7-1-1.7c-1.4-1.4-3.8-1.4-5.2,0
				c-1.4,1.4-1.4,3.8,0,5.2L212.8,847.2z"/>
		</g>
		<g>
			<path fill="#6DBCFD" d="M215.5,862.4c-0.3,0.3-0.8,0.3-1.2,0l-7.3-7.3c-0.3-0.3-0.3-0.8,0-1.2c0.3-0.3,0.8-0.3,1.2,0l7.3,7.3
				C215.8,861.6,215.8,862.1,215.5,862.4z"/>
		</g>
		<g>
			<path fill="#3E3B3A" d="M217,845.2"/>
		</g>
		<g>
			<path fill="#6DBCFD" d="M225.9,852c-0.3,0.3-0.8,0.3-1.2,0l-7.3-7.3c-0.3-0.3-0.3-0.8,0-1.2c0.3-0.3,0.8-0.3,1.2,0l7.3,7.3
				C226.2,851.1,226.2,851.7,225.9,852z"/>
		</g>
		<g>
			<path fill="#6DBCFD" d="M238.4,883.2c-0.3,0.3-0.8,0.3-1.2,0l-21.9-21.9c-0.3-0.3-0.3-0.8,0-1.2c0.3-0.3,0.8-0.3,1.2,0l21.9,21.9
				C238.7,882.4,238.7,882.9,238.4,883.2z"/>
		</g>
		<g>
			<path fill="#6DBCFD" d="M237.8,883.8c-0.3,0.3-0.8,0.3-1.2,0l-21.9-21.9c-0.3-0.3-0.3-0.8,0-1.2c0.3-0.3,0.8-0.3,1.2,0l21.9,21.9
				C238.1,883,238.1,883.5,237.8,883.8z"/>
		</g>
		<g>
			<path fill="#6DBCFD" d="M228.5,893.2c-0.3,0.3-0.8,0.3-1.2,0l-21.9-21.9c-0.3-0.3-0.3-0.8,0-1.2c0.3-0.3,0.8-0.3,1.2,0l21.9,21.9
				C228.8,892.3,228.8,892.8,228.5,893.2z"/>
		</g>
		<g>
			<path fill="#6DBCFD" d="M227.5,894.1c-0.3,0.3-0.8,0.3-1.2,0l-21.9-21.9c-0.3-0.3-0.3-0.8,0-1.2c0.3-0.3,0.8-0.3,1.2,0l21.9,21.9
				C227.8,893.3,227.8,893.8,227.5,894.1z"/>
		</g>
		<g>
			<path fill="#6DBCFD" d="M238.4,883.2c-0.3,0.3-0.8,0.3-1.2,0l-21.9-21.9c-0.3-0.3-0.3-0.8,0-1.2c0.3-0.3,0.8-0.3,1.2,0l21.9,21.9
				C238.7,882.4,238.7,882.9,238.4,883.2z"/>
		</g>
		<g>
			<path fill="#6DBCFD" d="M237.5,884.2c-0.3,0.3-0.8,0.3-1.2,0l-21.9-21.9c-0.3-0.3-0.3-0.8,0-1.2c0.3-0.3,0.8-0.3,1.2,0l21.9,21.9
				C237.8,883.3,237.8,883.8,237.5,884.2z"/>
		</g>
		<g>
			<path fill="#6DBCFD" d="M206.6,854.7l7.8,7.8c0.3,0.3,0.8,0.3,1.2,0c0.3-0.3,0.3-0.8,0-1.2l-7.8-7.8L206.6,854.7z"/>
		</g>
		<g>
			<path fill="#6DBCFD" d="M205.7,855.7l7.8,7.8c0.3,0.3,0.8,0.3,1.2,0c0.3-0.3,0.3-0.8,0-1.2l-7.8-7.8L205.7,855.7z"/>
		</g>
		<g>
			<path fill="#6DBCFD" d="M218,843.4l7.8,7.8c0.3,0.3,0.8,0.3,1.2,0c0.3-0.3,0.3-0.8,0-1.2l-7.8-7.8L218,843.4z"/>
		</g>
		<g>
			<path fill="#6DBCFD" d="M217.1,844.3l7.8,7.8c0.3,0.3,0.8,0.3,1.2,0c0.3-0.3,0.3-0.8,0-1.2l-7.8-7.8L217.1,844.3z"/>
		</g>
		<g>
			<path fill="#6DBCFD" d="M247.7,874c-0.3,0.3-0.8,0.3-1.2,0l-21.9-21.9c-0.3-0.3-0.3-0.8,0-1.2c0.3-0.3,0.8-0.3,1.2,0l21.9,21.9
				C248,873.1,248,873.6,247.7,874z"/>
		</g>
		<g>
			<path fill="#6DBCFD" d="M246.7,874.9c-0.3,0.3-0.8,0.3-1.2,0L223.7,853c-0.3-0.3-0.3-0.8,0-1.2c0.3-0.3,0.8-0.3,1.2,0l21.9,21.9
				C247,874.1,247,874.6,246.7,874.9z"/>
		</g>
		<g>
			<path fill="#6DBCFD" d="M246.7,874.9c-0.3,0.3-0.8,0.3-1.2,0L223.7,853c-0.3-0.3-0.3-0.8,0-1.2c0.3-0.3,0.8-0.3,1.2,0l21.9,21.9
				C247.1,874.1,247.1,874.6,246.7,874.9z"/>
		</g>
	</g>
</g>
<path id="XMLID_50_" fill="#6DBCFD" d="M1654.3,307.3l-16.5,24.3c-0.7,1.1-2.2,1.3-3.2,0.6l0,0c-1.1-0.7-1.3-2.2-0.6-3.2l16.5-24.3
	c0.7-1.1,2.2-1.3,3.2-0.6v0C1654.8,304.8,1655.1,306.2,1654.3,307.3z"/>
<path id="XMLID_49_" fill="#6DBCFD" d="M1655,328.3l-24.3-16.5c-1.1-0.7-1.3-2.2-0.6-3.2l0,0c0.7-1.1,2.2-1.3,3.2-0.6l24.3,16.5
	c1.1,0.7,1.3,2.2,0.6,3.2l0,0C1657.6,328.8,1656.1,329.1,1655,328.3z"/>
<circle id="XMLID_48_" fill="none" stroke="#6DBCFD" stroke-width="4.2508" stroke-miterlimit="10" cx="1404.9" cy="285" r="11"/>
<path id="XMLID_47_" opacity="0.26" fill="#6DBCFD" d="M1659.9,313.2l-16.5,24.3c-0.7,1.1-2.2,1.3-3.2,0.6l0,0
	c-1.1-0.7-1.3-2.2-0.6-3.2l16.5-24.3c0.7-1.1,2.2-1.3,3.2-0.6l0,0C1660.4,310.7,1660.7,312.1,1659.9,313.2z"/>
<path id="XMLID_46_" opacity="0.26" fill="#6DBCFD" d="M1660.6,334.2l-24.3-16.5c-1.1-0.7-1.3-2.2-0.6-3.2l0,0
	c0.7-1.1,2.2-1.3,3.2-0.6l24.3,16.5c1.1,0.7,1.3,2.2,0.6,3.2l0,0C1663.1,334.6,1661.7,334.9,1660.6,334.2z"/>
<path id="XMLID_45_" fill="#6DBCFD" d="M1295.7,639.8l-1.9,29.3c-0.1,1.3-1.2,2.3-2.5,2.2h0c-1.3-0.1-2.3-1.2-2.2-2.5l1.9-29.3
	c0.1-1.3,1.2-2.3,2.5-2.2l0,0C1294.8,637.4,1295.8,638.5,1295.7,639.8z"/>
<path id="XMLID_44_" fill="#6DBCFD" d="M1307,657.6l-29.3-1.9c-1.3-0.1-2.3-1.2-2.2-2.5l0,0c0.1-1.3,1.2-2.3,2.5-2.2l29.3,1.9
	c1.3,0.1,2.3,1.2,2.2,2.5l0,0C1309.4,656.7,1308.3,657.6,1307,657.6z"/>
<path id="XMLID_43_" opacity="0.26" fill="#6DBCFD" d="M1303.5,642l-1.9,29.3c-0.1,1.3-1.2,2.3-2.5,2.2l0,0
	c-1.3-0.1-2.3-1.2-2.2-2.5l1.9-29.3c0.1-1.3,1.2-2.3,2.5-2.2h0C1302.6,639.6,1303.6,640.7,1303.5,642z"/>
<path id="XMLID_42_" opacity="0.26" fill="#6DBCFD" d="M1314.8,659.8l-29.3-1.9c-1.3-0.1-2.3-1.2-2.2-2.5l0,0
	c0.1-1.3,1.2-2.3,2.5-2.2l29.3,1.9c1.3,0.1,2.3,1.2,2.2,2.5l0,0C1317.2,658.9,1316.1,659.8,1314.8,659.8z"/>
<path id="XMLID_41_" fill="#6DBCFD" d="M1536.9,63.6L1520.4,88c-0.7,1.1-2.2,1.3-3.2,0.6v0c-1.1-0.7-1.3-2.2-0.6-3.2l16.5-24.3
	c0.7-1.1,2.2-1.3,3.2-0.6v0C1537.4,61.1,1537.6,62.5,1536.9,63.6z"/>
<path id="XMLID_40_" fill="#6DBCFD" d="M1537.6,84.6l-24.3-16.5c-1.1-0.7-1.3-2.2-0.6-3.2l0,0c0.7-1.1,2.2-1.3,3.2-0.6l24.3,16.5
	c1.1,0.7,1.3,2.2,0.6,3.2v0C1540.1,85.1,1538.7,85.4,1537.6,84.6z"/>
<path id="XMLID_39_" opacity="0.26" fill="#6DBCFD" d="M1542.5,69.5L1526,93.8c-0.7,1.1-2.2,1.3-3.2,0.6l0,0
	c-1.1-0.7-1.3-2.2-0.6-3.2l16.5-24.3c0.7-1.1,2.2-1.3,3.2-0.6l0,0C1542.9,67,1543.2,68.4,1542.5,69.5z"/>
<path id="XMLID_38_" opacity="0.26" fill="#6DBCFD" d="M1543.2,90.5L1518.9,74c-1.1-0.7-1.3-2.2-0.6-3.2v0c0.7-1.1,2.2-1.3,3.2-0.6
	l24.3,16.5c1.1,0.7,1.3,2.2,0.6,3.2l0,0C1545.7,90.9,1544.3,91.2,1543.2,90.5z"/>
<circle id="XMLID_37_" opacity="0.27" fill="#6DBCFD" cx="1410.5" cy="290.8" r="11"/>
<circle id="XMLID_36_" fill="none" stroke="#6DBCFD" stroke-width="4.2508" stroke-miterlimit="10" cx="967.6" cy="70.8" r="11"/>
<circle id="XMLID_35_" opacity="0.27" fill="#6DBCFD" cx="973.2" cy="76.6" r="11"/>
<circle id="XMLID_34_" fill="none" stroke="#6DBCFD" stroke-width="4.2508" stroke-miterlimit="10" cx="1230.7" cy="1016.9" r="11"/>
<circle id="XMLID_33_" opacity="0.27" fill="#6DBCFD" cx="1236.3" cy="1022.8" r="11"/>
<circle id="XMLID_32_" fill="none" stroke="#6DBCFD" stroke-width="4.2508" stroke-miterlimit="10" cx="1800.2" cy="793.9" r="11"/>
<circle id="XMLID_31_" opacity="0.27" fill="#6DBCFD" cx="1805.8" cy="799.8" r="11"/>
<path id="XMLID_30_" fill="#6DBCFD" d="M1247.6,448.6h62.3c2,0,3.6,1.6,3.6,3.6l0,0c0,2-1.6,3.6-3.6,3.6h-62.3c-2,0-3.6-1.6-3.6-3.6
	l0,0C1244,450.2,1245.6,448.6,1247.6,448.6z"/>
<path id="XMLID_29_" fill="#6DBCFD" d="M1210.5,448.6h16.9c2,0,3.6,1.6,3.6,3.6l0,0c0,2-1.6,3.6-3.6,3.6h-16.9c-2,0-3.6-1.6-3.6-3.6
	l0,0C1206.9,450.2,1208.5,448.6,1210.5,448.6z"/>
<path id="XMLID_28_" opacity="0.31" fill="#6DBCFD" d="M1252.6,451.1h62.3c2,0,3.6,1.6,3.6,3.6l0,0c0,2-1.6,3.6-3.6,3.6h-62.3
	c-2,0-3.6-1.6-3.6-3.6l0,0C1249,452.7,1250.6,451.1,1252.6,451.1z"/>
<path id="XMLID_27_" opacity="0.31" fill="#6DBCFD" d="M1215.5,451.1h16.9c2,0,3.6,1.6,3.6,3.6l0,0c0,2-1.6,3.6-3.6,3.6h-16.9
	c-2,0-3.6-1.6-3.6-3.6l0,0C1211.9,452.7,1213.5,451.1,1215.5,451.1z"/>
<path id="XMLID_26_" fill="#6DBCFD" d="M1602.2,732.2h62.3c2,0,3.6,1.6,3.6,3.6l0,0c0,2-1.6,3.6-3.6,3.6h-62.3c-2,0-3.6-1.6-3.6-3.6
	l0,0C1598.6,733.8,1600.2,732.2,1602.2,732.2z"/>
<path id="XMLID_25_" fill="#6DBCFD" d="M1565.1,732.2h16.9c2,0,3.6,1.6,3.6,3.6l0,0c0,2-1.6,3.6-3.6,3.6h-16.9c-2,0-3.6-1.6-3.6-3.6
	l0,0C1561.5,733.8,1563.1,732.2,1565.1,732.2z"/>
<path id="XMLID_2_" opacity="0.31" fill="#6DBCFD" d="M1607.2,734.7h62.3c2,0,3.6,1.6,3.6,3.6l0,0c0,2-1.6,3.6-3.6,3.6h-62.3
	c-2,0-3.6-1.6-3.6-3.6l0,0C1603.6,736.3,1605.2,734.7,1607.2,734.7z"/>
<path id="XMLID_1_" opacity="0.31" fill="#6DBCFD" d="M1570.1,734.7h16.9c2,0,3.6,1.6,3.6,3.6l0,0c0,2-1.6,3.6-3.6,3.6h-16.9
	c-2,0-3.6-1.6-3.6-3.6l0,0C1566.5,736.3,1568.1,734.7,1570.1,734.7z"/>
<g>
	
		<circle fill="none" stroke="#6DBCFD" stroke-width="6" stroke-linecap="round" stroke-miterlimit="10" cx="1545.6" cy="560.5" r="4.3"/>
	
		<circle fill="none" stroke="#6DBCFD" stroke-width="6" stroke-linecap="round" stroke-miterlimit="10" cx="1514.7" cy="547.8" r="4.3"/>
	<path fill="none" stroke="#6DBCFD" stroke-width="6" stroke-linecap="round" stroke-miterlimit="10" d="M1583.3,526.1l-7.1-2.9
		c-1.4-0.6-3.1-0.1-4,1.1l-16.4,22.7c-1,1.4-2.9,1.9-4.5,1.3l-31-12.8c-1.6-0.7-2.5-2.3-2.3-4l2.6-16.8c0.4-2.4,2.9-3.8,5.1-2.9
		l42.7,17.7"/>
	<polyline fill="none" stroke="#6DBCFD" stroke-width="6" stroke-linecap="round" stroke-miterlimit="10" points="1559.4,541.9 
		1548.4,557.1 1516.4,543.8 	"/>
</g>
<g opacity="0.21">
	
		<circle fill="none" stroke="#6DBCFD" stroke-width="6" stroke-linecap="round" stroke-miterlimit="10" cx="1548.6" cy="565.9" r="4.3"/>
	
		<circle fill="none" stroke="#6DBCFD" stroke-width="6" stroke-linecap="round" stroke-miterlimit="10" cx="1517.7" cy="553.2" r="4.3"/>
	<path fill="none" stroke="#6DBCFD" stroke-width="6" stroke-linecap="round" stroke-miterlimit="10" d="M1586.3,531.5l-7.1-2.9
		c-1.4-0.6-3.1-0.1-4,1.1l-16.4,22.7c-1,1.4-2.9,1.9-4.5,1.3l-31-12.8c-1.6-0.7-2.5-2.3-2.3-4l2.6-16.8c0.4-2.4,2.9-3.8,5.1-2.9
		l42.7,17.7"/>
	<polyline fill="none" stroke="#6DBCFD" stroke-width="6" stroke-linecap="round" stroke-miterlimit="10" points="1562.4,547.3 
		1551.4,562.5 1519.4,549.2 	"/>
</g>
<g>
	
		<circle fill="none" stroke="#6DBCFD" stroke-width="6" stroke-linecap="round" stroke-miterlimit="10" cx="1016.6" cy="258.1" r="4.3"/>
	
		<circle fill="none" stroke="#6DBCFD" stroke-width="6" stroke-linecap="round" stroke-miterlimit="10" cx="983.2" cy="257.5" r="4.3"/>
	<path fill="none" stroke="#6DBCFD" stroke-width="6" stroke-linecap="round" stroke-miterlimit="10" d="M1039,212.2l-7.7-0.1
		c-1.5,0-2.9,1-3.3,2.5l-7,27.1c-0.4,1.7-2,2.8-3.7,2.8l-33.5-0.5c-1.7,0-3.2-1.2-3.6-2.9l-3.7-16.6c-0.5-2.4,1.3-4.6,3.7-4.6
		l46.2,0.7"/>
	<polyline fill="none" stroke="#6DBCFD" stroke-width="6" stroke-linecap="round" stroke-miterlimit="10" points="1022.6,235.7 
		1018,253.8 983.3,253.3 	"/>
</g>
<g opacity="0.21">
	
		<circle fill="none" stroke="#6DBCFD" stroke-width="6" stroke-linecap="round" stroke-miterlimit="10" cx="1021.3" cy="262" r="4.3"/>
	
		<circle fill="none" stroke="#6DBCFD" stroke-width="6" stroke-linecap="round" stroke-miterlimit="10" cx="988" cy="261.5" r="4.3"/>
	<path fill="none" stroke="#6DBCFD" stroke-width="6" stroke-linecap="round" stroke-miterlimit="10" d="M1043.7,216.1l-7.7-0.1
		c-1.5,0-2.9,1-3.3,2.5l-7,27.1c-0.4,1.7-2,2.8-3.7,2.8l-33.5-0.5c-1.7,0-3.2-1.2-3.6-2.9l-3.7-16.6c-0.5-2.4,1.3-4.6,3.7-4.6
		l46.2,0.7"/>
	<polyline fill="none" stroke="#6DBCFD" stroke-width="6" stroke-linecap="round" stroke-miterlimit="10" points="1027.4,239.6 
		1022.7,257.7 988,257.2 	"/>
</g>
<g>
	
		<circle fill="none" stroke="#6DBCFD" stroke-width="6" stroke-linecap="round" stroke-miterlimit="10" cx="1792.8" cy="120.3" r="4.3"/>
	
		<circle fill="none" stroke="#6DBCFD" stroke-width="6" stroke-linecap="round" stroke-miterlimit="10" cx="1761.9" cy="133.1" r="4.3"/>
	<path fill="none" stroke="#6DBCFD" stroke-width="6" stroke-linecap="round" stroke-miterlimit="10" d="M1795.1,69.3l-7.1,2.9
		c-1.4,0.6-2.3,2.1-2,3.6l4.4,27.7c0.3,1.7-0.7,3.4-2.3,4.1l-31,12.9c-1.6,0.7-3.4,0.1-4.5-1.3l-10-13.8c-1.4-2-0.6-4.7,1.6-5.7
		L1787,82"/>
	<polyline fill="none" stroke="#6DBCFD" stroke-width="6" stroke-linecap="round" stroke-miterlimit="10" points="1789.4,97.4 
		1792.3,115.8 1760.3,129.1 	"/>
</g>
<g opacity="0.21">
	
		<circle fill="none" stroke="#6DBCFD" stroke-width="6" stroke-linecap="round" stroke-miterlimit="10" cx="1798.7" cy="122" r="4.3"/>
	
		<circle fill="none" stroke="#6DBCFD" stroke-width="6" stroke-linecap="round" stroke-miterlimit="10" cx="1767.9" cy="134.8" r="4.3"/>
	<path fill="none" stroke="#6DBCFD" stroke-width="6" stroke-linecap="round" stroke-miterlimit="10" d="M1801,71l-7.1,2.9
		c-1.4,0.6-2.3,2.1-2,3.6l4.4,27.7c0.3,1.7-0.7,3.4-2.3,4.1l-31,12.9c-1.6,0.7-3.4,0.1-4.5-1.3l-10-13.8c-1.4-2-0.6-4.7,1.6-5.7
		l42.7-17.7"/>
	<polyline fill="none" stroke="#6DBCFD" stroke-width="6" stroke-linecap="round" stroke-miterlimit="10" points="1795.3,99.1 
		1798.3,117.5 1766.2,130.8 	"/>
</g>
<g>
	
		<rect x="1847.5" y="581.5" transform="matrix(0.996 -8.963899e-002 8.963899e-002 0.996 -46.2978 170.6546)" fill="none" width="58.7" height="38.5"/>
	
		<rect x="1867.8" y="593.8" transform="matrix(0.996 -8.963899e-002 8.963899e-002 0.996 -46.8085 170.7281)" fill="none" width="19.1" height="25.4"/>
	<path fill="none" d="M1843.9,567.3l58.9-4.6l8.7,12.7c0,0-3.5,17.9-17.4,5.5c0,0-3.2,6.2-8.9,7c-5.7,0.8-9.7-6.7-9.7-6.7
		s-3.1,7.6-8.4,7.8c-5.4,0.2-10.2-7-10.2-7s-2.2,9.5-8.7,9.2c-6.5-0.3-9.7-8.6-9.7-8.6L1843.9,567.3z"/>
	
		<rect x="1843.7" y="552.4" transform="matrix(0.996 -8.963899e-002 8.963899e-002 0.996 -42.5246 170.1435)" fill="none" width="58.7" height="12.3"/>
	<path fill="none" d="M1848.2,591.2c6.5,0.3,8.7-9.2,8.7-9.2s4.8,7.2,10.2,7c5.4-0.2,8.4-7.8,8.4-7.8s4,7.5,9.7,6.7
		c5.7-0.8,8.9-7,8.9-7c12.4,11.1,16.5-1.8,17.3-4.8l-73,6.6C1838.4,582.6,1841.7,590.9,1848.2,591.2z"/>
	<g>
		<g>
			<g>
				<path fill="#6DBCFD" d="M1849.2,593.1c-6.1,0.5-11.5-4.3-12.1-10.7c0-0.2,0-0.5,0.1-0.7l4.3-15c0.2-0.8,0.9-1.4,1.8-1.5
					l12.5-1.1c1.1-0.1,2.1,0.7,2.2,1.8l1.3,14.5C1859.8,586.9,1855.3,592.6,1849.2,593.1z M1841.2,582.4c0.5,4.1,3.9,7,7.7,6.7
					c3.9-0.3,6.7-4.1,6.3-8.3l-1.1-12.5l-9.1,0.8L1841.2,582.4z"/>
			</g>
		</g>
		<g>
			<g>
				<path fill="#6DBCFD" d="M1867.3,591.5c-6.1,0.5-11.5-4.3-12.1-10.7l-1.3-14.5c-0.1-1.1,0.7-2.1,1.8-2.2l18.1-1.6
					c1.1-0.1,2.1,0.7,2.2,1.8l1.3,14.5C1877.9,585.2,1873.4,590.9,1867.3,591.5z M1858.1,567.9l1.1,12.5c0.4,4.2,3.8,7.4,7.7,7.1
					c3.9-0.3,6.7-4.1,6.3-8.3l-1.1-12.5L1858.1,567.9z"/>
			</g>
		</g>
		<g>
			<g>
				<path fill="#6DBCFD" d="M1885.4,589.9c-6.1,0.5-11.5-4.3-12.1-10.7l-1.3-14.5c-0.1-1.1,0.7-2.1,1.8-2.2l18.1-1.6
					c1.1-0.1,2.1,0.7,2.2,1.8l1.3,14.5C1896,583.6,1891.5,589.3,1885.4,589.9z M1876.2,566.3l1.1,12.5c0.4,4.2,3.8,7.4,7.7,7.1
					c3.9-0.3,6.7-4.1,6.3-8.3l-1.1-12.5L1876.2,566.3z"/>
			</g>
		</g>
		<g>
			<g>
				<path fill="#6DBCFD" d="M1903.5,588.2c-6.1,0.5-11.5-4.3-12.1-10.7l-1.3-14.5c-0.1-1.1,0.7-2.1,1.8-2.2l11.7-1
					c0.8-0.1,1.6,0.3,1.9,1l7.8,13.9c0.1,0.2,0.2,0.5,0.2,0.8C1914.1,582,1909.6,587.7,1903.5,588.2z M1894.3,564.7l1.1,12.5
					c0.4,4.2,3.8,7.4,7.7,7.1c3.8-0.3,6.5-3.8,6.4-7.9l-6.9-12.4L1894.3,564.7z"/>
			</g>
		</g>
	</g>
	<g>
		<path fill="#3E3B3A" d="M1837.2,561.3"/>
	</g>
	<g>
		<path fill="#6DBCFD" d="M1903.1,564l-58.9,5.3c-1.1,0.1-2.1-0.7-2.2-1.8l-1.1-12.5c-0.1-1.1,0.7-2.1,1.8-2.2l58.9-5.3
			c1.1-0.1,2.1,0.7,2.2,1.8l1.1,12.5C1905,562.9,1904.2,563.9,1903.1,564z M1845.8,565.1l54.9-4.9l-0.8-8.4l-54.9,4.9L1845.8,565.1z
			"/>
	</g>
	<g>
		<path fill="#6DBCFD" d="M1888.4,619.9l-19.8,1.8c-0.9,0.1-1.7-0.6-1.8-1.5l-2.1-23.3c-0.2-2.2,1.4-4.2,3.7-4.4l15-1.3
			c2.2-0.2,4.2,1.4,4.4,3.7l2.1,23.3C1889.9,619,1889.3,619.8,1888.4,619.9z M1869.9,618.3l16.6-1.5l-2-21.7c0-0.4-0.4-0.8-0.9-0.7
			l-15,1.3c-0.4,0-0.8,0.4-0.7,0.9L1869.9,618.3z"/>
	</g>
	<g>
		<path fill="#6DBCFD" d="M1903.3,586.2l2.6,29.1l-54.2,4.9l-2.6-29.1l-4.2,0.4l2.8,31.2c0.1,1.1,1.1,2,2.3,1.9l58.3-5.2
			c1.2-0.1,2-1.1,1.9-2.3l-2.8-31.2L1903.3,586.2z"/>
	</g>
</g>
<g opacity="0.22">
	
		<rect x="1843.8" y="586" transform="matrix(0.996 -8.963899e-002 8.963899e-002 0.996 -46.7076 170.3426)" fill="none" width="58.7" height="38.5"/>
	
		<rect x="1864.1" y="598.2" transform="matrix(0.996 -8.963899e-002 8.963899e-002 0.996 -47.2183 170.4161)" fill="none" width="19.1" height="25.4"/>
	<path fill="none" d="M1840.3,571.7l58.9-4.6l8.7,12.7c0,0-3.5,17.9-17.4,5.5c0,0-3.2,6.2-8.9,7c-5.7,0.8-9.7-6.7-9.7-6.7
		s-3.1,7.6-8.4,7.8c-5.4,0.2-10.2-7-10.2-7s-2.2,9.5-8.7,9.2c-6.5-0.3-9.7-8.6-9.7-8.6L1840.3,571.7z"/>
	
		<rect x="1840" y="556.8" transform="matrix(0.996 -8.963899e-002 8.963899e-002 0.996 -42.9344 169.8315)" fill="none" width="58.7" height="12.3"/>
	<path fill="none" d="M1844.5,595.6c6.5,0.3,8.7-9.2,8.7-9.2s4.8,7.2,10.2,7c5.4-0.2,8.4-7.8,8.4-7.8s4,7.5,9.7,6.7
		c5.7-0.8,8.9-7,8.9-7c12.4,11.1,16.5-1.8,17.3-4.8l-73,6.6C1834.8,587,1838,595.3,1844.5,595.6z"/>
	<g>
		<g>
			<g>
				<path fill="#6DBCFD" d="M1845.5,597.5c-6.1,0.5-11.5-4.3-12.1-10.7c0-0.2,0-0.5,0.1-0.7l4.3-15c0.2-0.8,0.9-1.4,1.8-1.5
					l12.5-1.1c1.1-0.1,2.1,0.7,2.2,1.8l1.3,14.5C1856.1,591.3,1851.6,597,1845.5,597.5z M1837.5,586.8c0.5,4.1,3.9,7,7.7,6.7
					c3.9-0.3,6.7-4.1,6.3-8.3l-1.1-12.5l-9.1,0.8L1837.5,586.8z"/>
			</g>
		</g>
		<g>
			<g>
				<path fill="#6DBCFD" d="M1863.6,595.9c-6.1,0.5-11.5-4.3-12.1-10.7l-1.3-14.5c-0.1-1.1,0.7-2.1,1.8-2.2l18.1-1.6
					c1.1-0.1,2.1,0.7,2.2,1.8l1.3,14.5C1874.2,589.6,1869.7,595.3,1863.6,595.9z M1854.4,572.3l1.1,12.5c0.4,4.2,3.8,7.4,7.7,7.1
					c3.9-0.3,6.7-4.1,6.3-8.3l-1.1-12.5L1854.4,572.3z"/>
			</g>
		</g>
		<g>
			<g>
				<path fill="#6DBCFD" d="M1881.7,594.3c-6.1,0.5-11.5-4.3-12.1-10.7l-1.3-14.5c-0.1-1.1,0.7-2.1,1.8-2.2l18.1-1.6
					c1.1-0.1,2.1,0.7,2.2,1.8l1.3,14.5C1892.3,588,1887.8,593.7,1881.7,594.3z M1872.5,570.7l1.1,12.5c0.4,4.2,3.8,7.4,7.7,7.1
					c3.9-0.3,6.7-4.1,6.3-8.3l-1.1-12.5L1872.5,570.7z"/>
			</g>
		</g>
		<g>
			<g>
				<path fill="#6DBCFD" d="M1899.8,592.6c-6.1,0.5-11.5-4.3-12.1-10.7l-1.3-14.5c-0.1-1.1,0.7-2.1,1.8-2.2l11.7-1
					c0.8-0.1,1.6,0.3,1.9,1l7.8,13.9c0.1,0.2,0.2,0.5,0.2,0.8C1910.4,586.4,1905.9,592.1,1899.8,592.6z M1890.6,569.1l1.1,12.5
					c0.4,4.2,3.8,7.4,7.7,7.1c3.8-0.3,6.5-3.8,6.4-7.9l-6.9-12.4L1890.6,569.1z"/>
			</g>
		</g>
	</g>
	<g>
		<path fill="#3E3B3A" d="M1833.6,565.7"/>
	</g>
	<g>
		<path fill="#6DBCFD" d="M1899.4,568.4l-58.9,5.3c-1.1,0.1-2.1-0.7-2.2-1.8l-1.1-12.5c-0.1-1.1,0.7-2.1,1.8-2.2l58.9-5.3
			c1.1-0.1,2.1,0.7,2.2,1.8l1.1,12.5C1901.3,567.3,1900.5,568.3,1899.4,568.4z M1842.1,569.5l54.9-4.9l-0.8-8.4l-54.9,4.9
			L1842.1,569.5z"/>
	</g>
	<g>
		<path fill="#6DBCFD" d="M1884.7,624.3l-19.8,1.8c-0.9,0.1-1.7-0.6-1.8-1.5l-2.1-23.3c-0.2-2.2,1.4-4.2,3.7-4.4l15-1.3
			c2.2-0.2,4.2,1.4,4.4,3.7l2.1,23.3C1886.2,623.4,1885.6,624.2,1884.7,624.3z M1866.2,622.7l16.6-1.5l-2-21.7
			c0-0.4-0.4-0.8-0.9-0.7l-15,1.3c-0.4,0-0.8,0.4-0.7,0.9L1866.2,622.7z"/>
	</g>
	<g>
		<path fill="#6DBCFD" d="M1899.6,590.6l2.6,29.1l-54.2,4.9l-2.6-29.1l-4.2,0.4l2.8,31.2c0.1,1.1,1.1,2,2.3,1.9l58.3-5.2
			c1.2-0.1,2-1.1,1.9-2.3l-2.8-31.2L1899.6,590.6z"/>
	</g>
</g>
<g>
	
		<rect x="1227" y="113.7" transform="matrix(0.7511 0.6602 -0.6602 0.7511 400.4655 -796.3534)" fill="none" width="58.7" height="38.5"/>
	
		<rect x="1243" y="124.6" transform="matrix(0.7511 0.6602 -0.6602 0.7511 402.4016 -792.7875)" fill="none" width="19.1" height="25.4"/>
	<path fill="none" d="M1257.9,86l43.9,39.6l-3.2,15c0,0-15.4,9.8-16-8.9c0,0-6.7,2-11.2-1.6c-4.5-3.6-1.9-11.6-1.9-11.6
		s-7.6,3-11.4-0.7c-3.8-3.8-1.9-12.2-1.9-12.2s-8.4,5-12.7,0c-4.3-4.9-0.5-13-0.5-13L1257.9,86z"/>
	
		<rect x="1255" y="94.9" transform="matrix(0.7511 0.6602 -0.6602 0.7511 386.3972 -822.7834)" fill="none" width="58.7" height="12.3"/>
	<path fill="none" d="M1243.5,105.5c4.3,4.9,12.7,0,12.7,0s-1.9,8.4,1.9,12.2c3.8,3.8,11.4,0.7,11.4,0.7s-2.7,8,1.9,11.6
		c4.5,3.6,11.2,1.6,11.2,1.6c0.5,16.6,12.7,10.7,15.4,9.2l-55-48.4C1243.1,92.5,1239.3,100.6,1243.5,105.5z"/>
	<g>
		<g>
			<g>
				<path fill="#6DBCFD" d="M1242.9,107.6c-4.6-4-4.9-11.3-0.6-16.2c0.2-0.2,0.4-0.3,0.6-0.5l13.9-7.2c0.7-0.4,1.6-0.3,2.3,0.3
					l9.4,8.3c0.8,0.7,0.9,2,0.2,2.9l-9.6,10.9C1254.7,111,1247.5,111.7,1242.9,107.6z M1245.1,94.4c-2.6,3.2-2.4,7.7,0.4,10.2
					c2.9,2.6,7.6,2.1,10.4-1.1l8.3-9.4l-6.8-6L1245.1,94.4z"/>
			</g>
		</g>
		<g>
			<g>
				<path fill="#6DBCFD" d="M1256.5,119.6c-4.6-4-4.9-11.3-0.6-16.2l9.6-10.9c0.7-0.8,2-0.9,2.9-0.2l13.6,12c0.8,0.7,0.9,2,0.2,2.9
					l-9.6,10.9C1268.3,123,1261.1,123.7,1256.5,119.6z M1267.2,96.7l-8.3,9.4c-2.8,3.2-2.7,7.9,0.2,10.5c2.9,2.6,7.6,2.1,10.4-1.1
					l8.3-9.4L1267.2,96.7z"/>
			</g>
		</g>
		<g>
			<g>
				<path fill="#6DBCFD" d="M1270.1,131.6c-4.6-4-4.9-11.3-0.6-16.2l9.6-10.9c0.7-0.8,2-0.9,2.9-0.2l13.6,12c0.8,0.7,0.9,2,0.2,2.9
					l-9.6,10.9C1282,135,1274.7,135.7,1270.1,131.6z M1280.9,108.7l-8.3,9.4c-2.8,3.2-2.7,7.9,0.2,10.5c2.9,2.6,7.6,2.1,10.4-1.1
					l8.3-9.4L1280.9,108.7z"/>
			</g>
		</g>
		<g>
			<g>
				<path fill="#6DBCFD" d="M1283.8,143.6c-4.6-4-4.9-11.3-0.6-16.2l9.6-10.9c0.7-0.8,2-0.9,2.9-0.2l8.8,7.7
					c0.6,0.5,0.8,1.4,0.6,2.1l-4.8,15.2c-0.1,0.3-0.2,0.5-0.4,0.7C1295.6,147,1288.4,147.7,1283.8,143.6z M1294.5,120.7l-8.3,9.4
					c-2.8,3.2-2.7,7.9,0.2,10.5c2.8,2.5,7.3,2.1,10.1-0.8l4.2-13.5L1294.5,120.7z"/>
			</g>
		</g>
	</g>
	<g>
		<path fill="#3E3B3A" d="M1257.7,77"/>
	</g>
	<g>
		<path fill="#6DBCFD" d="M1301.1,126.6l-44.4-39.1c-0.8-0.7-0.9-2-0.2-2.9l8.3-9.4c0.7-0.8,2-0.9,2.9-0.2l44.4,39.1
			c0.8,0.7,0.9,2,0.2,2.9l-8.3,9.4C1303.2,127.2,1301.9,127.3,1301.1,126.6z M1260.8,85.8l41.4,36.4l5.6-6.4l-41.4-36.4L1260.8,85.8
			z"/>
	</g>
	<g>
		<path fill="#6DBCFD" d="M1250.4,154.4l-14.9-13.1c-0.7-0.6-0.7-1.6-0.1-2.3l15.5-17.6c1.5-1.7,4-1.8,5.7-0.4l11.3,9.9
			c1.7,1.5,1.8,4,0.4,5.7l-15.5,17.6C1252.1,155,1251.1,155,1250.4,154.4z M1238.8,140l12.5,11l14.4-16.4c0.3-0.3,0.3-0.8-0.1-1.1
			l-11.3-9.9c-0.3-0.3-0.8-0.3-1.1,0.1L1238.8,140z"/>
	</g>
	<g>
		<path fill="#6DBCFD" d="M1285.1,142l-19.3,21.9l-40.8-35.9l19.3-21.9l-3.1-2.8l-20.7,23.5c-0.8,0.9-0.7,2.2,0.2,3l44,38.7
			c0.9,0.8,2.2,0.7,3-0.2l20.7-23.5L1285.1,142z"/>
	</g>
</g>
<g opacity="0.22">
	
		<rect x="1221.2" y="114" transform="matrix(0.7511 0.6602 -0.6602 0.7511 399.283 -792.4796)" fill="none" width="58.7" height="38.5"/>
	
		<rect x="1237.3" y="124.9" transform="matrix(0.7511 0.6602 -0.6602 0.7511 401.2191 -788.9136)" fill="none" width="19.1" height="25.4"/>
	<path fill="none" d="M1252.2,86.4l43.9,39.6l-3.2,15c0,0-15.4,9.8-16-8.9c0,0-6.7,2-11.2-1.6c-4.5-3.6-1.9-11.6-1.9-11.6
		s-7.6,3-11.4-0.7c-3.8-3.8-1.9-12.2-1.9-12.2s-8.4,5-12.7,0c-4.3-4.9-0.5-13-0.5-13L1252.2,86.4z"/>
	
		<rect x="1249.3" y="95.2" transform="matrix(0.7511 0.6602 -0.6602 0.7511 385.2148 -818.9096)" fill="none" width="58.7" height="12.3"/>
	<path fill="none" d="M1237.8,105.9c4.3,4.9,12.7,0,12.7,0s-1.9,8.4,1.9,12.2c3.8,3.8,11.4,0.7,11.4,0.7s-2.7,8,1.9,11.6
		c4.5,3.6,11.2,1.6,11.2,1.6c0.5,16.6,12.7,10.7,15.4,9.2l-55-48.4C1237.3,92.9,1233.6,101,1237.8,105.9z"/>
	<g>
		<g>
			<g>
				<path fill="#6DBCFD" d="M1237.1,108c-4.6-4-4.9-11.3-0.6-16.2c0.2-0.2,0.4-0.3,0.6-0.5l13.9-7.2c0.7-0.4,1.6-0.3,2.3,0.3
					l9.4,8.3c0.8,0.7,0.9,2,0.2,2.9l-9.6,10.9C1248.9,111.4,1241.7,112,1237.1,108z M1239.3,94.8c-2.6,3.2-2.4,7.7,0.4,10.2
					c2.9,2.6,7.6,2.1,10.4-1.1l8.3-9.4l-6.8-6L1239.3,94.8z"/>
			</g>
		</g>
		<g>
			<g>
				<path fill="#6DBCFD" d="M1250.8,120c-4.6-4-4.9-11.3-0.6-16.2l9.6-10.9c0.7-0.8,2-0.9,2.9-0.2l13.6,12c0.8,0.7,0.9,2,0.2,2.9
					l-9.6,10.9C1262.6,123.4,1255.4,124,1250.8,120z M1261.5,97.1l-8.3,9.4c-2.8,3.2-2.7,7.9,0.2,10.5c2.9,2.6,7.6,2.1,10.4-1.1
					l8.3-9.4L1261.5,97.1z"/>
			</g>
		</g>
		<g>
			<g>
				<path fill="#6DBCFD" d="M1264.4,132c-4.6-4-4.9-11.3-0.6-16.2l9.6-10.9c0.7-0.8,2-0.9,2.9-0.2l13.6,12c0.8,0.7,0.9,2,0.2,2.9
					l-9.6,10.9C1276.2,135.4,1269,136,1264.4,132z M1275.2,109.1l-8.3,9.4c-2.8,3.2-2.7,7.9,0.2,10.5c2.9,2.6,7.6,2.1,10.4-1.1
					l8.3-9.4L1275.2,109.1z"/>
			</g>
		</g>
		<g>
			<g>
				<path fill="#6DBCFD" d="M1278.1,144c-4.6-4-4.9-11.3-0.6-16.2l9.6-10.9c0.7-0.8,2-0.9,2.9-0.2l8.8,7.7c0.6,0.5,0.8,1.4,0.6,2.1
					l-4.8,15.2c-0.1,0.3-0.2,0.5-0.4,0.7C1289.9,147.3,1282.7,148,1278.1,144z M1288.8,121.1l-8.3,9.4c-2.8,3.2-2.7,7.9,0.2,10.5
					c2.8,2.5,7.3,2.1,10.1-0.8l4.2-13.5L1288.8,121.1z"/>
			</g>
		</g>
	</g>
	<g>
		<path fill="#3E3B3A" d="M1251.9,77.4"/>
	</g>
	<g>
		<path fill="#6DBCFD" d="M1295.4,126.9l-44.4-39.1c-0.8-0.7-0.9-2-0.2-2.9l8.3-9.4c0.7-0.8,2-0.9,2.9-0.2l44.4,39.1
			c0.8,0.7,0.9,2,0.2,2.9l-8.3,9.4C1297.5,127.6,1296.2,127.7,1295.4,126.9z M1255.1,86.2l41.4,36.4l5.6-6.4l-41.4-36.4L1255.1,86.2
			z"/>
	</g>
	<g>
		<path fill="#6DBCFD" d="M1244.7,154.8l-14.9-13.1c-0.7-0.6-0.7-1.6-0.1-2.3l15.5-17.6c1.5-1.7,4-1.8,5.7-0.4l11.3,9.9
			c1.7,1.5,1.8,4,0.4,5.7l-15.5,17.6C1246.4,155.3,1245.4,155.4,1244.7,154.8z M1233.1,140.3l12.5,11l14.4-16.4
			c0.3-0.3,0.3-0.8-0.1-1.1l-11.3-9.9c-0.3-0.3-0.8-0.3-1.1,0.1L1233.1,140.3z"/>
	</g>
	<g>
		<path fill="#6DBCFD" d="M1279.3,142.4l-19.3,21.9l-40.8-35.9l19.3-21.9l-3.1-2.8l-20.7,23.5c-0.8,0.9-0.7,2.2,0.2,3l44,38.7
			c0.9,0.8,2.2,0.7,3-0.2l20.7-23.5L1279.3,142.4z"/>
	</g>
</g>
<g>
	<polygon fill="none" points="1641.9,991.5 1674.4,1032.5 1718.4,988.5 1712.5,982.7 1677.6,955.7 	"/>
	
		<rect x="1661" y="998.6" transform="matrix(0.7071 -0.7071 0.7071 0.7071 -215.3462 1491.833)" fill="none" width="64.2" height="14.5"/>
	<g>
		<path fill="#6DBCFD" d="M1716.4,981.2l-35.3-27.4c-2-1.5-4.8-1.4-6.6,0.4l-6.1,6.1l-3.6-3.6c-6.1-6.1-15.9-6.1-22-0.1
			c-6,6-6,15.9,0.1,22l3.6,3.6l-6.1,6.1c-1.8,1.8-2,4.6-0.4,6.6l27.4,35.3c0.1,0.2,0.3,0.3,0.4,0.5l3.3,3.3c2,2,5.1,2,7.1,0l42-42
			c2-2,2-5.1,0-7.1l-3.3-3.3C1716.8,981.4,1716.6,981.3,1716.4,981.2z M1646.4,975c-4.1-4.1-4.2-10.8-0.1-14.9
			c4.1-4.1,10.8-4,14.9,0.1l3.6,3.6l-14.8,14.8L1646.4,975z M1644,991.8l6.1-6.1l1.8,1.8l0.7,0.7l2.6,2.6l1.5,1.5l1.7,1.7
			c1,1,2.6,1,3.5,0c1-1,1-2.6,0-3.5l-1.6-1.6l-1.6-1.6l-2.6-2.6l-1-1l-1.5-1.5l14.8-14.8l1.1,1.1l1.4,1.4l2.6,2.6l2.1,2.1l1.1,1.1
			c1,1,2.6,1,3.5,0c1-1,1-2.6,0-3.5l-0.8-0.8l-2.3-2.3l-2.6-2.6l-1.4-1.4l-1.1-1.1l6.1-6.1l33.7,26.2l-2.1,2.1l-3.3,3.3l-6.3,6.3
			l-9.2,9.2l-20.8,20.8L1644,991.8z M1716.7,988.5l-42,42l-2.4-2.4l21-21l9.2-9.2l6.3-6.3l3.3-3.3l2.3-2.3L1716.7,988.5z"/>
	</g>
</g>
<g opacity="0.49">
	<polygon fill="none" points="1647,990.5 1679.5,1031.5 1723.5,987.5 1717.6,981.7 1682.7,954.7 	"/>
	
		<rect x="1666.1" y="997.6" transform="matrix(0.7071 -0.7071 0.7071 0.7071 -213.1452 1495.1454)" fill="none" width="64.2" height="14.5"/>
	<g>
		<path fill="#6DBCFD" d="M1721.5,980.2l-35.3-27.4c-2-1.5-4.8-1.4-6.6,0.4l-6.1,6.1l-3.6-3.6c-6.1-6.1-15.9-6.1-22-0.1
			c-6,6-6,15.9,0.1,22l3.6,3.6l-6.1,6.1c-1.8,1.8-2,4.6-0.4,6.6l27.4,35.3c0.1,0.2,0.3,0.3,0.4,0.5l3.3,3.3c2,2,5.1,2,7.1,0l42-42
			c2-2,2-5.1,0-7.1l-3.3-3.3C1721.9,980.4,1721.7,980.3,1721.5,980.2z M1651.5,974c-4.1-4.1-4.2-10.8-0.1-14.9
			c4.1-4.1,10.8-4,14.9,0.1l3.6,3.6l-14.8,14.8L1651.5,974z M1649.1,990.8l6.1-6.1l1.8,1.8l0.7,0.7l2.6,2.6l1.5,1.5l1.7,1.7
			c1,1,2.6,1,3.5,0c1-1,1-2.6,0-3.5l-1.6-1.6l-1.6-1.6l-2.6-2.6l-1-1l-1.5-1.5l14.8-14.8l1.1,1.1l1.4,1.4l2.6,2.6l2.1,2.1l1.1,1.1
			c1,1,2.6,1,3.5,0c1-1,1-2.6,0-3.5l-0.8-0.8l-2.3-2.3l-2.6-2.6l-1.4-1.4l-1.1-1.1l6.1-6.1l33.7,26.2l-2.1,2.1l-3.3,3.3l-6.3,6.3
			l-9.2,9.2l-20.8,20.8L1649.1,990.8z M1721.8,987.5l-42,42l-2.4-2.4l21-21l9.2-9.2l6.3-6.3l3.3-3.3l2.3-2.3L1721.8,987.5z"/>
	</g>
</g>
<g>
	<polygon fill="none" points="1021.3,700.2 1053.8,741.2 1097.8,697.2 1091.9,691.4 1057,664.4 	"/>
	
		<rect x="1040.4" y="707.3" transform="matrix(0.7071 -0.7071 0.7071 0.7071 -191.143 967.6873)" fill="none" width="64.2" height="14.5"/>
	<g>
		<path fill="#6DBCFD" d="M1095.8,689.9l-35.3-27.4c-2-1.5-4.8-1.4-6.6,0.4l-6.1,6.1l-3.6-3.6c-6.1-6.1-15.9-6.1-22-0.1
			c-6,6-6,15.9,0.1,22l3.6,3.6l-6.1,6.1c-1.8,1.8-2,4.6-0.4,6.6l27.4,35.3c0.1,0.2,0.3,0.3,0.4,0.5l3.3,3.3c2,2,5.1,2,7.1,0l42-42
			c2-2,2-5.1,0-7.1l-3.3-3.3C1096.2,690.1,1096,690,1095.8,689.9z M1025.8,683.7c-4.1-4.1-4.2-10.8-0.1-14.9
			c4.1-4.1,10.8-4,14.9,0.1l3.6,3.6l-14.8,14.8L1025.8,683.7z M1023.4,700.5l6.1-6.1l1.8,1.8l0.7,0.7l2.6,2.6l1.5,1.5l1.7,1.7
			c1,1,2.6,1,3.5,0c1-1,1-2.6,0-3.5l-1.6-1.6l-1.6-1.6l-2.6-2.6l-1-1l-1.5-1.5l14.8-14.8l1.1,1.1l1.4,1.4l2.6,2.6l2.1,2.1l1.1,1.1
			c1,1,2.6,1,3.5,0c1-1,1-2.6,0-3.5l-0.8-0.8l-2.3-2.3l-2.6-2.6l-1.4-1.4l-1.1-1.1l6.1-6.1l33.7,26.2l-2.1,2.1l-3.3,3.3l-6.3,6.3
			l-9.2,9.2l-20.8,20.8L1023.4,700.5z M1096.1,697.2l-42,42l-2.4-2.4l21-21l9.2-9.2l6.3-6.3l3.3-3.3l2.3-2.3L1096.1,697.2z"/>
	</g>
</g>
<g opacity="0.49">
	<polygon fill="none" points="1026.4,699.2 1058.9,740.2 1102.9,696.2 1097,690.4 1062.1,663.4 	"/>
	
		<rect x="1045.5" y="706.3" transform="matrix(0.7071 -0.7071 0.7071 0.7071 -188.942 970.9998)" fill="none" width="64.2" height="14.5"/>
	<g>
		<path fill="#6DBCFD" d="M1100.9,688.9l-35.3-27.4c-2-1.5-4.8-1.4-6.6,0.4l-6.1,6.1l-3.6-3.6c-6.1-6.1-15.9-6.1-22-0.1
			c-6,6-6,15.9,0.1,22l3.6,3.6l-6.1,6.1c-1.8,1.8-2,4.6-0.4,6.6l27.4,35.3c0.1,0.2,0.3,0.3,0.4,0.5l3.3,3.3c2,2,5.1,2,7.1,0l42-42
			c2-2,2-5.1,0-7.1l-3.3-3.3C1101.3,689.1,1101.1,689,1100.9,688.9z M1030.9,682.7c-4.1-4.1-4.2-10.8-0.1-14.9
			c4.1-4.1,10.8-4,14.9,0.1l3.6,3.6l-14.8,14.8L1030.9,682.7z M1028.5,699.5l6.1-6.1l1.8,1.8l0.7,0.7l2.6,2.6l1.5,1.5l1.7,1.7
			c1,1,2.6,1,3.5,0c1-1,1-2.6,0-3.5l-1.6-1.6l-1.6-1.6l-2.6-2.6l-1-1l-1.5-1.5l14.8-14.8l1.1,1.1l1.4,1.4l2.6,2.6l2.1,2.1l1.1,1.1
			c1,1,2.6,1,3.5,0c1-1,1-2.6,0-3.5l-0.8-0.8l-2.3-2.3l-2.6-2.6l-1.4-1.4l-1.1-1.1l6.1-6.1l33.7,26.2l-2.1,2.1l-3.3,3.3l-6.3,6.3
			l-9.2,9.2l-20.8,20.8L1028.5,699.5z M1101.2,696.2l-42,42l-2.4-2.4l21-21l9.2-9.2l6.3-6.3l3.3-3.3l2.3-2.3L1101.2,696.2z"/>
	</g>
</g>
<g>
	<polygon fill="none" points="1866.7,316.1 1862.1,368.2 1924.3,366.5 1924.1,358.2 1917.2,314.7 	"/>
	
		<rect x="1861.9" y="354.5" transform="matrix(0.9996 -2.765352e-002 2.765352e-002 0.9996 -9.2797 52.5146)" fill="none" width="64.2" height="14.5"/>
	<g>
		<path fill="#6DBCFD" d="M1927.9,359.8l-6.8-44.2c-0.4-2.5-2.6-4.3-5.1-4.2l-8.6,0.2l-0.1-5.1c-0.2-8.6-7.4-15.4-15.9-15.2
			c-8.5,0.2-15.3,7.4-15.1,16l0.1,5.1l-8.6,0.2c-2.5,0.1-4.6,2-4.8,4.5l-4.4,44.5c0,0.2,0,0.4,0,0.6l0.1,4.7
			c0.1,2.8,2.4,4.9,5.1,4.9l59.4-1.6c2.8-0.1,4.9-2.4,4.9-5.1l-0.1-4.7C1928,360.3,1928,360.1,1927.9,359.8z M1881.3,307.3
			c-0.2-5.8,4.4-10.7,10.2-10.9c5.8-0.2,10.6,4.5,10.8,10.3l0.1,5.1l-21,0.6L1881.3,307.3z M1868,317.7l8.6-0.2l0.1,2.6l0,0.9
			l0.1,3.6l0.1,2.1l0.1,2.3c0,1.4,1.2,2.5,2.6,2.4c1.4,0,2.5-1.2,2.4-2.6l-0.1-2.2l-0.1-2.2l-0.1-3.6l0-1.4l-0.1-2.2l21-0.6l0,1.5
			l0.1,2l0.1,3.6l0.1,2.9l0,1.5c0,1.4,1.2,2.5,2.6,2.4c1.4,0,2.5-1.2,2.4-2.6l0-1.2l-0.1-3.3l-0.1-3.6l-0.1-2l0-1.5l8.6-0.2
			l6.5,42.2l-3,0.1l-4.6,0.1l-8.9,0.2l-13,0.4l-29.4,0.8L1868,317.7z M1923.1,365.3l-59.4,1.6l-0.1-3.4l29.7-0.8l13-0.4l8.9-0.2
			l4.6-0.1l3.2-0.1L1923.1,365.3z"/>
	</g>
</g>
<g opacity="0.49">
	<polygon fill="none" points="1871.1,318.8 1866.5,371 1928.7,369.3 1928.4,361 1921.6,317.4 	"/>
	
		<rect x="1866.3" y="357.3" transform="matrix(0.9996 -2.765352e-002 2.765352e-002 0.9996 -9.3548 52.6371)" fill="none" width="64.2" height="14.5"/>
	<g>
		<path fill="#6DBCFD" d="M1932.3,362.6l-6.8-44.2c-0.4-2.5-2.6-4.3-5.1-4.2l-8.6,0.2l-0.1-5.1c-0.2-8.6-7.4-15.4-15.9-15.2
			c-8.5,0.2-15.3,7.4-15.1,16l0.1,5.1l-8.6,0.2c-2.5,0.1-4.6,2-4.8,4.5l-4.4,44.5c0,0.2,0,0.4,0,0.6l0.1,4.7
			c0.1,2.8,2.4,4.9,5.1,4.9l59.4-1.6c2.8-0.1,4.9-2.4,4.9-5.1l-0.1-4.7C1932.4,363,1932.3,362.8,1932.3,362.6z M1885.7,310
			c-0.2-5.8,4.4-10.7,10.2-10.9c5.8-0.2,10.6,4.5,10.8,10.3l0.1,5.1l-21,0.6L1885.7,310z M1872.4,320.5l8.6-0.2l0.1,2.6l0,0.9
			l0.1,3.6l0.1,2.1l0.1,2.3c0,1.4,1.2,2.5,2.6,2.4c1.4,0,2.5-1.2,2.4-2.6l-0.1-2.2l-0.1-2.2l-0.1-3.6l0-1.4l-0.1-2.2l21-0.6l0,1.5
			l0.1,2l0.1,3.6l0.1,2.9l0,1.5c0,1.4,1.2,2.5,2.6,2.4c1.4,0,2.5-1.2,2.4-2.6l0-1.2l-0.1-3.3l-0.1-3.6l-0.1-2l0-1.5l8.6-0.2
			l6.5,42.2l-3,0.1l-4.6,0.1l-8.9,0.2l-13,0.4l-29.4,0.8L1872.4,320.5z M1927.5,368.1l-59.4,1.6l-0.1-3.4l29.7-0.8l13-0.4l8.9-0.2
			l4.6-0.1l3.2-0.1L1927.5,368.1z"/>
	</g>
</g>
<g>
	
		<rect x="1347.1" y="853.7" transform="matrix(0.7071 -0.7071 0.7071 0.7071 -213.9642 1221.7722)" fill="none" width="41.5" height="30.9"/>
	
		<rect x="1337.8" y="857.6" transform="matrix(0.7071 -0.7071 0.7071 0.7071 -210.1073 1212.4609)" fill="none" width="41.5" height="4.6"/>
	
		<rect x="1362.7" y="853.2" transform="matrix(0.7071 -0.7071 0.7071 0.7071 -213.8918 1222.3452)" fill="none" width="11.8" height="32.2"/>
	
		<rect x="1356.5" y="853.7" transform="matrix(0.7071 0.7071 -0.7071 0.7071 1005.7982 -709.0354)" fill="none" width="4.6" height="11.8"/>
	
		<rect x="1330.2" y="848.2" transform="matrix(0.7071 -0.7071 0.7071 0.7071 -207.5101 1207.2979)" fill="none" width="46.8" height="11.8"/>
	
		<rect x="1345.4" y="849" transform="matrix(0.7071 -0.7071 0.7071 0.7071 -207.3592 1206.5743)" fill="none" width="14.7" height="9.1"/>
	<g>
		<g>
			<path fill="#6DBCFD" d="M1374.3,841.8l-33.3,33.3c-0.6,0.6-1.5,0.6-2.1,0l-7.3-7.3c-0.6-0.6-0.6-1.5,0-2.1l33.3-33.3
				c0.6-0.6,1.5-0.6,2.1,0l7.3,7.3C1374.9,840.3,1374.9,841.2,1374.3,841.8z M1339.9,872l31.2-31.2l-5.2-5.2l-31.2,31.2L1339.9,872z
				"/>
		</g>
		<g>
			<path fill="#6DBCFD" d="M1395.1,866.8l-29.2,29.2c-0.6,0.6-1.5,0.6-2.1,0L1341,873c-0.6-0.6-0.6-1.5,0-2.1l29.2-29.2
				c0.6-0.6,1.5-0.6,2.1,0l22.9,22.9C1395.7,865.3,1395.7,866.2,1395.1,866.8z M1364.9,892.8l27.1-27.1l-20.8-20.8l-27.1,27.1
				L1364.9,892.8z"/>
		</g>
		<g>
			<path fill="#6DBCFD" d="M1350.3,851.1l-3.6,3.6c-3.4,3.4-7.5,1.9-9.4,0c-2.6-2.6-2.6-6.8,0-9.4c2.6-2.6,6.8-2.6,9.4,0l3.6,3.6
				C1350.9,849.6,1350.9,850.6,1350.3,851.1z M1339.4,847.5c-1.4,1.4-1.4,3.8,0,5.2c0,0,0.7,0.7,1.8,1c1.2,0.4,2.3,0,3.4-1l2.6-2.6
				l-2.6-2.6C1343.2,846.1,1340.8,846.1,1339.4,847.5z"/>
		</g>
		<g>
			<path fill="#6DBCFD" d="M1354,847.5l-3.6,3.6c-0.6,0.6-1.5,0.6-2.1,0l-3.6-3.6c-2.6-2.6-2.6-6.8,0-9.4c2.6-2.6,6.8-2.6,9.4,0
				C1355.9,840,1357.4,844.1,1354,847.5z M1349.3,848l2.6-2.6c1.1-1.1,1.4-2.2,1-3.5c-0.3-1-1-1.7-1-1.7c-1.4-1.4-3.8-1.4-5.2,0
				c-1.4,1.4-1.4,3.8,0,5.2L1349.3,848z"/>
		</g>
		<g>
			<path fill="#6DBCFD" d="M1352,863.2c-0.3,0.3-0.8,0.3-1.2,0l-7.3-7.3c-0.3-0.3-0.3-0.8,0-1.2c0.3-0.3,0.8-0.3,1.2,0l7.3,7.3
				C1352.3,862.3,1352.3,862.9,1352,863.2z"/>
		</g>
		<g>
			<path fill="#3E3B3A" d="M1353.5,845.9"/>
		</g>
		<g>
			<path fill="#6DBCFD" d="M1362.4,852.8c-0.3,0.3-0.8,0.3-1.2,0l-7.3-7.3c-0.3-0.3-0.3-0.8,0-1.2c0.3-0.3,0.8-0.3,1.2,0l7.3,7.3
				C1362.7,851.9,1362.7,852.4,1362.4,852.8z"/>
		</g>
		<g>
			<path fill="#6DBCFD" d="M1374.9,884c-0.3,0.3-0.8,0.3-1.2,0l-21.9-21.9c-0.3-0.3-0.3-0.8,0-1.2c0.3-0.3,0.8-0.3,1.2,0l21.9,21.9
				C1375.2,883.2,1375.2,883.7,1374.9,884z"/>
		</g>
		<g>
			<path fill="#6DBCFD" d="M1374.3,884.6c-0.3,0.3-0.8,0.3-1.2,0l-21.9-21.9c-0.3-0.3-0.3-0.8,0-1.2c0.3-0.3,0.8-0.3,1.2,0
				l21.9,21.9C1374.6,883.7,1374.6,884.3,1374.3,884.6z"/>
		</g>
		<g>
			<path fill="#6DBCFD" d="M1364.9,893.9c-0.3,0.3-0.8,0.3-1.2,0l-21.9-21.9c-0.3-0.3-0.3-0.8,0-1.2c0.3-0.3,0.8-0.3,1.2,0
				l21.9,21.9C1365.3,893.1,1365.2,893.6,1364.9,893.9z"/>
		</g>
		<g>
			<path fill="#6DBCFD" d="M1364,894.9c-0.3,0.3-0.8,0.3-1.2,0L1341,873c-0.3-0.3-0.3-0.8,0-1.2c0.3-0.3,0.8-0.3,1.2,0l21.9,21.9
				C1364.3,894,1364.3,894.6,1364,894.9z"/>
		</g>
		<g>
			<path fill="#6DBCFD" d="M1374.9,884c-0.3,0.3-0.8,0.3-1.2,0l-21.9-21.9c-0.3-0.3-0.3-0.8,0-1.2c0.3-0.3,0.8-0.3,1.2,0l21.9,21.9
				C1375.2,883.2,1375.2,883.7,1374.9,884z"/>
		</g>
		<g>
			<path fill="#6DBCFD" d="M1373.9,884.9c-0.3,0.3-0.8,0.3-1.2,0l-21.9-21.9c-0.3-0.3-0.3-0.8,0-1.2c0.3-0.3,0.8-0.3,1.2,0
				l21.9,21.9C1374.2,884.1,1374.2,884.6,1373.9,884.9z"/>
		</g>
		<g>
			<path fill="#6DBCFD" d="M1343.1,855.5l7.8,7.8c0.3,0.3,0.8,0.3,1.2,0c0.3-0.3,0.3-0.8,0-1.2l-7.8-7.8L1343.1,855.5z"/>
		</g>
		<g>
			<path fill="#6DBCFD" d="M1342.2,856.4l7.8,7.8c0.3,0.3,0.8,0.3,1.2,0c0.3-0.3,0.3-0.8,0-1.2l-7.8-7.8L1342.2,856.4z"/>
		</g>
		<g>
			<path fill="#6DBCFD" d="M1354.5,844.1l7.8,7.8c0.3,0.3,0.8,0.3,1.2,0c0.3-0.3,0.3-0.8,0-1.2l-7.8-7.8L1354.5,844.1z"/>
		</g>
		<g>
			<path fill="#6DBCFD" d="M1353.5,845.1l7.8,7.8c0.3,0.3,0.8,0.3,1.2,0c0.3-0.3,0.3-0.8,0-1.2l-7.8-7.8L1353.5,845.1z"/>
		</g>
		<g>
			<path fill="#6DBCFD" d="M1384.1,874.7c-0.3,0.3-0.8,0.3-1.2,0l-21.9-21.9c-0.3-0.3-0.3-0.8,0-1.2c0.3-0.3,0.8-0.3,1.2,0
				l21.9,21.9C1384.4,873.9,1384.4,874.4,1384.1,874.7z"/>
		</g>
		<g>
			<path fill="#6DBCFD" d="M1383.2,875.7c-0.3,0.3-0.8,0.3-1.2,0l-21.9-21.9c-0.3-0.3-0.3-0.8,0-1.2c0.3-0.3,0.8-0.3,1.2,0
				l21.9,21.9C1383.5,874.8,1383.5,875.4,1383.2,875.7z"/>
		</g>
		<g>
			<path fill="#6DBCFD" d="M1383.2,875.7c-0.3,0.3-0.8,0.3-1.2,0l-21.9-21.9c-0.3-0.3-0.3-0.8,0-1.2c0.3-0.3,0.8-0.3,1.2,0
				l21.9,21.9C1383.5,874.8,1383.5,875.3,1383.2,875.7z"/>
		</g>
	</g>
</g>
<g opacity="0.51">
	
		<rect x="1351" y="853.7" transform="matrix(0.7071 -0.7071 0.7071 0.7071 -212.8293 1224.5323)" fill="none" width="41.5" height="30.9"/>
	
		<rect x="1341.7" y="857.6" transform="matrix(0.7071 -0.7071 0.7071 0.7071 -208.9725 1215.2211)" fill="none" width="41.5" height="4.6"/>
	
		<rect x="1366.6" y="853.3" transform="matrix(0.7071 -0.7071 0.7071 0.7071 -212.757 1225.1053)" fill="none" width="11.8" height="32.2"/>
	
		<rect x="1360.4" y="853.7" transform="matrix(0.7071 0.7071 -0.7071 0.7071 1006.9474 -711.7896)" fill="none" width="4.6" height="11.8"/>
	
		<rect x="1334.1" y="848.3" transform="matrix(0.7071 -0.7071 0.7071 0.7071 -206.3753 1210.0579)" fill="none" width="46.8" height="11.8"/>
	
		<rect x="1349.3" y="849.1" transform="matrix(0.7071 -0.7071 0.7071 0.7071 -206.2244 1209.3345)" fill="none" width="14.7" height="9.1"/>
	<g>
		<g>
			<path fill="#6DBCFD" d="M1378.2,841.8l-33.3,33.3c-0.6,0.6-1.5,0.6-2.1,0l-7.3-7.3c-0.6-0.6-0.6-1.5,0-2.1l33.3-33.3
				c0.6-0.6,1.5-0.6,2.1,0l7.3,7.3C1378.8,840.3,1378.8,841.2,1378.2,841.8z M1343.8,872l31.2-31.2l-5.2-5.2l-31.2,31.2L1343.8,872z
				"/>
		</g>
		<g>
			<path fill="#6DBCFD" d="M1399,866.8l-29.2,29.2c-0.6,0.6-1.5,0.6-2.1,0l-22.9-22.9c-0.6-0.6-0.6-1.5,0-2.1l29.2-29.2
				c0.6-0.6,1.5-0.6,2.1,0l22.9,22.9C1399.6,865.3,1399.6,866.2,1399,866.8z M1368.8,892.8l27.1-27.1l-20.8-20.8L1348,872
				L1368.8,892.8z"/>
		</g>
		<g>
			<path fill="#6DBCFD" d="M1354.2,851.1l-3.6,3.6c-3.4,3.4-7.5,1.9-9.4,0c-2.6-2.6-2.6-6.8,0-9.4c2.6-2.6,6.8-2.6,9.4,0l3.6,3.6
				C1354.8,849.6,1354.8,850.6,1354.2,851.1z M1343.3,847.5c-1.4,1.4-1.4,3.8,0,5.2c0,0,0.7,0.7,1.8,1c1.2,0.4,2.3,0,3.4-1l2.6-2.6
				l-2.6-2.6C1347.1,846.1,1344.7,846.1,1343.3,847.5z"/>
		</g>
		<g>
			<path fill="#6DBCFD" d="M1357.9,847.5l-3.6,3.6c-0.6,0.6-1.5,0.6-2.1,0l-3.6-3.6c-2.6-2.6-2.6-6.8,0-9.4c2.6-2.6,6.8-2.6,9.4,0
				C1359.8,840,1361.3,844.1,1357.9,847.5z M1353.2,848l2.6-2.6c1.1-1.1,1.4-2.2,1-3.5c-0.3-1-1-1.7-1-1.7c-1.4-1.4-3.8-1.4-5.2,0
				c-1.4,1.4-1.4,3.8,0,5.2L1353.2,848z"/>
		</g>
		<g>
			<path fill="#6DBCFD" d="M1355.9,863.2c-0.3,0.3-0.8,0.3-1.2,0l-7.3-7.3c-0.3-0.3-0.3-0.8,0-1.2c0.3-0.3,0.8-0.3,1.2,0l7.3,7.3
				C1356.2,862.3,1356.2,862.9,1355.9,863.2z"/>
		</g>
		<g>
			<path fill="#3E3B3A" d="M1357.4,845.9"/>
		</g>
		<g>
			<path fill="#6DBCFD" d="M1366.3,852.8c-0.3,0.3-0.8,0.3-1.2,0l-7.3-7.3c-0.3-0.3-0.3-0.8,0-1.2c0.3-0.3,0.8-0.3,1.2,0l7.3,7.3
				C1366.6,851.9,1366.6,852.4,1366.3,852.8z"/>
		</g>
		<g>
			<path fill="#6DBCFD" d="M1378.8,884c-0.3,0.3-0.8,0.3-1.2,0l-21.9-21.9c-0.3-0.3-0.3-0.8,0-1.2c0.3-0.3,0.8-0.3,1.2,0l21.9,21.9
				C1379.1,883.2,1379.1,883.7,1378.8,884z"/>
		</g>
		<g>
			<path fill="#6DBCFD" d="M1378.2,884.6c-0.3,0.3-0.8,0.3-1.2,0l-21.9-21.9c-0.3-0.3-0.3-0.8,0-1.2c0.3-0.3,0.8-0.3,1.2,0
				l21.9,21.9C1378.5,883.8,1378.5,884.3,1378.2,884.6z"/>
		</g>
		<g>
			<path fill="#6DBCFD" d="M1368.8,893.9c-0.3,0.3-0.8,0.3-1.2,0l-21.9-21.9c-0.3-0.3-0.3-0.8,0-1.2c0.3-0.3,0.8-0.3,1.2,0
				l21.9,21.9C1369.1,893.1,1369.1,893.6,1368.8,893.9z"/>
		</g>
		<g>
			<path fill="#6DBCFD" d="M1367.9,894.9c-0.3,0.3-0.8,0.3-1.2,0l-21.9-21.9c-0.3-0.3-0.3-0.8,0-1.2c0.3-0.3,0.8-0.3,1.2,0
				l21.9,21.9C1368.2,894,1368.2,894.6,1367.9,894.9z"/>
		</g>
		<g>
			<path fill="#6DBCFD" d="M1378.8,884c-0.3,0.3-0.8,0.3-1.2,0l-21.9-21.9c-0.3-0.3-0.3-0.8,0-1.2c0.3-0.3,0.8-0.3,1.2,0l21.9,21.9
				C1379.1,883.2,1379.1,883.7,1378.8,884z"/>
		</g>
		<g>
			<path fill="#6DBCFD" d="M1377.8,884.9c-0.3,0.3-0.8,0.3-1.2,0l-21.9-21.9c-0.3-0.3-0.3-0.8,0-1.2c0.3-0.3,0.8-0.3,1.2,0
				l21.9,21.9C1378.1,884.1,1378.1,884.6,1377.8,884.9z"/>
		</g>
		<g>
			<path fill="#6DBCFD" d="M1347,855.5l7.8,7.8c0.3,0.3,0.8,0.3,1.2,0c0.3-0.3,0.3-0.8,0-1.2l-7.8-7.8L1347,855.5z"/>
		</g>
		<g>
			<path fill="#6DBCFD" d="M1346.1,856.4l7.8,7.8c0.3,0.3,0.8,0.3,1.2,0c0.3-0.3,0.3-0.8,0-1.2l-7.8-7.8L1346.1,856.4z"/>
		</g>
		<g>
			<path fill="#6DBCFD" d="M1358.4,844.1l7.8,7.8c0.3,0.3,0.8,0.3,1.2,0c0.3-0.3,0.3-0.8,0-1.2l-7.8-7.8L1358.4,844.1z"/>
		</g>
		<g>
			<path fill="#6DBCFD" d="M1357.4,845.1l7.8,7.8c0.3,0.3,0.8,0.3,1.2,0c0.3-0.3,0.3-0.8,0-1.2l-7.8-7.8L1357.4,845.1z"/>
		</g>
		<g>
			<path fill="#6DBCFD" d="M1388,874.7c-0.3,0.3-0.8,0.3-1.2,0l-21.9-21.9c-0.3-0.3-0.3-0.8,0-1.2c0.3-0.3,0.8-0.3,1.2,0l21.9,21.9
				C1388.3,873.9,1388.3,874.4,1388,874.7z"/>
		</g>
		<g>
			<path fill="#6DBCFD" d="M1387.1,875.7c-0.3,0.3-0.8,0.3-1.2,0l-21.9-21.9c-0.3-0.3-0.3-0.8,0-1.2c0.3-0.3,0.8-0.3,1.2,0
				l21.9,21.9C1387.4,874.9,1387.4,875.4,1387.1,875.7z"/>
		</g>
		<g>
			<path fill="#6DBCFD" d="M1387.1,875.7c-0.3,0.3-0.8,0.3-1.2,0l-21.9-21.9c-0.3-0.3-0.3-0.8,0-1.2c0.3-0.3,0.8-0.3,1.2,0
				l21.9,21.9C1387.4,874.8,1387.4,875.4,1387.1,875.7z"/>
		</g>
	</g>
</g>
</svg>
