<?xml version="1.0" encoding="utf-8"?>
<!-- Generator: Adobe Illustrator 17.1.0, SVG Export Plug-In . SVG Version: 6.00 Build 0)  -->
<!DOCTYPE svg PUBLIC "-//W3C//DTD SVG 1.1//EN" "http://www.w3.org/Graphics/SVG/1.1/DTD/svg11.dtd">
<svg version="1.1" id="Слой_1" xmlns="http://www.w3.org/2000/svg" xmlns:xlink="http://www.w3.org/1999/xlink" x="0px" y="0px"
	 viewBox="0 0 1920 1080" enable-background="new 0 0 1920 1080" xml:space="preserve">
<g id="XMLID_56_">
	<path fill="#6DBCFD" d="M727.1,880h429.2c1.4,0,2.5,1.1,2.5,2.5l0,0c0,1.4-1.1,2.5-2.5,2.5H727.1c-1.4,0-2.5-1.1-2.5-2.5l0,0
		C724.6,881.2,725.7,880,727.1,880z"/>
</g>
<g id="XMLID_1_">
	<g id="XMLID_31_">
		<path fill="#6DBCFD" d="M1357,887.2H540.7c-2,0-3.6-1.6-3.6-3.6l0,0c0-2,1.6-3.6,3.6-3.6H1357c2,0,3.6,1.6,3.6,3.6l0,0
			C1360.6,885.6,1358.9,887.2,1357,887.2z"/>
	</g>
	<g id="XMLID_45_">
		<path fill="#6DBCFD" d="M1438.5,887.2h-63.3c-1.4,0-2.5-1.1-2.5-2.5v-2.2c0-1.4,1.1-2.5,2.5-2.5h63.3c2,0,3.6,1.6,3.6,3.6l0,0
			C1442.1,885.6,1440.5,887.2,1438.5,887.2z"/>
	</g>
	<g id="XMLID_46_">
		<path fill="#6DBCFD" d="M1475.6,887.2h-16.9c-2,0-3.6-1.6-3.6-3.6l0,0c0-2,1.6-3.6,3.6-3.6h16.9c2,0,3.6,1.6,3.6,3.6l0,0
			C1479.2,885.6,1477.6,887.2,1475.6,887.2z"/>
	</g>
	<g id="XMLID_54_">
		<path fill="#6DBCFD" d="M439.3,880h62.3c2,0,3.6,1.6,3.6,3.6l0,0c0,2-1.6,3.6-3.6,3.6h-62.3c-2,0-3.6-1.6-3.6-3.6l0,0
			C435.7,881.6,437.3,880,439.3,880z"/>
	</g>
	<g id="XMLID_180_">
		<path fill="#6DBCFD" d="M866.9,922.9h249.6c2,0,3.6,1.6,3.6,3.6l0,0c0,2-1.6,3.6-3.6,3.6H866.9c-2,0-3.6-1.6-3.6-3.6l0,0
			C863.3,924.5,865,922.9,866.9,922.9z"/>
	</g>
	<g id="XMLID_181_">
		<path fill="#6DBCFD" d="M786.7,922.9h45.4c2,0,3.6,1.6,3.6,3.6l0,0c0,2-1.6,3.6-3.6,3.6h-45.4c-2,0-3.6-1.6-3.6-3.6l0,0
			C783.1,924.5,784.7,922.9,786.7,922.9z"/>
	</g>
	<g id="XMLID_189_">
		<path fill="#6DBCFD" d="M482.4,958.3h131.7c2,0,3.6,1.6,3.6,3.6l0,0c0,2-1.6,3.6-3.6,3.6H482.4c-2,0-3.6-1.6-3.6-3.6l0,0
			C478.8,959.9,480.4,958.3,482.4,958.3z"/>
	</g>
	<g id="XMLID_190_">
		<path fill="#6DBCFD" d="M646.2,958.3h37.5c2,0,3.6,1.6,3.6,3.6v0c0,2-1.6,3.6-3.6,3.6h-37.5c-2,0-3.6-1.6-3.6-3.6v0
			C642.7,959.9,644.3,958.3,646.2,958.3z"/>
	</g>
	<g id="XMLID_182_">
		<path fill="#6DBCFD" d="M1419.4,922.9h45.4c2,0,3.6,1.6,3.6,3.6l0,0c0,2-1.6,3.6-3.6,3.6h-45.4c-2,0-3.6-1.6-3.6-3.6l0,0
			C1415.8,924.5,1417.4,922.9,1419.4,922.9z"/>
	</g>
	<g id="XMLID_183_">
		<path fill="#6DBCFD" d="M1422.6,792l-11,16.2c-0.5,0.7-1.4,0.9-2.2,0.4l0,0c-0.7-0.5-0.9-1.4-0.4-2.2l11-16.2
			c0.5-0.7,1.4-0.9,2.2-0.4l0,0C1422.9,790.4,1423.1,791.3,1422.6,792z"/>
	</g>
	<g id="XMLID_184_">
		<path fill="#6DBCFD" d="M1423.1,806.1l-16.2-11c-0.7-0.5-0.9-1.4-0.4-2.2v0c0.5-0.7,1.4-0.9,2.2-0.4l16.2,11
			c0.7,0.5,0.9,1.4,0.4,2.2l0,0C1424.8,806.4,1423.8,806.6,1423.1,806.1z"/>
	</g>
	<g id="XMLID_53_">
		<path fill="#6DBCFD" d="M402.2,880H419c2,0,3.6,1.6,3.6,3.6l0,0c0,2-1.6,3.6-3.6,3.6h-16.9c-2,0-3.6-1.6-3.6-3.6l0,0
			C398.6,881.6,400.2,880,402.2,880z"/>
	</g>
	<g id="XMLID_98_" opacity="0.24">
		<g>
			<defs>
				<path id="SVGID_1_" d="M1311.9,688.5h-56.4v-39.4c0-14.9-12.1-27-27-27h-53.1c-13.7,0-25,10.2-26.8,23.5v-75
					c0-14.7-11.9-26.7-26.7-26.7h-56.4v-11.2c0-14.9-12.1-27-27-27h-53.1c-14.9,0-27,12.1-27,27V692c0-14.9-12.1-27-27-27h-53.1
					c-14.9,0-27,12.1-27,27v-95.3c0-14.7-11.9-26.7-26.7-26.7h-56.4v-37.3c0-14.9-12.1-27-27-27h-53.1c-14.9,0-27,12.1-27,27v89.3
					h-56.4c-14.7,0-26.7,11.9-26.7,26.7V880h83.1l0,0h107.1l0,0h83.1l0,0h107.1h107.1l0,0h83.1l0,0h106.9l0,0h83.1V715.2
					C1338.5,700.4,1326.6,688.5,1311.9,688.5z"/>
			</defs>
			<clipPath id="SVGID_2_">
				<use xlink:href="#SVGID_1_"  overflow="visible"/>
			</clipPath>
			<rect x="578.2" y="880" clip-path="url(#SVGID_2_)" fill="#EBF6FF" width="760.3" height="0.1"/>
			<rect x="578.2" y="878.9" clip-path="url(#SVGID_2_)" fill="#EAF5FF" width="760.3" height="1.1"/>
			<rect x="578.2" y="877.8" clip-path="url(#SVGID_2_)" fill="#E9F5FF" width="760.3" height="1.1"/>
			<rect x="578.2" y="876.7" clip-path="url(#SVGID_2_)" fill="#E8F4FF" width="760.3" height="1.1"/>
			<rect x="578.2" y="875.6" clip-path="url(#SVGID_2_)" fill="#E7F4FF" width="760.3" height="1.1"/>
			<rect x="578.2" y="874.6" clip-path="url(#SVGID_2_)" fill="#E6F3FF" width="760.3" height="1.1"/>
			<rect x="578.2" y="873.5" clip-path="url(#SVGID_2_)" fill="#E5F3FF" width="760.3" height="1.1"/>
			<rect x="578.2" y="872.4" clip-path="url(#SVGID_2_)" fill="#E4F3FF" width="760.3" height="1.1"/>
			<rect x="578.2" y="871.3" clip-path="url(#SVGID_2_)" fill="#E3F2FF" width="760.3" height="1.1"/>
			<rect x="578.2" y="870.2" clip-path="url(#SVGID_2_)" fill="#E2F2FF" width="760.3" height="1.1"/>
			<rect x="578.2" y="869.2" clip-path="url(#SVGID_2_)" fill="#E1F1FF" width="760.3" height="1.1"/>
			<rect x="578.2" y="868.1" clip-path="url(#SVGID_2_)" fill="#E0F1FF" width="760.3" height="1.1"/>
			<rect x="578.2" y="867" clip-path="url(#SVGID_2_)" fill="#DFF0FF" width="760.3" height="1.1"/>
			<rect x="578.2" y="865.9" clip-path="url(#SVGID_2_)" fill="#DEF0FF" width="760.3" height="1.1"/>
			<rect x="578.2" y="864.8" clip-path="url(#SVGID_2_)" fill="#DDEFFF" width="760.3" height="1.1"/>
			<rect x="578.2" y="863.7" clip-path="url(#SVGID_2_)" fill="#DCEFFF" width="760.3" height="1.1"/>
			<rect x="578.2" y="862.7" clip-path="url(#SVGID_2_)" fill="#DBEEFF" width="760.3" height="1.1"/>
			<rect x="578.2" y="861.6" clip-path="url(#SVGID_2_)" fill="#DAEEFE" width="760.3" height="1.1"/>
			<rect x="578.2" y="860.5" clip-path="url(#SVGID_2_)" fill="#D9EDFE" width="760.3" height="1.1"/>
			<rect x="578.2" y="859.4" clip-path="url(#SVGID_2_)" fill="#D8EDFE" width="760.3" height="1.1"/>
			<rect x="578.2" y="858.3" clip-path="url(#SVGID_2_)" fill="#D7EDFE" width="760.3" height="1.1"/>
			<rect x="578.2" y="857.2" clip-path="url(#SVGID_2_)" fill="#D6ECFE" width="760.3" height="1.1"/>
			<rect x="578.2" y="856.2" clip-path="url(#SVGID_2_)" fill="#D5ECFE" width="760.3" height="1.1"/>
			<rect x="578.2" y="855.1" clip-path="url(#SVGID_2_)" fill="#D4EBFE" width="760.3" height="1.1"/>
			<rect x="578.2" y="854" clip-path="url(#SVGID_2_)" fill="#D3EBFE" width="760.3" height="1.1"/>
			<rect x="578.2" y="852.9" clip-path="url(#SVGID_2_)" fill="#D2EAFE" width="760.3" height="1.1"/>
			<rect x="578.2" y="851.8" clip-path="url(#SVGID_2_)" fill="#D1EAFE" width="760.3" height="1.1"/>
			<rect x="578.2" y="850.7" clip-path="url(#SVGID_2_)" fill="#D0E9FE" width="760.3" height="1.1"/>
			<rect x="578.2" y="849.7" clip-path="url(#SVGID_2_)" fill="#CFE9FE" width="760.3" height="1.1"/>
			<rect x="578.2" y="848.6" clip-path="url(#SVGID_2_)" fill="#CEE8FE" width="760.3" height="1.1"/>
			<rect x="578.2" y="847.5" clip-path="url(#SVGID_2_)" fill="#CDE8FE" width="760.3" height="1.1"/>
			<rect x="578.2" y="846.4" clip-path="url(#SVGID_2_)" fill="#CCE7FE" width="760.3" height="1.1"/>
			<rect x="578.2" y="845.3" clip-path="url(#SVGID_2_)" fill="#CBE7FE" width="760.3" height="1.1"/>
			<rect x="578.2" y="844.3" clip-path="url(#SVGID_2_)" fill="#CAE7FE" width="760.3" height="1.1"/>
			<rect x="578.2" y="843.2" clip-path="url(#SVGID_2_)" fill="#C9E6FE" width="760.3" height="1.1"/>
			<rect x="578.2" y="842.1" clip-path="url(#SVGID_2_)" fill="#C8E6FE" width="760.3" height="1.1"/>
			<rect x="578.2" y="841" clip-path="url(#SVGID_2_)" fill="#C7E5FE" width="760.3" height="1.1"/>
			<rect x="578.2" y="839.9" clip-path="url(#SVGID_2_)" fill="#C6E5FE" width="760.3" height="1.1"/>
			<rect x="578.2" y="838.8" clip-path="url(#SVGID_2_)" fill="#C5E4FE" width="760.3" height="1.1"/>
			<rect x="578.2" y="837.8" clip-path="url(#SVGID_2_)" fill="#C4E4FE" width="760.3" height="1.1"/>
			<rect x="578.2" y="836.7" clip-path="url(#SVGID_2_)" fill="#C3E3FE" width="760.3" height="1.1"/>
			<rect x="578.2" y="835.6" clip-path="url(#SVGID_2_)" fill="#C2E3FE" width="760.3" height="1.1"/>
			<rect x="578.2" y="834.5" clip-path="url(#SVGID_2_)" fill="#C1E2FE" width="760.3" height="1.1"/>
			<rect x="578.2" y="833.4" clip-path="url(#SVGID_2_)" fill="#C0E2FE" width="760.3" height="1.1"/>
			<rect x="578.2" y="832.3" clip-path="url(#SVGID_2_)" fill="#BFE1FE" width="760.3" height="1.1"/>
			<rect x="578.2" y="831.3" clip-path="url(#SVGID_2_)" fill="#BEE1FE" width="760.3" height="1.1"/>
			<rect x="578.2" y="830.2" clip-path="url(#SVGID_2_)" fill="#BDE1FE" width="760.3" height="1.1"/>
			<rect x="578.2" y="829.1" clip-path="url(#SVGID_2_)" fill="#BCE0FE" width="760.3" height="1.1"/>
			<rect x="578.2" y="828" clip-path="url(#SVGID_2_)" fill="#BBE0FE" width="760.3" height="1.1"/>
			<rect x="578.2" y="826.9" clip-path="url(#SVGID_2_)" fill="#BADFFE" width="760.3" height="1.1"/>
			<rect x="578.2" y="825.9" clip-path="url(#SVGID_2_)" fill="#B9DFFE" width="760.3" height="1.1"/>
			<rect x="578.2" y="824.8" clip-path="url(#SVGID_2_)" fill="#B8DEFE" width="760.3" height="1.1"/>
			<rect x="578.2" y="823.7" clip-path="url(#SVGID_2_)" fill="#B7DEFE" width="760.3" height="1.1"/>
			<rect x="578.2" y="822.6" clip-path="url(#SVGID_2_)" fill="#B5DDFE" width="760.3" height="1.1"/>
			<rect x="578.2" y="821.5" clip-path="url(#SVGID_2_)" fill="#B4DDFE" width="760.3" height="1.1"/>
			<rect x="578.2" y="820.4" clip-path="url(#SVGID_2_)" fill="#B3DCFE" width="760.3" height="1.1"/>
			<rect x="578.2" y="819.4" clip-path="url(#SVGID_2_)" fill="#B2DCFE" width="760.3" height="1.1"/>
			<rect x="578.2" y="818.3" clip-path="url(#SVGID_2_)" fill="#B1DBFE" width="760.3" height="1.1"/>
			<rect x="578.2" y="817.2" clip-path="url(#SVGID_2_)" fill="#B0DBFE" width="760.3" height="1.1"/>
			<rect x="578.2" y="816.1" clip-path="url(#SVGID_2_)" fill="#AFDAFE" width="760.3" height="1.1"/>
			<rect x="578.2" y="815" clip-path="url(#SVGID_2_)" fill="#AEDAFE" width="760.3" height="1.1"/>
			<rect x="578.2" y="813.9" clip-path="url(#SVGID_2_)" fill="#ADDAFE" width="760.3" height="1.1"/>
			<rect x="578.2" y="812.9" clip-path="url(#SVGID_2_)" fill="#ACD9FE" width="760.3" height="1.1"/>
			<rect x="578.2" y="811.8" clip-path="url(#SVGID_2_)" fill="#ABD9FE" width="760.3" height="1.1"/>
			<rect x="578.2" y="810.7" clip-path="url(#SVGID_2_)" fill="#AAD8FE" width="760.3" height="1.1"/>
			<rect x="578.2" y="809.6" clip-path="url(#SVGID_2_)" fill="#A9D8FE" width="760.3" height="1.1"/>
			<rect x="578.2" y="808.5" clip-path="url(#SVGID_2_)" fill="#A8D7FE" width="760.3" height="1.1"/>
			<rect x="578.2" y="807.5" clip-path="url(#SVGID_2_)" fill="#A7D7FE" width="760.3" height="1.1"/>
			<rect x="578.2" y="806.4" clip-path="url(#SVGID_2_)" fill="#A6D6FE" width="760.3" height="1.1"/>
			<rect x="578.2" y="805.3" clip-path="url(#SVGID_2_)" fill="#A5D6FE" width="760.3" height="1.1"/>
			<rect x="578.2" y="804.2" clip-path="url(#SVGID_2_)" fill="#A4D5FE" width="760.3" height="1.1"/>
			<rect x="578.2" y="803.1" clip-path="url(#SVGID_2_)" fill="#A3D5FE" width="760.3" height="1.1"/>
			<rect x="578.2" y="802" clip-path="url(#SVGID_2_)" fill="#A2D4FE" width="760.3" height="1.1"/>
			<rect x="578.2" y="801" clip-path="url(#SVGID_2_)" fill="#A1D4FE" width="760.3" height="1.1"/>
			<rect x="578.2" y="799.9" clip-path="url(#SVGID_2_)" fill="#A0D4FE" width="760.3" height="1.1"/>
			<rect x="578.2" y="798.8" clip-path="url(#SVGID_2_)" fill="#9FD3FE" width="760.3" height="1.1"/>
			<rect x="578.2" y="797.7" clip-path="url(#SVGID_2_)" fill="#9ED3FE" width="760.3" height="1.1"/>
			<rect x="578.2" y="796.6" clip-path="url(#SVGID_2_)" fill="#9DD2FE" width="760.3" height="1.1"/>
			<rect x="578.2" y="795.5" clip-path="url(#SVGID_2_)" fill="#9CD2FE" width="760.3" height="1.1"/>
			<rect x="578.2" y="794.5" clip-path="url(#SVGID_2_)" fill="#9BD1FE" width="760.3" height="1.1"/>
			<rect x="578.2" y="793.4" clip-path="url(#SVGID_2_)" fill="#9AD1FE" width="760.3" height="1.1"/>
			<rect x="578.2" y="792.3" clip-path="url(#SVGID_2_)" fill="#99D0FE" width="760.3" height="1.1"/>
			<rect x="578.2" y="791.2" clip-path="url(#SVGID_2_)" fill="#98D0FE" width="760.3" height="1.1"/>
			<rect x="578.2" y="790.1" clip-path="url(#SVGID_2_)" fill="#97CFFE" width="760.3" height="1.1"/>
			<rect x="578.2" y="789.1" clip-path="url(#SVGID_2_)" fill="#96CFFE" width="760.3" height="1.1"/>
			<rect x="578.2" y="788" clip-path="url(#SVGID_2_)" fill="#95CEFE" width="760.3" height="1.1"/>
			<rect x="578.2" y="786.9" clip-path="url(#SVGID_2_)" fill="#94CEFE" width="760.3" height="1.1"/>
			<rect x="578.2" y="785.8" clip-path="url(#SVGID_2_)" fill="#93CEFE" width="760.3" height="1.1"/>
			<rect x="578.2" y="784.7" clip-path="url(#SVGID_2_)" fill="#92CDFE" width="760.3" height="1.1"/>
			<rect x="578.2" y="783.6" clip-path="url(#SVGID_2_)" fill="#91CDFD" width="760.3" height="1.1"/>
			<rect x="578.2" y="782.6" clip-path="url(#SVGID_2_)" fill="#90CCFD" width="760.3" height="1.1"/>
			<rect x="578.2" y="781.5" clip-path="url(#SVGID_2_)" fill="#8FCCFD" width="760.3" height="1.1"/>
			<rect x="578.2" y="780.4" clip-path="url(#SVGID_2_)" fill="#8ECBFD" width="760.3" height="1.1"/>
			<rect x="578.2" y="779.3" clip-path="url(#SVGID_2_)" fill="#8DCBFD" width="760.3" height="1.1"/>
			<rect x="578.2" y="778.2" clip-path="url(#SVGID_2_)" fill="#8CCAFD" width="760.3" height="1.1"/>
			<rect x="578.2" y="777.1" clip-path="url(#SVGID_2_)" fill="#8BCAFD" width="760.3" height="1.1"/>
			<rect x="578.2" y="776.1" clip-path="url(#SVGID_2_)" fill="#8AC9FD" width="760.3" height="1.1"/>
			<rect x="578.2" y="775" clip-path="url(#SVGID_2_)" fill="#89C9FD" width="760.3" height="1.1"/>
			<rect x="578.2" y="773.9" clip-path="url(#SVGID_2_)" fill="#88C8FD" width="760.3" height="1.1"/>
			<rect x="578.2" y="772.8" clip-path="url(#SVGID_2_)" fill="#87C8FD" width="760.3" height="1.1"/>
			<rect x="578.2" y="771.7" clip-path="url(#SVGID_2_)" fill="#86C8FD" width="760.3" height="1.1"/>
			<rect x="578.2" y="770.6" clip-path="url(#SVGID_2_)" fill="#85C7FD" width="760.3" height="1.1"/>
			<rect x="578.2" y="769.6" clip-path="url(#SVGID_2_)" fill="#84C7FD" width="760.3" height="1.1"/>
			<rect x="578.2" y="768.5" clip-path="url(#SVGID_2_)" fill="#83C6FD" width="760.3" height="1.1"/>
			<rect x="578.2" y="767.4" clip-path="url(#SVGID_2_)" fill="#82C6FD" width="760.3" height="1.1"/>
			<rect x="578.2" y="766.3" clip-path="url(#SVGID_2_)" fill="#81C5FD" width="760.3" height="1.1"/>
			<rect x="578.2" y="765.2" clip-path="url(#SVGID_2_)" fill="#80C5FD" width="760.3" height="1.1"/>
			<rect x="578.2" y="764.2" clip-path="url(#SVGID_2_)" fill="#7FC4FD" width="760.3" height="1.1"/>
			<rect x="578.2" y="763.1" clip-path="url(#SVGID_2_)" fill="#7EC4FD" width="760.3" height="1.1"/>
			<rect x="578.2" y="762" clip-path="url(#SVGID_2_)" fill="#7DC3FD" width="760.3" height="1.1"/>
			<rect x="578.2" y="760.9" clip-path="url(#SVGID_2_)" fill="#7CC3FD" width="760.3" height="1.1"/>
			<rect x="578.2" y="759.8" clip-path="url(#SVGID_2_)" fill="#7BC2FD" width="760.3" height="1.1"/>
			<rect x="578.2" y="758.7" clip-path="url(#SVGID_2_)" fill="#7AC2FD" width="760.3" height="1.1"/>
			<rect x="578.2" y="757.7" clip-path="url(#SVGID_2_)" fill="#79C2FD" width="760.3" height="1.1"/>
			<rect x="578.2" y="756.6" clip-path="url(#SVGID_2_)" fill="#78C1FD" width="760.3" height="1.1"/>
			<rect x="578.2" y="755.5" clip-path="url(#SVGID_2_)" fill="#77C1FD" width="760.3" height="1.1"/>
			<rect x="578.2" y="754.4" clip-path="url(#SVGID_2_)" fill="#76C0FD" width="760.3" height="1.1"/>
			<rect x="578.2" y="753.3" clip-path="url(#SVGID_2_)" fill="#75C0FD" width="760.3" height="1.1"/>
			<rect x="578.2" y="752.2" clip-path="url(#SVGID_2_)" fill="#74BFFD" width="760.3" height="1.1"/>
			<rect x="578.2" y="751.2" clip-path="url(#SVGID_2_)" fill="#73BFFD" width="760.3" height="1.1"/>
			<rect x="578.2" y="750.1" clip-path="url(#SVGID_2_)" fill="#72BEFD" width="760.3" height="1.1"/>
			<rect x="578.2" y="749" clip-path="url(#SVGID_2_)" fill="#71BEFD" width="760.3" height="1.1"/>
			<rect x="578.2" y="747.9" clip-path="url(#SVGID_2_)" fill="#70BDFD" width="760.3" height="1.1"/>
			<rect x="578.2" y="746.8" clip-path="url(#SVGID_2_)" fill="#6FBDFD" width="760.3" height="1.1"/>
			<rect x="578.2" y="745.8" clip-path="url(#SVGID_2_)" fill="#6EBCFD" width="760.3" height="1.1"/>
			<rect x="578.2" y="744.7" clip-path="url(#SVGID_2_)" fill="#6DBCFD" width="760.3" height="1.1"/>
			<rect x="578.2" y="505.7" clip-path="url(#SVGID_2_)" fill="#6DBCFD" width="760.3" height="238.9"/>
		</g>
	</g>
	<g id="XMLID_72_" opacity="0.15">
		<path fill="#6DBCFD" d="M1527.6,508.9c-2.2-10.2-11-18-21.7-18.7c-4.2-16.4-19.1-28.5-36.8-28.5c-17.7,0-32.6,12.1-36.8,28.5
			c-11,0.5-20,8.3-22.2,18.7c-1-0.2-2-0.3-3.1-0.3c-8,0-14.6,6.5-14.6,14.6c0,8,6.5,14.6,14.6,14.6c0.9,0,1.7-0.1,2.5-0.2v0.2h114.3
			v0c0.3,0,0.5,0,0.8,0c8,0,14.6-6.5,14.6-14.6C1539.2,516.2,1534.2,510.3,1527.6,508.9z"/>
	</g>
	<g id="XMLID_2_" opacity="0.15">
		<path fill="#6DBCFD" d="M1316.3,374.5h-140.9c-3.8,0-6.8-3.1-6.8-6.8v0c0-3.8,3.1-6.8,6.8-6.8h140.9c3.8,0,6.8,3.1,6.8,6.8v0
			C1323.1,371.5,1320.1,374.5,1316.3,374.5z"/>
	</g>
	<g id="XMLID_10_" opacity="0.15">
		<path fill="#6DBCFD" d="M538.2,559.9h-63.6c-3.8,0-6.8-3.1-6.8-6.8l0,0c0-3.8,3.1-6.8,6.8-6.8h63.6c3.8,0,6.8,3.1,6.8,6.8l0,0
			C545,556.8,542,559.9,538.2,559.9z"/>
	</g>
	<g id="XMLID_5_" opacity="0.15">
		<path fill="#6DBCFD" d="M1370.6,399.2h-140.9c-3.8,0-6.8-3.1-6.8-6.8l0,0c0-3.8,3.1-6.8,6.8-6.8h140.9c3.8,0,6.8,3.1,6.8,6.8l0,0
			C1377.5,396.2,1374.4,399.2,1370.6,399.2z"/>
	</g>
	<g id="XMLID_3_" opacity="0.15">
		<path fill="#6DBCFD" d="M655.5,403.1L655.5,403.1c-3.8,0-6.8-3.1-6.8-6.8l0,0c0-3.8,3.1-6.8,6.8-6.8l0,0c3.8,0,6.8,3.1,6.8,6.8
			l0,0C662.3,400,659.2,403.1,655.5,403.1z"/>
	</g>
	<g id="XMLID_9_" opacity="0.15">
		<path fill="#6DBCFD" d="M438.5,559.9L438.5,559.9c-3.8,0-6.8-3.1-6.8-6.8l0,0c0-3.8,3.1-6.8,6.8-6.8l0,0c3.8,0,6.8,3.1,6.8,6.8
			l0,0C445.3,556.8,442.3,559.9,438.5,559.9z"/>
	</g>
	<g id="XMLID_4_" opacity="0.15">
		<path fill="#6DBCFD" d="M1136.6,374.5L1136.6,374.5c-3.8,0-6.8-3.1-6.8-6.8v0c0-3.8,3.1-6.8,6.8-6.8l0,0c3.8,0,6.8,3.1,6.8,6.8v0
			C1143.5,371.5,1140.4,374.5,1136.6,374.5z"/>
	</g>
	<g id="XMLID_25_" opacity="0.15">
		<path fill="#6DBCFD" d="M524.8,460.3c-2.4-10.9-11.7-19.1-23.1-19.8c-4.5-17.4-20.3-30.3-39.1-30.3c-18.8,0-34.6,12.9-39.1,30.3
			c-11.6,0.5-21.2,8.8-23.6,19.9c-1.1-0.2-2.1-0.3-3.3-0.3c-8.5,0-15.5,6.9-15.5,15.5c0,8.5,6.9,15.5,15.5,15.5
			c0.9,0,1.8-0.1,2.7-0.2v0.2h121.5v0c0.3,0,0.6,0,0.9,0c8.5,0,15.5-6.9,15.5-15.5C537.1,468,531.8,461.7,524.8,460.3z M486.2,473.5
			h-33.7c-2.5,0-4.6-2-4.6-4.6c0-2.5,2-4.6,4.6-4.6h33.7c2.5,0,4.6,2,4.6,4.6C490.8,471.5,488.7,473.5,486.2,473.5z M503,473.5
			c-2.5,0-4.6-2-4.6-4.6c0-2.5,2-4.6,4.6-4.6c2.5,0,4.6,2,4.6,4.6C507.6,471.5,505.5,473.5,503,473.5z"/>
	</g>
	<g id="XMLID_6_" opacity="0.15">
		<g>
			<defs>
				<path id="SVGID_3_" d="M1221.7,441.3h-99.3c-4.3,0-7.8-3.5-7.8-7.8c0-4.3,3.5-7.8,7.8-7.8h76.4c-7-4.5-14.1-8.7-21.3-12.8
					h-121.3c-4.3,0-7.8-3.5-7.8-7.8v0c0-4.3,3.5-7.8,7.8-7.8h91.3c-61.7-29.4-130.7-45.9-203.6-45.9c-85.9,0-166.4,22.9-235.9,62.8
					h113.4c4.3,0,7.8,3.5,7.8,7.8v0c0,4.3-3.5,7.8-7.8,7.8H682.9c-128,84.8-212.5,230.1-212.5,395.2c0,26,2.1,51.6,6.1,76.5l935,0
					c4-24.9,6.1-50.5,6.1-76.5C1417.7,667.1,1340.4,527.3,1221.7,441.3z M858.7,422c0,4.3-3.5,7.8-7.8,7.8c-4.3,0-7.8-3.5-7.8-7.8v0
					c0-4.3,3.5-7.8,7.8-7.8C855.2,414.2,858.7,417.7,858.7,422L858.7,422z"/>
			</defs>
			<clipPath id="SVGID_4_">
				<use xlink:href="#SVGID_3_"  overflow="visible"/>
			</clipPath>
			<rect x="843.1" y="427.6" clip-path="url(#SVGID_4_)" fill="#78C1FD" width="15.6" height="2.2"/>
			<rect x="843.1" y="423" clip-path="url(#SVGID_4_)" fill="#77C1FD" width="15.6" height="4.6"/>
			<rect x="843.1" y="418.3" clip-path="url(#SVGID_4_)" fill="#76C0FD" width="15.6" height="4.6"/>
			<rect x="843.1" y="414.2" clip-path="url(#SVGID_4_)" fill="#75C0FD" width="15.6" height="4.1"/>
			<rect x="470.4" y="901.2" clip-path="url(#SVGID_4_)" fill="#DFF0FF" width="947.3" height="0.3"/>
			<rect x="470.4" y="896.6" clip-path="url(#SVGID_4_)" fill="#DEF0FF" width="947.3" height="4.6"/>
			<rect x="470.4" y="892" clip-path="url(#SVGID_4_)" fill="#DDEFFF" width="947.3" height="4.6"/>
			<rect x="470.4" y="887.3" clip-path="url(#SVGID_4_)" fill="#DCEFFF" width="947.3" height="4.6"/>
			<rect x="470.4" y="882.7" clip-path="url(#SVGID_4_)" fill="#DBEEFF" width="947.3" height="4.6"/>
			<rect x="470.4" y="878" clip-path="url(#SVGID_4_)" fill="#DAEEFE" width="947.3" height="4.6"/>
			<rect x="470.4" y="873.4" clip-path="url(#SVGID_4_)" fill="#D9EDFE" width="947.3" height="4.6"/>
			<rect x="470.4" y="868.7" clip-path="url(#SVGID_4_)" fill="#D8EDFE" width="947.3" height="4.6"/>
			<rect x="470.4" y="864.1" clip-path="url(#SVGID_4_)" fill="#D7EDFE" width="947.3" height="4.6"/>
			<rect x="470.4" y="859.4" clip-path="url(#SVGID_4_)" fill="#D6ECFE" width="947.3" height="4.6"/>
			<rect x="470.4" y="854.8" clip-path="url(#SVGID_4_)" fill="#D5ECFE" width="947.3" height="4.6"/>
			<rect x="470.4" y="850.2" clip-path="url(#SVGID_4_)" fill="#D4EBFE" width="947.3" height="4.6"/>
			<rect x="470.4" y="845.5" clip-path="url(#SVGID_4_)" fill="#D3EBFE" width="947.3" height="4.6"/>
			<rect x="470.4" y="840.9" clip-path="url(#SVGID_4_)" fill="#D2EAFE" width="947.3" height="4.6"/>
			<rect x="470.4" y="836.2" clip-path="url(#SVGID_4_)" fill="#D1EAFE" width="947.3" height="4.6"/>
			<rect x="470.4" y="831.6" clip-path="url(#SVGID_4_)" fill="#D0E9FE" width="947.3" height="4.6"/>
			<rect x="470.4" y="826.9" clip-path="url(#SVGID_4_)" fill="#CFE9FE" width="947.3" height="4.6"/>
			<rect x="470.4" y="822.3" clip-path="url(#SVGID_4_)" fill="#CEE8FE" width="947.3" height="4.6"/>
			<rect x="470.4" y="817.7" clip-path="url(#SVGID_4_)" fill="#CDE8FE" width="947.3" height="4.6"/>
			<rect x="470.4" y="813" clip-path="url(#SVGID_4_)" fill="#CCE7FE" width="947.3" height="4.6"/>
			<rect x="470.4" y="808.4" clip-path="url(#SVGID_4_)" fill="#CBE7FE" width="947.3" height="4.6"/>
			<rect x="470.4" y="803.7" clip-path="url(#SVGID_4_)" fill="#CAE7FE" width="947.3" height="4.6"/>
			<rect x="470.4" y="799.1" clip-path="url(#SVGID_4_)" fill="#C9E6FE" width="947.3" height="4.6"/>
			<rect x="470.4" y="794.4" clip-path="url(#SVGID_4_)" fill="#C8E6FE" width="947.3" height="4.6"/>
			<rect x="470.4" y="789.8" clip-path="url(#SVGID_4_)" fill="#C7E5FE" width="947.3" height="4.6"/>
			<rect x="470.4" y="785.2" clip-path="url(#SVGID_4_)" fill="#C6E5FE" width="947.3" height="4.6"/>
			<rect x="470.4" y="780.5" clip-path="url(#SVGID_4_)" fill="#C5E4FE" width="947.3" height="4.6"/>
			<rect x="470.4" y="775.9" clip-path="url(#SVGID_4_)" fill="#C4E4FE" width="947.3" height="4.6"/>
			<rect x="470.4" y="771.2" clip-path="url(#SVGID_4_)" fill="#C3E3FE" width="947.3" height="4.6"/>
			<rect x="470.4" y="766.6" clip-path="url(#SVGID_4_)" fill="#C2E3FE" width="947.3" height="4.6"/>
			<rect x="470.4" y="761.9" clip-path="url(#SVGID_4_)" fill="#C1E2FE" width="947.3" height="4.6"/>
			<rect x="470.4" y="757.3" clip-path="url(#SVGID_4_)" fill="#C0E2FE" width="947.3" height="4.6"/>
			<rect x="470.4" y="752.7" clip-path="url(#SVGID_4_)" fill="#BFE1FE" width="947.3" height="4.6"/>
			<rect x="470.4" y="748" clip-path="url(#SVGID_4_)" fill="#BEE1FE" width="947.3" height="4.6"/>
			<rect x="470.4" y="743.4" clip-path="url(#SVGID_4_)" fill="#BDE1FE" width="947.3" height="4.6"/>
			<rect x="470.4" y="738.7" clip-path="url(#SVGID_4_)" fill="#BCE0FE" width="947.3" height="4.6"/>
			<rect x="470.4" y="734.1" clip-path="url(#SVGID_4_)" fill="#BBE0FE" width="947.3" height="4.6"/>
			<rect x="470.4" y="729.4" clip-path="url(#SVGID_4_)" fill="#BADFFE" width="947.3" height="4.6"/>
			<rect x="470.4" y="724.8" clip-path="url(#SVGID_4_)" fill="#B9DFFE" width="947.3" height="4.6"/>
			<rect x="470.4" y="720.1" clip-path="url(#SVGID_4_)" fill="#B8DEFE" width="947.3" height="4.6"/>
			<rect x="470.4" y="715.5" clip-path="url(#SVGID_4_)" fill="#B7DEFE" width="947.3" height="4.6"/>
			<rect x="470.4" y="710.9" clip-path="url(#SVGID_4_)" fill="#B5DDFE" width="947.3" height="4.6"/>
			<rect x="470.4" y="706.2" clip-path="url(#SVGID_4_)" fill="#B4DDFE" width="947.3" height="4.6"/>
			<rect x="470.4" y="701.6" clip-path="url(#SVGID_4_)" fill="#B3DCFE" width="947.3" height="4.6"/>
			<rect x="470.4" y="696.9" clip-path="url(#SVGID_4_)" fill="#B2DCFE" width="947.3" height="4.6"/>
			<rect x="470.4" y="692.3" clip-path="url(#SVGID_4_)" fill="#B1DBFE" width="947.3" height="4.6"/>
			<rect x="470.4" y="687.6" clip-path="url(#SVGID_4_)" fill="#B0DBFE" width="947.3" height="4.6"/>
			<rect x="470.4" y="683" clip-path="url(#SVGID_4_)" fill="#AFDAFE" width="947.3" height="4.6"/>
			<rect x="470.4" y="678.4" clip-path="url(#SVGID_4_)" fill="#AEDAFE" width="947.3" height="4.6"/>
			<rect x="470.4" y="673.7" clip-path="url(#SVGID_4_)" fill="#ADDAFE" width="947.3" height="4.6"/>
			<rect x="470.4" y="669.1" clip-path="url(#SVGID_4_)" fill="#ACD9FE" width="947.3" height="4.6"/>
			<rect x="470.4" y="664.4" clip-path="url(#SVGID_4_)" fill="#ABD9FE" width="947.3" height="4.6"/>
			<rect x="470.4" y="659.8" clip-path="url(#SVGID_4_)" fill="#AAD8FE" width="947.3" height="4.6"/>
			<rect x="470.4" y="655.1" clip-path="url(#SVGID_4_)" fill="#A9D8FE" width="947.3" height="4.6"/>
			<rect x="470.4" y="650.5" clip-path="url(#SVGID_4_)" fill="#A8D7FE" width="947.3" height="4.6"/>
			<rect x="470.4" y="645.9" clip-path="url(#SVGID_4_)" fill="#A7D7FE" width="947.3" height="4.6"/>
			<rect x="470.4" y="641.2" clip-path="url(#SVGID_4_)" fill="#A6D6FE" width="947.3" height="4.6"/>
			<rect x="470.4" y="636.6" clip-path="url(#SVGID_4_)" fill="#A5D6FE" width="947.3" height="4.6"/>
			<rect x="470.4" y="631.9" clip-path="url(#SVGID_4_)" fill="#A4D5FE" width="947.3" height="4.6"/>
			<rect x="470.4" y="627.3" clip-path="url(#SVGID_4_)" fill="#A3D5FE" width="947.3" height="4.6"/>
			<rect x="470.4" y="622.6" clip-path="url(#SVGID_4_)" fill="#A2D4FE" width="947.3" height="4.6"/>
			<rect x="470.4" y="618" clip-path="url(#SVGID_4_)" fill="#A1D4FE" width="947.3" height="4.6"/>
			<rect x="470.4" y="613.3" clip-path="url(#SVGID_4_)" fill="#A0D4FE" width="947.3" height="4.6"/>
			<rect x="470.4" y="608.7" clip-path="url(#SVGID_4_)" fill="#9FD3FE" width="947.3" height="4.6"/>
			<rect x="470.4" y="604.1" clip-path="url(#SVGID_4_)" fill="#9ED3FE" width="947.3" height="4.6"/>
			<rect x="470.4" y="599.4" clip-path="url(#SVGID_4_)" fill="#9DD2FE" width="947.3" height="4.6"/>
			<rect x="470.4" y="594.8" clip-path="url(#SVGID_4_)" fill="#9CD2FE" width="947.3" height="4.6"/>
			<rect x="470.4" y="590.1" clip-path="url(#SVGID_4_)" fill="#9BD1FE" width="947.3" height="4.6"/>
			<rect x="470.4" y="585.5" clip-path="url(#SVGID_4_)" fill="#9AD1FE" width="947.3" height="4.6"/>
			<rect x="470.4" y="580.8" clip-path="url(#SVGID_4_)" fill="#99D0FE" width="947.3" height="4.6"/>
			<rect x="470.4" y="576.2" clip-path="url(#SVGID_4_)" fill="#98D0FE" width="947.3" height="4.6"/>
			<rect x="470.4" y="571.6" clip-path="url(#SVGID_4_)" fill="#97CFFE" width="947.3" height="4.6"/>
			<rect x="470.4" y="566.9" clip-path="url(#SVGID_4_)" fill="#96CFFE" width="947.3" height="4.6"/>
			<rect x="470.4" y="562.3" clip-path="url(#SVGID_4_)" fill="#95CEFE" width="947.3" height="4.6"/>
			<rect x="470.4" y="557.6" clip-path="url(#SVGID_4_)" fill="#94CEFE" width="947.3" height="4.6"/>
			<rect x="470.4" y="553" clip-path="url(#SVGID_4_)" fill="#93CEFE" width="947.3" height="4.6"/>
			<rect x="470.4" y="548.3" clip-path="url(#SVGID_4_)" fill="#92CDFE" width="947.3" height="4.6"/>
			<rect x="470.4" y="543.7" clip-path="url(#SVGID_4_)" fill="#91CDFD" width="947.3" height="4.6"/>
			<rect x="470.4" y="539.1" clip-path="url(#SVGID_4_)" fill="#90CCFD" width="947.3" height="4.6"/>
			<rect x="470.4" y="534.4" clip-path="url(#SVGID_4_)" fill="#8FCCFD" width="947.3" height="4.6"/>
			<rect x="470.4" y="529.8" clip-path="url(#SVGID_4_)" fill="#8ECBFD" width="947.3" height="4.6"/>
			<rect x="470.4" y="525.1" clip-path="url(#SVGID_4_)" fill="#8DCBFD" width="947.3" height="4.6"/>
			<rect x="470.4" y="520.5" clip-path="url(#SVGID_4_)" fill="#8CCAFD" width="947.3" height="4.6"/>
			<rect x="470.4" y="515.8" clip-path="url(#SVGID_4_)" fill="#8BCAFD" width="947.3" height="4.6"/>
			<rect x="470.4" y="511.2" clip-path="url(#SVGID_4_)" fill="#8AC9FD" width="947.3" height="4.6"/>
			<rect x="470.4" y="506.5" clip-path="url(#SVGID_4_)" fill="#89C9FD" width="947.3" height="4.6"/>
			<rect x="470.4" y="501.9" clip-path="url(#SVGID_4_)" fill="#88C8FD" width="947.3" height="4.6"/>
			<rect x="470.4" y="497.3" clip-path="url(#SVGID_4_)" fill="#87C8FD" width="947.3" height="4.6"/>
			<rect x="470.4" y="492.6" clip-path="url(#SVGID_4_)" fill="#86C8FD" width="947.3" height="4.6"/>
			<rect x="470.4" y="488" clip-path="url(#SVGID_4_)" fill="#85C7FD" width="947.3" height="4.6"/>
			<rect x="470.4" y="483.3" clip-path="url(#SVGID_4_)" fill="#84C7FD" width="947.3" height="4.6"/>
			<rect x="470.4" y="478.7" clip-path="url(#SVGID_4_)" fill="#83C6FD" width="947.3" height="4.6"/>
			<rect x="470.4" y="474" clip-path="url(#SVGID_4_)" fill="#82C6FD" width="947.3" height="4.6"/>
			<rect x="470.4" y="469.4" clip-path="url(#SVGID_4_)" fill="#81C5FD" width="947.3" height="4.6"/>
			<rect x="470.4" y="464.8" clip-path="url(#SVGID_4_)" fill="#80C5FD" width="947.3" height="4.6"/>
			<rect x="470.4" y="460.1" clip-path="url(#SVGID_4_)" fill="#7FC4FD" width="947.3" height="4.6"/>
			<rect x="470.4" y="455.5" clip-path="url(#SVGID_4_)" fill="#7EC4FD" width="947.3" height="4.6"/>
			<rect x="470.4" y="450.8" clip-path="url(#SVGID_4_)" fill="#7DC3FD" width="947.3" height="4.6"/>
			<rect x="470.4" y="446.2" clip-path="url(#SVGID_4_)" fill="#7CC3FD" width="947.3" height="4.6"/>
			<rect x="470.4" y="441.5" clip-path="url(#SVGID_4_)" fill="#7BC2FD" width="947.3" height="4.6"/>
			<rect x="470.4" y="436.9" clip-path="url(#SVGID_4_)" fill="#7AC2FD" width="947.3" height="4.6"/>
			<rect x="470.4" y="432.3" clip-path="url(#SVGID_4_)" fill="#79C2FD" width="947.3" height="4.6"/>
			<rect x="470.4" y="427.6" clip-path="url(#SVGID_4_)" fill="#78C1FD" width="947.3" height="4.6"/>
			<rect x="470.4" y="423" clip-path="url(#SVGID_4_)" fill="#77C1FD" width="947.3" height="4.6"/>
			<rect x="470.4" y="418.3" clip-path="url(#SVGID_4_)" fill="#76C0FD" width="947.3" height="4.6"/>
			<rect x="470.4" y="413.7" clip-path="url(#SVGID_4_)" fill="#75C0FD" width="947.3" height="4.6"/>
			<rect x="470.4" y="409" clip-path="url(#SVGID_4_)" fill="#74BFFD" width="947.3" height="4.6"/>
			<rect x="470.4" y="404.4" clip-path="url(#SVGID_4_)" fill="#73BFFD" width="947.3" height="4.6"/>
			<rect x="470.4" y="399.7" clip-path="url(#SVGID_4_)" fill="#72BEFD" width="947.3" height="4.6"/>
			<rect x="470.4" y="395.1" clip-path="url(#SVGID_4_)" fill="#71BEFD" width="947.3" height="4.6"/>
			<rect x="470.4" y="390.5" clip-path="url(#SVGID_4_)" fill="#70BDFD" width="947.3" height="4.6"/>
			<rect x="470.4" y="385.8" clip-path="url(#SVGID_4_)" fill="#6FBDFD" width="947.3" height="4.6"/>
			<rect x="470.4" y="381.2" clip-path="url(#SVGID_4_)" fill="#6EBCFD" width="947.3" height="4.6"/>
			<rect x="470.4" y="376.5" clip-path="url(#SVGID_4_)" fill="#6DBCFD" width="947.3" height="4.6"/>
			<rect x="470.4" y="351.4" clip-path="url(#SVGID_4_)" fill="#6DBCFD" width="947.3" height="25.2"/>
		</g>
	</g>
</g>
<g id="XMLID_12_">
	<rect x="652.8" y="667.1" fill="#FFFFFF" width="508.1" height="215.3"/>
	<path fill="#6DBCFD" d="M1163.5,885H650.1V664.4h513.4V885z M655.4,879.8h502.8V669.7H655.4V879.8z"/>
</g>
<g id="XMLID_104_" opacity="0.3">
	<rect x="654.6" y="669.6" fill="#6DBCFD" width="508.1" height="5"/>
</g>
<g id="XMLID_127_" opacity="0.3">
	<rect x="655.5" y="674.7" fill="#6DBCFD" width="3.7" height="205.6"/>
</g>
<g id="XMLID_49_">
	<path fill="#FFFFFF" d="M817.5,882.5H684.8V711.9c0-4.9,4-8.8,8.8-8.8h115c4.9,0,8.8,4,8.8,8.8V882.5z"/>
	<path fill="#6DBCFD" d="M819.2,884.3H683.1V711.9c0-5.8,4.7-10.6,10.6-10.6h115c5.8,0,10.6,4.7,10.6,10.6V884.3z M686.5,880.8
		h129.3V711.9c0-3.9-3.2-7.1-7.1-7.1h-115c-3.9,0-7.1,3.2-7.1,7.1V880.8z"/>
</g>
<g id="XMLID_93_" opacity="0.16">
	<path fill="#6DBCFD" d="M823.5,880H690.8V718.9c0-4.9,4-8.8,8.8-8.8h115c4.9,0,8.8,4,8.8,8.8V880z"/>
</g>
<g id="XMLID_58_" opacity="0.16">
	<path fill="#6DBCFD" d="M817.5,882.5H684.8V711.9c0-4.9,4-8.8,8.8-8.8h115c4.9,0,8.8,4,8.8,8.8V882.5z"/>
</g>
<g id="XMLID_118_" opacity="0.19">
	<path fill="#6DBCFD" d="M616.2,867.2h-52v-58.7c0-3,2.4-5.4,5.4-5.4h41.1c3,0,5.4,2.4,5.4,5.4V867.2z"/>
</g>
<g id="XMLID_196_">
	<path fill="#6DBCFD" d="M613.8,870.1H559v-66.2c0-3.8,3.1-6.9,6.9-6.9H607c3.8,0,6.9,3.1,6.9,6.9V870.1z M561.9,867.3H611v-63.4
		c0-2.2-1.8-4-4-4h-41.1c-2.2,0-4,1.8-4,4V867.3z"/>
</g>
<g id="XMLID_57_">
	<path fill="#FFFFFF" d="M973.2,882.5H840.5V711.9c0-4.9,4-8.8,8.8-8.8h115c4.9,0,8.8,4,8.8,8.8V882.5z"/>
	<path fill="#6DBCFD" d="M974.9,884.3H838.7V711.9c0-5.8,4.7-10.6,10.6-10.6h115c5.8,0,10.6,4.7,10.6,10.6V884.3z M842.2,880.8
		h129.3V711.9c0-3.9-3.2-7.1-7.1-7.1h-115c-3.9,0-7.1,3.2-7.1,7.1V880.8z"/>
</g>
<g id="XMLID_102_" opacity="0.16">
	<path fill="#6DBCFD" d="M980.2,880H847.5V719.9c0-4.9,4-8.8,8.8-8.8h115c4.9,0,8.8,4,8.8,8.8V880z"/>
</g>
<g id="XMLID_68_" opacity="0.16">
	<path fill="#6DBCFD" d="M973.2,882.5H840.5V711.9c0-4.9,4-8.8,8.8-8.8h115c4.9,0,8.8,4,8.8,8.8V882.5z"/>
</g>
<g id="XMLID_122_" opacity="0.14">
	<path fill="#6DBCFD" d="M1146.9,882.5h-132.7V716.9c0-4.9,4-8.8,8.8-8.8h115c4.9,0,8.8,4,8.8,8.8V882.5z"/>
</g>
<g id="XMLID_105_">
	<path fill="#6DBCFD" d="M1142.3,884h-135.6V711.9c0-5.7,4.6-10.3,10.3-10.3h115c5.7,0,10.3,4.6,10.3,10.3V884z M1009.6,881.1h129.9
		V711.9c0-4.1-3.3-7.4-7.4-7.4h-115c-4.1,0-7.4,3.3-7.4,7.4V881.1z"/>
</g>
<g id="XMLID_123_">
	<rect x="1071.1" y="703.6" fill="#FFFFFF" width="5.9" height="176.9"/>
</g>
<g id="XMLID_116_">
	<polygon fill="#6DBCFD" points="1115.4,884 1075.1,884 1075.1,701.6 1108.6,701.6 1108.6,704.5 1078,704.5 1078,881.1 
		1115.4,881.1 	"/>
</g>
<g id="XMLID_119_">
	<polygon fill="#6DBCFD" points="1109.9,884 1069.7,884 1069.7,701.6 1103.2,701.6 1103.2,704.5 1072.6,704.5 1072.6,881.1 
		1109.9,881.1 	"/>
</g>
<g id="XMLID_106_">
	<path fill="#FFFFFF" d="M972.2,832.4c-1.7-6.7-7.8-11.7-15-11.7c-6.5,0-12.1,4-14.4,9.7c-1.9-0.9-4.1-1.3-6.3-1.3
		c-5.3,0-9.9,2.6-12.7,6.6c-2.7-2.4-6.3-3.9-10.3-3.9c-4,0-7.6,1.5-10.4,4c-2.3-5.6-7.9-9.5-14.3-9.5c-6,0-11.2,3.4-13.8,8.4
		c-2.8-3.2-7-5.2-11.6-5.2c-2.1,0-4.2,0.4-6,1.2c-1.7-6.6-7.8-11.5-15-11.5c-7.9,0-14.4,5.9-15.4,13.5c-1.3-0.3-2.6-0.5-4-0.5
		c-3.6,0-6.9,1.2-9.5,3.3c-2.4-5.4-7.8-9.1-14.1-9.1c-3.8,0-7.3,1.4-10,3.7c-1.1-7.5-7.5-13.3-15.3-13.3c-6.3,0-11.8,3.8-14.2,9.3
		c-2.5-1.7-5.5-2.8-8.8-2.8c-6.6,0-12.2,4.1-14.4,9.9c-2.8-3.1-6.9-5.1-11.4-5.1c-0.9,0-1.9,0.1-2.8,0.3c0-0.1,0-0.2,0-0.3
		c0-8.6-6.9-15.5-15.5-15.5s-15.5,6.9-15.5,15.5c-8.6,0-15.5,6.9-15.5,15.5c0,8.6,6.9,15.5,15.5,15.5s15.5-6.9,15.5-15.5
		c0.9,0,1.9-0.1,2.8-0.3c0,0.1,0,0.2,0,0.3c0,8.6,6.9,15.5,15.5,15.5c6.6,0,12.2-4.1,14.4-9.9c2.8,3.1,6.9,5.1,11.4,5.1
		c6.3,0,11.8-3.8,14.2-9.3c2.5,1.7,5.5,2.8,8.8,2.8c3.8,0,7.3-1.4,10-3.7c1.1,7.5,7.5,13.3,15.3,13.3c3.6,0,6.9-1.2,9.5-3.3
		c2.4,5.4,7.8,9.1,14.1,9.1c7.9,0,14.4-5.9,15.4-13.5c1.3,0.3,2.6,0.5,4,0.5c2.1,0,4.2-0.4,6-1.2c1.7,6.6,7.8,11.5,15,11.5
		c6,0,11.2-3.4,13.8-8.4c2.8,3.2,7,5.2,11.6,5.2c4,0,7.6-1.5,10.4-4c2.3,5.6,7.9,9.5,14.3,9.5c5.3,0,9.9-2.6,12.7-6.6
		c2.7,2.4,6.3,3.9,10.3,3.9c6.5,0,12.1-4,14.4-9.7c0.5,0.2,1.1,0.4,1.6,0.6c1.7,6.7,7.8,11.7,15,11.7c8.6,0,15.5-6.9,15.5-15.5
		C983,840.3,978.4,834.4,972.2,832.4z"/>
	<path fill="#6DBCFD" d="M823.2,864.8c-6.1,0-11.6-3.2-14.7-8.3c-2.7,1.6-5.7,2.5-8.9,2.5c-7.6,0-14.2-5.1-16.4-12.1
		c-2.7,1.6-5.7,2.5-8.9,2.5c-2.9,0-5.6-0.7-8.1-2c-3.1,5.2-8.7,8.5-14.9,8.5c-4,0-7.8-1.4-10.9-3.9c-3,5.4-8.7,8.7-15,8.7
		c-8.3,0-15.3-5.9-16.9-13.8c-1.6,7.9-8.6,13.8-16.9,13.8c-9.5,0-17.2-7.7-17.2-17.2c0-8.9,6.9-16.3,15.6-17.1
		c0.8-8.7,8.2-15.6,17.1-15.6c8.9,0,16.3,6.8,17.1,15.5c4.4-0.3,8.7,1.1,12,3.9c3-5.4,8.7-8.7,15-8.7c2.9,0,5.6,0.7,8.1,2
		c3.1-5.2,8.7-8.5,14.9-8.5c7.6,0,14.3,5.1,16.4,12.1c2.7-1.6,5.7-2.5,8.9-2.5c6.1,0,11.6,3.2,14.7,8.3c3.4-2.1,7.4-2.9,11.5-2.3
		c1.8-7.6,8.7-13.2,16.7-13.2c7.2,0,13.5,4.5,16.1,11.1c1.6-0.5,3.2-0.7,4.9-0.7c4.1,0,8.1,1.5,11.2,4.2c3.2-4.6,8.4-7.4,14.1-7.4
		c6.2,0,11.8,3.3,14.9,8.6c2.9-2,6.3-3.1,9.8-3.1c3.6,0,7.1,1.1,10,3.2c3.3-3.7,8-5.9,13-5.9c1.9,0,3.7,0.3,5.4,0.9
		c3-5.6,8.8-9.2,15.2-9.2c7.6,0,14.2,4.9,16.4,12.1c6.7,2.5,11.1,8.9,11.1,16.1c0,9.5-7.7,17.2-17.2,17.2c-7.3,0-13.6-4.5-16.1-11.2
		c-3.1,5.3-8.7,8.5-14.9,8.5c-3.6,0-7.1-1.1-10-3.2c-3.3,3.7-8,5.9-13,5.9c-6.2,0-11.8-3.3-14.9-8.6c-2.9,2-6.3,3.1-9.8,3.1
		c-4.1,0-8.1-1.5-11.2-4.2c-3.2,4.6-8.4,7.4-14.1,7.4c-7.2,0-13.5-4.5-16.1-11.1c-2.4,0.7-4.9,0.9-7.5,0.5
		C838.1,859.2,831.2,864.8,823.2,864.8z M809.7,851.2l0.9,2c2.2,4.9,7.2,8.1,12.6,8.1c6.9,0,12.8-5.2,13.7-12l0.2-1.9l1.9,0.5
		c3.1,0.8,6.1,0.6,8.9-0.6l1.8-0.8l0.5,1.9c1.6,6,7.1,10.3,13.3,10.3c5.2,0,9.8-2.9,12.2-7.5l1.2-2.2l1.7,1.9
		c2.6,2.9,6.4,4.6,10.3,4.6c3.4,0,6.7-1.3,9.2-3.6l1.8-1.6l0.9,2.2c2.2,5.1,7.1,8.5,12.7,8.5c4.5,0,8.7-2.2,11.3-5.9l1.1-1.6
		l1.4,1.3c2.5,2.3,5.8,3.5,9.2,3.5c5.6,0,10.6-3.4,12.8-8.6l0.7-1.7l1.6,0.7c0.5,0.2,1,0.4,1.4,0.6l0.9,0.3l0.2,0.9
		c1.5,6.1,7,10.4,13.3,10.4c7.6,0,13.8-6.2,13.8-13.8c0-6-3.9-11.3-9.6-13.1l-0.9-0.3l-0.2-0.9c-1.5-6.1-7-10.4-13.3-10.4
		c-5.6,0-10.6,3.4-12.8,8.6l-0.7,1.6l-1.6-0.7c-1.8-0.8-3.7-1.2-5.6-1.2c-4.5,0-8.7,2.2-11.3,5.9l-1.1,1.6l-1.4-1.3
		c-2.5-2.3-5.8-3.5-9.2-3.5c-3.4,0-6.7,1.3-9.2,3.6l-1.8,1.6l-0.9-2.2c-2.2-5.1-7.1-8.5-12.7-8.5c-5.2,0-9.8,2.9-12.2,7.5l-1.2,2.2
		l-1.7-1.9c-2.6-2.9-6.4-4.6-10.3-4.6c-1.9,0-3.7,0.4-5.4,1.1l-1.8,0.8l-0.5-1.9c-1.6-6-7.1-10.3-13.3-10.3c-6.9,0-12.8,5.2-13.7,12
		l-0.2,1.9l-1.9-0.5c-4.4-1.2-8.7-0.2-12,2.5l-1.7,1.4l-0.9-2c-2.2-4.9-7.2-8.1-12.6-8.1c-3.2,0-6.4,1.2-8.9,3.3l-2.4,2l-0.4-3.1
		c-0.9-6.8-6.8-11.9-13.6-11.9c-5.5,0-10.4,3.2-12.6,8.2l-0.8,1.9l-1.7-1.2c-2.3-1.6-5-2.5-7.8-2.5c-5.7,0-10.8,3.5-12.8,8.8l-1,2.6
		l-1.9-2c-2.6-2.9-6.3-4.5-10.2-4.5c-0.8,0-1.6,0.1-2.5,0.2l-2.1,0.4l0-2.1c0-0.1,0-0.1,0-0.2c0-7.6-6.2-13.8-13.8-13.8
		s-13.8,6.2-13.8,13.8v1.7h-1.7c-7.6,0-13.8,6.2-13.8,13.8s6.2,13.8,13.8,13.8s13.8-6.2,13.8-13.8v-1.7h1.7c0.8,0,1.6-0.1,2.5-0.2
		l2.1-0.4l0,2.1c0,0.1,0,0.1,0,0.2c0,7.6,6.2,13.8,13.8,13.8c5.7,0,10.8-3.4,12.8-8.8l1-2.6l1.9,2c2.6,2.9,6.3,4.5,10.2,4.5
		c5.5,0,10.4-3.2,12.6-8.2l0.8-1.9l1.7,1.2c2.3,1.6,5,2.5,7.8,2.5c3.2,0,6.4-1.2,8.9-3.3l2.4-2l0.4,3.1c0.9,6.8,6.8,11.9,13.6,11.9
		c3.1,0,6-1,8.5-2.9L809.7,851.2z"/>
</g>
<g id="XMLID_69_" opacity="0.35">
	<path fill="#6DBCFD" d="M972.2,832.4c-1.7-6.7-7.8-11.7-15-11.7c-6.5,0-12.1,4-14.4,9.7c-1.9-0.9-4.1-1.3-6.3-1.3
		c-5.3,0-9.9,2.6-12.7,6.6c-2.7-2.4-6.3-3.9-10.3-3.9c-4,0-7.6,1.5-10.4,4c-2.3-5.6-7.9-9.5-14.3-9.5c-6,0-11.2,3.4-13.8,8.4
		c-2.8-3.2-7-5.2-11.6-5.2c-2.1,0-4.2,0.4-6,1.2c-1.7-6.6-7.8-11.5-15-11.5c-7.9,0-14.4,5.9-15.4,13.5c-1.3-0.3-2.6-0.5-4-0.5
		c-3.6,0-6.9,1.2-9.5,3.3c-2.4-5.4-7.8-9.1-14.1-9.1c-3.8,0-7.3,1.4-10,3.7c-1.1-7.5-7.5-13.3-15.3-13.3c-6.3,0-11.8,3.8-14.2,9.3
		c-2.5-1.7-5.5-2.8-8.8-2.8c-6.6,0-12.2,4.1-14.4,9.9c-2.8-3.1-6.9-5.1-11.4-5.1c-0.9,0-1.9,0.1-2.8,0.3c0-0.1,0-0.2,0-0.3
		c0-8.6-6.9-15.5-15.5-15.5s-15.5,6.9-15.5,15.5c-8.6,0-15.5,6.9-15.5,15.5c0,8.6,6.9,15.5,15.5,15.5s15.5-6.9,15.5-15.5
		c0.9,0,1.9-0.1,2.8-0.3c0,0.1,0,0.2,0,0.3c0,8.6,6.9,15.5,15.5,15.5c6.6,0,12.2-4.1,14.4-9.9c2.8,3.1,6.9,5.1,11.4,5.1
		c6.3,0,11.8-3.8,14.2-9.3c2.5,1.7,5.5,2.8,8.8,2.8c3.8,0,7.3-1.4,10-3.7c1.1,7.5,7.5,13.3,15.3,13.3c3.6,0,6.9-1.2,9.5-3.3
		c2.4,5.4,7.8,9.1,14.1,9.1c7.9,0,14.4-5.9,15.4-13.5c1.3,0.3,2.6,0.5,4,0.5c2.1,0,4.2-0.4,6-1.2c1.7,6.6,7.8,11.5,15,11.5
		c6,0,11.2-3.4,13.8-8.4c2.8,3.2,7,5.2,11.6,5.2c4,0,7.6-1.5,10.4-4c2.3,5.6,7.9,9.5,14.3,9.5c5.3,0,9.9-2.6,12.7-6.6
		c2.7,2.4,6.3,3.9,10.3,3.9c6.5,0,12.1-4,14.4-9.7c0.5,0.2,1.1,0.4,1.6,0.6c1.7,6.7,7.8,11.7,15,11.7c8.6,0,15.5-6.9,15.5-15.5
		C983,840.3,978.4,834.4,972.2,832.4z"/>
</g>
<g id="XMLID_48_">
	<path fill="#FFFFFF" d="M989.1,882.4H670.4v-36.6c0-1.9,1.5-3.4,3.4-3.4h311.9c1.9,0,3.4,1.5,3.4,3.4V882.4z"/>
	<path fill="#6DBCFD" d="M990.8,884.1H668.7v-38.3c0-2.8,2.3-5.1,5.1-5.1h311.9c2.8,0,5.1,2.3,5.1,5.1V884.1z M672.1,880.7h315.2
		v-34.9c0-0.9-0.7-1.7-1.7-1.7H673.8c-0.9,0-1.7,0.7-1.7,1.7V880.7z"/>
</g>
<g id="XMLID_101_" opacity="0.2">
	<rect x="672.1" y="844" fill="#6DBCFD" width="318.7" height="3.6"/>
</g>
<g id="XMLID_130_" opacity="0.2">
	<rect x="672.1" y="847.6" fill="#6DBCFD" width="3.5" height="33.9"/>
</g>
<g id="XMLID_67_">
	<path fill="#FFFFFF" d="M760,742l-41.5,41.5c-0.7,0.7-1.7,0.7-2.4,0l0,0c-0.7-0.7-0.7-1.7,0-2.4l41.5-41.5c0.7-0.7,1.7-0.7,2.4,0
		l0,0C760.7,740.3,760.7,741.3,760,742z"/>
</g>
<g id="XMLID_70_">
	<path fill="#FFFFFF" d="M782.5,733.9l-41.5,41.5c-0.7,0.7-1.7,0.7-2.4,0l0,0c-0.7-0.7-0.7-1.7,0-2.4l41.5-41.5
		c0.7-0.7,1.7-0.7,2.4,0l0,0C783.1,732.2,783.1,733.3,782.5,733.9z"/>
</g>
<g id="XMLID_71_">
	<path fill="#FFFFFF" d="M767.3,762.4l-41.5,41.5c-0.7,0.7-1.7,0.7-2.4,0l0,0c-0.7-0.7-0.7-1.7,0-2.4l41.5-41.5
		c0.7-0.7,1.7-0.7,2.4,0l0,0C768,760.7,768,761.8,767.3,762.4z"/>
</g>
<g id="XMLID_198_">
	<path fill="#6DBCFD" d="M589.9,816.2l-21.4,21.4c-0.5,0.5-1.2,0.5-1.6,0l0,0c-0.5-0.5-0.5-1.2,0-1.6l21.4-21.4
		c0.5-0.5,1.2-0.5,1.6,0l0,0C590.3,815,590.3,815.7,589.9,816.2z"/>
</g>
<g id="XMLID_200_">
	<path fill="#6DBCFD" d="M595.6,821.9l-21.4,21.4c-0.5,0.5-1.2,0.5-1.6,0l0,0c-0.5-0.5-0.5-1.2,0-1.6l21.4-21.4
		c0.5-0.5,1.2-0.5,1.6,0l0,0C596,820.7,596,821.4,595.6,821.9z"/>
</g>
<g id="XMLID_201_">
	<path fill="#6DBCFD" d="M602.3,828.6L580.9,850c-0.5,0.5-1.2,0.5-1.6,0l0,0c-0.5-0.5-0.5-1.2,0-1.6l21.4-21.4
		c0.5-0.5,1.2-0.5,1.6,0l0,0C602.8,827.5,602.8,828.2,602.3,828.6z"/>
</g>
<g id="XMLID_204_">
	<path fill="#6DBCFD" d="M601.8,837.5l-22.4-22.4c-0.5-0.5-0.5-1.2,0-1.6l0,0c0.5-0.5,1.2-0.5,1.6,0l22.4,22.4
		c0.5,0.5,0.5,1.2,0,1.6l0,0C603,838,602.3,838,601.8,837.5z"/>
</g>
<g id="XMLID_203_">
	<path fill="#6DBCFD" d="M596.1,843.2l-22.4-22.4c-0.5-0.5-0.5-1.2,0-1.6l0,0c0.5-0.5,1.2-0.5,1.6,0l22.4,22.4
		c0.5,0.5,0.5,1.2,0,1.6l0,0C597.3,843.7,596.6,843.7,596.1,843.2z"/>
</g>
<g id="XMLID_202_">
	<path fill="#6DBCFD" d="M589.3,850l-22.4-22.4c-0.5-0.5-0.5-1.2,0-1.6l0,0c0.5-0.5,1.2-0.5,1.6,0l22.4,22.4c0.5,0.5,0.5,1.2,0,1.6
		l0,0C590.5,850.5,589.8,850.5,589.3,850z"/>
</g>
<g id="XMLID_92_">
	<path fill="#FFFFFF" d="M918.9,742l-41.5,41.5c-0.7,0.7-1.7,0.7-2.4,0l0,0c-0.7-0.7-0.7-1.7,0-2.4l41.5-41.5c0.7-0.7,1.7-0.7,2.4,0
		l0,0C919.6,740.3,919.6,741.3,918.9,742z"/>
</g>
<g id="XMLID_91_">
	<path fill="#FFFFFF" d="M941.4,733.9l-41.5,41.5c-0.7,0.7-1.7,0.7-2.4,0l0,0c-0.7-0.7-0.7-1.7,0-2.4l41.5-41.5
		c0.7-0.7,1.7-0.7,2.4,0l0,0C942,732.2,942,733.3,941.4,733.9z"/>
</g>
<g id="XMLID_80_">
	<path fill="#FFFFFF" d="M926.2,762.4l-41.5,41.5c-0.7,0.7-1.7,0.7-2.4,0l0,0c-0.7-0.7-0.7-1.7,0-2.4l41.5-41.5
		c0.7-0.7,1.7-0.7,2.4,0l0,0C926.9,760.7,926.9,761.8,926.2,762.4z"/>
</g>
<g id="XMLID_126_">
	<path fill="#FFFFFF" d="M1061.9,762.9l-25.1,25.1c-0.4,0.4-1,0.4-1.4,0v0c-0.4-0.4-0.4-1,0-1.4l25.1-25.1c0.4-0.4,1-0.4,1.4,0l0,0
		C1062.3,761.8,1062.3,762.5,1061.9,762.9z"/>
</g>
<g id="XMLID_125_">
	<path fill="#FFFFFF" d="M1052.7,785.3l-25.1,25.1c-0.4,0.4-1,0.4-1.4,0l0,0c-0.4-0.4-0.4-1,0-1.4l25.1-25.1c0.4-0.4,1-0.4,1.4,0
		l0,0C1053.1,784.3,1053.1,784.9,1052.7,785.3z"/>
</g>
<g id="XMLID_129_">
	<path fill="#FFFFFF" d="M1130,735.7l-25.1,25.1c-0.4,0.4-1,0.4-1.4,0l0,0c-0.4-0.4-0.4-1,0-1.4l25.1-25.1c0.4-0.4,1-0.4,1.4,0l0,0
		C1130.4,734.7,1130.4,735.3,1130,735.7z"/>
</g>
<g id="XMLID_128_">
	<path fill="#FFFFFF" d="M1120.8,756.4l-25.1,25.1c-0.4,0.4-1,0.4-1.4,0l0,0c-0.4-0.4-0.4-1,0-1.4l25.1-25.1c0.4-0.4,1-0.4,1.4,0
		l0,0C1121.2,755.3,1121.2,756,1120.8,756.4z"/>
</g>
<g id="XMLID_120_" opacity="0.21">
	<path fill="#6DBCFD" d="M1093.6,696h-27.2c-2.2,0-3.9-1.8-3.9-3.9l0,0c0-2.2,1.8-3.9,3.9-3.9h27.2c2.2,0,3.9,1.8,3.9,3.9l0,0
		C1097.6,694.2,1095.8,696,1093.6,696z"/>
	<path fill="#6DBCFD" d="M1093.6,696.5h-27.2c-2.4,0-4.4-2-4.4-4.4c0-2.4,2-4.4,4.4-4.4h27.2c2.4,0,4.4,2,4.4,4.4
		C1098.1,694.5,1096.1,696.5,1093.6,696.5z M1066.5,688.6c-1.9,0-3.4,1.5-3.4,3.4s1.5,3.4,3.4,3.4h27.2c1.9,0,3.4-1.5,3.4-3.4
		s-1.5-3.4-3.4-3.4H1066.5z"/>
</g>
<g id="XMLID_103_">
	<path fill="#FFFFFF" d="M1090.6,692.9h-27.2c-2.2,0-3.9-1.8-3.9-3.9l0,0c0-2.2,1.8-3.9,3.9-3.9h27.2c2.2,0,3.9,1.8,3.9,3.9l0,0
		C1094.6,691.1,1092.8,692.9,1090.6,692.9z"/>
	<path fill="#6DBCFD" d="M1090.6,694.3h-27.2c-2.9,0-5.3-2.4-5.3-5.3c0-2.9,2.4-5.3,5.3-5.3h27.2c2.9,0,5.3,2.4,5.3,5.3
		C1096,691.9,1093.6,694.3,1090.6,694.3z M1063.5,686.5c-1.4,0-2.5,1.1-2.5,2.5s1.1,2.5,2.5,2.5h27.2c1.4,0,2.5-1.1,2.5-2.5
		s-1.1-2.5-2.5-2.5H1063.5z"/>
</g>
<g id="XMLID_121_">
	<circle fill="#6DBCFD" cx="1076.6" cy="688.8" r="1.5"/>
</g>
<g id="XMLID_124_">
	<rect x="653" y="458.2" fill="#FFFFFF" width="508.1" height="208.9"/>
	<path fill="#6DBCFD" d="M1163.9,670H650.1V455.3h513.8V670z M655.8,664.3h502.4V461H655.8V664.3z"/>
</g>
<g id="XMLID_166_">
	<rect x="642.4" y="446.5" fill="#FFFFFF" width="529.7" height="21.6"/>
	<path fill="#6DBCFD" d="M1174.9,471H639.5v-27.3h535.4V471z M645.2,465.3h524v-15.9h-524V465.3z"/>
</g>
<g id="XMLID_167_" opacity="0.38">
	<rect x="654.3" y="468.1" fill="#6DBCFD" width="503.9" height="7.1"/>
</g>
<g id="XMLID_132_">
	<path fill="#FFFFFF" d="M654.5,677.1L654.5,677.1c-11.6,0-21.1-9.4-21.1-21.1v-30.5c0-0.7,0.6-1.3,1.3-1.3h40.9v31.8
		C675.5,667.7,666.1,677.1,654.5,677.1z"/>
	<path fill="#6DBCFD" d="M654.5,678.6c-12.4,0-22.5-10.1-22.5-22.5v-30.5c0-1.5,1.2-2.7,2.7-2.7H677v33.2
		C677,668.5,666.9,678.6,654.5,678.6z M634.8,625.7v30.4c0,10.8,8.8,19.7,19.7,19.7s19.7-8.8,19.7-19.7v-30.4H634.8z"/>
</g>
<g id="XMLID_133_">
	<path fill="#FFFFFF" d="M696.6,677.1L696.6,677.1c-11.6,0-21.1-9.4-21.1-21.1v-31.8h42.2v31.8C717.7,667.7,708.3,677.1,696.6,677.1
		z"/>
	<path fill="#6DBCFD" d="M696.6,678.6c-12.4,0-22.5-10.1-22.5-22.5v-33.2h45v33.2C719.1,668.5,709,678.6,696.6,678.6z M677,625.7
		v30.4c0,10.8,8.8,19.7,19.7,19.7s19.7-8.8,19.7-19.7v-30.4H677z"/>
</g>
<g id="XMLID_135_">
	<path fill="#FFFFFF" d="M738.8,677.1L738.8,677.1c-11.6,0-21.1-9.4-21.1-21.1v-31.8h42.2v31.8C759.9,667.7,750.4,677.1,738.8,677.1
		z"/>
	<path fill="#6DBCFD" d="M738.8,678.6c-12.4,0-22.5-10.1-22.5-22.5v-33.2h45v33.2C761.3,668.5,751.2,678.6,738.8,678.6z
		 M719.1,625.7v30.4c0,10.8,8.8,19.7,19.7,19.7s19.7-8.8,19.7-19.7v-30.4H719.1z"/>
</g>
<g id="XMLID_134_">
	<path fill="#FFFFFF" d="M780.9,677.1L780.9,677.1c-11.6,0-21.1-9.4-21.1-21.1v-31.8H802v31.8C802,667.7,792.6,677.1,780.9,677.1z"
		/>
	<path fill="#6DBCFD" d="M780.9,678.6c-12.4,0-22.5-10.1-22.5-22.5v-33.2h45v33.2C803.4,668.5,793.4,678.6,780.9,678.6z
		 M761.3,625.7v30.4c0,10.8,8.8,19.7,19.7,19.7s19.7-8.8,19.7-19.7v-30.4H761.3z"/>
</g>
<g id="XMLID_139_">
	<path fill="#FFFFFF" d="M823.1,677.1L823.1,677.1c-11.6,0-21.1-9.4-21.1-21.1v-31.8h42.2v31.8C844.2,667.7,834.8,677.1,823.1,677.1
		z"/>
	<path fill="#6DBCFD" d="M823.1,678.6c-12.4,0-22.5-10.1-22.5-22.5v-33.2h45v33.2C845.6,668.5,835.5,678.6,823.1,678.6z
		 M803.4,625.7v30.4c0,10.8,8.8,19.7,19.7,19.7s19.7-8.8,19.7-19.7v-30.4H803.4z"/>
</g>
<g id="XMLID_138_">
	<path fill="#FFFFFF" d="M865.3,677.1L865.3,677.1c-11.6,0-21.1-9.4-21.1-21.1v-31.8h42.2v31.8C886.4,667.7,876.9,677.1,865.3,677.1
		z"/>
	<path fill="#6DBCFD" d="M865.3,678.6c-12.4,0-22.5-10.1-22.5-22.5v-33.2h45v33.2C887.8,668.5,877.7,678.6,865.3,678.6z
		 M845.6,625.7v30.4c0,10.8,8.8,19.7,19.7,19.7s19.7-8.8,19.7-19.7v-30.4H845.6z"/>
</g>
<g id="XMLID_137_">
	<path fill="#FFFFFF" d="M907.4,677.1L907.4,677.1c-11.6,0-21.1-9.4-21.1-21.1v-31.8h42.2v31.8C928.5,667.7,919.1,677.1,907.4,677.1
		z"/>
	<path fill="#6DBCFD" d="M907.4,678.6c-12.4,0-22.5-10.1-22.5-22.5v-33.2h45v33.2C929.9,668.5,919.8,678.6,907.4,678.6z
		 M887.8,625.7v30.4c0,10.8,8.8,19.7,19.7,19.7s19.7-8.8,19.7-19.7v-30.4H887.8z"/>
</g>
<g id="XMLID_136_">
	<path fill="#FFFFFF" d="M949.6,677.1L949.6,677.1c-11.6,0-21.1-9.4-21.1-21.1v-31.8h42.2v31.8C970.7,667.7,961.2,677.1,949.6,677.1
		z"/>
	<path fill="#6DBCFD" d="M949.6,678.6c-12.4,0-22.5-10.1-22.5-22.5v-33.2h45v33.2C972.1,668.5,962,678.6,949.6,678.6z M929.9,625.7
		v30.4c0,10.8,8.8,19.7,19.7,19.7s19.7-8.8,19.7-19.7v-30.4H929.9z"/>
</g>
<g id="XMLID_157_">
	<polygon fill="#FFFFFF" points="886.4,624.4 844.2,624.4 845.2,598 886.4,598 	"/>
	<path fill="#6DBCFD" d="M887.8,625.8h-45l1.1-29.3h44V625.8z M845.7,623h39.3v-23.6h-38.4L845.7,623z"/>
</g>
<g id="XMLID_156_">
	<rect x="886.4" y="598" fill="#FFFFFF" width="42.2" height="26.4"/>
	<path fill="#6DBCFD" d="M929.9,625.8h-45v-29.3h45V625.8z M887.8,623h39.3v-23.6h-39.3V623z"/>
</g>
<g id="XMLID_153_">
	<polygon fill="#FFFFFF" points="970.7,624.4 928.5,624.4 928.5,598 969.2,598 	"/>
	<path fill="#6DBCFD" d="M972.2,625.8h-45.1v-29.3h43.5L972.2,625.8z M929.9,623h39.2l-1.3-23.6h-37.9V623z"/>
</g>
<g id="XMLID_141_">
	<path fill="#FFFFFF" d="M991.8,677.1L991.8,677.1c-11.6,0-21.1-9.4-21.1-21.1v-31.8h42.2v31.8
		C1012.8,667.7,1003.4,677.1,991.8,677.1z"/>
	<path fill="#6DBCFD" d="M991.8,678.6c-12.4,0-22.5-10.1-22.5-22.5v-33.2h45v33.2C1014.3,668.5,1004.2,678.6,991.8,678.6z
		 M972.1,625.7v30.4c0,10.8,8.8,19.7,19.7,19.7c10.8,0,19.7-8.8,19.7-19.7v-30.4H972.1z"/>
</g>
<g id="XMLID_140_">
	<path fill="#FFFFFF" d="M1033.9,677.1L1033.9,677.1c-11.6,0-21.1-9.4-21.1-21.1v-31.8h42.2v31.8
		C1055,667.7,1045.6,677.1,1033.9,677.1z"/>
	<path fill="#6DBCFD" d="M1033.9,678.6c-12.4,0-22.5-10.1-22.5-22.5v-33.2h45v33.2C1056.4,668.5,1046.3,678.6,1033.9,678.6z
		 M1014.3,625.7v30.4c0,10.8,8.8,19.7,19.7,19.7c10.8,0,19.7-8.8,19.7-19.7v-30.4H1014.3z"/>
</g>
<g id="XMLID_143_">
	<path fill="#FFFFFF" d="M1075.8,677.1L1075.8,677.1c-11.6,0-21.1-9.4-21.1-21.1v-31.8h42.2v31.8
		C1096.9,667.7,1087.4,677.1,1075.8,677.1z"/>
	<path fill="#6DBCFD" d="M1075.8,678.6c-12.4,0-22.5-10.1-22.5-22.5v-33.2h45v33.2C1098.3,668.5,1088.2,678.6,1075.8,678.6z
		 M1056.1,625.7v30.4c0,10.8,8.8,19.7,19.7,19.7c10.8,0,19.7-8.8,19.7-19.7v-30.4H1056.1z"/>
</g>
<g id="XMLID_147_">
	<polygon fill="#FFFFFF" points="801.9,624.4 844,624.4 845.2,598 806.4,598 	"/>
	<path fill="#6DBCFD" d="M845.4,625.8h-45.2l5-29.3h41.4L845.4,625.8z M803.6,623h39.1l1-23.6h-36.1L803.6,623z"/>
</g>
<g id="XMLID_146_">
	<polygon fill="#FFFFFF" points="759.7,624.4 801.9,624.4 806.4,598 765.3,598 	"/>
	<path fill="#6DBCFD" d="M803.1,625.8H758l6.1-29.3h44L803.1,625.8z M761.5,623h39.2l4.1-23.6h-38.3L761.5,623z"/>
</g>
<g id="XMLID_145_">
	<polygon fill="#FFFFFF" points="717.9,624.4 760,624.4 765.3,598 723,598 	"/>
	<path fill="#6DBCFD" d="M761.2,625.8h-45l5.7-29.3H767L761.2,625.8z M719.6,623h39.3l4.7-23.6h-39.4L719.6,623z"/>
</g>
<g id="XMLID_154_">
	<polygon fill="#FFFFFF" points="675.7,624.4 717.9,624.4 723,598 685.2,598 	"/>
	<path fill="#6DBCFD" d="M719,625.8h-45.3l10.5-29.3h40.5L719,625.8z M677.7,623h39l4.6-23.6h-35.1L677.7,623z"/>
</g>
<g id="XMLID_155_">
	<path fill="#FFFFFF" d="M634.9,624.4h40.8l9.5-26.4h-34.9l-16,25.3C634,623.7,634.3,624.4,634.9,624.4z"/>
	<path fill="#6DBCFD" d="M676.7,625.8h-41.8c-0.8,0-1.5-0.4-1.9-1.1c-0.4-0.7-0.4-1.5,0.1-2.2l16.4-25.9h37.7L676.7,625.8z
		 M636.1,623h38.6l8.5-23.6H651L636.1,623z"/>
</g>
<g id="XMLID_152_">
	<polygon fill="#FFFFFF" points="1012.7,624.4 970.5,624.4 969.2,598 1008.1,598 	"/>
	<path fill="#6DBCFD" d="M1014.4,625.8h-45.2l-1.5-29.3h41.6L1014.4,625.8z M971.9,623h39.1l-4-23.6h-36.3L971.9,623z"/>
</g>
<g id="XMLID_151_">
	<polygon fill="#FFFFFF" points="1054.8,624.4 1012.7,624.4 1008.1,598 1049.3,598 	"/>
	<path fill="#6DBCFD" d="M1056.6,625.8h-45.1l-5-29.3h44L1056.6,625.8z M1013.9,623h39.2l-4.9-23.6h-38.3L1013.9,623z"/>
</g>
<g id="XMLID_150_">
	<polygon fill="#FFFFFF" points="1096.7,624.4 1054.5,624.4 1049.3,598 1091.6,598 	"/>
	<path fill="#6DBCFD" d="M1098.4,625.8h-45l-5.8-29.3h45.2L1098.4,625.8z M1055.7,623h39.3l-4.6-23.6H1051L1055.7,623z"/>
</g>
<g id="XMLID_149_">
	<polygon fill="#FFFFFF" points="1138.9,624.4 1096.7,624.4 1091.6,598 1129.4,598 	"/>
	<path fill="#6DBCFD" d="M1140.9,625.8h-45.3l-5.7-29.3h40.5L1140.9,625.8z M1097.9,623h39l-8.5-23.6h-35.1L1097.9,623z"/>
</g>
<g id="XMLID_148_">
	<path fill="#FFFFFF" d="M1180.4,624.4h-41.2c-0.2,0-0.3-0.1-0.3-0.2l-9.2-25.7c-0.1-0.2,0.1-0.5,0.3-0.5h31.7
		c0.9,0,1.8,0.5,2.3,1.2l16.7,24.7C1180.8,624.1,1180.7,624.4,1180.4,624.4z"/>
	<path fill="#6DBCFD" d="M1180.4,625.8h-41.2c-0.8,0-1.4-0.5-1.7-1.2l-9.2-25.7c-0.2-0.5-0.1-1.2,0.2-1.6c0.3-0.5,0.9-0.8,1.5-0.8
		h31.7c1.4,0,2.7,0.7,3.5,1.8l16.7,24.7c0.4,0.6,0.4,1.3,0.1,1.8C1181.6,625.5,1181,625.8,1180.4,625.8z M1139.9,623h38.5l-15.6-23
		c-0.3-0.4-0.7-0.6-1.1-0.6h-30.2L1139.9,623z"/>
</g>
<g id="XMLID_142_">
	<path fill="#FFFFFF" d="M1117.9,677.1L1117.9,677.1c-11.6,0-21.1-9.4-21.1-21.1v-31.8h42.2v31.8
		C1139,667.7,1129.6,677.1,1117.9,677.1z"/>
	<path fill="#6DBCFD" d="M1117.9,678.6c-12.4,0-22.5-10.1-22.5-22.5v-33.2h45v33.2C1140.4,668.5,1130.3,678.6,1117.9,678.6z
		 M1098.3,625.7v30.4c0,10.8,8.8,19.7,19.7,19.7c10.8,0,19.7-8.8,19.7-19.7v-30.4H1098.3z"/>
</g>
<g id="XMLID_144_">
	<path fill="#FFFFFF" d="M1160.1,677.1L1160.1,677.1c-11.6,0-21.1-9.4-21.1-21.1v-31.8h41.6c0.3,0,0.5,0.2,0.5,0.5v31.2
		C1181.2,667.7,1171.7,677.1,1160.1,677.1z"/>
	<path fill="#6DBCFD" d="M1160.1,678.6c-12.4,0-22.5-10.1-22.5-22.5v-33.2h43c1.1,0,2,0.9,2,2v31.2
		C1182.6,668.5,1172.5,678.6,1160.1,678.6z M1140.4,625.7v30.4c0,10.8,8.8,19.7,19.7,19.7c10.8,0,19.7-8.8,19.7-19.7v-30.4H1140.4z"
		/>
</g>
<g id="XMLID_15_" opacity="0.46">
	<path fill="#3A99CE" d="M795.9,533.4c-0.8-0.2-1.6-0.5-2.5-1.1c-0.8-0.6-1.6-1.3-2.4-2.1c-0.7-0.8-1.5-1.8-2.1-2.8
		c-0.7-1-1.2-2.1-1.7-3.1c-0.5-1.1-0.9-2.1-1.1-3.1c-0.3-1-0.4-1.9-0.4-2.7c0-0.1,0-0.2,0-0.4c0-0.1,0-0.3,0.1-0.4
		c0-0.1,0.1-0.3,0.2-0.3c0.1-0.1,0.2-0.1,0.4-0.1c0.5,0,1,0.2,1.4,0.6c0.4,0.4,0.7,0.9,1,1.5c0.3,0.6,0.6,1.3,0.9,2.1
		c0.3,0.8,0.6,1.6,0.8,2.4c0.3,0.8,0.6,1.6,0.9,2.4s0.7,1.5,1.1,2.1s0.8,1.1,1.3,1.5c0.5,0.4,1.1,0.6,1.7,0.6c0,0,0.1,0,0.2,0
		c0.1,0,0.1,0,0.2,0c0.6-0.5,1.1-1.2,1.6-2.1c0.5-0.9,0.9-1.8,1.3-2.8c0.4-1,0.8-2.1,1.2-3.1c0.4-1.1,0.8-2.1,1.2-3
		c0.4-0.9,0.8-1.7,1.3-2.4c0.5-0.7,1-1.2,1.6-1.5l1.4,1.4c0.2,0.2,0.2,0.5,0.1,1c-0.1,0.5-0.3,1.2-0.6,1.9c-0.3,0.8-0.6,1.6-1.1,2.6
		c-0.4,0.9-0.9,1.9-1.3,2.9c-0.5,1-0.9,2-1.4,3c-0.5,1-0.9,1.9-1.2,2.8c-0.4,0.9-0.7,1.7-0.9,2.4c-0.2,0.7-0.3,1.2-0.3,1.6
		c0,1.3,0.2,2.5,0.6,3.7c0.4,1.2,0.8,2.4,1.2,3.5c0.4,1.2,0.8,2.3,1.2,3.5c0.4,1.2,0.5,2.4,0.5,3.6c0,0.2,0,0.4,0,0.6
		c0,0.3,0,0.5-0.1,0.7c-0.1,0.2-0.2,0.4-0.4,0.5c-0.2,0.1-0.5,0.1-0.9,0c-0.8-1.1-1.5-2.4-2.1-3.9c-0.6-1.4-1.1-2.9-1.5-4.5
		c-0.4-1.6-0.7-3.1-0.9-4.7C795.9,536.4,795.9,534.9,795.9,533.4z"/>
	<path fill="#3A99CE" d="M808.6,542.3c0-1.1,0.1-2.2,0.4-3.3c0.3-1.1,0.7-2.2,1.2-3.2c0.5-1,1.1-2,1.9-2.8c0.7-0.9,1.6-1.6,2.4-2.3
		c0.9-0.6,1.9-1.1,2.9-1.5c1.1-0.4,2.2-0.6,3.3-0.6c1.2,0,2.2,0.2,3,0.7c0.9,0.5,1.6,1.1,2.1,1.8c0.6,0.8,1,1.6,1.3,2.6
		c0.3,1,0.4,2,0.4,3c0,1.8-0.3,3.5-0.8,5.2c-0.5,1.7-1.3,3.3-2.3,4.6c-1,1.4-2.3,2.5-3.8,3.3c-1.5,0.8-3.3,1.2-5.3,1.2
		c-1.2,0-2.2-0.3-3-0.8s-1.6-1.2-2.1-2.1c-0.6-0.9-1-1.8-1.2-2.8C808.8,544.4,808.6,543.3,808.6,542.3z M811.3,543
		c0,0.6,0.1,1.2,0.3,1.8c0.2,0.6,0.5,1.2,0.8,1.7c0.3,0.5,0.8,1,1.3,1.3c0.5,0.4,1.1,0.5,1.8,0.5c1.4,0,2.7-0.3,3.9-1
		c1.2-0.6,2.2-1.5,3-2.5c0.8-1,1.5-2.2,2-3.4c0.5-1.3,0.7-2.5,0.7-3.8c0-0.7,0-1.5-0.1-2.2c0-0.8-0.2-1.4-0.4-2.1
		c-0.2-0.6-0.6-1.1-1.1-1.5c-0.5-0.4-1.2-0.6-2.1-0.6c-0.3,0-0.7,0-1.2,0c-0.5,0-1,0.1-1.5,0.2c-0.5,0.1-0.9,0.2-1.3,0.4
		c-0.4,0.2-0.6,0.5-0.6,0.8c0,0,0,0.1,0.1,0.3c0.1,0.1,0.2,0.3,0.2,0.4c0.1,0.1,0.2,0.3,0.2,0.4c0.1,0.1,0.1,0.2,0.1,0.3
		c0,0-0.1,0.2-0.3,0.3c-0.2,0.2-0.3,0.3-0.4,0.3c-1.1,0.3-1.9,0.6-2.6,1c-0.7,0.4-1.3,0.9-1.7,1.6c-0.4,0.7-0.7,1.4-0.9,2.3
		C811.4,540.7,811.3,541.8,811.3,543z"/>
	<path fill="#3A99CE" d="M833.5,529.4c0.3,0.3,0.6,0.6,0.8,0.9c0.2,0.4,0.4,0.7,0.5,1.1c0,0.8,0,1.8,0,2.9c0,1.1,0,2.3,0.1,3.5
		c0.1,1.2,0.2,2.4,0.5,3.6c0.2,1.2,0.6,2.3,1.1,3.2c0.5,0.9,1.2,1.7,2,2.3c0.8,0.6,1.9,0.9,3.1,0.9c1.2,0,2.2-0.3,3-0.8
		s1.5-1.2,2.1-2.1c0.6-0.8,1-1.8,1.2-2.8c0.3-1,0.4-2.1,0.4-3c0-1.9-0.1-3.9-0.3-5.9c-0.2-2-0.5-3.9-1-5.8c0.1-0.4,0.3-0.6,0.6-0.6
		c0.2-0.1,0.5-0.1,0.8-0.1c0.5,0,1,0.2,1.3,0.7c0.3,0.4,0.6,1,0.7,1.7c0.2,0.7,0.3,1.4,0.3,2.2c0,0.8,0,1.6,0,2.3
		c0,0.7-0.1,1.4-0.1,1.9c-0.1,0.6-0.1,0.9-0.1,1.1c0,1.1,0,2.2-0.1,3.3c-0.1,1.1-0.2,2.2-0.4,3.2c-0.2,1-0.5,2-0.9,2.9
		c-0.4,0.9-0.9,1.7-1.6,2.3c-0.7,0.7-1.5,1.2-2.4,1.6c-1,0.4-2.1,0.6-3.5,0.6c-1.7,0-3.1-0.3-4.2-1c-1.1-0.7-2-1.5-2.6-2.6
		s-1.2-2.3-1.5-3.7c-0.3-1.4-0.6-2.8-0.7-4.3c-0.1-1.5-0.2-2.9-0.3-4.3c-0.1-1.4-0.1-2.7-0.2-3.8L833.5,529.4z"/>
	<path fill="#3A99CE" d="M855,528.8c0-0.2,0-0.4,0-0.8c0-0.4,0-0.8,0-1.2c0-0.4,0-0.8,0-1.2s0-0.7,0-0.8c0.2-0.4,0.6-0.8,1.1-1
		s1-0.3,1.6-0.4c0.6-0.1,1.1-0.1,1.7-0.1c0.6,0,1,0,1.4,0c0.5,0,1,0,1.6,0.1c0.6,0,1.2,0.1,1.9,0.2c0.6,0.1,1.2,0.3,1.8,0.5
		c0.6,0.2,1.2,0.5,1.6,0.9c0.5,0.3,0.9,0.8,1.1,1.3c0.3,0.5,0.4,1.1,0.4,1.8c0,0.8-0.2,1.5-0.6,2.2c-0.4,0.6-0.8,1.2-1.4,1.8
		s-1.2,1.1-1.8,1.6c-0.7,0.5-1.3,1-1.8,1.4c-0.6,0.5-1,0.9-1.4,1.4c-0.4,0.5-0.6,1-0.6,1.6c0,0,0,0.1,0,0.2c0,0.1,0,0.1,0,0.1
		c2.5,0.7,4.9,1.6,7.3,2.7c2.3,1.1,4.7,2.2,6.9,3.4c0.1,0,0.1,0.1,0.2,0.2c0.1,0.1,0.1,0.3,0.2,0.4c0.1,0.2,0.1,0.3,0.2,0.4
		c0.1,0.1,0.1,0.2,0.1,0.3c0,0.2-0.1,0.3-0.2,0.4s-0.2,0.2-0.4,0.2c-0.1,0.1-0.3,0.1-0.4,0.1c-0.1,0-0.3,0-0.4,0
		c-1.1,0-2.3-0.2-3.4-0.7c-1.1-0.5-2.3-1-3.4-1.7c-1.1-0.6-2.3-1.2-3.5-1.7s-2.4-0.8-3.6-0.8h-1c0.3,0.8,0.6,1.5,0.9,2.1
		c0.3,0.6,0.5,1.2,0.7,1.8c0.2,0.6,0.3,1.1,0.4,1.7c0.1,0.6,0.1,1.2,0.1,1.9c0,0.1,0,0.3,0,0.5s0,0.4,0,0.6c0,0.2-0.1,0.4-0.2,0.6
		c-0.1,0.2-0.3,0.3-0.5,0.3c-0.9-0.5-1.6-1.3-2.3-2.4s-1.3-2.3-1.8-3.6c-0.5-1.4-0.9-2.8-1.3-4.4c-0.3-1.5-0.6-3-0.9-4.5
		c-0.2-1.5-0.4-2.9-0.5-4.2C855,530.7,855,529.6,855,528.8z M857.7,530.8c0,0.3,0,0.6,0,1.1c0,0.4,0,0.9,0,1.3
		c0,0.5,0.1,0.9,0.2,1.3c0.1,0.4,0.3,0.8,0.6,1.1c0,0,0.1,0,0.1,0c0,0,0.1,0,0.2,0c0.4,0,0.8-0.1,1.4-0.3s1.1-0.5,1.7-0.9
		c0.6-0.4,1.2-0.8,1.8-1.3c0.6-0.5,1.1-1,1.6-1.5c0.5-0.5,0.8-1.1,1.1-1.6s0.4-1,0.4-1.5c0-0.4-0.2-0.8-0.5-1.1
		c-0.3-0.3-0.7-0.6-1.1-0.7s-0.9-0.3-1.4-0.4c-0.5-0.1-0.9-0.1-1.2-0.1c-0.4,0-0.8,0-1.3,0c-0.5,0-1,0-1.4,0.1
		c-0.5,0.1-0.9,0.2-1.3,0.4c-0.4,0.2-0.6,0.5-0.8,0.9c0,0.1,0,0.3,0,0.7s0,0.7,0,1c0,0.4,0,0.7,0,1
		C857.7,530.4,857.7,530.6,857.7,530.8z"/>
	<path fill="#3A99CE" d="M903.8,549.7c0.1-0.5,0.4-0.9,0.8-1.2c0.4-0.3,0.9-0.6,1.5-0.9c0.6-0.3,1.1-0.5,1.8-0.8s1.2-0.5,1.7-0.8
		c0.5-0.3,0.9-0.6,1.3-1c0.3-0.4,0.5-0.8,0.5-1.3c0-0.7-0.2-1.2-0.5-1.7c-0.3-0.4-0.8-0.8-1.4-1.1c-0.6-0.3-1.2-0.6-2-0.8
		c-0.7-0.2-1.5-0.4-2.3-0.6s-1.5-0.5-2.3-0.7c-0.7-0.3-1.4-0.6-2-1c-0.6-0.4-1-0.9-1.4-1.5s-0.5-1.3-0.5-2.1c0-0.7,0.1-1.4,0.4-2
		c0.3-0.6,0.7-1.2,1.1-1.8c0.5-0.6,1-1.1,1.6-1.5c0.6-0.5,1.3-0.9,2-1.2c0.7-0.3,1.4-0.6,2.1-0.7c0.7-0.2,1.3-0.3,1.9-0.3h0.3
		c0.2,0.1,0.4,0.2,0.8,0.3s0.6,0.3,0.9,0.4c0.3,0.1,0.5,0.3,0.8,0.4c0.2,0.1,0.3,0.2,0.3,0.2v0.7c-0.4,0-0.9,0.1-1.5,0.2
		c-0.6,0.1-1.3,0.3-2,0.5c-0.7,0.2-1.4,0.4-2.1,0.7c-0.7,0.3-1.4,0.6-1.9,1c-0.6,0.4-1,0.8-1.4,1.3c-0.4,0.5-0.5,1.1-0.5,1.7
		c0,0.9,0.3,1.6,0.9,2.1c0.6,0.5,1.4,0.9,2.4,1.3c0.9,0.3,2,0.6,3.1,0.9c1.1,0.3,2.2,0.6,3.1,0.9c0.9,0.4,1.7,0.9,2.4,1.5
		c0.6,0.6,0.9,1.4,0.9,2.4c0,0.5-0.2,1.1-0.5,1.7c-0.3,0.6-0.8,1.2-1.3,1.8c-0.5,0.6-1.1,1.1-1.8,1.7c-0.7,0.5-1.4,1-2.1,1.4
		c-0.7,0.4-1.4,0.7-2.1,0.9c-0.7,0.2-1.3,0.4-1.8,0.4c-0.2,0-0.3,0-0.5-0.1c-0.2,0-0.4-0.1-0.5-0.2c-0.1-0.1-0.2-0.2-0.3-0.4
		S903.7,550,903.8,549.7z"/>
	<path fill="#3A99CE" d="M931.4,532.1c-0.1-0.3-0.2-0.5-0.5-0.6c-0.2-0.1-0.5-0.2-0.8-0.2c-0.3,0-0.6,0-0.8,0
		c-0.3,0-0.5,0.1-0.6,0.1c-0.4,0-1-0.1-1.9-0.1c-0.9-0.1-1.8-0.1-2.9-0.2c-1-0.1-2-0.1-2.9-0.2c-0.9-0.1-1.5-0.1-1.9-0.1
		c0,0,0-0.1,0-0.3c0-0.2,0-0.3,0-0.3c0-0.3,0-0.6,0.1-0.8c0.1-0.2,0.3-0.4,0.6-0.5c2,0,3.9,0,5.9,0c1.9-0.1,3.9-0.2,5.8-0.3
		c1.9-0.1,3.9-0.2,5.8-0.3c1.9-0.1,3.9-0.2,5.8-0.2c0,0.8-0.2,1.4-0.6,1.8c-0.4,0.4-0.8,0.6-1.4,0.7c-0.6,0.1-1.2,0.2-1.8,0.2
		s-1.3,0-1.9,0c-0.6,0-1.2,0.2-1.6,0.4c-0.5,0.2-0.8,0.6-0.9,1.1c0,0.1,0,0.4-0.1,0.7c0,0.4,0,0.7,0,1.1c0,0.4,0,0.8,0,1.1
		c0,0.3,0,0.6,0,0.7c0,1.2,0.2,2.4,0.5,3.6c0.3,1.2,0.6,2.3,1,3.5c0.4,1.1,0.7,2.3,1,3.4c0.3,1.1,0.5,2.3,0.5,3.5
		c0,0.9-0.5,1.3-1.5,1.3c-0.6,0-1.2-0.4-1.6-1.3c-0.5-0.8-0.9-1.9-1.2-3.2c-0.3-1.3-0.6-2.7-0.9-4.3c-0.2-1.5-0.4-3-0.5-4.4
		c-0.1-1.4-0.2-2.7-0.3-3.7S931.4,532.5,931.4,532.1z"/>
	<path fill="#3A99CE" d="M947.5,542.3c0-1.1,0.1-2.2,0.4-3.3s0.7-2.2,1.2-3.2s1.1-2,1.9-2.8c0.7-0.9,1.6-1.6,2.4-2.3
		c0.9-0.6,1.9-1.1,2.9-1.5c1.1-0.4,2.2-0.6,3.3-0.6c1.2,0,2.2,0.2,3,0.7c0.9,0.5,1.6,1.1,2.1,1.8c0.6,0.8,1,1.6,1.3,2.6
		c0.3,1,0.4,2,0.4,3c0,1.8-0.3,3.5-0.8,5.2c-0.5,1.7-1.3,3.3-2.3,4.6c-1,1.4-2.3,2.5-3.8,3.3s-3.3,1.2-5.3,1.2c-1.2,0-2.2-0.3-3-0.8
		s-1.6-1.2-2.1-2.1c-0.6-0.9-1-1.8-1.2-2.8C947.6,544.4,947.5,543.3,947.5,542.3z M950.2,543c0,0.6,0.1,1.2,0.3,1.8s0.5,1.2,0.8,1.7
		c0.3,0.5,0.8,1,1.3,1.3c0.5,0.4,1.1,0.5,1.8,0.5c1.4,0,2.7-0.3,3.9-1c1.2-0.6,2.2-1.5,3-2.5c0.8-1,1.5-2.2,2-3.4
		c0.5-1.3,0.7-2.5,0.7-3.8c0-0.7,0-1.5-0.1-2.2s-0.2-1.4-0.4-2.1c-0.2-0.6-0.6-1.1-1.1-1.5c-0.5-0.4-1.2-0.6-2.1-0.6
		c-0.3,0-0.7,0-1.2,0s-1,0.1-1.5,0.2c-0.5,0.1-0.9,0.2-1.3,0.4c-0.4,0.2-0.6,0.5-0.6,0.8c0,0,0,0.1,0.1,0.3c0.1,0.1,0.2,0.3,0.2,0.4
		s0.2,0.3,0.2,0.4c0.1,0.1,0.1,0.2,0.1,0.3c0,0-0.1,0.2-0.3,0.3c-0.2,0.2-0.3,0.3-0.4,0.3c-1.1,0.3-1.9,0.6-2.6,1
		c-0.7,0.4-1.3,0.9-1.7,1.6c-0.4,0.7-0.7,1.4-0.9,2.3C950.2,540.7,950.2,541.8,950.2,543z"/>
	<path fill="#3A99CE" d="M971,528.8c0-0.2,0-0.4,0-0.8c0-0.4,0-0.8,0-1.2c0-0.4,0-0.8,0-1.2s0-0.7,0-0.8c0.2-0.4,0.6-0.8,1.1-1
		s1-0.3,1.6-0.4s1.1-0.1,1.7-0.1c0.6,0,1,0,1.4,0c0.5,0,1,0,1.6,0.1c0.6,0,1.2,0.1,1.9,0.2c0.6,0.1,1.2,0.3,1.8,0.5
		c0.6,0.2,1.2,0.5,1.6,0.9c0.5,0.3,0.9,0.8,1.1,1.3c0.3,0.5,0.4,1.1,0.4,1.8c0,0.8-0.2,1.5-0.6,2.2c-0.4,0.6-0.8,1.2-1.4,1.8
		c-0.6,0.6-1.2,1.1-1.8,1.6c-0.7,0.5-1.3,1-1.8,1.4c-0.6,0.5-1,0.9-1.4,1.4c-0.4,0.5-0.6,1-0.6,1.6c0,0,0,0.1,0,0.2
		c0,0.1,0,0.1,0,0.1c2.5,0.7,4.9,1.6,7.3,2.7c2.3,1.1,4.7,2.2,6.9,3.4c0.1,0,0.1,0.1,0.2,0.2c0.1,0.1,0.1,0.3,0.2,0.4
		c0.1,0.2,0.1,0.3,0.2,0.4c0.1,0.1,0.1,0.2,0.1,0.3c0,0.2-0.1,0.3-0.2,0.4c-0.1,0.1-0.2,0.2-0.4,0.2s-0.3,0.1-0.4,0.1s-0.3,0-0.4,0
		c-1.1,0-2.3-0.2-3.4-0.7c-1.1-0.5-2.3-1-3.4-1.7s-2.3-1.2-3.5-1.7s-2.4-0.8-3.6-0.8h-1c0.3,0.8,0.6,1.5,0.9,2.1
		c0.3,0.6,0.5,1.2,0.7,1.8c0.2,0.6,0.3,1.1,0.4,1.7c0.1,0.6,0.1,1.2,0.1,1.9c0,0.1,0,0.3,0,0.5s0,0.4,0,0.6c0,0.2-0.1,0.4-0.2,0.6
		c-0.1,0.2-0.3,0.3-0.5,0.3c-0.9-0.5-1.6-1.3-2.3-2.4s-1.3-2.3-1.8-3.6s-0.9-2.8-1.3-4.4c-0.3-1.5-0.6-3-0.9-4.5
		c-0.2-1.5-0.4-2.9-0.5-4.2C971,530.7,971,529.6,971,528.8z M973.7,530.8c0,0.3,0,0.6,0,1.1c0,0.4,0,0.9,0,1.3
		c0,0.5,0.1,0.9,0.2,1.3c0.1,0.4,0.3,0.8,0.6,1.1c0,0,0.1,0,0.1,0c0,0,0.1,0,0.2,0c0.4,0,0.8-0.1,1.4-0.3s1.1-0.5,1.7-0.9
		c0.6-0.4,1.2-0.8,1.8-1.3s1.1-1,1.6-1.5c0.5-0.5,0.8-1.1,1.1-1.6c0.3-0.5,0.4-1,0.4-1.5c0-0.4-0.2-0.8-0.5-1.1
		c-0.3-0.3-0.7-0.6-1.1-0.7s-0.9-0.3-1.4-0.4c-0.5-0.1-0.9-0.1-1.2-0.1c-0.4,0-0.8,0-1.3,0c-0.5,0-1,0-1.4,0.1
		c-0.5,0.1-0.9,0.2-1.3,0.4c-0.4,0.2-0.6,0.5-0.8,0.9c0,0.1,0,0.3,0,0.7s0,0.7,0,1c0,0.4,0,0.7,0,1S973.7,530.6,973.7,530.8z"/>
	<path fill="#3A99CE" d="M998.6,526c-0.1,0-0.3,0-0.5-0.1c-0.2-0.1-0.4-0.1-0.6-0.2c-0.2-0.1-0.4-0.1-0.6-0.2
		c-0.2-0.1-0.3-0.1-0.4-0.2c0,0,0-0.1,0-0.1c0,0,0-0.1,0-0.2c0-0.3,0.1-0.5,0.3-0.8s0.5-0.4,0.8-0.5c0.3-0.1,0.6-0.2,0.9-0.3
		c0.3-0.1,0.5-0.1,0.7-0.1h0.4h0.3c0.5,0,1.1,0.1,1.9,0.2c0.8,0.1,1.6,0.2,2.5,0.3s1.8,0.2,2.7,0.3c0.9,0.1,1.7,0.2,2.4,0.3
		c0.7,0.1,1.3,0.2,1.8,0.2c0.5,0.1,0.8,0.1,0.9,0.1c0.2,0,0.4,0.1,0.6,0.1c0.3,0.1,0.5,0.1,0.8,0.3s0.5,0.3,0.8,0.4
		c0.2,0.2,0.4,0.4,0.5,0.6c-0.2,0.3-0.3,0.6-0.4,0.8c-0.1,0.2-0.3,0.3-0.4,0.4s-0.3,0.1-0.5,0.1s-0.4,0-0.6,0c-0.9,0-1.8,0-2.7-0.1
		c-0.9-0.1-1.8-0.1-2.7-0.2c-0.9-0.1-1.8-0.1-2.7-0.2c-0.9-0.1-1.8-0.1-2.7-0.1c0,0.4,0,0.9-0.1,1.7s-0.2,1.6-0.2,2.4
		c-0.1,0.8,0,1.7,0.1,2.5c0.1,0.8,0.3,1.5,0.7,2.1c0.7-0.4,1.5-0.7,2.3-0.7c0.8,0,1.6,0,2.4,0c0.4,0,0.8,0,1.4,0s1.1,0.1,1.6,0.2
		c0.5,0.1,1,0.3,1.3,0.6c0.4,0.3,0.5,0.7,0.5,1.3c0,0.4-0.1,0.7-0.3,0.9c-0.2,0.2-0.6,0.3-1.2,0.3c-0.1,0-0.2,0-0.4-0.1
		c-0.2-0.1-0.4-0.1-0.6-0.2c-0.2-0.1-0.4-0.2-0.6-0.2c-0.2-0.1-0.3-0.1-0.4-0.1c0,0-0.1,0-0.2,0c-0.1,0-0.3,0-0.5,0s-0.4,0-0.6,0
		c-0.2,0-0.3,0-0.4,0c-0.5,0-1,0-1.4,0.1c-0.5,0.1-0.8,0.2-1.2,0.4c-0.3,0.2-0.6,0.5-0.8,0.8c-0.2,0.4-0.3,0.8-0.3,1.4
		c0,0.2,0,0.5,0.1,1c0,0.5,0.1,1,0.2,1.5c0.1,0.6,0.2,1.1,0.3,1.7c0.1,0.6,0.3,1.1,0.5,1.6c0.2,0.5,0.4,0.9,0.7,1.2
		c0.3,0.3,0.6,0.5,1,0.5c0,0,0.1,0,0.3,0c0.2,0,0.3,0,0.3,0c0.7-0.5,1.4-1,2.2-1.6c0.7-0.6,1.5-1.1,2.3-1.6c0.8-0.5,1.6-0.9,2.4-1.3
		c0.8-0.3,1.7-0.5,2.6-0.5v1.5c0,0.1-0.2,0.3-0.6,0.7c-0.4,0.4-0.9,0.8-1.6,1.3c-0.7,0.5-1.4,1-2.2,1.6c-0.8,0.6-1.6,1.1-2.5,1.6
		c-0.8,0.5-1.6,0.9-2.4,1.2c-0.7,0.3-1.4,0.5-1.9,0.5c-0.7,0-1.4-0.3-1.9-1c-0.6-0.6-1.1-1.5-1.5-2.6c-0.4-1.1-0.8-2.3-1.1-3.7
		s-0.6-2.8-0.8-4.3c-0.2-1.5-0.4-2.9-0.5-4.4c-0.1-1.5-0.2-2.8-0.3-4.1c-0.1-1.2-0.1-2.3-0.2-3.2S998.6,526.4,998.6,526z"/>
</g>
<g id="XMLID_131_">
	<path fill="#4CABE0" d="M793.9,531.4c-0.8-0.2-1.6-0.5-2.5-1.1c-0.8-0.6-1.6-1.3-2.4-2.1c-0.7-0.8-1.5-1.8-2.1-2.8
		c-0.7-1-1.2-2.1-1.7-3.1c-0.5-1.1-0.9-2.1-1.1-3.1c-0.3-1-0.4-1.9-0.4-2.7c0-0.1,0-0.2,0-0.4c0-0.1,0-0.3,0.1-0.4
		c0-0.1,0.1-0.3,0.2-0.3c0.1-0.1,0.2-0.1,0.4-0.1c0.5,0,1,0.2,1.4,0.6c0.4,0.4,0.7,0.9,1,1.5c0.3,0.6,0.6,1.3,0.9,2.1
		c0.3,0.8,0.6,1.6,0.8,2.4c0.3,0.8,0.6,1.6,0.9,2.4s0.7,1.5,1.1,2.1s0.8,1.1,1.3,1.5c0.5,0.4,1.1,0.6,1.7,0.6c0,0,0.1,0,0.2,0
		c0.1,0,0.1,0,0.2,0c0.6-0.5,1.1-1.2,1.6-2.1c0.5-0.9,0.9-1.8,1.3-2.8c0.4-1,0.8-2.1,1.2-3.1c0.4-1.1,0.8-2.1,1.2-3
		c0.4-0.9,0.8-1.7,1.3-2.4c0.5-0.7,1-1.2,1.6-1.5l1.4,1.4c0.2,0.2,0.2,0.5,0.1,1c-0.1,0.5-0.3,1.2-0.6,1.9c-0.3,0.8-0.6,1.6-1.1,2.6
		c-0.4,0.9-0.9,1.9-1.3,2.9c-0.5,1-0.9,2-1.4,3c-0.5,1-0.9,1.9-1.2,2.8c-0.4,0.9-0.7,1.7-0.9,2.4c-0.2,0.7-0.3,1.2-0.3,1.6
		c0,1.3,0.2,2.5,0.6,3.7c0.4,1.2,0.8,2.4,1.2,3.5c0.4,1.2,0.8,2.3,1.2,3.5c0.4,1.2,0.5,2.4,0.5,3.6c0,0.2,0,0.4,0,0.6
		c0,0.3,0,0.5-0.1,0.7c-0.1,0.2-0.2,0.4-0.4,0.5c-0.2,0.1-0.5,0.1-0.9,0c-0.8-1.1-1.5-2.4-2.1-3.9c-0.6-1.4-1.1-2.9-1.5-4.5
		c-0.4-1.6-0.7-3.1-0.9-4.7C793.9,534.4,793.9,532.9,793.9,531.4z"/>
	<path fill="#4CABE0" d="M806.6,540.3c0-1.1,0.1-2.2,0.4-3.3c0.3-1.1,0.7-2.2,1.2-3.2c0.5-1,1.1-2,1.9-2.8c0.7-0.9,1.6-1.6,2.4-2.3
		c0.9-0.6,1.9-1.1,2.9-1.5c1.1-0.4,2.2-0.6,3.3-0.6c1.2,0,2.2,0.2,3,0.7c0.9,0.5,1.6,1.1,2.1,1.8c0.6,0.8,1,1.6,1.3,2.6
		c0.3,1,0.4,2,0.4,3c0,1.8-0.3,3.5-0.8,5.2c-0.5,1.7-1.3,3.3-2.3,4.6c-1,1.4-2.3,2.5-3.8,3.3c-1.5,0.8-3.3,1.2-5.3,1.2
		c-1.2,0-2.2-0.3-3-0.8s-1.6-1.2-2.1-2.1c-0.6-0.9-1-1.8-1.2-2.8C806.8,542.4,806.6,541.3,806.6,540.3z M809.3,541
		c0,0.6,0.1,1.2,0.3,1.8c0.2,0.6,0.5,1.2,0.8,1.7c0.3,0.5,0.8,1,1.3,1.3s1.1,0.5,1.8,0.5c1.4,0,2.7-0.3,3.9-1c1.2-0.6,2.2-1.5,3-2.5
		c0.8-1,1.5-2.2,2-3.4c0.5-1.3,0.7-2.5,0.7-3.8c0-0.7,0-1.5-0.1-2.2c0-0.8-0.2-1.4-0.4-2.1c-0.2-0.6-0.6-1.1-1.1-1.5
		c-0.5-0.4-1.2-0.6-2.1-0.6c-0.3,0-0.7,0-1.2,0c-0.5,0-1,0.1-1.5,0.2c-0.5,0.1-0.9,0.2-1.3,0.4c-0.4,0.2-0.6,0.5-0.6,0.8
		c0,0,0,0.1,0.1,0.3c0.1,0.1,0.2,0.3,0.2,0.4c0.1,0.1,0.2,0.3,0.2,0.4c0.1,0.1,0.1,0.2,0.1,0.3c0,0-0.1,0.2-0.3,0.3
		c-0.2,0.2-0.3,0.3-0.4,0.3c-1.1,0.3-1.9,0.6-2.6,1c-0.7,0.4-1.3,0.9-1.7,1.6c-0.4,0.7-0.7,1.4-0.9,2.3
		C809.4,538.7,809.3,539.8,809.3,541z"/>
	<path fill="#4CABE0" d="M831.5,527.4c0.3,0.3,0.6,0.6,0.8,0.9c0.2,0.4,0.4,0.7,0.5,1.1c0,0.8,0,1.8,0,2.9c0,1.1,0,2.3,0.1,3.5
		c0.1,1.2,0.2,2.4,0.5,3.6c0.2,1.2,0.6,2.3,1.1,3.2c0.5,0.9,1.2,1.7,2,2.3c0.8,0.6,1.9,0.9,3.1,0.9c1.2,0,2.2-0.3,3-0.8
		c0.8-0.5,1.5-1.2,2.1-2.1s1-1.8,1.2-2.8c0.3-1,0.4-2.1,0.4-3c0-1.9-0.1-3.9-0.3-5.9c-0.2-2-0.5-3.9-1-5.8c0.1-0.4,0.3-0.6,0.6-0.6
		c0.2-0.1,0.5-0.1,0.8-0.1c0.5,0,1,0.2,1.3,0.7c0.3,0.4,0.6,1,0.7,1.7c0.2,0.7,0.3,1.4,0.3,2.2c0,0.8,0,1.6,0,2.3
		c0,0.7-0.1,1.4-0.1,1.9c-0.1,0.6-0.1,0.9-0.1,1.1c0,1.1,0,2.2-0.1,3.3c-0.1,1.1-0.2,2.2-0.4,3.2c-0.2,1-0.5,2-0.9,2.9
		c-0.4,0.9-0.9,1.7-1.6,2.3s-1.5,1.2-2.4,1.6c-1,0.4-2.1,0.6-3.5,0.6c-1.7,0-3.1-0.3-4.2-1s-2-1.5-2.6-2.6s-1.2-2.3-1.5-3.7
		c-0.3-1.4-0.6-2.8-0.7-4.3c-0.1-1.5-0.2-2.9-0.3-4.3c-0.1-1.4-0.1-2.7-0.2-3.8L831.5,527.4z"/>
	<path fill="#4CABE0" d="M853,526.8c0-0.2,0-0.4,0-0.8c0-0.4,0-0.8,0-1.2c0-0.4,0-0.8,0-1.2s0-0.7,0-0.8c0.2-0.4,0.6-0.8,1.1-1
		s1-0.3,1.6-0.4c0.6-0.1,1.1-0.1,1.7-0.1c0.6,0,1,0,1.4,0c0.5,0,1,0,1.6,0.1c0.6,0,1.2,0.1,1.9,0.2c0.6,0.1,1.2,0.3,1.8,0.5
		c0.6,0.2,1.2,0.5,1.6,0.9c0.5,0.3,0.9,0.8,1.1,1.3c0.3,0.5,0.4,1.1,0.4,1.8c0,0.8-0.2,1.5-0.6,2.2c-0.4,0.6-0.8,1.2-1.4,1.8
		s-1.2,1.1-1.8,1.6c-0.7,0.5-1.3,1-1.8,1.4c-0.6,0.5-1,0.9-1.4,1.4c-0.4,0.5-0.6,1-0.6,1.6c0,0,0,0.1,0,0.2c0,0.1,0,0.1,0,0.1
		c2.5,0.7,4.9,1.6,7.3,2.7c2.3,1.1,4.7,2.2,6.9,3.4c0.1,0,0.1,0.1,0.2,0.2c0.1,0.1,0.1,0.3,0.2,0.4c0.1,0.2,0.1,0.3,0.2,0.4
		c0.1,0.1,0.1,0.2,0.1,0.3c0,0.2-0.1,0.3-0.2,0.4s-0.2,0.2-0.4,0.2c-0.1,0.1-0.3,0.1-0.4,0.1c-0.1,0-0.3,0-0.4,0
		c-1.1,0-2.3-0.2-3.4-0.7c-1.1-0.5-2.3-1-3.4-1.7c-1.1-0.6-2.3-1.2-3.5-1.7c-1.2-0.5-2.4-0.8-3.6-0.8h-1c0.3,0.8,0.6,1.5,0.9,2.1
		c0.3,0.6,0.5,1.2,0.7,1.8c0.2,0.6,0.3,1.1,0.4,1.7s0.1,1.2,0.1,1.9c0,0.1,0,0.3,0,0.5s0,0.4,0,0.6c0,0.2-0.1,0.4-0.2,0.6
		c-0.1,0.2-0.3,0.3-0.5,0.3c-0.9-0.5-1.6-1.3-2.3-2.4c-0.7-1.1-1.3-2.3-1.8-3.6c-0.5-1.4-0.9-2.8-1.3-4.4c-0.3-1.5-0.6-3-0.9-4.5
		c-0.2-1.5-0.4-2.9-0.5-4.2C853,528.7,853,527.6,853,526.8z M855.7,528.8c0,0.3,0,0.6,0,1.1c0,0.4,0,0.9,0,1.3
		c0,0.5,0.1,0.9,0.2,1.3c0.1,0.4,0.3,0.8,0.6,1.1c0,0,0.1,0,0.1,0c0,0,0.1,0,0.2,0c0.4,0,0.8-0.1,1.4-0.3s1.1-0.5,1.7-0.9
		c0.6-0.4,1.2-0.8,1.8-1.3c0.6-0.5,1.1-1,1.6-1.5c0.5-0.5,0.8-1.1,1.1-1.6s0.4-1,0.4-1.5c0-0.4-0.2-0.8-0.5-1.1
		c-0.3-0.3-0.7-0.6-1.1-0.7s-0.9-0.3-1.4-0.4c-0.5-0.1-0.9-0.1-1.2-0.1c-0.4,0-0.8,0-1.3,0c-0.5,0-1,0-1.4,0.1
		c-0.5,0.1-0.9,0.2-1.3,0.4c-0.4,0.2-0.6,0.5-0.8,0.9c0,0.1,0,0.3,0,0.7s0,0.7,0,1c0,0.4,0,0.7,0,1
		C855.7,528.4,855.7,528.6,855.7,528.8z"/>
	<path fill="#4CABE0" d="M901.8,547.7c0.1-0.5,0.4-0.9,0.8-1.2s0.9-0.6,1.5-0.9c0.6-0.3,1.1-0.5,1.8-0.8s1.2-0.5,1.7-0.8
		c0.5-0.3,0.9-0.6,1.3-1c0.3-0.4,0.5-0.8,0.5-1.3c0-0.7-0.2-1.2-0.5-1.7c-0.3-0.4-0.8-0.8-1.4-1.1c-0.6-0.3-1.2-0.6-2-0.8
		c-0.7-0.2-1.5-0.4-2.3-0.6s-1.5-0.5-2.3-0.7c-0.7-0.3-1.4-0.6-2-1c-0.6-0.4-1-0.9-1.4-1.5s-0.5-1.3-0.5-2.1c0-0.7,0.1-1.4,0.4-2
		c0.3-0.6,0.7-1.2,1.1-1.8c0.5-0.6,1-1.1,1.6-1.5c0.6-0.5,1.3-0.9,2-1.2c0.7-0.3,1.4-0.6,2.1-0.7c0.7-0.2,1.3-0.3,1.9-0.3h0.3
		c0.2,0.1,0.4,0.2,0.8,0.3s0.6,0.3,0.9,0.4c0.3,0.1,0.5,0.3,0.8,0.4c0.2,0.1,0.3,0.2,0.3,0.2v0.7c-0.4,0-0.9,0.1-1.5,0.2
		c-0.6,0.1-1.3,0.3-2,0.5c-0.7,0.2-1.4,0.4-2.1,0.7c-0.7,0.3-1.4,0.6-1.9,1c-0.6,0.4-1,0.8-1.4,1.3c-0.4,0.5-0.5,1.1-0.5,1.7
		c0,0.9,0.3,1.6,0.9,2.1c0.6,0.5,1.4,0.9,2.4,1.3c0.9,0.3,2,0.6,3.1,0.9c1.1,0.3,2.2,0.6,3.1,0.9c0.9,0.4,1.7,0.9,2.4,1.5
		c0.6,0.6,0.9,1.4,0.9,2.4c0,0.5-0.2,1.1-0.5,1.7c-0.3,0.6-0.8,1.2-1.3,1.8s-1.1,1.1-1.8,1.7c-0.7,0.5-1.4,1-2.1,1.4
		s-1.4,0.7-2.1,0.9c-0.7,0.2-1.3,0.4-1.8,0.4c-0.2,0-0.3,0-0.5-0.1c-0.2,0-0.4-0.1-0.5-0.2c-0.1-0.1-0.2-0.2-0.3-0.4
		S901.7,548,901.8,547.7z"/>
	<path fill="#4CABE0" d="M929.4,530.1c-0.1-0.3-0.2-0.5-0.5-0.6c-0.2-0.1-0.5-0.2-0.8-0.2c-0.3,0-0.6,0-0.8,0
		c-0.3,0-0.5,0.1-0.6,0.1c-0.4,0-1-0.1-1.9-0.1c-0.9-0.1-1.8-0.1-2.9-0.2c-1-0.1-2-0.1-2.9-0.2c-0.9-0.1-1.5-0.1-1.9-0.1
		c0,0,0-0.1,0-0.3c0-0.2,0-0.3,0-0.3c0-0.3,0-0.6,0.1-0.8c0.1-0.2,0.3-0.4,0.6-0.5c2,0,3.9,0,5.9,0c1.9-0.1,3.9-0.2,5.8-0.3
		c1.9-0.1,3.9-0.2,5.8-0.3c1.9-0.1,3.9-0.2,5.8-0.2c0,0.8-0.2,1.4-0.6,1.8c-0.4,0.4-0.8,0.6-1.4,0.7c-0.6,0.1-1.2,0.2-1.8,0.2
		s-1.3,0-1.9,0c-0.6,0-1.2,0.2-1.6,0.4c-0.5,0.2-0.8,0.6-0.9,1.1c0,0.1,0,0.4-0.1,0.7c0,0.4,0,0.7,0,1.1c0,0.4,0,0.8,0,1.1
		c0,0.3,0,0.6,0,0.7c0,1.2,0.2,2.4,0.5,3.6c0.3,1.2,0.6,2.3,1,3.5c0.4,1.1,0.7,2.3,1,3.4c0.3,1.1,0.5,2.3,0.5,3.5
		c0,0.9-0.5,1.3-1.5,1.3c-0.6,0-1.2-0.4-1.6-1.3c-0.5-0.8-0.9-1.9-1.2-3.2c-0.3-1.3-0.6-2.7-0.9-4.3s-0.4-3-0.5-4.4
		c-0.1-1.4-0.2-2.7-0.3-3.7S929.4,530.5,929.4,530.1z"/>
	<path fill="#4CABE0" d="M945.5,540.3c0-1.1,0.1-2.2,0.4-3.3s0.7-2.2,1.2-3.2s1.1-2,1.9-2.8c0.7-0.9,1.6-1.6,2.4-2.3
		c0.9-0.6,1.9-1.1,2.9-1.5c1.1-0.4,2.2-0.6,3.3-0.6c1.2,0,2.2,0.2,3,0.7c0.9,0.5,1.6,1.1,2.1,1.8c0.6,0.8,1,1.6,1.3,2.6
		c0.3,1,0.4,2,0.4,3c0,1.8-0.3,3.5-0.8,5.2c-0.5,1.7-1.3,3.3-2.3,4.6c-1,1.4-2.3,2.5-3.8,3.3s-3.3,1.2-5.3,1.2c-1.2,0-2.2-0.3-3-0.8
		s-1.6-1.2-2.1-2.1c-0.6-0.9-1-1.8-1.2-2.8C945.6,542.4,945.5,541.3,945.5,540.3z M948.2,541c0,0.6,0.1,1.2,0.3,1.8
		c0.2,0.6,0.5,1.2,0.8,1.7c0.3,0.5,0.8,1,1.3,1.3c0.5,0.4,1.1,0.5,1.8,0.5c1.4,0,2.7-0.3,3.9-1c1.2-0.6,2.2-1.5,3-2.5s1.5-2.2,2-3.4
		c0.5-1.3,0.7-2.5,0.7-3.8c0-0.7,0-1.5-0.1-2.2s-0.2-1.4-0.4-2.1c-0.2-0.6-0.6-1.1-1.1-1.5c-0.5-0.4-1.2-0.6-2.1-0.6
		c-0.3,0-0.7,0-1.2,0s-1,0.1-1.5,0.2c-0.5,0.1-0.9,0.2-1.3,0.4c-0.4,0.2-0.6,0.5-0.6,0.8c0,0,0,0.1,0.1,0.3c0.1,0.1,0.2,0.3,0.2,0.4
		s0.2,0.3,0.2,0.4c0.1,0.1,0.1,0.2,0.1,0.3c0,0-0.1,0.2-0.3,0.3c-0.2,0.2-0.3,0.3-0.4,0.3c-1.1,0.3-1.9,0.6-2.6,1
		c-0.7,0.4-1.3,0.9-1.7,1.6c-0.4,0.7-0.7,1.4-0.9,2.3C948.2,538.7,948.2,539.8,948.2,541z"/>
	<path fill="#4CABE0" d="M969,526.8c0-0.2,0-0.4,0-0.8c0-0.4,0-0.8,0-1.2c0-0.4,0-0.8,0-1.2s0-0.7,0-0.8c0.2-0.4,0.6-0.8,1.1-1
		s1-0.3,1.6-0.4s1.1-0.1,1.7-0.1c0.6,0,1,0,1.4,0c0.5,0,1,0,1.6,0.1c0.6,0,1.2,0.1,1.9,0.2c0.6,0.1,1.2,0.3,1.8,0.5
		c0.6,0.2,1.2,0.5,1.6,0.9c0.5,0.3,0.9,0.8,1.1,1.3c0.3,0.5,0.4,1.1,0.4,1.8c0,0.8-0.2,1.5-0.6,2.2c-0.4,0.6-0.8,1.2-1.4,1.8
		c-0.6,0.6-1.2,1.1-1.8,1.6c-0.7,0.5-1.3,1-1.8,1.4c-0.6,0.5-1,0.9-1.4,1.4c-0.4,0.5-0.6,1-0.6,1.6c0,0,0,0.1,0,0.2
		c0,0.1,0,0.1,0,0.1c2.5,0.7,4.9,1.6,7.3,2.7c2.3,1.1,4.7,2.2,6.9,3.4c0.1,0,0.1,0.1,0.2,0.2c0.1,0.1,0.1,0.3,0.2,0.4
		c0.1,0.2,0.1,0.3,0.2,0.4c0.1,0.1,0.1,0.2,0.1,0.3c0,0.2-0.1,0.3-0.2,0.4c-0.1,0.1-0.2,0.2-0.4,0.2s-0.3,0.1-0.4,0.1s-0.3,0-0.4,0
		c-1.1,0-2.3-0.2-3.4-0.7c-1.1-0.5-2.3-1-3.4-1.7s-2.3-1.2-3.5-1.7c-1.2-0.5-2.4-0.8-3.6-0.8h-1c0.3,0.8,0.6,1.5,0.9,2.1
		c0.3,0.6,0.5,1.2,0.7,1.8c0.2,0.6,0.3,1.1,0.4,1.7s0.1,1.2,0.1,1.9c0,0.1,0,0.3,0,0.5s0,0.4,0,0.6c0,0.2-0.1,0.4-0.2,0.6
		s-0.3,0.3-0.5,0.3c-0.9-0.5-1.6-1.3-2.3-2.4c-0.7-1.1-1.3-2.3-1.8-3.6s-0.9-2.8-1.3-4.4c-0.3-1.5-0.6-3-0.9-4.5
		c-0.2-1.5-0.4-2.9-0.5-4.2C969,528.7,969,527.6,969,526.8z M971.7,528.8c0,0.3,0,0.6,0,1.1c0,0.4,0,0.9,0,1.3
		c0,0.5,0.1,0.9,0.2,1.3c0.1,0.4,0.3,0.8,0.6,1.1c0,0,0.1,0,0.1,0c0,0,0.1,0,0.2,0c0.4,0,0.8-0.1,1.4-0.3s1.1-0.5,1.7-0.9
		c0.6-0.4,1.2-0.8,1.8-1.3s1.1-1,1.6-1.5c0.5-0.5,0.8-1.1,1.1-1.6c0.3-0.5,0.4-1,0.4-1.5c0-0.4-0.2-0.8-0.5-1.1
		c-0.3-0.3-0.7-0.6-1.1-0.7s-0.9-0.3-1.4-0.4c-0.5-0.1-0.9-0.1-1.2-0.1c-0.4,0-0.8,0-1.3,0c-0.5,0-1,0-1.4,0.1
		c-0.5,0.1-0.9,0.2-1.3,0.4c-0.4,0.2-0.6,0.5-0.8,0.9c0,0.1,0,0.3,0,0.7s0,0.7,0,1c0,0.4,0,0.7,0,1S971.7,528.6,971.7,528.8z"/>
	<path fill="#4CABE0" d="M996.6,524c-0.1,0-0.3,0-0.5-0.1c-0.2-0.1-0.4-0.1-0.6-0.2c-0.2-0.1-0.4-0.1-0.6-0.2
		c-0.2-0.1-0.3-0.1-0.4-0.2c0,0,0-0.1,0-0.1c0,0,0-0.1,0-0.2c0-0.3,0.1-0.5,0.3-0.8s0.5-0.4,0.8-0.5c0.3-0.1,0.6-0.2,0.9-0.3
		c0.3-0.1,0.5-0.1,0.7-0.1h0.4h0.3c0.5,0,1.1,0.1,1.9,0.2c0.8,0.1,1.6,0.2,2.5,0.3s1.8,0.2,2.7,0.3c0.9,0.1,1.7,0.2,2.4,0.3
		c0.7,0.1,1.3,0.2,1.8,0.2c0.5,0.1,0.8,0.1,0.9,0.1c0.2,0,0.4,0.1,0.6,0.1c0.3,0.1,0.5,0.1,0.8,0.3s0.5,0.3,0.8,0.4
		c0.2,0.2,0.4,0.4,0.5,0.6c-0.2,0.3-0.3,0.6-0.4,0.8c-0.1,0.2-0.3,0.3-0.4,0.4s-0.3,0.1-0.5,0.1s-0.4,0-0.6,0c-0.9,0-1.8,0-2.7-0.1
		c-0.9-0.1-1.8-0.1-2.7-0.2c-0.9-0.1-1.8-0.1-2.7-0.2c-0.9-0.1-1.8-0.1-2.7-0.1c0,0.4,0,0.9-0.1,1.7s-0.2,1.6-0.2,2.4
		c-0.1,0.8,0,1.7,0.1,2.5c0.1,0.8,0.3,1.5,0.7,2.1c0.7-0.4,1.5-0.7,2.3-0.7c0.8,0,1.6,0,2.4,0c0.4,0,0.8,0,1.4,0s1.1,0.1,1.6,0.2
		c0.5,0.1,1,0.3,1.3,0.6c0.4,0.3,0.5,0.7,0.5,1.3c0,0.4-0.1,0.7-0.3,0.9c-0.2,0.2-0.6,0.3-1.2,0.3c-0.1,0-0.2,0-0.4-0.1
		c-0.2-0.1-0.4-0.1-0.6-0.2c-0.2-0.1-0.4-0.2-0.6-0.2c-0.2-0.1-0.3-0.1-0.4-0.1c0,0-0.1,0-0.2,0c-0.1,0-0.3,0-0.5,0s-0.4,0-0.6,0
		c-0.2,0-0.3,0-0.4,0c-0.5,0-1,0-1.4,0.1c-0.5,0.1-0.8,0.2-1.2,0.4c-0.3,0.2-0.6,0.5-0.8,0.8c-0.2,0.4-0.3,0.8-0.3,1.4
		c0,0.2,0,0.5,0.1,1c0,0.5,0.1,1,0.2,1.5c0.1,0.6,0.2,1.1,0.3,1.7c0.1,0.6,0.3,1.1,0.5,1.6c0.2,0.5,0.4,0.9,0.7,1.2
		c0.3,0.3,0.6,0.5,1,0.5c0,0,0.1,0,0.3,0c0.2,0,0.3,0,0.3,0c0.7-0.5,1.4-1,2.2-1.6c0.7-0.6,1.5-1.1,2.3-1.6c0.8-0.5,1.6-0.9,2.4-1.3
		c0.8-0.3,1.7-0.5,2.6-0.5v1.5c0,0.1-0.2,0.3-0.6,0.7c-0.4,0.4-0.9,0.8-1.6,1.3c-0.7,0.5-1.4,1-2.2,1.6c-0.8,0.6-1.6,1.1-2.5,1.6
		c-0.8,0.5-1.6,0.9-2.4,1.2c-0.7,0.3-1.4,0.5-1.9,0.5c-0.7,0-1.4-0.3-1.9-1c-0.6-0.6-1.1-1.5-1.5-2.6c-0.4-1.1-0.8-2.3-1.1-3.7
		c-0.3-1.4-0.6-2.8-0.8-4.3c-0.2-1.5-0.4-2.9-0.5-4.4c-0.1-1.5-0.2-2.8-0.3-4.1c-0.1-1.2-0.1-2.3-0.2-3.2S996.6,524.4,996.6,524z"/>
</g>
<g id="XMLID_160_" opacity="0.39">
	<path fill="#6DBCFD" d="M1056.2,575.2h-310v-79h310V575.2z M749.2,572.2h304v-73h-304V572.2z"/>
</g>
<g id="XMLID_159_">
	<path fill="#6DBCFD" d="M1053.9,573.2h-310v-79h310V573.2z M746.9,570.2h304v-73h-304V570.2z"/>
</g>
<g id="XMLID_161_" opacity="0.33">
	<circle fill="#6DBCFD" cx="1045.6" cy="504.7" r="1.6"/>
</g>
<g id="XMLID_163_">
	<circle fill="#6DBCFD" cx="1045.2" cy="504.5" r="1.6"/>
</g>
<g id="XMLID_165_" opacity="0.33">
	<circle fill="#6DBCFD" cx="1045.6" cy="565" r="1.6"/>
</g>
<g id="XMLID_164_">
	<circle fill="#6DBCFD" cx="1045.2" cy="564.7" r="1.6"/>
</g>
<g id="XMLID_173_" opacity="0.33">
	<circle fill="#6DBCFD" cx="756.8" cy="504.7" r="1.6"/>
</g>
<g id="XMLID_172_">
	<circle fill="#6DBCFD" cx="756.4" cy="504.5" r="1.6"/>
</g>
<g id="XMLID_171_" opacity="0.33">
	<circle fill="#6DBCFD" cx="756.8" cy="565" r="1.6"/>
</g>
<g id="XMLID_170_">
	<circle fill="#6DBCFD" cx="756.4" cy="564.7" r="1.6"/>
</g>
<g id="XMLID_162_">
	<path fill="#FFFFFF" d="M1323.2,961.9h-148.8c-11.5,0-20.2-10.3-18.2-21.6l28.6-167.2c1.4-8,8.3-13.8,16.4-13.8h91.9
		c8,0,14.8,5.7,16.3,13.5l31.9,166.7C1343.8,951,1335.1,961.9,1323.2,961.9z"/>
	<path fill="#6DBCFD" d="M1323.2,964.8h-148.8c-6.3,0-12.3-2.8-16.3-7.6c-4.1-4.8-5.8-11.1-4.7-17.4l28.6-167.2
		c1.6-9.4,9.7-16.2,19.2-16.2h91.9c9.3,0,17.3,6.6,19.1,15.8l31.9,166.7c1.4,6.3-0.2,12.8-4.3,17.9S1329.7,964.8,1323.2,964.8z
		 M1201.3,762.1c-6.7,0-12.4,4.8-13.6,11.4L1159,940.8c-0.8,4.6,0.5,9.2,3.5,12.8c3,3.5,7.4,5.6,12,5.6h148.8
		c4.8,0,9.2-2.1,12.2-5.8c3-3.7,4.1-8.5,3.1-13.2l-31.9-166.8c-1.2-6.5-6.9-11.2-13.5-11.2H1201.3z"/>
</g>
<g id="XMLID_168_" opacity="0.21">
	<path fill="#6DBCFD" d="M1332.3,973.1h-146.7c-11.3,0-19.9-10.2-18-21.3l28.3-165c1.3-7.9,8.2-13.6,16.1-13.6h90.6
		c7.9,0,14.6,5.6,16.1,13.3l31.4,164.5C1352.6,962.4,1343.9,973.1,1332.3,973.1z"/>
</g>
<g opacity="0.78">
	<g>
		<path fill="#4AA6E5" d="M1253.8,940l-13.8-14.3c-0.5-0.5-0.5-1.4,0-2l0,0c0.5-0.5,1.4-0.5,1.9,0l13.8,14.3c0.5,0.5,0.5,1.4,0,2
			l0,0C1255.2,940.6,1254.3,940.6,1253.8,940z"/>
	</g>
	<g>
		<path fill="#4AA6E5" d="M1240,938l13.8-14.3c0.5-0.5,1.4-0.5,1.9,0l0,0c0.5,0.5,0.5,1.4,0,2l-13.8,14.3c-0.5,0.5-1.4,0.5-1.9,0
			l0,0C1239.5,939.5,1239.5,938.6,1240,938z"/>
	</g>
	<g>
		<path fill="#4AA6E5" d="M1253.8,843.5l-13.8-14.3c-0.5-0.5-0.5-1.4,0-2l0,0c0.5-0.5,1.4-0.5,1.9,0l13.8,14.3c0.5,0.5,0.5,1.4,0,2
			l0,0C1255.2,844.1,1254.3,844.1,1253.8,843.5z"/>
	</g>
	<g>
		<path fill="#4AA6E5" d="M1240,841.5l13.8-14.3c0.5-0.5,1.4-0.5,1.9,0l0,0c0.5,0.5,0.5,1.4,0,2l-13.8,14.3c-0.5,0.5-1.4,0.5-1.9,0
			l0,0C1239.5,842.9,1239.5,842,1240,841.5z"/>
	</g>
	<g>
		<path fill="#4AA6E5" d="M1313.2,933.4H1278c-0.8,0-1.5-0.7-1.5-1.5v0c0-0.8,0.7-1.5,1.5-1.5h35.2c0.8,0,1.5,0.7,1.5,1.5v0
			C1314.7,932.7,1314,933.4,1313.2,933.4z"/>
	</g>
	<g>
		<path fill="#4AA6E5" d="M1219.8,933.4h-35.2c-0.8,0-1.5-0.7-1.5-1.5v0c0-0.8,0.7-1.5,1.5-1.5h35.2c0.8,0,1.5,0.7,1.5,1.5v0
			C1221.3,932.7,1220.6,933.4,1219.8,933.4z"/>
	</g>
	<g>
		<path fill="#4AA6E5" d="M1301.8,836.9h-22.5c-0.8,0-1.5-0.7-1.5-1.5v0c0-0.8,0.7-1.5,1.5-1.5h22.5c0.8,0,1.5,0.7,1.5,1.5v0
			C1303.3,836.2,1302.6,836.9,1301.8,836.9z"/>
	</g>
	<g>
		<path fill="#4AA6E5" d="M1220.1,836.9h-22.5c-0.8,0-1.5-0.7-1.5-1.5v0c0-0.8,0.7-1.5,1.5-1.5h22.5c0.8,0,1.5,0.7,1.5,1.5v0
			C1221.7,836.2,1221,836.9,1220.1,836.9z"/>
	</g>
</g>
<g id="XMLID_178_">
	<path fill="#4AA6E5" d="M1218.5,870.3v6.8h-3.7v-6.8l-6.5-10.9h3.2c0.3,0,0.6,0.1,0.8,0.2c0.2,0.2,0.3,0.3,0.5,0.6l2.9,5.6
		c0.2,0.4,0.4,0.7,0.5,1.1c0.2,0.3,0.3,0.7,0.4,1c0.1-0.3,0.2-0.7,0.4-1c0.2-0.3,0.3-0.7,0.5-1l2.9-5.6c0.1-0.2,0.2-0.4,0.4-0.6
		c0.2-0.2,0.4-0.3,0.8-0.3h3.3L1218.5,870.3z"/>
	<path fill="#4AA6E5" d="M1245.1,868.2c0,1.3-0.2,2.5-0.7,3.6c-0.4,1.1-1.1,2.1-1.8,2.9c-0.8,0.8-1.8,1.4-2.9,1.9
		c-1.1,0.5-2.4,0.7-3.7,0.7s-2.6-0.2-3.7-0.7c-1.1-0.5-2.1-1.1-2.9-1.9c-0.8-0.8-1.4-1.8-1.9-2.9c-0.4-1.1-0.7-2.3-0.7-3.6
		s0.2-2.5,0.7-3.6c0.4-1.1,1.1-2.1,1.9-2.9c0.8-0.8,1.8-1.4,2.9-1.9c1.1-0.5,2.4-0.7,3.7-0.7s2.6,0.2,3.7,0.7s2.1,1.1,2.9,1.9
		c0.8,0.8,1.4,1.8,1.8,2.9C1244.9,865.7,1245.1,866.9,1245.1,868.2z M1241.3,868.2c0-0.9-0.1-1.8-0.4-2.5c-0.2-0.7-0.6-1.4-1.1-1.9
		c-0.5-0.5-1-0.9-1.7-1.2s-1.4-0.4-2.2-0.4c-0.8,0-1.6,0.1-2.2,0.4s-1.2,0.7-1.7,1.2c-0.5,0.5-0.8,1.1-1.1,1.9
		c-0.2,0.7-0.4,1.6-0.4,2.5c0,0.9,0.1,1.8,0.4,2.5c0.2,0.7,0.6,1.4,1.1,1.9c0.5,0.5,1,0.9,1.7,1.2s1.4,0.4,2.2,0.4
		c0.8,0,1.6-0.1,2.2-0.4s1.2-0.7,1.7-1.2c0.5-0.5,0.8-1.1,1.1-1.9C1241.2,870,1241.3,869.2,1241.3,868.2z"/>
	<path fill="#4AA6E5" d="M1257.5,874.2c0.6,0,1.1-0.1,1.6-0.3c0.5-0.2,0.9-0.5,1.2-0.9c0.3-0.4,0.6-0.8,0.7-1.3
		c0.2-0.5,0.3-1.1,0.3-1.8v-10.6h3.7v10.6c0,1.1-0.2,2.1-0.5,3c-0.3,0.9-0.8,1.7-1.5,2.3c-0.6,0.7-1.4,1.2-2.4,1.5
		c-0.9,0.4-2,0.6-3.1,0.6s-2.2-0.2-3.1-0.6c-0.9-0.4-1.7-0.9-2.4-1.5c-0.6-0.7-1.1-1.4-1.5-2.3c-0.3-0.9-0.5-1.9-0.5-3v-10.6h3.7
		v10.6c0,0.7,0.1,1.2,0.3,1.8c0.2,0.5,0.4,1,0.7,1.3c0.3,0.4,0.7,0.7,1.2,0.9S1256.9,874.2,1257.5,874.2z"/>
	<path fill="#4AA6E5" d="M1285.1,877.1h-3.3c-0.6,0-1.1-0.2-1.3-0.7l-3.4-5.4c-0.1-0.2-0.3-0.4-0.5-0.5c-0.2-0.1-0.4-0.1-0.7-0.1
		h-1.2v6.8h-3.7v-17.8h5.6c1.2,0,2.3,0.1,3.2,0.4c0.9,0.3,1.6,0.6,2.2,1.1c0.6,0.5,1,1,1.2,1.6c0.3,0.6,0.4,1.3,0.4,2.1
		c0,0.6-0.1,1.1-0.3,1.7s-0.4,1-0.7,1.4s-0.7,0.8-1.2,1.2c-0.5,0.3-1,0.6-1.6,0.8c0.2,0.1,0.5,0.3,0.7,0.5s0.4,0.4,0.6,0.7
		L1285.1,877.1z M1276.5,867.8c0.6,0,1.1-0.1,1.5-0.2c0.4-0.2,0.8-0.4,1.1-0.6s0.5-0.6,0.6-0.9s0.2-0.8,0.2-1.2c0-0.8-0.3-1.5-0.8-2
		c-0.6-0.5-1.4-0.7-2.6-0.7h-1.9v5.6H1276.5z"/>
	<path fill="#4AA6E5" d="M1214.6,892.1c-0.1,0.2-0.2,0.3-0.3,0.4c-0.1,0.1-0.3,0.1-0.5,0.1c-0.2,0-0.4-0.1-0.6-0.2s-0.5-0.3-0.7-0.4
		c-0.3-0.1-0.6-0.3-1-0.4c-0.4-0.1-0.8-0.2-1.3-0.2c-0.8,0-1.5,0.2-1.9,0.6c-0.4,0.4-0.6,0.9-0.6,1.5c0,0.4,0.1,0.7,0.3,1
		c0.2,0.3,0.5,0.5,0.9,0.7c0.4,0.2,0.8,0.4,1.3,0.5c0.5,0.1,1,0.3,1.5,0.5c0.5,0.2,1,0.4,1.5,0.6c0.5,0.2,0.9,0.5,1.3,0.9
		c0.4,0.4,0.7,0.8,0.9,1.3c0.2,0.5,0.3,1.1,0.3,1.9c0,0.8-0.1,1.6-0.4,2.3c-0.3,0.7-0.7,1.3-1.2,1.8c-0.5,0.5-1.2,0.9-2,1.2
		c-0.8,0.3-1.7,0.5-2.7,0.5c-0.6,0-1.1-0.1-1.7-0.2c-0.6-0.1-1.1-0.3-1.6-0.5s-1-0.4-1.5-0.7s-0.9-0.6-1.2-1l1.1-1.7
		c0.1-0.1,0.2-0.2,0.4-0.3c0.1-0.1,0.3-0.1,0.5-0.1c0.2,0,0.5,0.1,0.7,0.2c0.2,0.2,0.5,0.3,0.8,0.5c0.3,0.2,0.7,0.4,1.1,0.5
		s0.9,0.2,1.5,0.2c0.9,0,1.5-0.2,2-0.6c0.5-0.4,0.7-1,0.7-1.8c0-0.4-0.1-0.8-0.3-1.1c-0.2-0.3-0.5-0.5-0.9-0.7
		c-0.4-0.2-0.8-0.3-1.3-0.5s-1-0.3-1.5-0.4c-0.5-0.2-1-0.4-1.5-0.6s-0.9-0.5-1.3-0.9c-0.4-0.4-0.7-0.8-0.9-1.4
		c-0.2-0.6-0.3-1.2-0.3-2.1c0-0.7,0.1-1.3,0.4-1.9c0.3-0.6,0.6-1.2,1.2-1.7c0.5-0.5,1.1-0.9,1.9-1.2c0.7-0.3,1.6-0.4,2.5-0.4
		c1.1,0,2.1,0.2,3,0.5c0.9,0.3,1.7,0.8,2.3,1.4L1214.6,892.1z"/>
	<path fill="#4AA6E5" d="M1233.5,891.7h-5.2v14.8h-3.7v-14.8h-5.2v-3h14.1V891.7z"/>
	<path fill="#4AA6E5" d="M1254.8,897.6c0,1.3-0.2,2.5-0.7,3.6c-0.4,1.1-1.1,2.1-1.8,2.9c-0.8,0.8-1.8,1.4-2.9,1.9
		c-1.1,0.5-2.4,0.7-3.7,0.7s-2.6-0.2-3.7-0.7c-1.1-0.5-2.1-1.1-2.9-1.9c-0.8-0.8-1.4-1.8-1.9-2.9c-0.4-1.1-0.7-2.3-0.7-3.6
		s0.2-2.5,0.7-3.6c0.4-1.1,1.1-2.1,1.9-2.9c0.8-0.8,1.8-1.4,2.9-1.9c1.1-0.5,2.4-0.7,3.7-0.7s2.6,0.2,3.7,0.7s2.1,1.1,2.9,1.9
		c0.8,0.8,1.4,1.8,1.8,2.9C1254.6,895.1,1254.8,896.3,1254.8,897.6z M1251,897.6c0-0.9-0.1-1.8-0.4-2.5c-0.2-0.7-0.6-1.4-1.1-1.9
		c-0.5-0.5-1-0.9-1.7-1.2s-1.4-0.4-2.2-0.4c-0.8,0-1.6,0.1-2.2,0.4s-1.2,0.7-1.7,1.2c-0.5,0.5-0.8,1.1-1.1,1.9
		c-0.2,0.7-0.4,1.6-0.4,2.5c0,0.9,0.1,1.8,0.4,2.5c0.2,0.7,0.6,1.4,1.1,1.9c0.5,0.5,1,0.9,1.7,1.2s1.4,0.4,2.2,0.4
		c0.8,0,1.6-0.1,2.2-0.4s1.2-0.7,1.7-1.2c0.5-0.5,0.8-1.1,1.1-1.9C1250.9,899.4,1251,898.6,1251,897.6z"/>
	<path fill="#4AA6E5" d="M1274.1,906.5h-3.3c-0.6,0-1.1-0.2-1.3-0.7l-3.4-5.4c-0.1-0.2-0.3-0.4-0.5-0.5c-0.2-0.1-0.4-0.1-0.7-0.1
		h-1.2v6.8h-3.7v-17.8h5.6c1.2,0,2.3,0.1,3.2,0.4c0.9,0.3,1.6,0.6,2.2,1.1c0.6,0.5,1,1,1.2,1.6c0.3,0.6,0.4,1.3,0.4,2.1
		c0,0.6-0.1,1.1-0.3,1.7s-0.4,1-0.7,1.4s-0.7,0.8-1.2,1.2c-0.5,0.3-1,0.6-1.6,0.8c0.2,0.1,0.5,0.3,0.7,0.5s0.4,0.4,0.6,0.7
		L1274.1,906.5z M1265.5,897.2c0.6,0,1.1-0.1,1.5-0.2c0.4-0.2,0.8-0.4,1.1-0.6s0.5-0.6,0.6-0.9s0.2-0.8,0.2-1.2c0-0.8-0.3-1.5-0.8-2
		c-0.6-0.5-1.4-0.7-2.6-0.7h-1.9v5.6H1265.5z"/>
	<path fill="#4AA6E5" d="M1282,891.6v4.6h5.9v2.8h-5.9v4.7h7.6v2.9h-11.3v-17.8h11.3v2.9H1282z"/>
</g>
<g id="XMLID_169_">
	<path fill="#FFFFFF" d="M1216,756.5c0-27.9,14.9-50.5,33.4-50.5s33.4,22.6,33.4,50.5"/>
	<path fill="#6DBCFD" d="M1285.5,756.5h-5.7c0-26.3-13.7-47.7-30.5-47.7s-30.5,21.4-30.5,47.7h-5.7c0-29.4,16.2-53.3,36.2-53.3
		S1285.5,727,1285.5,756.5z"/>
</g>
<g id="XMLID_177_">
	<path fill="#FFFFFF" d="M1372.7,978.9h-100.9c-7.8,0-13.7-7-12.4-14.7l19.4-113.5c0.9-5.4,5.6-9.4,11.1-9.4h62.3
		c5.4,0,10,3.8,11.1,9.1l21.6,113.1C1386.6,971.5,1380.7,978.9,1372.7,978.9z"/>
	<path fill="#6DBCFD" d="M1372.7,980.8h-100.9c-4.3,0-8.3-1.9-11.1-5.1s-3.9-7.6-3.2-11.8l19.4-113.5c1.1-6.3,6.6-11,13-11h62.3
		c6.3,0,11.8,4.5,13,10.7l21.6,113.1c0.9,4.3-0.1,8.7-2.9,12.1C1381.2,978.8,1377.1,980.8,1372.7,980.8z M1289.9,843.3
		c-4.6,0-8.4,3.3-9.2,7.8l-19.4,113.5c-0.5,3.1,0.3,6.2,2.4,8.7s5,3.8,8.1,3.8h100.9c3.2,0,6.3-1.4,8.3-4c2-2.5,2.8-5.8,2.1-8.9
		l-21.6-113.2c-0.8-4.4-4.7-7.6-9.2-7.6H1289.9z"/>
</g>
<g id="XMLID_176_" opacity="0.21">
	<path fill="#6DBCFD" d="M1378.8,986.5h-99.5c-7.7,0-13.5-6.9-12.2-14.5l19.2-111.9c0.9-5.3,5.5-9.2,10.9-9.2h61.5
		c5.3,0,9.9,3.8,10.9,9l21.3,111.6C1392.6,979.2,1386.7,986.5,1378.8,986.5z"/>
</g>
<g id="XMLID_175_">
	<path fill="#FFFFFF" d="M1299.8,839.7c0-18.9,10.1-34.3,22.6-34.3c12.5,0,22.6,15.3,22.6,34.3"/>
	<path fill="#6DBCFD" d="M1347,839.7h-3.8c0-17.8-9.3-32.3-20.7-32.3c-11.4,0-20.7,14.5-20.7,32.3h-3.8c0-19.9,11-36.2,24.6-36.2
		S1347,819.7,1347,839.7z"/>
</g>
<g id="XMLID_174_">
	<path fill="#4AA6E5" d="M1305.5,920.2v4h-2.1v-4l-3.7-6.3h1.9c0.2,0,0.3,0,0.4,0.1c0.1,0.1,0.2,0.2,0.3,0.3l1.7,3.2
		c0.1,0.2,0.2,0.4,0.3,0.6c0.1,0.2,0.2,0.4,0.2,0.6c0.1-0.2,0.1-0.4,0.2-0.6c0.1-0.2,0.2-0.4,0.3-0.6l1.7-3.2
		c0.1-0.1,0.1-0.2,0.3-0.3c0.1-0.1,0.3-0.1,0.4-0.1h1.9L1305.5,920.2z"/>
	<path fill="#4AA6E5" d="M1320.9,919c0,0.8-0.1,1.4-0.4,2.1c-0.3,0.6-0.6,1.2-1.1,1.7c-0.5,0.5-1,0.8-1.7,1.1
		c-0.6,0.3-1.4,0.4-2.2,0.4c-0.8,0-1.5-0.1-2.2-0.4c-0.6-0.3-1.2-0.6-1.7-1.1c-0.5-0.5-0.8-1-1.1-1.7c-0.3-0.6-0.4-1.3-0.4-2.1
		s0.1-1.4,0.4-2.1c0.3-0.6,0.6-1.2,1.1-1.7c0.5-0.5,1-0.8,1.7-1.1c0.6-0.3,1.4-0.4,2.2-0.4c0.8,0,1.5,0.1,2.2,0.4
		c0.6,0.3,1.2,0.6,1.7,1.1s0.8,1,1.1,1.7S1320.9,918.2,1320.9,919z M1318.7,919c0-0.5-0.1-1-0.2-1.5c-0.1-0.4-0.3-0.8-0.6-1.1
		c-0.3-0.3-0.6-0.5-1-0.7c-0.4-0.2-0.8-0.2-1.3-0.2s-0.9,0.1-1.3,0.2c-0.4,0.2-0.7,0.4-1,0.7c-0.3,0.3-0.5,0.7-0.6,1.1
		c-0.1,0.4-0.2,0.9-0.2,1.5c0,0.5,0.1,1,0.2,1.5c0.1,0.4,0.3,0.8,0.6,1.1c0.3,0.3,0.6,0.5,1,0.7c0.4,0.2,0.8,0.2,1.3,0.2
		s0.9-0.1,1.3-0.2c0.4-0.2,0.7-0.4,1-0.7c0.3-0.3,0.5-0.7,0.6-1.1C1318.7,920,1318.7,919.5,1318.7,919z"/>
	<path fill="#4AA6E5" d="M1328.1,922.4c0.3,0,0.7-0.1,0.9-0.2c0.3-0.1,0.5-0.3,0.7-0.5s0.3-0.5,0.4-0.8s0.1-0.6,0.1-1v-6.1h2.1v6.1
		c0,0.6-0.1,1.2-0.3,1.7s-0.5,1-0.9,1.4c-0.4,0.4-0.8,0.7-1.4,0.9s-1.1,0.3-1.8,0.3c-0.7,0-1.3-0.1-1.8-0.3c-0.5-0.2-1-0.5-1.4-0.9
		c-0.4-0.4-0.7-0.8-0.9-1.4s-0.3-1.1-0.3-1.7v-6.1h2.1v6.1c0,0.4,0,0.7,0.1,1s0.2,0.6,0.4,0.8s0.4,0.4,0.7,0.5
		C1327.4,922.4,1327.8,922.4,1328.1,922.4z"/>
	<path fill="#4AA6E5" d="M1344.1,924.1h-1.9c-0.4,0-0.6-0.1-0.8-0.4l-2-3.2c-0.1-0.1-0.2-0.2-0.3-0.3c-0.1-0.1-0.2-0.1-0.4-0.1h-0.7
		v3.9h-2.1v-10.3h3.2c0.7,0,1.3,0.1,1.8,0.2c0.5,0.1,0.9,0.4,1.3,0.6c0.3,0.3,0.6,0.6,0.7,0.9c0.2,0.4,0.2,0.8,0.2,1.2
		c0,0.3,0,0.7-0.1,1c-0.1,0.3-0.2,0.6-0.4,0.8c-0.2,0.3-0.4,0.5-0.7,0.7c-0.3,0.2-0.6,0.3-0.9,0.5c0.1,0.1,0.3,0.2,0.4,0.3
		s0.2,0.2,0.3,0.4L1344.1,924.1z M1339.1,918.7c0.3,0,0.6,0,0.9-0.1c0.3-0.1,0.5-0.2,0.6-0.4c0.2-0.2,0.3-0.3,0.4-0.5
		s0.1-0.4,0.1-0.7c0-0.5-0.2-0.9-0.5-1.1c-0.3-0.3-0.8-0.4-1.5-0.4h-1.1v3.3H1339.1z"/>
	<path fill="#4AA6E5" d="M1305.6,932.8c-0.1,0.1-0.1,0.2-0.2,0.2s-0.2,0.1-0.3,0.1c-0.1,0-0.2,0-0.3-0.1c-0.1-0.1-0.3-0.2-0.4-0.2
		c-0.2-0.1-0.3-0.2-0.6-0.2s-0.5-0.1-0.7-0.1c-0.5,0-0.9,0.1-1.1,0.3c-0.2,0.2-0.4,0.5-0.4,0.9c0,0.2,0.1,0.4,0.2,0.6
		c0.1,0.1,0.3,0.3,0.5,0.4c0.2,0.1,0.5,0.2,0.7,0.3s0.6,0.2,0.9,0.3s0.6,0.2,0.9,0.4c0.3,0.1,0.5,0.3,0.7,0.5s0.4,0.5,0.5,0.8
		c0.1,0.3,0.2,0.7,0.2,1.1c0,0.5-0.1,0.9-0.2,1.3c-0.2,0.4-0.4,0.8-0.7,1.1c-0.3,0.3-0.7,0.5-1.1,0.7c-0.5,0.2-1,0.3-1.5,0.3
		c-0.3,0-0.7,0-1-0.1c-0.3-0.1-0.6-0.2-0.9-0.3c-0.3-0.1-0.6-0.3-0.8-0.4c-0.3-0.2-0.5-0.3-0.7-0.6l0.6-1c0.1-0.1,0.1-0.1,0.2-0.2
		s0.2-0.1,0.3-0.1c0.1,0,0.3,0,0.4,0.1s0.3,0.2,0.5,0.3c0.2,0.1,0.4,0.2,0.6,0.3c0.2,0.1,0.5,0.1,0.9,0.1c0.5,0,0.9-0.1,1.2-0.3
		c0.3-0.2,0.4-0.6,0.4-1c0-0.3-0.1-0.5-0.2-0.6c-0.1-0.2-0.3-0.3-0.5-0.4c-0.2-0.1-0.5-0.2-0.7-0.3c-0.3-0.1-0.6-0.2-0.9-0.3
		c-0.3-0.1-0.6-0.2-0.9-0.3s-0.5-0.3-0.7-0.5c-0.2-0.2-0.4-0.5-0.5-0.8c-0.1-0.3-0.2-0.7-0.2-1.2c0-0.4,0.1-0.8,0.2-1.1
		s0.4-0.7,0.7-1s0.7-0.5,1.1-0.7c0.4-0.2,0.9-0.3,1.5-0.3c0.6,0,1.2,0.1,1.7,0.3c0.5,0.2,1,0.5,1.3,0.8L1305.6,932.8z"/>
	<path fill="#4AA6E5" d="M1316.6,932.6h-3v8.6h-2.1v-8.6h-3v-1.7h8.2V932.6z"/>
	<path fill="#4AA6E5" d="M1328.9,936c0,0.8-0.1,1.4-0.4,2.1c-0.3,0.6-0.6,1.2-1.1,1.7c-0.5,0.5-1,0.8-1.7,1.1
		c-0.6,0.3-1.4,0.4-2.2,0.4c-0.8,0-1.5-0.1-2.2-0.4c-0.6-0.3-1.2-0.6-1.7-1.1c-0.5-0.5-0.8-1-1.1-1.7c-0.3-0.6-0.4-1.3-0.4-2.1
		s0.1-1.4,0.4-2.1c0.3-0.6,0.6-1.2,1.1-1.7c0.5-0.5,1-0.8,1.7-1.1c0.6-0.3,1.4-0.4,2.2-0.4c0.8,0,1.5,0.1,2.2,0.4
		c0.6,0.3,1.2,0.6,1.7,1.1s0.8,1,1.1,1.7S1328.9,935.3,1328.9,936z M1326.7,936c0-0.5-0.1-1-0.2-1.5c-0.1-0.4-0.3-0.8-0.6-1.1
		c-0.3-0.3-0.6-0.5-1-0.7c-0.4-0.2-0.8-0.2-1.3-0.2s-0.9,0.1-1.3,0.2c-0.4,0.2-0.7,0.4-1,0.7c-0.3,0.3-0.5,0.7-0.6,1.1
		c-0.1,0.4-0.2,0.9-0.2,1.5c0,0.5,0.1,1,0.2,1.5c0.1,0.4,0.3,0.8,0.6,1.1c0.3,0.3,0.6,0.5,1,0.7c0.4,0.2,0.8,0.2,1.3,0.2
		s0.9-0.1,1.3-0.2c0.4-0.2,0.7-0.4,1-0.7c0.3-0.3,0.5-0.7,0.6-1.1C1326.7,937,1326.7,936.6,1326.7,936z"/>
	<path fill="#4AA6E5" d="M1340.1,941.2h-1.9c-0.4,0-0.6-0.1-0.8-0.4l-2-3.2c-0.1-0.1-0.2-0.2-0.3-0.3c-0.1-0.1-0.2-0.1-0.4-0.1h-0.7
		v3.9h-2.1v-10.3h3.2c0.7,0,1.3,0.1,1.8,0.2c0.5,0.1,0.9,0.4,1.3,0.6c0.3,0.3,0.6,0.6,0.7,0.9c0.2,0.4,0.2,0.8,0.2,1.2
		c0,0.3,0,0.7-0.1,1c-0.1,0.3-0.2,0.6-0.4,0.8c-0.2,0.3-0.4,0.5-0.7,0.7c-0.3,0.2-0.6,0.3-0.9,0.5c0.1,0.1,0.3,0.2,0.4,0.3
		s0.2,0.2,0.3,0.4L1340.1,941.2z M1335.1,935.7c0.3,0,0.6,0,0.9-0.1c0.3-0.1,0.5-0.2,0.6-0.4c0.2-0.2,0.3-0.3,0.4-0.5
		s0.1-0.4,0.1-0.7c0-0.5-0.2-0.9-0.5-1.1c-0.3-0.3-0.8-0.4-1.5-0.4h-1.1v3.3H1335.1z"/>
	<path fill="#4AA6E5" d="M1344.7,932.5v2.6h3.4v1.6h-3.4v2.7h4.4v1.7h-6.6v-10.3h6.6v1.7H1344.7z"/>
</g>
<g id="XMLID_179_">
	<path fill="#6DBCFD" d="M1386.8,764.8c-4.8,0-8.8-3.9-8.8-8.8s3.9-8.8,8.8-8.8s8.8,3.9,8.8,8.8S1391.6,764.8,1386.8,764.8z
		 M1386.8,750.1c-3.3,0-5.9,2.7-5.9,5.9s2.7,5.9,5.9,5.9s5.9-2.7,5.9-5.9S1390,750.1,1386.8,750.1z"/>
</g>
<g id="XMLID_195_" opacity="0.26">
	<path fill="#6DBCFD" d="M1426.3,795.9l-11,16.2c-0.5,0.7-1.4,0.9-2.2,0.4l0,0c-0.7-0.5-0.9-1.4-0.4-2.2l11-16.2
		c0.5-0.7,1.4-0.9,2.2-0.4l0,0C1426.6,794.3,1426.8,795.2,1426.3,795.9z"/>
</g>
<g id="XMLID_194_" opacity="0.26">
	<path fill="#6DBCFD" d="M1426.8,810l-16.2-11c-0.7-0.5-0.9-1.4-0.4-2.2l0,0c0.5-0.7,1.4-0.9,2.2-0.4l16.2,11
		c0.7,0.5,0.9,1.4,0.4,2.2l0,0C1428.5,810.3,1427.5,810.5,1426.8,810z"/>
</g>
<g id="XMLID_193_" opacity="0.27">
	<circle fill="#6DBCFD" cx="1390.5" cy="760" r="7.4"/>
</g>
<g id="XMLID_188_">
	<path fill="#6DBCFD" d="M1170.2,1008.2l-14.2-13.5c-0.6-0.6-0.6-1.6-0.1-2.2l0,0c0.6-0.6,1.6-0.6,2.2-0.1l14.2,13.5
		c0.6,0.6,0.6,1.6,0.1,2.2l0,0C1171.8,1008.7,1170.8,1008.8,1170.2,1008.2z"/>
</g>
<g id="XMLID_187_">
	<path fill="#6DBCFD" d="M1156.2,1006.3l13.5-14.2c0.6-0.6,1.6-0.6,2.2-0.1l0,0c0.6,0.6,0.6,1.6,0.1,2.2l-13.5,14.2
		c-0.6,0.6-1.6,0.6-2.2,0.1l0,0C1155.7,1007.9,1155.7,1006.9,1156.2,1006.3z"/>
</g>
<g id="XMLID_192_" opacity="0.29">
	<path fill="#6DBCFD" d="M1173.3,1012.3l-14.2-13.5c-0.6-0.6-0.6-1.6-0.1-2.2l0,0c0.6-0.6,1.6-0.6,2.2-0.1l14.2,13.5
		c0.6,0.6,0.6,1.6,0.1,2.2l0,0C1174.9,1012.8,1174,1012.9,1173.3,1012.3z"/>
</g>
<g id="XMLID_191_" opacity="0.29">
	<path fill="#6DBCFD" d="M1159.4,1010.4l13.5-14.2c0.6-0.6,1.6-0.6,2.2-0.1l0,0c0.6,0.6,0.6,1.6,0.1,2.2l-13.5,14.2
		c-0.6,0.6-1.6,0.6-2.2,0.1l0,0C1158.9,1012,1158.8,1011,1159.4,1010.4z"/>
</g>
<g id="XMLID_186_">
	<path fill="#6DBCFD" d="M1109.9,987.6c-4.8,0-8.8-3.9-8.8-8.8s3.9-8.8,8.8-8.8s8.8,3.9,8.8,8.8S1114.8,987.6,1109.9,987.6z
		 M1109.9,972.9c-3.3,0-5.9,2.7-5.9,5.9s2.7,5.9,5.9,5.9s5.9-2.7,5.9-5.9S1113.2,972.9,1109.9,972.9z"/>
</g>
<g id="XMLID_185_" opacity="0.33">
	<circle fill="#6DBCFD" cx="1113.9" cy="981.8" r="7.4"/>
</g>
<g id="XMLID_205_">
	<path fill="#6DBCFD" d="M552.4,882.4L552.4,882.4c-1.1,0-2-0.9-2-2V832c0-1.1,0.9-2,2-2l0,0c1.1,0,2,0.9,2,2v48.4
		C554.4,881.5,553.5,882.4,552.4,882.4z"/>
</g>
<g id="XMLID_199_">
	<path fill="#6DBCFD" d="M620.2,882.4L620.2,882.4c-1.1,0-2-0.9-2-2V832c0-1.1,0.9-2,2-2l0,0c1.1,0,2,0.9,2,2v48.4
		C622.2,881.5,621.3,882.4,620.2,882.4z"/>
</g>
<g opacity="0.63">
	<g>
		<path fill="#4AA6E5" d="M1327.6,961.7l-8.6-8.9c-0.3-0.3-0.3-0.9,0-1.2l0,0c0.3-0.3,0.9-0.3,1.2,0l8.6,8.9c0.3,0.3,0.3,0.9,0,1.2
			l0,0C1328.4,962,1327.9,962,1327.6,961.7z"/>
	</g>
	<g>
		<path fill="#4AA6E5" d="M1319,960.4l8.6-8.9c0.3-0.3,0.9-0.3,1.2,0l0,0c0.3,0.3,0.3,0.9,0,1.2l-8.6,8.9c-0.3,0.3-0.9,0.3-1.2,0
			l0,0C1318.6,961.3,1318.6,960.8,1319,960.4z"/>
	</g>
	<g>
		<path fill="#4AA6E5" d="M1327.6,901.2l-8.6-8.9c-0.3-0.3-0.3-0.9,0-1.2l0,0c0.3-0.3,0.9-0.3,1.2,0l8.6,8.9c0.3,0.3,0.3,0.9,0,1.2
			l0,0C1328.4,901.6,1327.9,901.6,1327.6,901.2z"/>
	</g>
	<g>
		<path fill="#4AA6E5" d="M1319,900l8.6-8.9c0.3-0.3,0.9-0.3,1.2,0l0,0c0.3,0.3,0.3,0.9,0,1.2l-8.6,8.9c-0.3,0.3-0.9,0.3-1.2,0l0,0
			C1318.6,900.9,1318.6,900.3,1319,900z"/>
	</g>
	<g>
		<path fill="#4AA6E5" d="M1364.8,957.5h-22.1c-0.5,0-0.9-0.4-0.9-0.9v0c0-0.5,0.4-0.9,0.9-0.9h22.1c0.5,0,0.9,0.4,0.9,0.9v0
			C1365.7,957.1,1365.3,957.5,1364.8,957.5z"/>
	</g>
	<g>
		<path fill="#4AA6E5" d="M1306.3,957.5h-22.1c-0.5,0-0.9-0.4-0.9-0.9v0c0-0.5,0.4-0.9,0.9-0.9h22.1c0.5,0,0.9,0.4,0.9,0.9v0
			C1307.3,957.1,1306.8,957.5,1306.3,957.5z"/>
	</g>
	<g>
		<path fill="#4AA6E5" d="M1357.6,897.1h-14.1c-0.5,0-0.9-0.4-0.9-0.9v0c0-0.5,0.4-0.9,0.9-0.9h14.1c0.5,0,0.9,0.4,0.9,0.9v0
			C1358.6,896.7,1358.1,897.1,1357.6,897.1z"/>
	</g>
	<g>
		<path fill="#4AA6E5" d="M1306.5,897.1h-14.1c-0.5,0-0.9-0.4-0.9-0.9v0c0-0.5,0.4-0.9,0.9-0.9h14.1c0.5,0,0.9,0.4,0.9,0.9v0
			C1307.5,896.7,1307.1,897.1,1306.5,897.1z"/>
	</g>
</g>
<g opacity="0.41">
	<g>
		<g>
			<path fill="#4CABE0" d="M684,282.9c3.1,1.3,4.7,4.3,4.7,8.7v16.8c0,6.4-3.2,9.6-9.6,9.6h-48V246h43.3c6.4,0,9.6,3.2,9.6,9.6
				V282.9z M669.6,260.4h-24.1v14.4h24.1V260.4z M674.3,289.2h-28.8v14.4h28.8V289.2z"/>
		</g>
		<g>
			<path fill="#4CABE0" d="M706.1,318v-62.5c0-6.4,3.2-9.6,9.6-9.6h38.4c6.4,0,9.6,3.2,9.6,9.6V318h-14.4v-19.3h-28.8V318H706.1z
				 M749.3,260.3h-28.8v24h28.8V260.3z"/>
		</g>
		<g>
			<path fill="#4CABE0" d="M783.2,246h48c6.4,0,9.6,3.2,9.6,9.6v4.3c0,2.4-0.8,4.8-2.5,7.2c-1.6,2.4-4,5-7.1,7.7l-32.2,28.8h41.8
				V318l-48,0c-6.4,0-9.6-3.2-9.6-9.6v-4.3c0-2.4,0.8-4.8,2.5-7.1c1.7-2.4,4-4.9,7.1-7.7l32.2-28.9h-41.8V246z"/>
		</g>
		<g>
			<path fill="#4CABE0" d="M1073,289.2l11.5,28.8h-14.4l-12.1-28.8h-16.9V318h-14.4v-62.4c0-6.4,3.2-9.6,9.6-9.6h38.4
				c6.4,0,9.6,3.2,9.6,9.6v24c0,6.4-3.2,9.6-9.6,9.6H1073z M1070.1,274.8v-14.4h-28.8v14.4H1070.1z"/>
		</g>
		<g>
			<path fill="#4CABE0" d="M1114.2,246V318h-14.4V246H1114.2z"/>
		</g>
		<g>
			<path fill="#4CABE0" d="M1148.1,289.2V318h-14.4v-62.4c0-6.4,3.2-9.6,9.6-9.6h38.4v14.4h-33.6v14.4h19.2l-4.8,14.4H1148.1z"/>
		</g>
		<g>
			<path fill="#4CABE0" d="M1256.7,308.4c0,6.4-3.2,9.6-9.6,9.6h-38.4l4.8-14.4h28.8v-4.8h-33.6c-6.4,0-9.6-3.2-9.6-9.6v-43.2h14.4
				v38.4h28.8v-38.4h14.5L1256.7,308.4z"/>
		</g>
	</g>
	<g>
		<g>
			<g>
				<path fill="#4CABE0" d="M919.8,252l7.6,58c0.6,4.2-2.7,8-7,8h-58.3c-4.2,0-7.4-3.6-7-7.7l5.6-58c0.3-3.6,3.4-6.4,7-6.4h1
					c3.9,0,7,3.2,7,7v12.2h28.8v-12.2c0-3.9,3.2-7,7-7h1.2C916.3,245.9,919.3,248.5,919.8,252z M872.7,303.4l34.7,0l-2.8-23.9h-28.8
					L872.7,303.4z"/>
			</g>
		</g>
		<g>
			<rect x="859.2" y="244.7" fill="#FFFFFF" width="64.3" height="20.4"/>
		</g>
	</g>
	<g>
		<g>
			<g>
				<path fill="#4CABE0" d="M1004.9,252l7.6,58c0.6,4.2-2.7,8-7,8h-58.3c-4.2,0-7.4-3.6-7-7.7l5.6-58c0.3-3.6,3.4-6.4,7-6.4h1
					c3.9,0,7,3.2,7,7v12.2h28.8v-12.2c0-3.9,3.2-7,7-7h1.2C1001.4,245.9,1004.4,248.5,1004.9,252z M957.8,303.4l34.7,0l-2.8-23.9
					h-28.8L957.8,303.4z"/>
			</g>
		</g>
		<g>
			<rect x="944.3" y="244.7" fill="#FFFFFF" width="64.3" height="20.4"/>
		</g>
	</g>
</g>
<g>
	<g>
		<g>
			<path fill="#4CABE0" d="M680,279.9c3.1,1.3,4.7,4.3,4.7,8.7v16.8c0,6.4-3.2,9.6-9.6,9.6h-48V243h43.3c6.4,0,9.6,3.2,9.6,9.6
				V279.9z M665.6,257.4h-24.1v14.4h24.1V257.4z M670.3,286.2h-28.8v14.4h28.8V286.2z"/>
		</g>
		<g>
			<path fill="#4CABE0" d="M702.1,315v-62.5c0-6.4,3.2-9.6,9.6-9.6h38.4c6.4,0,9.6,3.2,9.6,9.6V315h-14.4v-19.3h-28.8V315H702.1z
				 M745.3,257.3h-28.8v24h28.8V257.3z"/>
		</g>
		<g>
			<path fill="#4CABE0" d="M779.2,243h48c6.4,0,9.6,3.2,9.6,9.6v4.3c0,2.4-0.8,4.8-2.5,7.2c-1.6,2.4-4,5-7.1,7.7l-32.2,28.8h41.8
				V315l-48,0c-6.4,0-9.6-3.2-9.6-9.6v-4.3c0-2.4,0.8-4.8,2.5-7.1c1.7-2.4,4-4.9,7.1-7.7l32.2-28.9h-41.8V243z"/>
		</g>
		<g>
			<path fill="#4CABE0" d="M1069,286.2l11.5,28.8h-14.4l-12.1-28.8h-16.9V315h-14.4v-62.4c0-6.4,3.2-9.6,9.6-9.6h38.4
				c6.4,0,9.6,3.2,9.6,9.6v24c0,6.4-3.2,9.6-9.6,9.6H1069z M1066.1,271.8v-14.4h-28.8v14.4H1066.1z"/>
		</g>
		<g>
			<path fill="#4CABE0" d="M1110.2,243V315h-14.4V243H1110.2z"/>
		</g>
		<g>
			<path fill="#4CABE0" d="M1144.1,286.2V315h-14.4v-62.4c0-6.4,3.2-9.6,9.6-9.6h38.4v14.4h-33.6v14.4h19.2l-4.8,14.4H1144.1z"/>
		</g>
		<g>
			<path fill="#4CABE0" d="M1252.7,305.4c0,6.4-3.2,9.6-9.6,9.6h-38.4l4.8-14.4h28.8v-4.8h-33.6c-6.4,0-9.6-3.2-9.6-9.6v-43.2h14.4
				v38.4h28.8v-38.4h14.5L1252.7,305.4z"/>
		</g>
	</g>
	<g>
		<g>
			<g>
				<path fill="#4CABE0" d="M915.8,249l7.6,58c0.6,4.2-2.7,8-7,8h-58.3c-4.2,0-7.4-3.6-7-7.7l5.6-58c0.3-3.6,3.4-6.4,7-6.4h1
					c3.9,0,7,3.2,7,7v12.2h28.8v-12.2c0-3.9,3.2-7,7-7h1.2C912.3,242.9,915.3,245.5,915.8,249z M868.7,300.4l34.7,0l-2.8-23.9h-28.8
					L868.7,300.4z"/>
			</g>
		</g>
		<g>
			<rect x="855.2" y="241.7" fill="#FFFFFF" width="64.3" height="20.4"/>
		</g>
	</g>
	<g>
		<g>
			<g>
				<path fill="#4CABE0" d="M1000.9,249l7.6,58c0.6,4.2-2.7,8-7,8h-58.3c-4.2,0-7.4-3.6-7-7.7l5.6-58c0.3-3.6,3.4-6.4,7-6.4h1
					c3.9,0,7,3.2,7,7v12.2h28.8v-12.2c0-3.9,3.2-7,7-7h1.2C997.4,242.9,1000.4,245.5,1000.9,249z M953.8,300.4l34.7,0l-2.8-23.9
					h-28.8L953.8,300.4z"/>
			</g>
		</g>
		<g>
			<rect x="940.3" y="241.7" fill="#FFFFFF" width="64.3" height="20.4"/>
		</g>
		<g opacity="0.5">
			<path fill="#4CABE0" d="M911.7,251.9h-13.4c0-4.3-3.5-7.7-7.7-7.7c-4.3,0-7.7,3.5-7.7,7.7h-13.4c0-11.6,9.5-21.1,21.1-21.1
				S911.7,240.3,911.7,251.9z"/>
		</g>
		<g opacity="0.5">
			<path fill="#4CABE0" d="M996.8,251.9h-13.4c0-4.3-3.5-7.7-7.7-7.7s-7.7,3.5-7.7,7.7h-13.4c0-11.6,9.5-21.1,21.1-21.1
				S996.8,240.3,996.8,251.9z"/>
		</g>
		<g>
			<path fill="#4CABE0" d="M992.8,248.9h-13.4c0-4.3-3.5-7.7-7.7-7.7s-7.7,3.5-7.7,7.7h-13.4c0-11.6,9.5-21.1,21.1-21.1
				S992.8,237.3,992.8,248.9z"/>
		</g>
		<g>
			<path fill="#4CABE0" d="M907.7,248.9h-13.4c0-4.3-3.5-7.7-7.7-7.7s-7.7,3.5-7.7,7.7h-13.4c0-11.6,9.5-21.1,21.1-21.1
				S907.7,237.3,907.7,248.9z"/>
		</g>
	</g>
</g>
<g opacity="0.15">
	<path fill="#6DBCFD" d="M931.4,189.4h-0.1c-3.7,0-6.8-3-6.8-6.8v-33.8c0-3.7,3-6.8,6.8-6.8h0.1c3.7,0,6.8,3,6.8,6.8v33.8
		C938.2,186.4,935.1,189.4,931.4,189.4z"/>
</g>
<g opacity="0.15">
	<path fill="#6DBCFD" d="M931.4,123h-0.1c-3.7,0-6.8-3-6.8-6.8v-12c0-3.7,3-6.8,6.8-6.8h0.1c3.7,0,6.8,3,6.8,6.8v12
		C938.2,120,935.1,123,931.4,123z"/>
</g>
<g opacity="0.15">
	<path fill="#6DBCFD" d="M1037.8,201.7L1037.8,201.7c-2.7-2.7-2.7-7-0.1-9.7l23.9-23.9c2.6-2.6,6.9-2.6,9.6,0l0.1,0.1
		c2.6,2.6,2.6,6.9,0,9.6l-23.9,23.9C1044.7,204.3,1040.4,204.3,1037.8,201.7z"/>
</g>
<g opacity="0.15">
	<path fill="#6DBCFD" d="M1084.7,154.7L1084.7,154.7c-2.7-2.7-2.7-7-0.1-9.7l8.5-8.5c2.6-2.6,6.9-2.6,9.6,0l0.1,0.1
		c2.6,2.6,2.6,6.9,0,9.6l-8.5,8.5C1091.7,157.3,1087.4,157.3,1084.7,154.7z"/>
</g>
<g opacity="0.15">
	<path fill="#6DBCFD" d="M826.2,201.6L826.2,201.6c-2.7,2.7-7,2.7-9.7,0.1l-23.9-23.9c-2.6-2.6-2.6-6.9,0-9.6l0.1-0.1
		c2.6-2.6,6.9-2.6,9.6,0l23.9,23.9C828.9,194.6,828.9,198.9,826.2,201.6z"/>
</g>
<g opacity="0.15">
	<path fill="#6DBCFD" d="M779.2,154.6L779.2,154.6c-2.7,2.7-7,2.7-9.7,0.1l-8.5-8.5c-2.6-2.6-2.6-6.9,0-9.6l0.1-0.1
		c2.6-2.6,6.9-2.6,9.6,0l8.5,8.5C781.9,147.7,781.9,152,779.2,154.6z"/>
</g>
<g opacity="0.15">
	<circle fill="#6DBCFD" cx="744" cy="119.4" r="6.8"/>
</g>
<g opacity="0.15">
	<circle fill="#6DBCFD" cx="931.3" cy="73.1" r="6.8"/>
</g>
<g opacity="0.15">
	<circle fill="#6DBCFD" cx="1119.9" cy="119.4" r="6.8"/>
</g>
</svg>
