<?xml version="1.0" encoding="utf-8"?>
<!-- Generator: Adobe Illustrator 19.0.0, SVG Export Plug-In . SVG Version: 6.00 Build 0)  -->
<svg version="1.1" id="Layer_1" xmlns="http://www.w3.org/2000/svg" xmlns:xlink="http://www.w3.org/1999/xlink" x="0px" y="0px"
	 viewBox="0 0 595.7 102.2" style="enable-background:new 0 0 595.7 102.2;" xml:space="preserve">
<style type="text/css">
	.st0{opacity:0.41;}
	.st1{fill:#4CABE0;}
	.st2{fill:#FFFFFF;}
	.st3{opacity:0.5;fill:none;stroke:#4CABE0;stroke-width:11.884;stroke-miterlimit:10;}
	.st4{fill:none;stroke:#4CABE0;stroke-width:11.884;stroke-miterlimit:10;}
</style>
<g id="XMLID_210_" class="st0">
	<g id="XMLID_223_">
		<path id="XMLID_18_" class="st1" d="M70.9,57c2.8,1.2,4.2,3.8,4.2,7.8v14.9c0,5.7-2.8,8.5-8.5,8.5H23.9v-64h38.5
			c5.7,0,8.5,2.8,8.5,8.5V57z M58.1,37H36.7v12.8h21.4V37z M62.3,62.6H36.7v12.8h25.6V62.6z"/>
		<path id="XMLID_22_" class="st1" d="M90.5,88.2V32.7c0-5.7,2.8-8.5,8.5-8.5h34.1c5.7,0,8.5,2.8,8.5,8.5v55.5h-12.8V71.1h-25.6
			v17.1H90.5z M128.9,36.9h-25.6v21.3h25.6V36.9z"/>
		<path id="XMLID_26_" class="st1" d="M159,24.2h42.7c5.7,0,8.5,2.8,8.5,8.5v3.8c0,2.1-0.7,4.3-2.2,6.4c-1.5,2.1-3.6,4.4-6.3,6.9
			l-28.6,25.6h37.1v12.8l-42.7,0c-5.7,0-8.5-2.8-8.5-8.5v-3.8c0-2.1,0.7-4.2,2.2-6.3c1.5-2.1,3.6-4.4,6.3-6.8L196.1,37H159V24.2z"/>
		<path id="XMLID_28_" class="st1" d="M416.4,62.6l10.2,25.6h-12.8l-10.7-25.6h-15v25.6h-12.8V32.7c0-5.7,2.8-8.5,8.5-8.5H418
			c5.7,0,8.5,2.8,8.5,8.5v21.3c0,5.7-2.8,8.5-8.5,8.5H416.4z M413.7,49.8V37h-25.6v12.8H413.7z"/>
		<path id="XMLID_32_" class="st1" d="M452.9,24.2v64h-12.8v-64H452.9z"/>
		<path id="XMLID_34_" class="st1" d="M483,62.6v25.6h-12.8V32.7c0-5.7,2.8-8.5,8.5-8.5h34.1V37H483v12.8h17.1l-4.3,12.8H483z"/>
		<path id="XMLID_36_" class="st1" d="M579.5,79.6c0,5.7-2.8,8.5-8.5,8.5h-34.1l4.3-12.8h25.6v-4.3h-29.9c-5.7,0-8.5-2.8-8.5-8.5
			V24.1h12.8v34.1h25.6V24.1h12.8L579.5,79.6z"/>
	</g>
	<g id="XMLID_217_">
		<g id="XMLID_219_">
			<path id="XMLID_220_" class="st1" d="M280.3,29.5l6.8,51.5c0.5,3.7-2.4,7.1-6.2,7.1h-51.7c-3.7,0-6.6-3.2-6.2-6.8l4.9-51.5
				c0.3-3.2,3-5.7,6.2-5.7h0.9c3.5,0,6.3,2.8,6.3,6.3v10.9h25.6V30.4c0-3.5,2.8-6.3,6.3-6.3h1.1C277.2,24.1,279.9,26.4,280.3,29.5z
				 M238.5,75.2l30.8,0L266.8,54h-25.6L238.5,75.2z"/>
		</g>
		<rect id="XMLID_218_" x="226.4" y="23.1" class="st2" width="57.1" height="18.1"/>
	</g>
	<g id="XMLID_211_">
		<g id="XMLID_213_">
			<path id="XMLID_214_" class="st1" d="M355.8,29.5l6.8,51.5c0.5,3.7-2.4,7.1-6.2,7.1h-51.7c-3.7,0-6.6-3.2-6.2-6.8l4.9-51.5
				c0.3-3.2,3-5.7,6.2-5.7h0.9c3.5,0,6.3,2.8,6.3,6.3v10.9h25.6V30.4c0-3.5,2.8-6.3,6.3-6.3h1.1C352.8,24.1,355.4,26.4,355.8,29.5z
				 M314,75.2l30.8,0L342.3,54h-25.6L314,75.2z"/>
		</g>
		<rect id="XMLID_212_" x="302" y="23.1" class="st2" width="57.1" height="18.1"/>
	</g>
</g>
<g id="XMLID_76_">
	<g id="XMLID_97_">
		<path id="XMLID_38_" class="st1" d="M67.3,54.3c2.8,1.2,4.2,3.8,4.2,7.8V77c0,5.7-2.8,8.5-8.5,8.5H20.3v-64h38.5
			c5.7,0,8.5,2.8,8.5,8.5V54.3z M54.5,34.3H33.1v12.8h21.4V34.3z M58.7,60H33.1v12.8h25.6V60z"/>
		<path id="XMLID_42_" class="st1" d="M87,85.5V30c0-5.7,2.8-8.5,8.5-8.5h34.1c5.7,0,8.5,2.8,8.5,8.5v55.5h-12.8V68.4H99.8v17.1H87z
			 M125.4,34.3H99.8v21.3h25.6V34.3z"/>
		<path id="XMLID_50_" class="st1" d="M155.4,21.5h42.7c5.7,0,8.5,2.8,8.5,8.5v3.8c0,2.1-0.7,4.3-2.2,6.4c-1.5,2.1-3.6,4.4-6.3,6.9
			l-28.6,25.6h37.1v12.8l-42.7,0c-5.7,0-8.5-2.8-8.5-8.5v-3.8c0-2.1,0.7-4.2,2.2-6.3c1.5-2.1,3.6-4.4,6.3-6.8l28.6-25.7h-37.1V21.5z
			"/>
		<path id="XMLID_52_" class="st1" d="M412.8,59.9L423,85.5h-12.8l-10.7-25.6h-15v25.6h-12.8V30.1c0-5.7,2.8-8.5,8.5-8.5h34.1
			c5.7,0,8.5,2.8,8.5,8.5v21.3c0,5.7-2.8,8.5-8.5,8.5H412.8z M410.2,47.1V34.3h-25.6v12.8H410.2z"/>
		<path id="XMLID_60_" class="st1" d="M449.4,21.5v64h-12.8v-64H449.4z"/>
		<path id="XMLID_62_" class="st1" d="M479.4,59.9v25.6h-12.8V30.1c0-5.7,2.8-8.5,8.5-8.5h34.1v12.8h-29.9v12.8h17.1l-4.3,12.8
			H479.4z"/>
		<path id="XMLID_64_" class="st1" d="M575.9,76.9c0,5.7-2.8,8.5-8.5,8.5h-34.1l4.3-12.8h25.6v-4.3h-29.9c-5.7,0-8.5-2.8-8.5-8.5
			V21.5h12.8v34.1h25.6V21.5H576L575.9,76.9z"/>
	</g>
	<g id="XMLID_88_">
		<g id="XMLID_90_">
			<path id="XMLID_94_" class="st1" d="M276.7,26.9l6.8,51.5c0.5,3.7-2.4,7.1-6.2,7.1h-51.7c-3.7,0-6.6-3.2-6.2-6.8l4.9-51.5
				c0.3-3.2,3-5.7,6.2-5.7h0.9c3.5,0,6.3,2.8,6.3,6.3v10.9h25.6V27.7c0-3.5,2.8-6.3,6.3-6.3h1.1C273.7,21.4,276.3,23.8,276.7,26.9z
				 M234.9,72.6l30.8,0l-2.5-21.2h-25.6L234.9,72.6z"/>
		</g>
		<rect id="XMLID_89_" x="222.9" y="20.4" class="st2" width="57.1" height="18.1"/>
	</g>
	<g id="XMLID_77_">
		<g id="XMLID_84_">
			<path id="XMLID_85_" class="st1" d="M352.3,26.9l6.8,51.5c0.5,3.7-2.4,7.1-6.2,7.1h-51.7c-3.7,0-6.6-3.2-6.2-6.8l4.9-51.5
				c0.3-3.2,3-5.7,6.2-5.7h0.9c3.5,0,6.3,2.8,6.3,6.3v10.9h25.6V27.7c0-3.5,2.8-6.3,6.3-6.3h1.1C349.2,21.4,351.9,23.8,352.3,26.9z
				 M310.5,72.6l30.8,0l-2.5-21.2h-25.6L310.5,72.6z"/>
		</g>
		<rect id="XMLID_83_" x="298.4" y="20.4" class="st2" width="57.1" height="18.1"/>
		<path id="XMLID_82_" class="st3" d="M241.5,29.5c0-7.1,5.7-12.8,12.8-12.8s12.8,5.7,12.8,12.8"/>
		<path id="XMLID_81_" class="st3" d="M317.1,29.5c0-7.1,5.7-12.8,12.8-12.8s12.8,5.7,12.8,12.8"/>
		<path id="XMLID_79_" class="st4" d="M313.5,26.8c0-7.1,5.7-12.8,12.8-12.8s12.8,5.7,12.8,12.8"/>
		<path id="XMLID_78_" class="st4" d="M238,26.8c0-7.1,5.7-12.8,12.8-12.8s12.8,5.7,12.8,12.8"/>
	</g>
</g>
</svg>
