<?xml version="1.0" encoding="utf-8"?>
<!-- Generator: Adobe Illustrator 17.1.0, SVG Export Plug-In . SVG Version: 6.00 Build 0)  -->
<!DOCTYPE svg PUBLIC "-//W3C//DTD SVG 1.1//EN" "http://www.w3.org/Graphics/SVG/1.1/DTD/svg11.dtd">
<svg version="1.1" id="Слой_1" xmlns="http://www.w3.org/2000/svg" xmlns:xlink="http://www.w3.org/1999/xlink" x="0px" y="0px"
	 viewBox="0 0 256.6 213.2" enable-background="new 0 0 256.6 213.2" xml:space="preserve">
<g>
	
		<rect x="92.1" y="98.5" transform="matrix(0.7511 0.6602 -0.6602 0.7511 107.9274 -50.8712)" fill="none" width="58.7" height="38.5"/>
	
		<rect x="108.1" y="109.4" transform="matrix(0.7511 0.6602 -0.6602 0.7511 109.8635 -47.3053)" fill="none" width="19.1" height="25.4"/>
	<path fill="none" d="M123,70.8l43.9,39.6l-3.2,15c0,0-15.4,9.8-16-8.9c0,0-6.7,2-11.2-1.6c-4.5-3.6-1.9-11.6-1.9-11.6
		s-7.6,3-11.4-0.7c-3.8-3.8-1.9-12.2-1.9-12.2s-8.4,5-12.7,0c-4.3-4.9-0.5-13-0.5-13L123,70.8z"/>
	
		<rect x="120.1" y="79.7" transform="matrix(0.7511 0.6602 -0.6602 0.7511 93.8591 -77.3012)" fill="none" width="58.7" height="12.3"/>
	<path fill="none" d="M108.7,90.3c4.3,4.9,12.7,0,12.7,0s-1.9,8.4,1.9,12.2c3.8,3.8,11.4,0.7,11.4,0.7s-2.7,8,1.9,11.6
		c4.5,3.6,11.2,1.6,11.2,1.6c0.5,16.6,12.7,10.7,15.4,9.2l-55-48.4C108.2,77.3,104.4,85.4,108.7,90.3z"/>
	<g>
		<g>
			<g>
				<path fill="#6DBCFD" d="M108,92.4c-4.6-4-4.9-11.3-0.6-16.2c0.2-0.2,0.4-0.3,0.6-0.5l13.9-7.2c0.7-0.4,1.6-0.3,2.3,0.3l9.4,8.3
					c0.8,0.7,0.9,2,0.2,2.9l-9.6,10.9C119.8,95.8,112.6,96.5,108,92.4z M110.2,79.2c-2.6,3.2-2.4,7.7,0.4,10.2
					c2.9,2.6,7.6,2.1,10.4-1.1l8.3-9.4l-6.8-6L110.2,79.2z"/>
			</g>
		</g>
		<g>
			<g>
				<path fill="#6DBCFD" d="M121.6,104.4c-4.6-4-4.9-11.3-0.6-16.2l9.6-10.9c0.7-0.8,2-0.9,2.9-0.2l13.6,12c0.8,0.7,0.9,2,0.2,2.9
					l-9.6,10.9C133.4,107.8,126.2,108.5,121.6,104.4z M132.4,81.5l-8.3,9.4c-2.8,3.2-2.7,7.9,0.2,10.5c2.9,2.6,7.6,2.1,10.4-1.1
					l8.3-9.4L132.4,81.5z"/>
			</g>
		</g>
		<g>
			<g>
				<path fill="#6DBCFD" d="M135.3,116.4c-4.6-4-4.9-11.3-0.6-16.2l9.6-10.9c0.7-0.8,2-0.9,2.9-0.2l13.6,12c0.8,0.7,0.9,2,0.2,2.9
					l-9.6,10.9C147.1,119.8,139.9,120.4,135.3,116.4z M146,93.5l-8.3,9.4c-2.8,3.2-2.7,7.9,0.2,10.5c2.9,2.6,7.6,2.1,10.4-1.1
					l8.3-9.4L146,93.5z"/>
			</g>
		</g>
		<g>
			<g>
				<path fill="#6DBCFD" d="M148.9,128.4c-4.6-4-4.9-11.3-0.6-16.2l9.6-10.9c0.7-0.8,2-0.9,2.9-0.2l8.8,7.7c0.6,0.5,0.8,1.4,0.6,2.1
					l-4.8,15.2c-0.1,0.3-0.2,0.5-0.4,0.7C160.7,131.8,153.5,132.4,148.9,128.4z M159.7,105.5l-8.3,9.4c-2.8,3.2-2.7,7.9,0.2,10.5
					c2.8,2.5,7.3,2.1,10.1-0.8l4.2-13.5L159.7,105.5z"/>
			</g>
		</g>
	</g>
	<g>
		<path fill="#3E3B3A" d="M122.8,61.8"/>
	</g>
	<g>
		<path fill="#6DBCFD" d="M166.2,111.4l-44.4-39.1c-0.8-0.7-0.9-2-0.2-2.9l8.3-9.4c0.7-0.8,2-0.9,2.9-0.2l44.4,39.1
			c0.8,0.7,0.9,2,0.2,2.9l-8.3,9.4C168.3,112,167,112.1,166.2,111.4z M125.9,70.6l41.4,36.4l5.6-6.4l-41.4-36.4L125.9,70.6z"/>
	</g>
	<g>
		<path fill="#6DBCFD" d="M115.5,139.2l-14.9-13.1c-0.7-0.6-0.7-1.6-0.1-2.3l15.5-17.6c1.5-1.7,4-1.8,5.7-0.4l11.3,9.9
			c1.7,1.5,1.8,4,0.4,5.7l-15.5,17.6C117.2,139.8,116.2,139.8,115.5,139.2z M104,124.8l12.5,11l14.4-16.4c0.3-0.3,0.3-0.8-0.1-1.1
			l-11.3-9.9c-0.3-0.3-0.8-0.3-1.1,0.1L104,124.8z"/>
	</g>
	<g>
		<path fill="#6DBCFD" d="M150.2,126.8l-19.3,21.9l-40.8-35.9l19.3-21.9l-3.1-2.8l-20.7,23.5c-0.8,0.9-0.7,2.2,0.2,3l44,38.7
			c0.9,0.8,2.2,0.7,3-0.2l20.7-23.5L150.2,126.8z"/>
	</g>
</g>
<g opacity="0.22">
	
		<rect x="86.4" y="98.8" transform="matrix(0.7511 0.6602 -0.6602 0.7511 106.7449 -46.9974)" fill="none" width="58.7" height="38.5"/>
	
		<rect x="102.4" y="109.7" transform="matrix(0.7511 0.6602 -0.6602 0.7511 108.6811 -43.4314)" fill="none" width="19.1" height="25.4"/>
	<path fill="none" d="M117.3,71.2l43.9,39.6l-3.2,15c0,0-15.4,9.8-16-8.9c0,0-6.7,2-11.2-1.6c-4.5-3.6-1.9-11.6-1.9-11.6
		s-7.6,3-11.4-0.7c-3.8-3.8-1.9-12.2-1.9-12.2s-8.4,5-12.7,0c-4.3-4.9-0.5-13-0.5-13L117.3,71.2z"/>
	
		<rect x="114.4" y="80" transform="matrix(0.7511 0.6602 -0.6602 0.7511 92.6766 -73.4274)" fill="none" width="58.7" height="12.3"/>
	<path fill="none" d="M102.9,90.7c4.3,4.9,12.7,0,12.7,0s-1.9,8.4,1.9,12.2c3.8,3.8,11.4,0.7,11.4,0.7s-2.7,8,1.9,11.6
		c4.5,3.6,11.2,1.6,11.2,1.6c0.5,16.6,12.7,10.7,15.4,9.2l-55-48.4C102.5,77.7,98.7,85.8,102.9,90.7z"/>
	<g>
		<g>
			<g>
				<path fill="#6DBCFD" d="M102.2,92.8c-4.6-4-4.9-11.3-0.6-16.2c0.2-0.2,0.4-0.3,0.6-0.5l13.9-7.2c0.7-0.4,1.6-0.3,2.3,0.3
					l9.4,8.3c0.8,0.7,0.9,2,0.2,2.9l-9.6,10.9C114.1,96.2,106.8,96.8,102.2,92.8z M104.5,79.6c-2.6,3.2-2.4,7.7,0.4,10.2
					c2.9,2.6,7.6,2.1,10.4-1.1l8.3-9.4l-6.8-6L104.5,79.6z"/>
			</g>
		</g>
		<g>
			<g>
				<path fill="#6DBCFD" d="M115.9,104.8c-4.6-4-4.9-11.3-0.6-16.2l9.6-10.9c0.7-0.8,2-0.9,2.9-0.2l13.6,12c0.8,0.7,0.9,2,0.2,2.9
					l-9.6,10.9C127.7,108.1,120.5,108.8,115.9,104.8z M126.6,81.9l-8.3,9.4c-2.8,3.2-2.7,7.9,0.2,10.5c2.9,2.6,7.6,2.1,10.4-1.1
					l8.3-9.4L126.6,81.9z"/>
			</g>
		</g>
		<g>
			<g>
				<path fill="#6DBCFD" d="M129.5,116.8c-4.6-4-4.9-11.3-0.6-16.2l9.6-10.9c0.7-0.8,2-0.9,2.9-0.2l13.6,12c0.8,0.7,0.9,2,0.2,2.9
					l-9.6,10.9C141.4,120.1,134.1,120.8,129.5,116.8z M140.3,93.9l-8.3,9.4c-2.8,3.2-2.7,7.9,0.2,10.5c2.9,2.6,7.6,2.1,10.4-1.1
					l8.3-9.4L140.3,93.9z"/>
			</g>
		</g>
		<g>
			<g>
				<path fill="#6DBCFD" d="M143.2,128.8c-4.6-4-4.9-11.3-0.6-16.2l9.6-10.9c0.7-0.8,2-0.9,2.9-0.2l8.8,7.7c0.6,0.5,0.8,1.4,0.6,2.1
					l-4.8,15.2c-0.1,0.3-0.2,0.5-0.4,0.7C155,132.1,147.8,132.8,143.2,128.8z M153.9,105.8l-8.3,9.4c-2.8,3.2-2.7,7.9,0.2,10.5
					c2.8,2.5,7.3,2.1,10.1-0.8l4.2-13.5L153.9,105.8z"/>
			</g>
		</g>
	</g>
	<g>
		<path fill="#3E3B3A" d="M117,62.2"/>
	</g>
	<g>
		<path fill="#6DBCFD" d="M160.5,111.7L116,72.7c-0.8-0.7-0.9-2-0.2-2.9l8.3-9.4c0.7-0.8,2-0.9,2.9-0.2l44.4,39.1
			c0.8,0.7,0.9,2,0.2,2.9l-8.3,9.4C162.6,112.4,161.3,112.5,160.5,111.7z M120.2,71l41.4,36.4l5.6-6.4l-41.4-36.4L120.2,71z"/>
	</g>
	<g>
		<path fill="#6DBCFD" d="M109.8,139.6l-14.9-13.1c-0.7-0.6-0.7-1.6-0.1-2.3l15.5-17.6c1.5-1.7,4-1.8,5.7-0.4l11.3,9.9
			c1.7,1.5,1.8,4,0.4,5.7l-15.5,17.6C111.5,140.1,110.5,140.2,109.8,139.6z M98.2,125.1l12.5,11l14.4-16.4c0.3-0.3,0.3-0.8-0.1-1.1
			l-11.3-9.9c-0.3-0.3-0.8-0.3-1.1,0.1L98.2,125.1z"/>
	</g>
	<g>
		<path fill="#6DBCFD" d="M144.5,127.2l-19.3,21.9l-40.8-35.9l19.3-21.9l-3.1-2.8l-20.7,23.5c-0.8,0.9-0.7,2.2,0.2,3l44,38.7
			c0.9,0.8,2.2,0.7,3-0.2l20.7-23.5L144.5,127.2z"/>
	</g>
</g>
</svg>
