<?xml version="1.0" encoding="utf-8"?>
<!-- Generator: Adobe Illustrator 17.1.0, SVG Export Plug-In . SVG Version: 6.00 Build 0)  -->
<!DOCTYPE svg PUBLIC "-//W3C//DTD SVG 1.1//EN" "http://www.w3.org/Graphics/SVG/1.1/DTD/svg11.dtd">
<svg version="1.1" id="Слой_1" xmlns="http://www.w3.org/2000/svg" xmlns:xlink="http://www.w3.org/1999/xlink" x="0px" y="0px"
	 viewBox="0 0 600 856.6" enable-background="new 0 0 600 856.6" xml:space="preserve">
<polyline fill="none" stroke="#6DBCFD" stroke-width="3.2035" stroke-miterlimit="10" points="30.6,77.8 46.9,73.2 51.5,59.5 "/>
<polyline fill="none" stroke="#6DBCFD" stroke-width="3.2035" stroke-miterlimit="10" points="62.5,55.4 106.6,62.4 75.8,27.1 
	60,41.4 "/>
<polyline fill="none" stroke="#6DBCFD" stroke-width="3.2035" stroke-miterlimit="10" points="143.1,39.6 106.6,62.4 105.6,35 "/>
<line fill="none" stroke="#6DBCFD" stroke-width="3.2035" stroke-miterlimit="10" x1="75.8" y1="27.1" x2="96.5" y2="25.8"/>
<line fill="none" stroke="#6DBCFD" stroke-width="3.2035" stroke-miterlimit="10" x1="116.8" y1="24.7" x2="140.9" y2="27.1"/>
<polyline fill="none" stroke="#6DBCFD" stroke-width="3.2035" stroke-miterlimit="10" points="109.1,64.4 138.2,80.1 207.5,73.6 
	158.5,37.1 "/>
<polyline fill="none" stroke="#6DBCFD" stroke-width="3.2035" stroke-miterlimit="10" points="159.9,30.4 196.1,30.4 139.6,80 
	216.7,124.4 "/>
<polyline fill="none" stroke="#6DBCFD" stroke-width="3.2035" stroke-miterlimit="10" points="139.6,82.5 149.8,111.3 148.3,153.1 
	"/>
<path fill="none" stroke="#6DBCFD" stroke-width="3.2035" stroke-miterlimit="10" d="M365.7,39.6"/>
<polyline fill="none" stroke="#6DBCFD" stroke-width="3.2035" stroke-miterlimit="10" points="365.7,39.6 340.8,19.7 345.9,57.8 "/>
<polygon fill="none" stroke="#6DBCFD" stroke-width="3.2035" stroke-miterlimit="10" points="340.8,97.2 345.9,58.6 394.2,43.1 
	357.1,126 "/>
<polyline fill="none" stroke="#6DBCFD" stroke-width="3.2035" stroke-miterlimit="10" points="149.8,111.3 175.8,139.2 213,121.4 
	186,179.6 148.3,163.3 135.5,205.2 144.3,244.1 175.8,231.7 225.1,239.2 299.2,203.2 299.2,230 "/>
<polyline fill="none" stroke="#6DBCFD" stroke-width="3.2035" stroke-miterlimit="10" points="144.3,244.1 128,280.9 115.8,230 
	135.5,205.2 "/>
<polyline fill="none" stroke="#6DBCFD" stroke-width="3.2035" stroke-miterlimit="10" points="175.8,139.2 214.8,75.8 205.3,28.2 
	254.6,32 261.9,73.2 241.1,90 215.5,121.4 "/>
<polyline fill="none" stroke="#6DBCFD" stroke-width="3.2035" stroke-miterlimit="10" points="281.9,39.6 307.8,46.1 340.8,19.7 
	254.6,32 "/>
<polyline fill="none" stroke="#6DBCFD" stroke-width="3.2035" stroke-miterlimit="10" points="307.8,46.1 305.2,92.6 261.9,124.4 
	"/>
<line fill="none" stroke="#6DBCFD" stroke-width="3.2035" stroke-miterlimit="10" x1="344.9" y1="57.8" x2="305.2" y2="92.6"/>
<polyline fill="none" stroke="#6DBCFD" stroke-width="3.2035" stroke-miterlimit="10" points="259.3,126 239.9,172.1 276.6,168 
	317.9,134.6 357.1,126 435.2,126 466.4,104.7 502.4,94.6 "/>
<polyline fill="none" stroke="#6DBCFD" stroke-width="3.2035" stroke-miterlimit="10" points="214.8,124.4 237.3,171.1 241.1,90 "/>
<polyline fill="none" stroke="#6DBCFD" stroke-width="3.2035" stroke-miterlimit="10" points="307.8,94.6 317.9,134.6 340.3,176.7 
	357.1,130 "/>
<polyline fill="none" stroke="#6DBCFD" stroke-width="3.2035" stroke-miterlimit="10" points="394.2,43.1 435.2,124.4 407,158.8 
	361.1,130 "/>
<path fill="none" stroke="#6DBCFD" stroke-width="3.2035" stroke-miterlimit="10" d="M394.2,43.1"/>
<line fill="none" stroke="#6DBCFD" stroke-width="3.2035" stroke-miterlimit="10" x1="466.4" y1="104.7" x2="460.8" y2="141.7"/>
<polyline fill="none" stroke="#6DBCFD" stroke-width="3.2035" stroke-miterlimit="10" points="347.8,58.6 459.2,171.1 407,158.8 "/>
<polyline fill="none" stroke="#6DBCFD" stroke-width="3.2035" stroke-miterlimit="10" points="180.4,287.5 186,340.4 207.5,309.5 
	163.1,317.4 167.7,354.9 180.4,340.4 219.3,370.5 248.5,370.5 263.9,361.3 292.8,401.6 278,408 248.5,391.6 248.5,372 "/>
<polyline fill="none" stroke="#6DBCFD" stroke-width="3.2035" stroke-miterlimit="10" points="350.5,344.7 263.9,361.3 241.6,273.6 
	225.1,239.2 259.3,191.4 276.6,168 263.9,123 261.9,73.2 "/>
<polyline fill="none" stroke="#6DBCFD" stroke-width="3.2035" stroke-miterlimit="10" points="350.5,343.8 243.9,273.6 309.3,283.8 
	299.2,230 345.4,223.5 384.2,203.2 459.2,171.1 519.8,141.7 460.8,139.2 407,158.8 365.7,152.1 340.3,176.7 259.3,193.1 
	207.5,193.1 175.8,203.2 175.8,231.7 "/>
<line fill="none" stroke="#6DBCFD" stroke-width="3.2035" stroke-miterlimit="10" x1="186" y1="340.4" x2="350.5" y2="344.7"/>
<polyline fill="none" stroke="#6DBCFD" stroke-width="3.2035" stroke-miterlimit="10" points="365.7,39.6 394.2,42.4 340.8,19.7 "/>
<polyline fill="none" stroke="#6DBCFD" stroke-width="3.2035" stroke-miterlimit="10" points="466.4,103.9 519.8,141.7 502.4,94.6 
	394.2,43.1 "/>
<line fill="none" stroke="#6DBCFD" stroke-width="3.2035" stroke-miterlimit="10" x1="309.1" y1="282.3" x2="345.4" y2="223.5"/>
<polyline fill="none" stroke="#6DBCFD" stroke-width="3.2035" stroke-miterlimit="10" points="207.5,309.5 241.6,273.6 299.2,203.2 
	"/>
<path fill="none" stroke="#6DBCFD" stroke-width="3.2035" stroke-miterlimit="10" d="M214.8,75.8"/>
<line fill="none" stroke="#6DBCFD" stroke-width="3.2035" stroke-miterlimit="10" x1="305.2" y1="92.6" x2="281.9" y2="39.6"/>
<polyline fill="none" stroke="#6DBCFD" stroke-width="3.2035" stroke-miterlimit="10" points="254.6,30.4 281.9,39.6 261.9,71.8 "/>
<polyline fill="none" stroke="#6DBCFD" stroke-width="3.2035" stroke-miterlimit="10" points="128,280.9 163.1,317.4 180.4,287.5 
	175.8,231.7 "/>
<line fill="none" stroke="#6DBCFD" stroke-width="3.2035" stroke-miterlimit="10" x1="332.1" y1="556.4" x2="365.6" y2="605.4"/>
<line fill="none" stroke="#6DBCFD" stroke-width="3.2035" stroke-miterlimit="10" x1="404.4" y1="754.4" x2="416.6" y2="784.2"/>
<line fill="none" stroke="#6DBCFD" stroke-width="3.2035" stroke-miterlimit="10" x1="465.2" y1="691.8" x2="463.1" y2="778.4"/>
<polyline fill="none" stroke="#6DBCFD" stroke-width="3.2035" stroke-miterlimit="10" points="498,578.9 503.5,612.4 561,635.6 
	522.1,692.6 "/>
<polyline fill="none" stroke="#6DBCFD" stroke-width="3.2035" stroke-miterlimit="10" points="498.9,576.8 538.6,584.6 587.2,607.8 
	"/>
<polyline fill="none" stroke="#6DBCFD" stroke-width="3.2035" stroke-miterlimit="10" points="534,521.6 487.8,531.8 563.5,562.1 
	"/>
<polyline fill="none" stroke="#6DBCFD" stroke-width="3.2035" stroke-miterlimit="10" points="505.1,654.2 455.1,635.6 367.6,605.4 
	"/>
<polyline fill="none" stroke="#6DBCFD" stroke-width="3.2035" stroke-miterlimit="10" points="432.2,718.1 486.8,719.5 506.9,656.1 
	518.3,692.6 466.9,686.8 "/>
<polyline fill="none" stroke="#6DBCFD" stroke-width="3.2035" stroke-miterlimit="10" points="404.4,753 462.6,779.2 429.3,717.4 
	393.5,687.6 404.4,751.6 430.8,715.7 462.6,689.7 396,686.1 450.7,635.6 400.7,642.2 392.7,683.7 "/>
<polygon fill="none" stroke="#6DBCFD" stroke-width="3.2035" stroke-miterlimit="10" points="444.1,843.4 460.2,778.4 416.6,783.8 
	"/>
<polyline fill="none" stroke="#6DBCFD" stroke-width="3.2035" stroke-miterlimit="10" points="519.9,695.6 486.8,718.1 465.2,688.5 
	452.9,632.1 497,576.8 455.9,528.2 488.8,481.4 486.8,530.5 452.6,574.4 399.8,642.2 401.5,579.9 382.7,534.3 "/>
<path fill="none" stroke="#6DBCFD" stroke-width="3.2035" stroke-miterlimit="10" d="M519.9,695.6"/>
<path fill="none" stroke="#6DBCFD" stroke-width="3.2035" stroke-miterlimit="10" d="M509.8,650.2"/>
<polyline fill="none" stroke="#6DBCFD" stroke-width="3.2035" stroke-miterlimit="10" points="351,444.1 402.9,458 456.7,527.2 
	421.4,531.8 445.8,451.7 402.5,455.8 422.3,530.3 451.3,576.8 508.1,654.2 561,635.6 587.2,607.8 568.5,566.6 538.6,584.6 
	509.8,650.2 "/>
<polyline fill="none" stroke="#6DBCFD" stroke-width="3.2035" stroke-miterlimit="10" points="351.8,444.4 402.5,497.7 382.1,531.8 
	333.6,462.6 "/>
<polyline fill="none" stroke="#6DBCFD" stroke-width="3.2035" stroke-miterlimit="10" points="309.3,283.8 350.5,344.7 350.7,444.4 
	332.1,462.6 329.1,500.1 327.5,554.1 380.5,534.3 367.6,561 367.6,602.2 402.5,576.8 451.3,576.8 497,574.4 568.5,566.6 537,520.4 
	490.7,479.8 445.8,452.5 424.4,432 372.2,429.7 352.5,344.4 292.8,401.6 370.4,429.7 352.7,444.4 292.8,403.7 "/>
<path fill="none" stroke="#6DBCFD" stroke-width="3.2035" stroke-miterlimit="10" d="M329.1,500.1"/>
<circle fill="none" stroke="#6DBCFD" stroke-width="3.2035" stroke-miterlimit="10" cx="20.7" cy="79.8" r="10.1"/>
<circle fill="none" stroke="#6DBCFD" stroke-width="3.2035" stroke-miterlimit="10" cx="54.1" cy="49.7" r="10.1"/>
<circle fill="none" stroke="#6DBCFD" stroke-width="3.2035" stroke-miterlimit="10" cx="106.6" cy="24.7" r="10.1"/>
<circle fill="none" stroke="#6DBCFD" stroke-width="3.2035" stroke-miterlimit="10" cx="149.8" cy="32" r="10.1"/>
<circle fill="#FFFFFF" stroke="#6DBCFD" stroke-width="3.2035" stroke-miterlimit="10" cx="205.3" cy="28.2" r="10.1"/>
<circle fill="#FFFFFF" stroke="#6DBCFD" stroke-width="3.2035" stroke-miterlimit="10" cx="307.8" cy="46.1" r="10.1"/>
<circle fill="#FFFFFF" stroke="#6DBCFD" stroke-width="2.9071" stroke-miterlimit="10" cx="305.2" cy="92.6" r="19"/>
<circle fill="#FFFFFF" stroke="#6DBCFD" stroke-width="2.9071" stroke-miterlimit="10" cx="106.6" cy="24.7" r="19"/>
<circle fill="#FFFFFF" stroke="#6DBCFD" stroke-width="2.9071" stroke-miterlimit="10" cx="135.5" cy="205.2" r="19"/>
<circle fill="#FFFFFF" stroke="#6DBCFD" stroke-width="2.9071" stroke-miterlimit="10" cx="466.6" cy="104.7" r="19"/>
<circle fill="#FFFFFF" stroke="#6DBCFD" stroke-width="2.9071" stroke-miterlimit="10" cx="345.9" cy="223.5" r="19"/>
<circle fill="#FFFFFF" stroke="#6DBCFD" stroke-width="2.9071" stroke-miterlimit="10" cx="490.7" cy="479.8" r="19"/>
<circle fill="#FFFFFF" stroke="#6DBCFD" stroke-width="2.9071" stroke-miterlimit="10" cx="561" cy="635.7" r="19"/>
<circle fill="#FFFFFF" stroke="#6DBCFD" stroke-width="2.9071" stroke-miterlimit="10" cx="460.2" cy="778.4" r="19"/>
<circle fill="#FFFFFF" stroke="#6DBCFD" stroke-width="2.9071" stroke-miterlimit="10" cx="327.5" cy="500.1" r="19"/>
<circle fill="#FFFFFF" stroke="#6DBCFD" stroke-width="2.9071" stroke-miterlimit="10" cx="452.9" cy="635.6" r="19"/>
<circle fill="#FFFFFF" stroke="#6DBCFD" stroke-width="2.9071" stroke-miterlimit="10" cx="368.1" cy="603.2" r="19"/>
<circle fill="#FFFFFF" stroke="#6DBCFD" stroke-width="3.2035" stroke-miterlimit="10" cx="357.1" cy="126" r="10.1"/>
<circle fill="#FFFFFF" stroke="#6DBCFD" stroke-width="3.2035" stroke-miterlimit="10" cx="519.8" cy="141.7" r="10.1"/>
<circle fill="#FFFFFF" stroke="#6DBCFD" stroke-width="3.2035" stroke-miterlimit="10" cx="459.2" cy="171.1" r="10.1"/>
<circle fill="#FFFFFF" stroke="#6DBCFD" stroke-width="3.2035" stroke-miterlimit="10" cx="299.2" cy="203.2" r="10.1"/>
<circle fill="#FFFFFF" stroke="#6DBCFD" stroke-width="3.2035" stroke-miterlimit="10" cx="241.6" cy="273.6" r="10.1"/>
<circle fill="#FFFFFF" stroke="#6DBCFD" stroke-width="3.2035" stroke-miterlimit="10" cx="309.3" cy="283.8" r="10.1"/>
<circle fill="#FFFFFF" stroke="#6DBCFD" stroke-width="3.2035" stroke-miterlimit="10" cx="384.2" cy="203.2" r="10.1"/>
<circle fill="#FFFFFF" stroke="#6DBCFD" stroke-width="3.2035" stroke-miterlimit="10" cx="350.5" cy="344.7" r="10.1"/>
<circle fill="#FFFFFF" stroke="#6DBCFD" stroke-width="3.2035" stroke-miterlimit="10" cx="402.5" cy="458" r="10.1"/>
<circle fill="#FFFFFF" stroke="#6DBCFD" stroke-width="3.2035" stroke-miterlimit="10" cx="380.5" cy="534.3" r="10.1"/>
<circle fill="#FFFFFF" stroke="#6DBCFD" stroke-width="3.2035" stroke-miterlimit="10" cx="402.5" cy="576.8" r="10.1"/>
<circle fill="#FFFFFF" stroke="#6DBCFD" stroke-width="3.2035" stroke-miterlimit="10" cx="393.5" cy="688.5" r="10.1"/>
<circle fill="#FFFFFF" stroke="#6DBCFD" stroke-width="3.2035" stroke-miterlimit="10" cx="537" cy="520.4" r="10.1"/>
<circle fill="#FFFFFF" stroke="#6DBCFD" stroke-width="3.2035" stroke-miterlimit="10" cx="497" cy="574.4" r="10.1"/>
<circle fill="#FFFFFF" stroke="#6DBCFD" stroke-width="3.2035" stroke-miterlimit="10" cx="451.3" cy="576.8" r="10.1"/>
<circle fill="#FFFFFF" stroke="#6DBCFD" stroke-width="3.2035" stroke-miterlimit="10" cx="399.8" cy="642.2" r="10.1"/>
<circle fill="#FFFFFF" stroke="#6DBCFD" stroke-width="3.2035" stroke-miterlimit="10" cx="465.2" cy="688.5" r="10.1"/>
<circle fill="#FFFFFF" stroke="#6DBCFD" stroke-width="3.2035" stroke-miterlimit="10" cx="429.3" cy="718.1" r="10.1"/>
<circle fill="#FFFFFF" stroke="#6DBCFD" stroke-width="3.2035" stroke-miterlimit="10" cx="568.5" cy="564.3" r="10.1"/>
<circle fill="#FFFFFF" stroke="#6DBCFD" stroke-width="3.2035" stroke-miterlimit="10" cx="508.1" cy="654.2" r="10.1"/>
<circle fill="#FFFFFF" stroke="#6DBCFD" stroke-width="3.2035" stroke-miterlimit="10" cx="519.9" cy="692.6" r="10.1"/>
<circle fill="#FFFFFF" stroke="#6DBCFD" stroke-width="3.2035" stroke-miterlimit="10" cx="261.9" cy="124.4" r="10.1"/>
<circle fill="#FFFFFF" stroke="#6DBCFD" stroke-width="3.2035" stroke-miterlimit="10" cx="340.8" cy="20.2" r="10.1"/>
<circle fill="#FFFFFF" stroke="#6DBCFD" stroke-width="3.2035" stroke-miterlimit="10" cx="345.9" cy="57.8" r="10.1"/>
<circle fill="#FFFFFF" stroke="#6DBCFD" stroke-width="3.2035" stroke-miterlimit="10" cx="394.2" cy="43.1" r="10.1"/>
<circle fill="#FFFFFF" stroke="#6DBCFD" stroke-width="3.2035" stroke-miterlimit="10" cx="213" cy="121.4" r="10.1"/>
<circle fill="#FFFFFF" stroke="#6DBCFD" stroke-width="3.2035" stroke-miterlimit="10" cx="186" cy="178.1" r="10.1"/>
<circle fill="#FFFFFF" stroke="#6DBCFD" stroke-width="3.2035" stroke-miterlimit="10" cx="175.8" cy="231.7" r="10.1"/>
<circle fill="#FFFFFF" stroke="#6DBCFD" stroke-width="3.2035" stroke-miterlimit="10" cx="186" cy="340.4" r="10.1"/>
<circle fill="#FFFFFF" stroke="#6DBCFD" stroke-width="3.2035" stroke-miterlimit="10" cx="180.4" cy="287.5" r="10.1"/>
<circle fill="#FFFFFF" stroke="#6DBCFD" stroke-width="3.2035" stroke-miterlimit="10" cx="128" cy="280.9" r="10.1"/>
<circle fill="#FFFFFF" stroke="#6DBCFD" stroke-width="3.2035" stroke-miterlimit="10" cx="239.9" cy="172.1" r="10.1"/>
<circle fill="#FFFFFF" stroke="#6DBCFD" stroke-width="3.2035" stroke-miterlimit="10" cx="148.3" cy="163.3" r="10.1"/>
<circle fill="#6DBCFD" cx="46.9" cy="73.2" r="4.6"/>
<circle fill="#6DBCFD" cx="75.8" cy="27.1" r="4.6"/>
<circle fill="#6DBCFD" cx="106.6" cy="62.4" r="4.6"/>
<circle fill="#6DBCFD" cx="140.1" cy="80.1" r="4.6"/>
<circle fill="#6DBCFD" cx="175.8" cy="139.2" r="4.6"/>
<circle fill="#6DBCFD" cx="115.8" cy="230" r="4.6"/>
<circle fill="#6DBCFD" cx="241.9" cy="90" r="4.6"/>
<circle fill="#6DBCFD" cx="261.9" cy="73.2" r="4.6"/>
<circle fill="#6DBCFD" cx="281.9" cy="39.6" r="4.6"/>
<circle fill="#6DBCFD" cx="365.7" cy="39.6" r="4.6"/>
<circle fill="#6DBCFD" cx="461" cy="140.9" r="5.6"/>
<circle fill="#6DBCFD" cx="502.4" cy="94.6" r="4.6"/>
<circle fill="#6DBCFD" cx="365.7" cy="152.1" r="4.6"/>
<circle fill="#6DBCFD" cx="407" cy="158.8" r="4.6"/>
<circle fill="#6DBCFD" cx="435.2" cy="126" r="4.6"/>
<circle fill="#6DBCFD" cx="340.8" cy="97.2" r="4.6"/>
<circle fill="#6DBCFD" cx="207.5" cy="193.1" r="4.6"/>
<circle fill="#6DBCFD" cx="225.1" cy="239.2" r="4.6"/>
<circle fill="#6DBCFD" cx="206.7" cy="309.5" r="4.6"/>
<circle fill="#6DBCFD" cx="167.7" cy="354.9" r="4.6"/>
<circle fill="#6DBCFD" cx="219.3" cy="370.5" r="4.6"/>
<circle fill="#6DBCFD" cx="163.1" cy="317.4" r="4.6"/>
<circle fill="#6DBCFD" cx="259.3" cy="193.1" r="4.6"/>
<circle fill="#6DBCFD" cx="340.3" cy="176.7" r="4.6"/>
<circle fill="#6DBCFD" cx="248.5" cy="391.6" r="4.6"/>
<circle fill="#6DBCFD" cx="292.8" cy="401.6" r="4.6"/>
<circle fill="#6DBCFD" cx="402.5" cy="497.7" r="4.6"/>
<circle fill="#6DBCFD" cx="455.9" cy="527.2" r="4.6"/>
<circle fill="#6DBCFD" cx="329.1" cy="554.1" r="5.7"/>
<circle fill="#6DBCFD" cx="367.6" cy="561" r="4.6"/>
<circle fill="#6DBCFD" cx="424.4" cy="432" r="4.6"/>
<circle fill="#6DBCFD" cx="422.3" cy="531.8" r="4.6"/>
<circle fill="#6DBCFD" cx="538.6" cy="584.6" r="4.6"/>
<circle fill="#6DBCFD" cx="404.4" cy="753" r="4.6"/>
<circle fill="#6DBCFD" cx="503.5" cy="612.4" r="4.6"/>
<circle fill="#6DBCFD" cx="486.8" cy="718.1" r="4.6"/>
<circle fill="#6DBCFD" cx="444.1" cy="843.4" r="4.6"/>
<circle fill="#6DBCFD" cx="416.6" cy="783.8" r="4.6"/>
<circle fill="#6DBCFD" cx="352.4" cy="444" r="6.4"/>
<circle fill="#6DBCFD" cx="445.8" cy="452.5" r="4.6"/>
<circle fill="#6DBCFD" cx="486.1" cy="531.8" r="4.6"/>
<circle fill="#6DBCFD" cx="587.2" cy="607.8" r="4.6"/>
<circle fill="#6DBCFD" cx="372.2" cy="429.7" r="4.6"/>
<circle fill="#6DBCFD" cx="332.1" cy="462.6" r="4.6"/>
<circle fill="#6DBCFD" cx="278" cy="407.1" r="4.6"/>
<circle fill="#6DBCFD" cx="248.5" cy="370.5" r="4.6"/>
<circle fill="#6DBCFD" cx="263.9" cy="361.3" r="4.6"/>
<circle fill="#6DBCFD" cx="317.9" cy="134.6" r="4.6"/>
<circle fill="#6DBCFD" cx="299.2" cy="230" r="4.6"/>
<circle fill="#6DBCFD" cx="276.6" cy="168" r="4.6"/>
<circle fill="#6DBCFD" cx="175.8" cy="203.2" r="4.6"/>
<circle fill="#6DBCFD" cx="144.3" cy="244.1" r="4.6"/>
<circle fill="#6DBCFD" cx="254.6" cy="30.4" r="4.6"/>
<circle fill="#FFFFFF" stroke="#6DBCFD" stroke-width="3.2035" stroke-miterlimit="10" cx="214.8" cy="75.8" r="10.1"/>
<circle fill="#6DBCFD" cx="148.9" cy="111.3" r="4.6"/>
<g>
	<g>
		
			<rect x="297.9" y="90.8" transform="matrix(0.9979 -6.424943e-002 6.424943e-002 0.9979 -5.5466 19.867)" fill="none" width="16.4" height="10.8"/>
		
			<rect x="303.6" y="94.2" transform="matrix(0.9979 -6.424943e-002 6.424943e-002 0.9979 -5.6495 19.8778)" fill="none" width="5.4" height="7.1"/>
		<path fill="none" d="M297.2,86.6l16.5-0.9l2.3,3.6c0,0-1.1,5-4.9,1.4c0,0-0.9,1.7-2.5,1.9c-1.6,0.2-2.7-1.9-2.7-1.9
			s-0.9,2.1-2.4,2.1c-1.5,0-2.8-2-2.8-2s-0.7,2.7-2.5,2.5c-1.8-0.1-2.7-2.5-2.7-2.5L297.2,86.6z"/>
		
			<rect x="297.2" y="82.6" transform="matrix(0.9979 -6.424943e-002 6.424943e-002 0.9979 -4.787 19.7935)" fill="none" width="16.4" height="3.4"/>
		<path fill="none" d="M298.2,93.3c1.8,0.1,2.5-2.5,2.5-2.5s1.3,2,2.8,2c1.5,0,2.4-2.1,2.4-2.1s1.1,2.1,2.7,1.9
			c1.6-0.2,2.5-1.9,2.5-1.9c3.4,3.2,4.6-0.4,4.9-1.2l-20.5,1.3C295.5,90.8,296.4,93.2,298.2,93.3z"/>
		<g>
			<g>
				<g>
					<path fill="#6DBCFD" d="M298.5,93.8c-1.7,0.1-3.2-1.3-3.3-3.1c0-0.1,0-0.1,0-0.2l1.3-4.2c0.1-0.2,0.3-0.4,0.5-0.4l3.5-0.2
						c0.3,0,0.6,0.2,0.6,0.5l0.3,4.1C301.5,92.2,300.2,93.7,298.5,93.8z M296.3,90.8c0.1,1.1,1,2,2.1,1.9c1.1-0.1,1.9-1.1,1.8-2.3
						l-0.2-3.5l-2.5,0.2L296.3,90.8z"/>
				</g>
			</g>
			<g>
				<g>
					<path fill="#6DBCFD" d="M303.5,93.5c-1.7,0.1-3.2-1.3-3.3-3.1l-0.3-4.1c0-0.3,0.2-0.6,0.5-0.6l5.1-0.3c0.3,0,0.6,0.2,0.6,0.5
						l0.3,4.1C306.5,91.8,305.2,93.4,303.5,93.5z M301.1,86.8l0.2,3.5c0.1,1.2,1,2.1,2.1,2c1.1-0.1,1.9-1.1,1.8-2.3l-0.2-3.5
						L301.1,86.8z"/>
				</g>
			</g>
			<g>
				<g>
					<path fill="#6DBCFD" d="M308.6,93.2c-1.7,0.1-3.2-1.3-3.3-3.1L305,86c0-0.3,0.2-0.6,0.5-0.6l5.1-0.3c0.3,0,0.6,0.2,0.6,0.5
						l0.3,4.1C311.6,91.5,310.3,93.1,308.6,93.2z M306.2,86.5l0.2,3.5c0.1,1.2,1,2.1,2.1,2c1.1-0.1,1.9-1.1,1.8-2.3l-0.2-3.5
						L306.2,86.5z"/>
				</g>
			</g>
			<g>
				<g>
					<path fill="#6DBCFD" d="M313.7,92.9c-1.7,0.1-3.2-1.3-3.3-3.1l-0.3-4.1c0-0.3,0.2-0.6,0.5-0.6l3.3-0.2c0.2,0,0.4,0.1,0.5,0.3
						l2.1,4c0,0.1,0.1,0.1,0.1,0.2C316.7,91.2,315.4,92.7,313.7,92.9z M311.3,86.2l0.2,3.5c0.1,1.2,1,2.1,2.1,2
						c1.1-0.1,1.9-1,1.8-2.2l-1.8-3.5L311.3,86.2z"/>
				</g>
			</g>
		</g>
		<g>
			<path fill="#3E3B3A" d="M295.3,84.9"/>
		</g>
		<g>
			<path fill="#6DBCFD" d="M313.7,86.1l-16.5,1.1c-0.3,0-0.6-0.2-0.6-0.5l-0.2-3.5c0-0.3,0.2-0.6,0.5-0.6l16.5-1.1
				c0.3,0,0.6,0.2,0.6,0.5l0.2,3.5C314.3,85.8,314,86,313.7,86.1z M297.7,86l15.4-1l-0.2-2.4l-15.4,1L297.7,86z"/>
		</g>
		<g>
			<path fill="#6DBCFD" d="M309.2,101.6l-5.5,0.4c-0.2,0-0.5-0.2-0.5-0.4l-0.4-6.5c0-0.6,0.4-1.2,1.1-1.2l4.2-0.3
				c0.6,0,1.2,0.4,1.2,1.1l0.4,6.5C309.7,101.4,309.5,101.6,309.2,101.6z M304.1,101l4.6-0.3l-0.4-6.1c0-0.1-0.1-0.2-0.2-0.2
				l-4.2,0.3c-0.1,0-0.2,0.1-0.2,0.2L304.1,101z"/>
		</g>
		<g>
			<path fill="#6DBCFD" d="M313.6,92.3l0.5,8.2l-15.2,1l-0.5-8.2l-1.2,0.1l0.6,8.7c0,0.3,0.3,0.6,0.6,0.5l16.3-1.1
				c0.3,0,0.6-0.3,0.5-0.6l-0.6-8.7L313.6,92.3z"/>
		</g>
	</g>
	<g opacity="0.22">
		
			<rect x="296.9" y="92" transform="matrix(0.9979 -6.424943e-002 6.424943e-002 0.9979 -5.6263 19.8014)" fill="none" width="16.4" height="10.8"/>
		
			<rect x="302.5" y="95.4" transform="matrix(0.9979 -6.424943e-002 6.424943e-002 0.9979 -5.7292 19.8122)" fill="none" width="5.4" height="7.1"/>
		<path fill="none" d="M296.1,87.8l16.5-0.9l2.3,3.6c0,0-1.1,5-4.9,1.4c0,0-0.9,1.7-2.5,1.9c-1.6,0.2-2.7-1.9-2.7-1.9
			s-0.9,2.1-2.4,2.1c-1.5,0-2.8-2-2.8-2s-0.7,2.7-2.5,2.5c-1.8-0.1-2.7-2.5-2.7-2.5L296.1,87.8z"/>
		
			<rect x="296.1" y="83.8" transform="matrix(0.9979 -6.424943e-002 6.424943e-002 0.9979 -4.8667 19.7279)" fill="none" width="16.4" height="3.4"/>
		<path fill="none" d="M297.1,94.5c1.8,0.1,2.5-2.5,2.5-2.5s1.3,2,2.8,2c1.5,0,2.4-2.1,2.4-2.1s1.1,2.1,2.7,1.9
			c1.6-0.2,2.5-1.9,2.5-1.9c3.4,3.2,4.6-0.4,4.9-1.2L294.5,92C294.5,92,295.3,94.4,297.1,94.5z"/>
		<g>
			<g>
				<g>
					<path fill="#6DBCFD" d="M297.4,95c-1.7,0.1-3.2-1.3-3.3-3.1c0-0.1,0-0.1,0-0.2l1.3-4.2c0.1-0.2,0.3-0.4,0.5-0.4l3.5-0.2
						c0.3,0,0.6,0.2,0.6,0.5l0.3,4.1C300.4,93.4,299.1,94.9,297.4,95z M295.2,92c0.1,1.1,1,2,2.1,1.9c1.1-0.1,1.9-1.1,1.8-2.3
						l-0.2-3.5l-2.5,0.2L295.2,92z"/>
				</g>
			</g>
			<g>
				<g>
					<path fill="#6DBCFD" d="M302.5,94.7c-1.7,0.1-3.2-1.3-3.3-3.1l-0.3-4.1c0-0.3,0.2-0.6,0.5-0.6l5.1-0.3c0.3,0,0.6,0.2,0.6,0.5
						l0.3,4.1C305.5,93,304.2,94.6,302.5,94.7z M300.1,88.1l0.2,3.5c0.1,1.2,1,2.1,2.1,2c1.1-0.1,1.9-1.1,1.8-2.3l-0.2-3.5
						L300.1,88.1z"/>
				</g>
			</g>
			<g>
				<g>
					<path fill="#6DBCFD" d="M307.5,94.4c-1.7,0.1-3.2-1.3-3.3-3.1l-0.3-4.1c0-0.3,0.2-0.6,0.5-0.6l5.1-0.3c0.3,0,0.6,0.2,0.6,0.5
						l0.3,4.1C310.6,92.7,309.3,94.3,307.5,94.4z M305.1,87.7l0.2,3.5c0.1,1.2,1,2.1,2.1,2c1.1-0.1,1.9-1.1,1.8-2.3l-0.2-3.5
						L305.1,87.7z"/>
				</g>
			</g>
			<g>
				<g>
					<path fill="#6DBCFD" d="M312.6,94.1c-1.7,0.1-3.2-1.3-3.3-3.1l-0.3-4.1c0-0.3,0.2-0.6,0.5-0.6l3.3-0.2c0.2,0,0.4,0.1,0.5,0.3
						l2.1,4c0,0.1,0.1,0.1,0.1,0.2C315.6,92.4,314.3,94,312.6,94.1z M310.2,87.4l0.2,3.5c0.1,1.2,1,2.1,2.1,2c1.1-0.1,1.9-1,1.8-2.2
						l-1.8-3.5L310.2,87.4z"/>
				</g>
			</g>
		</g>
		<g>
			<path fill="#3E3B3A" d="M294.3,86.1"/>
		</g>
		<g>
			<path fill="#6DBCFD" d="M312.7,87.3l-16.5,1.1c-0.3,0-0.6-0.2-0.6-0.5l-0.2-3.5c0-0.3,0.2-0.6,0.5-0.6l16.5-1.1
				c0.3,0,0.6,0.2,0.6,0.5l0.2,3.5C313.2,87,313,87.3,312.7,87.3z M296.6,87.2l15.4-1l-0.2-2.4l-15.4,1L296.6,87.2z"/>
		</g>
		<g>
			<path fill="#6DBCFD" d="M308.2,102.8l-5.5,0.4c-0.2,0-0.5-0.2-0.5-0.4l-0.4-6.5c0-0.6,0.4-1.2,1.1-1.2l4.2-0.3
				c0.6,0,1.2,0.4,1.2,1.1l0.4,6.5C308.6,102.6,308.4,102.8,308.2,102.8z M303,102.2l4.6-0.3l-0.4-6.1c0-0.1-0.1-0.2-0.2-0.2
				l-4.2,0.3c-0.1,0-0.2,0.1-0.2,0.2L303,102.2z"/>
		</g>
		<g>
			<path fill="#6DBCFD" d="M312.6,93.5l0.5,8.2l-15.2,1l-0.5-8.2l-1.2,0.1l0.6,8.7c0,0.3,0.3,0.6,0.6,0.5l16.3-1.1
				c0.3,0,0.6-0.3,0.5-0.6l-0.6-8.7L312.6,93.5z"/>
		</g>
	</g>
</g>
<g>
	<g>
		
			<rect x="99.2" y="22.9" transform="matrix(0.9979 -6.424943e-002 6.424943e-002 0.9979 -1.5929 6.9593)" fill="none" width="16.4" height="10.8"/>
		
			<rect x="104.8" y="26.3" transform="matrix(0.9979 -6.424943e-002 6.424943e-002 0.9979 -1.6957 6.9701)" fill="none" width="5.4" height="7.1"/>
		<path fill="none" d="M98.5,18.6l16.5-0.9l2.3,3.6c0,0-1.1,5-4.9,1.4c0,0-0.9,1.7-2.5,1.9c-1.6,0.2-2.7-1.9-2.7-1.9
			s-0.9,2.1-2.4,2.1c-1.5,0-2.8-2-2.8-2s-0.7,2.7-2.5,2.5c-1.8-0.1-2.7-2.5-2.7-2.5L98.5,18.6z"/>
		
			<rect x="98.4" y="14.7" transform="matrix(0.9979 -6.424943e-002 6.424943e-002 0.9979 -0.8333 6.8858)" fill="none" width="16.4" height="3.4"/>
		<path fill="none" d="M99.5,25.4c1.8,0.1,2.5-2.5,2.5-2.5s1.3,2,2.8,2c1.5,0,2.4-2.1,2.4-2.1s1.1,2.1,2.7,1.9
			c1.6-0.2,2.5-1.9,2.5-1.9c3.4,3.2,4.6-0.4,4.9-1.2l-20.5,1.3C96.8,22.9,97.6,25.2,99.5,25.4z"/>
		<g>
			<g>
				<g>
					<path fill="#6DBCFD" d="M99.7,25.9c-1.7,0.1-3.2-1.3-3.3-3.1c0-0.1,0-0.1,0-0.2l1.3-4.2c0.1-0.2,0.3-0.4,0.5-0.4l3.5-0.2
						c0.3,0,0.6,0.2,0.6,0.5l0.3,4.1C102.8,24.2,101.5,25.8,99.7,25.9z M97.6,22.9c0.1,1.1,1,2,2.1,1.9c1.1-0.1,1.9-1.1,1.8-2.3
						l-0.2-3.5l-2.5,0.2L97.6,22.9z"/>
				</g>
			</g>
			<g>
				<g>
					<path fill="#6DBCFD" d="M104.8,25.6c-1.7,0.1-3.2-1.3-3.3-3.1l-0.3-4.1c0-0.3,0.2-0.6,0.5-0.6l5.1-0.3c0.3,0,0.6,0.2,0.6,0.5
						l0.3,4.1C107.8,23.9,106.5,25.5,104.8,25.6z M102.4,18.9l0.2,3.5c0.1,1.2,1,2.1,2.1,2c1.1-0.1,1.9-1.1,1.8-2.3l-0.2-3.5
						L102.4,18.9z"/>
				</g>
			</g>
			<g>
				<g>
					<path fill="#6DBCFD" d="M109.9,25.3c-1.7,0.1-3.2-1.3-3.3-3.1l-0.3-4.1c0-0.3,0.2-0.6,0.5-0.6l5.1-0.3c0.3,0,0.6,0.2,0.6,0.5
						l0.3,4.1C112.9,23.6,111.6,25.1,109.9,25.3z M107.5,18.6l0.2,3.5c0.1,1.2,1,2.1,2.1,2c1.1-0.1,1.9-1.1,1.8-2.3l-0.2-3.5
						L107.5,18.6z"/>
				</g>
			</g>
			<g>
				<g>
					<path fill="#6DBCFD" d="M115,24.9c-1.7,0.1-3.2-1.3-3.3-3.1l-0.3-4.1c0-0.3,0.2-0.6,0.5-0.6l3.3-0.2c0.2,0,0.4,0.1,0.5,0.3
						l2.1,4c0,0.1,0.1,0.1,0.1,0.2C118,23.3,116.7,24.8,115,24.9z M112.6,18.3l0.2,3.5c0.1,1.2,1,2.1,2.1,2c1.1-0.1,1.9-1,1.8-2.2
						l-1.8-3.5L112.6,18.3z"/>
				</g>
			</g>
		</g>
		<g>
			<path fill="#3E3B3A" d="M96.6,16.9"/>
		</g>
		<g>
			<path fill="#6DBCFD" d="M115,18.1l-16.5,1.1c-0.3,0-0.6-0.2-0.6-0.5l-0.2-3.5c0-0.3,0.2-0.6,0.5-0.6l16.5-1.1
				c0.3,0,0.6,0.2,0.6,0.5l0.2,3.5C115.6,17.8,115.3,18.1,115,18.1z M99,18l15.4-1l-0.2-2.4l-15.4,1L99,18z"/>
		</g>
		<g>
			<path fill="#6DBCFD" d="M110.5,33.7L105,34c-0.2,0-0.5-0.2-0.5-0.4l-0.4-6.5c0-0.6,0.4-1.2,1.1-1.2l4.2-0.3
				c0.6,0,1.2,0.4,1.2,1.1l0.4,6.5C110.9,33.4,110.8,33.7,110.5,33.7z M105.4,33.1l4.6-0.3l-0.4-6.1c0-0.1-0.1-0.2-0.2-0.2l-4.2,0.3
				c-0.1,0-0.2,0.1-0.2,0.2L105.4,33.1z"/>
		</g>
		<g>
			<path fill="#6DBCFD" d="M114.9,24.4l0.5,8.2l-15.2,1l-0.5-8.2l-1.2,0.1l0.6,8.7c0,0.3,0.3,0.6,0.6,0.5l16.3-1.1
				c0.3,0,0.6-0.3,0.5-0.6l-0.6-8.7L114.9,24.4z"/>
		</g>
	</g>
	<g opacity="0.22">
		
			<rect x="98.1" y="24.1" transform="matrix(0.9979 -6.424943e-002 6.424943e-002 0.9979 -1.6726 6.8937)" fill="none" width="16.4" height="10.8"/>
		
			<rect x="103.8" y="27.5" transform="matrix(0.9979 -6.424943e-002 6.424943e-002 0.9979 -1.7754 6.9045)" fill="none" width="5.4" height="7.1"/>
		<path fill="none" d="M97.4,19.9l16.5-0.9l2.3,3.6c0,0-1.1,5-4.9,1.4c0,0-0.9,1.7-2.5,1.9c-1.6,0.2-2.7-1.9-2.7-1.9
			s-0.9,2.1-2.4,2.1c-1.5,0-2.8-2-2.8-2s-0.7,2.7-2.5,2.5c-1.8-0.1-2.7-2.5-2.7-2.5L97.4,19.9z"/>
		
			<rect x="97.4" y="15.9" transform="matrix(0.9979 -6.424943e-002 6.424943e-002 0.9979 -0.913 6.8202)" fill="none" width="16.4" height="3.4"/>
		<path fill="none" d="M98.4,26.6c1.8,0.1,2.5-2.5,2.5-2.5s1.3,2,2.8,2c1.5,0,2.4-2.1,2.4-2.1s1.1,2.1,2.7,1.9
			c1.6-0.2,2.5-1.9,2.5-1.9c3.4,3.2,4.6-0.4,4.9-1.2l-20.5,1.3C95.7,24.1,96.6,26.4,98.4,26.6z"/>
		<g>
			<g>
				<g>
					<path fill="#6DBCFD" d="M98.7,27.1c-1.7,0.1-3.2-1.3-3.3-3.1c0-0.1,0-0.1,0-0.2l1.3-4.2c0.1-0.2,0.3-0.4,0.5-0.4l3.5-0.2
						c0.3,0,0.6,0.2,0.6,0.5l0.3,4.1C101.7,25.4,100.4,27,98.7,27.1z M96.5,24.1c0.1,1.1,1,2,2.1,1.9c1.1-0.1,1.9-1.1,1.8-2.3
						l-0.2-3.5l-2.5,0.2L96.5,24.1z"/>
				</g>
			</g>
			<g>
				<g>
					<path fill="#6DBCFD" d="M103.8,26.8c-1.7,0.1-3.2-1.3-3.3-3.1l-0.3-4.1c0-0.3,0.2-0.6,0.5-0.6l5.1-0.3c0.3,0,0.6,0.2,0.6,0.5
						l0.3,4.1C106.8,25.1,105.5,26.7,103.8,26.8z M101.3,20.1l0.2,3.5c0.1,1.2,1,2.1,2.1,2c1.1-0.1,1.9-1.1,1.8-2.3l-0.2-3.5
						L101.3,20.1z"/>
				</g>
			</g>
			<g>
				<g>
					<path fill="#6DBCFD" d="M108.8,26.5c-1.7,0.1-3.2-1.3-3.3-3.1l-0.3-4.1c0-0.3,0.2-0.6,0.5-0.6l5.1-0.3c0.3,0,0.6,0.2,0.6,0.5
						l0.3,4.1C111.8,24.8,110.5,26.4,108.8,26.5z M106.4,19.8l0.2,3.5c0.1,1.2,1,2.1,2.1,2c1.1-0.1,1.9-1.1,1.8-2.3l-0.2-3.5
						L106.4,19.8z"/>
				</g>
			</g>
			<g>
				<g>
					<path fill="#6DBCFD" d="M113.9,26.1c-1.7,0.1-3.2-1.3-3.3-3.1l-0.3-4.1c0-0.3,0.2-0.6,0.5-0.6l3.3-0.2c0.2,0,0.4,0.1,0.5,0.3
						l2.1,4c0,0.1,0.1,0.1,0.1,0.2C116.9,24.5,115.6,26,113.9,26.1z M111.5,19.5l0.2,3.5c0.1,1.2,1,2.1,2.1,2c1.1-0.1,1.9-1,1.8-2.2
						l-1.8-3.5L111.5,19.5z"/>
				</g>
			</g>
		</g>
		<g>
			<path fill="#3E3B3A" d="M95.6,18.1"/>
		</g>
		<g>
			<path fill="#6DBCFD" d="M114,19.3l-16.5,1.1c-0.3,0-0.6-0.2-0.6-0.5l-0.2-3.5c0-0.3,0.2-0.6,0.5-0.6l16.5-1.1
				c0.3,0,0.6,0.2,0.6,0.5l0.2,3.5C114.5,19.1,114.3,19.3,114,19.3z M97.9,19.2l15.4-1l-0.2-2.4l-15.4,1L97.9,19.2z"/>
		</g>
		<g>
			<path fill="#6DBCFD" d="M109.4,34.9l-5.5,0.4c-0.2,0-0.5-0.2-0.5-0.4l-0.4-6.5c0-0.6,0.4-1.2,1.1-1.2l4.2-0.3
				c0.6,0,1.2,0.4,1.2,1.1l0.4,6.5C109.9,34.6,109.7,34.9,109.4,34.9z M104.3,34.3l4.6-0.3l-0.4-6.1c0-0.1-0.1-0.2-0.2-0.2l-4.2,0.3
				c-0.1,0-0.2,0.1-0.2,0.2L104.3,34.3z"/>
		</g>
		<g>
			<path fill="#6DBCFD" d="M113.8,25.6l0.5,8.2l-15.2,1l-0.5-8.2l-1.2,0.1l0.6,8.7c0,0.3,0.3,0.6,0.6,0.5l16.3-1.1
				c0.3,0,0.6-0.3,0.5-0.6l-0.6-8.7L113.8,25.6z"/>
		</g>
	</g>
</g>
<g>
	<g>
		
			<rect x="459.2" y="102.9" transform="matrix(0.9979 -6.424943e-002 6.424943e-002 0.9979 -5.9889 30.2547)" fill="none" width="16.4" height="10.8"/>
		
			<rect x="464.9" y="106.3" transform="matrix(0.9979 -6.424943e-002 6.424943e-002 0.9979 -6.0918 30.2655)" fill="none" width="5.4" height="7.1"/>
		<path fill="none" d="M458.5,98.6l16.5-0.9l2.3,3.6c0,0-1.1,5-4.9,1.4c0,0-0.9,1.7-2.5,1.9c-1.6,0.2-2.7-1.9-2.7-1.9
			s-0.9,2.1-2.4,2.1c-1.5,0-2.8-2-2.8-2s-0.7,2.7-2.5,2.5c-1.8-0.1-2.7-2.5-2.7-2.5L458.5,98.6z"/>
		
			<rect x="458.4" y="94.7" transform="matrix(0.9979 -6.424943e-002 6.424943e-002 0.9979 -5.2293 30.1812)" fill="none" width="16.4" height="3.4"/>
		<path fill="none" d="M459.5,105.4c1.8,0.1,2.5-2.5,2.5-2.5s1.3,2,2.8,2c1.5,0,2.4-2.1,2.4-2.1s1.1,2.1,2.7,1.9
			c1.6-0.2,2.5-1.9,2.5-1.9c3.4,3.2,4.6-0.4,4.9-1.2l-20.5,1.3C456.8,102.9,457.7,105.2,459.5,105.4z"/>
		<g>
			<g>
				<g>
					<path fill="#6DBCFD" d="M459.7,105.9c-1.7,0.1-3.2-1.3-3.3-3.1c0-0.1,0-0.1,0-0.2l1.3-4.2c0.1-0.2,0.3-0.4,0.5-0.4l3.5-0.2
						c0.3,0,0.6,0.2,0.6,0.5l0.3,4.1C462.8,104.2,461.5,105.8,459.7,105.9z M457.6,102.9c0.1,1.1,1,2,2.1,1.9
						c1.1-0.1,1.9-1.1,1.8-2.3l-0.2-3.5l-2.5,0.2L457.6,102.9z"/>
				</g>
			</g>
			<g>
				<g>
					<path fill="#6DBCFD" d="M464.8,105.6c-1.7,0.1-3.2-1.3-3.3-3.1l-0.3-4.1c0-0.3,0.2-0.6,0.5-0.6l5.1-0.3c0.3,0,0.6,0.2,0.6,0.5
						l0.3,4.1C467.8,103.9,466.5,105.5,464.8,105.6z M462.4,98.9l0.2,3.5c0.1,1.2,1,2.1,2.1,2c1.1-0.1,1.9-1.1,1.8-2.3l-0.2-3.5
						L462.4,98.9z"/>
				</g>
			</g>
			<g>
				<g>
					<path fill="#6DBCFD" d="M469.9,105.3c-1.7,0.1-3.2-1.3-3.3-3.1l-0.3-4.1c0-0.3,0.2-0.6,0.5-0.6l5.1-0.3c0.3,0,0.6,0.2,0.6,0.5
						l0.3,4.1C472.9,103.6,471.6,105.1,469.9,105.3z M467.5,98.6l0.2,3.5c0.1,1.2,1,2.1,2.1,2c1.1-0.1,1.9-1.1,1.8-2.3l-0.2-3.5
						L467.5,98.6z"/>
				</g>
			</g>
			<g>
				<g>
					<path fill="#6DBCFD" d="M475,104.9c-1.7,0.1-3.2-1.3-3.3-3.1l-0.3-4.1c0-0.3,0.2-0.6,0.5-0.6l3.3-0.2c0.2,0,0.4,0.1,0.5,0.3
						l2.1,4c0,0.1,0.1,0.1,0.1,0.2C478,103.3,476.7,104.8,475,104.9z M472.6,98.3l0.2,3.5c0.1,1.2,1,2.1,2.1,2
						c1.1-0.1,1.9-1,1.8-2.2l-1.8-3.5L472.6,98.3z"/>
				</g>
			</g>
		</g>
		<g>
			<path fill="#3E3B3A" d="M456.6,96.9"/>
		</g>
		<g>
			<path fill="#6DBCFD" d="M475,98.1l-16.5,1.1c-0.3,0-0.6-0.2-0.6-0.5l-0.2-3.5c0-0.3,0.2-0.6,0.5-0.6l16.5-1.1
				c0.3,0,0.6,0.2,0.6,0.5l0.2,3.5C475.6,97.8,475.3,98.1,475,98.1z M459,98l15.4-1l-0.2-2.4l-15.4,1L459,98z"/>
		</g>
		<g>
			<path fill="#6DBCFD" d="M470.5,113.7L465,114c-0.2,0-0.5-0.2-0.5-0.4l-0.4-6.5c0-0.6,0.4-1.2,1.1-1.2l4.2-0.3
				c0.6,0,1.2,0.4,1.2,1.1l0.4,6.5C470.9,113.4,470.8,113.7,470.5,113.7z M465.4,113.1l4.6-0.3l-0.4-6.1c0-0.1-0.1-0.2-0.2-0.2
				l-4.2,0.3c-0.1,0-0.2,0.1-0.2,0.2L465.4,113.1z"/>
		</g>
		<g>
			<path fill="#6DBCFD" d="M474.9,104.4l0.5,8.2l-15.2,1l-0.5-8.2l-1.2,0.1l0.6,8.7c0,0.3,0.3,0.6,0.6,0.5l16.3-1.1
				c0.3,0,0.6-0.3,0.5-0.6l-0.6-8.7L474.9,104.4z"/>
		</g>
	</g>
	<g opacity="0.22">
		
			<rect x="458.1" y="104.1" transform="matrix(0.9979 -6.424943e-002 6.424943e-002 0.9979 -6.0686 30.189)" fill="none" width="16.4" height="10.8"/>
		
			<rect x="463.8" y="107.5" transform="matrix(0.9979 -6.424943e-002 6.424943e-002 0.9979 -6.1715 30.1998)" fill="none" width="5.4" height="7.1"/>
		<path fill="none" d="M457.4,99.9l16.5-0.9l2.3,3.6c0,0-1.1,5-4.9,1.4c0,0-0.9,1.7-2.5,1.9c-1.6,0.2-2.7-1.9-2.7-1.9
			s-0.9,2.1-2.4,2.1c-1.5,0-2.8-2-2.8-2s-0.7,2.7-2.5,2.5c-1.8-0.1-2.7-2.5-2.7-2.5L457.4,99.9z"/>
		
			<rect x="457.4" y="95.9" transform="matrix(0.9979 -6.424943e-002 6.424943e-002 0.9979 -5.309 30.1155)" fill="none" width="16.4" height="3.4"/>
		<path fill="none" d="M458.4,106.6c1.8,0.1,2.5-2.5,2.5-2.5s1.3,2,2.8,2c1.5,0,2.4-2.1,2.4-2.1s1.1,2.1,2.7,1.9
			c1.6-0.2,2.5-1.9,2.5-1.9c3.4,3.2,4.6-0.4,4.9-1.2l-20.5,1.3C455.8,104.1,456.6,106.4,458.4,106.6z"/>
		<g>
			<g>
				<g>
					<path fill="#6DBCFD" d="M458.7,107.1c-1.7,0.1-3.2-1.3-3.3-3.1c0-0.1,0-0.1,0-0.2l1.3-4.2c0.1-0.2,0.3-0.4,0.5-0.4l3.5-0.2
						c0.3,0,0.6,0.2,0.6,0.5l0.3,4.1C461.7,105.4,460.4,107,458.7,107.1z M456.5,104.1c0.1,1.1,1,2,2.1,1.9c1.1-0.1,1.9-1.1,1.8-2.3
						l-0.2-3.5l-2.5,0.2L456.5,104.1z"/>
				</g>
			</g>
			<g>
				<g>
					<path fill="#6DBCFD" d="M463.8,106.8c-1.7,0.1-3.2-1.3-3.3-3.1l-0.3-4.1c0-0.3,0.2-0.6,0.5-0.6l5.1-0.3c0.3,0,0.6,0.2,0.6,0.5
						l0.3,4.1C466.8,105.1,465.5,106.7,463.8,106.8z M461.4,100.1l0.2,3.5c0.1,1.2,1,2.1,2.1,2c1.1-0.1,1.9-1.1,1.8-2.3l-0.2-3.5
						L461.4,100.1z"/>
				</g>
			</g>
			<g>
				<g>
					<path fill="#6DBCFD" d="M468.8,106.5c-1.7,0.1-3.2-1.3-3.3-3.1l-0.3-4.1c0-0.3,0.2-0.6,0.5-0.6l5.1-0.3c0.3,0,0.6,0.2,0.6,0.5
						l0.3,4.1C471.8,104.8,470.5,106.3,468.8,106.5z M466.4,99.8l0.2,3.5c0.1,1.2,1,2.1,2.1,2c1.1-0.1,1.9-1.1,1.8-2.3l-0.2-3.5
						L466.4,99.8z"/>
				</g>
			</g>
			<g>
				<g>
					<path fill="#6DBCFD" d="M473.9,106.1c-1.7,0.1-3.2-1.3-3.3-3.1l-0.3-4.1c0-0.3,0.2-0.6,0.5-0.6l3.3-0.2c0.2,0,0.4,0.1,0.5,0.3
						l2.1,4c0,0.1,0.1,0.1,0.1,0.2C476.9,104.5,475.6,106,473.9,106.1z M471.5,99.5l0.2,3.5c0.1,1.2,1,2.1,2.1,2
						c1.1-0.1,1.9-1,1.8-2.2l-1.8-3.5L471.5,99.5z"/>
				</g>
			</g>
		</g>
		<g>
			<path fill="#3E3B3A" d="M455.6,98.1"/>
		</g>
		<g>
			<path fill="#6DBCFD" d="M474,99.3l-16.5,1.1c-0.3,0-0.6-0.2-0.6-0.5l-0.2-3.5c0-0.3,0.2-0.6,0.5-0.6l16.5-1.1
				c0.3,0,0.6,0.2,0.6,0.5l0.2,3.5C474.5,99.1,474.3,99.3,474,99.3z M457.9,99.2l15.4-1l-0.2-2.4l-15.4,1L457.9,99.2z"/>
		</g>
		<g>
			<path fill="#6DBCFD" d="M469.4,114.9l-5.5,0.4c-0.2,0-0.5-0.2-0.5-0.4l-0.4-6.5c0-0.6,0.4-1.2,1.1-1.2l4.2-0.3
				c0.6,0,1.2,0.4,1.2,1.1l0.4,6.5C469.9,114.6,469.7,114.9,469.4,114.9z M464.3,114.3l4.6-0.3l-0.4-6.1c0-0.1-0.1-0.2-0.2-0.2
				l-4.2,0.3c-0.1,0-0.2,0.1-0.2,0.2L464.3,114.3z"/>
		</g>
		<g>
			<path fill="#6DBCFD" d="M473.9,105.6l0.5,8.2l-15.2,1l-0.5-8.2l-1.2,0.1l0.6,8.7c0,0.3,0.3,0.6,0.6,0.5l16.3-1.1
				c0.3,0,0.6-0.3,0.5-0.6l-0.6-8.7L473.9,105.6z"/>
		</g>
	</g>
</g>
<g>
	<g>
		
			<rect x="338.4" y="221.7" transform="matrix(0.9979 -6.424943e-002 6.424943e-002 0.9979 -13.8709 22.7416)" fill="none" width="16.4" height="10.8"/>
		
			<rect x="344.1" y="225.1" transform="matrix(0.9979 -6.424943e-002 6.424943e-002 0.9979 -13.9738 22.7524)" fill="none" width="5.4" height="7.1"/>
		<path fill="none" d="M337.7,217.4l16.5-0.9l2.3,3.6c0,0-1.1,5-4.9,1.4c0,0-0.9,1.7-2.5,1.9c-1.6,0.2-2.7-1.9-2.7-1.9
			s-0.9,2.1-2.4,2.1c-1.5,0-2.8-2-2.8-2s-0.7,2.7-2.5,2.5c-1.8-0.1-2.7-2.5-2.7-2.5L337.7,217.4z"/>
		
			<rect x="337.7" y="213.5" transform="matrix(0.9979 -6.424943e-002 6.424943e-002 0.9979 -13.1113 22.6681)" fill="none" width="16.4" height="3.4"/>
		<path fill="none" d="M338.7,224.2c1.8,0.1,2.5-2.5,2.5-2.5s1.3,2,2.8,2c1.5,0,2.4-2.1,2.4-2.1s1.1,2.1,2.7,1.9
			c1.6-0.2,2.5-1.9,2.5-1.9c3.4,3.2,4.6-0.4,4.9-1.2l-20.5,1.3C336.1,221.7,336.9,224,338.7,224.2z"/>
		<g>
			<g>
				<g>
					<path fill="#6DBCFD" d="M339,224.7c-1.7,0.1-3.2-1.3-3.3-3.1c0-0.1,0-0.1,0-0.2l1.3-4.2c0.1-0.2,0.3-0.4,0.5-0.4l3.5-0.2
						c0.3,0,0.6,0.2,0.6,0.5l0.3,4.1C342,223,340.7,224.6,339,224.7z M336.8,221.6c0.1,1.1,1,2,2.1,1.9c1.1-0.1,1.9-1.1,1.8-2.3
						l-0.2-3.5L338,218L336.8,221.6z"/>
				</g>
			</g>
			<g>
				<g>
					<path fill="#6DBCFD" d="M344.1,224.4c-1.7,0.1-3.2-1.3-3.3-3.1l-0.3-4.1c0-0.3,0.2-0.6,0.5-0.6l5.1-0.3c0.3,0,0.6,0.2,0.6,0.5
						l0.3,4.1C347.1,222.7,345.8,224.3,344.1,224.4z M341.7,217.7l0.2,3.5c0.1,1.2,1,2.1,2.1,2c1.1-0.1,1.9-1.1,1.8-2.3l-0.2-3.5
						L341.7,217.7z"/>
				</g>
			</g>
			<g>
				<g>
					<path fill="#6DBCFD" d="M349.1,224c-1.7,0.1-3.2-1.3-3.3-3.1l-0.3-4.1c0-0.3,0.2-0.6,0.5-0.6l5.1-0.3c0.3,0,0.6,0.2,0.6,0.5
						l0.3,4.1C352.1,222.4,350.8,223.9,349.1,224z M346.7,217.4l0.2,3.5c0.1,1.2,1,2.1,2.1,2c1.1-0.1,1.9-1.1,1.8-2.3l-0.2-3.5
						L346.7,217.4z"/>
				</g>
			</g>
			<g>
				<g>
					<path fill="#6DBCFD" d="M354.2,223.7c-1.7,0.1-3.2-1.3-3.3-3.1l-0.3-4.1c0-0.3,0.2-0.6,0.5-0.6l3.3-0.2c0.2,0,0.4,0.1,0.5,0.3
						l2.1,4c0,0.1,0.1,0.1,0.1,0.2C357.2,222,355.9,223.6,354.2,223.7z M351.8,217.1l0.2,3.5c0.1,1.2,1,2.1,2.1,2
						c1.1-0.1,1.9-1,1.8-2.2l-1.8-3.5L351.8,217.1z"/>
				</g>
			</g>
		</g>
		<g>
			<path fill="#3E3B3A" d="M335.9,215.7"/>
		</g>
		<g>
			<path fill="#6DBCFD" d="M354.3,216.9l-16.5,1.1c-0.3,0-0.6-0.2-0.6-0.5l-0.2-3.5c0-0.3,0.2-0.6,0.5-0.6l16.5-1.1
				c0.3,0,0.6,0.2,0.6,0.5l0.2,3.5C354.8,216.6,354.6,216.9,354.3,216.9z M338.2,216.8l15.4-1l-0.2-2.4l-15.4,1L338.2,216.8z"/>
		</g>
		<g>
			<path fill="#6DBCFD" d="M349.8,232.5l-5.5,0.4c-0.2,0-0.5-0.2-0.5-0.4l-0.4-6.5c0-0.6,0.4-1.2,1.1-1.2l4.2-0.3
				c0.6,0,1.2,0.4,1.2,1.1l0.4,6.5C350.2,232.2,350,232.4,349.8,232.5z M344.6,231.9l4.6-0.3l-0.4-6.1c0-0.1-0.1-0.2-0.2-0.2
				l-4.2,0.3c-0.1,0-0.2,0.1-0.2,0.2L344.6,231.9z"/>
		</g>
		<g>
			<path fill="#6DBCFD" d="M354.2,223.2l0.5,8.2l-15.2,1l-0.5-8.2l-1.2,0.1l0.6,8.7c0,0.3,0.3,0.6,0.6,0.5l16.3-1.1
				c0.3,0,0.6-0.3,0.5-0.6l-0.6-8.7L354.2,223.2z"/>
		</g>
	</g>
	<g opacity="0.22">
		
			<rect x="337.4" y="222.9" transform="matrix(0.9979 -6.424943e-002 6.424943e-002 0.9979 -13.9506 22.676)" fill="none" width="16.4" height="10.8"/>
		
			<rect x="343" y="226.3" transform="matrix(0.9979 -6.424943e-002 6.424943e-002 0.9979 -14.0535 22.6868)" fill="none" width="5.4" height="7.1"/>
		<path fill="none" d="M336.6,218.6l16.5-0.9l2.3,3.6c0,0-1.1,5-4.9,1.4c0,0-0.9,1.7-2.5,1.9c-1.6,0.2-2.7-1.9-2.7-1.9
			s-0.9,2.1-2.4,2.1c-1.5,0-2.8-2-2.8-2s-0.7,2.7-2.5,2.5c-1.8-0.1-2.7-2.5-2.7-2.5L336.6,218.6z"/>
		
			<rect x="336.6" y="214.7" transform="matrix(0.9979 -6.424943e-002 6.424943e-002 0.9979 -13.191 22.6025)" fill="none" width="16.4" height="3.4"/>
		<path fill="none" d="M337.7,225.4c1.8,0.1,2.5-2.5,2.5-2.5s1.3,2,2.8,2c1.5,0,2.4-2.1,2.4-2.1s1.1,2.1,2.7,1.9
			c1.6-0.2,2.5-1.9,2.5-1.9c3.4,3.2,4.6-0.4,4.9-1.2l-20.5,1.3C335,222.9,335.8,225.2,337.7,225.4z"/>
		<g>
			<g>
				<g>
					<path fill="#6DBCFD" d="M337.9,225.9c-1.7,0.1-3.2-1.3-3.3-3.1c0-0.1,0-0.1,0-0.2l1.3-4.2c0.1-0.2,0.3-0.4,0.5-0.4l3.5-0.2
						c0.3,0,0.6,0.2,0.6,0.5l0.3,4.1C340.9,224.2,339.6,225.8,337.9,225.9z M335.8,222.9c0.1,1.1,1,2,2.1,1.9
						c1.1-0.1,1.9-1.1,1.8-2.3l-0.2-3.5l-2.5,0.2L335.8,222.9z"/>
				</g>
			</g>
			<g>
				<g>
					<path fill="#6DBCFD" d="M343,225.6c-1.7,0.1-3.2-1.3-3.3-3.1l-0.3-4.1c0-0.3,0.2-0.6,0.5-0.6l5.1-0.3c0.3,0,0.6,0.2,0.6,0.5
						l0.3,4.1C346,223.9,344.7,225.5,343,225.6z M340.6,218.9l0.2,3.5c0.1,1.2,1,2.1,2.1,2c1.1-0.1,1.9-1.1,1.8-2.3l-0.2-3.5
						L340.6,218.9z"/>
				</g>
			</g>
			<g>
				<g>
					<path fill="#6DBCFD" d="M348.1,225.3c-1.7,0.1-3.2-1.3-3.3-3.1l-0.3-4.1c0-0.3,0.2-0.6,0.5-0.6l5.1-0.3c0.3,0,0.6,0.2,0.6,0.5
						l0.3,4.1C351.1,223.6,349.8,225.1,348.1,225.3z M345.7,218.6l0.2,3.5c0.1,1.2,1,2.1,2.1,2c1.1-0.1,1.9-1.1,1.8-2.3l-0.2-3.5
						L345.7,218.6z"/>
				</g>
			</g>
			<g>
				<g>
					<path fill="#6DBCFD" d="M353.2,224.9c-1.7,0.1-3.2-1.3-3.3-3.1l-0.3-4.1c0-0.3,0.2-0.6,0.5-0.6l3.3-0.2c0.2,0,0.4,0.1,0.5,0.3
						l2.1,4c0,0.1,0.1,0.1,0.1,0.2C356.2,223.3,354.9,224.8,353.2,224.9z M350.7,218.3l0.2,3.5c0.1,1.2,1,2.1,2.1,2
						c1.1-0.1,1.9-1,1.8-2.2l-1.8-3.5L350.7,218.3z"/>
				</g>
			</g>
		</g>
		<g>
			<path fill="#3E3B3A" d="M334.8,216.9"/>
		</g>
		<g>
			<path fill="#6DBCFD" d="M353.2,218.1l-16.5,1.1c-0.3,0-0.6-0.2-0.6-0.5l-0.2-3.5c0-0.3,0.2-0.6,0.5-0.6l16.5-1.1
				c0.3,0,0.6,0.2,0.6,0.5l0.2,3.5C353.8,217.8,353.5,218.1,353.2,218.1z M337.2,218l15.4-1l-0.2-2.4l-15.4,1L337.2,218z"/>
		</g>
		<g>
			<path fill="#6DBCFD" d="M348.7,233.7l-5.5,0.4c-0.2,0-0.5-0.2-0.5-0.4l-0.4-6.5c0-0.6,0.4-1.2,1.1-1.2l4.2-0.3
				c0.6,0,1.2,0.4,1.2,1.1l0.4,6.5C349.1,233.4,348.9,233.7,348.7,233.7z M343.5,233.1l4.6-0.3l-0.4-6.1c0-0.1-0.1-0.2-0.2-0.2
				l-4.2,0.3c-0.1,0-0.2,0.1-0.2,0.2L343.5,233.1z"/>
		</g>
		<g>
			<path fill="#6DBCFD" d="M353.1,224.4l0.5,8.2l-15.2,1l-0.5-8.2l-1.2,0.1l0.6,8.7c0,0.3,0.3,0.6,0.6,0.5l16.3-1.1
				c0.3,0,0.6-0.3,0.5-0.6l-0.6-8.7L353.1,224.4z"/>
		</g>
	</g>
</g>
<g>
	<g>
		
			<rect x="482.7" y="478" transform="matrix(0.9979 -6.424943e-002 6.424943e-002 0.9979 -30.0402 32.5372)" fill="none" width="16.4" height="10.8"/>
		
			<rect x="488.3" y="481.4" transform="matrix(0.9979 -6.424943e-002 6.424943e-002 0.9979 -30.143 32.548)" fill="none" width="5.4" height="7.1"/>
		<path fill="none" d="M481.9,473.7l16.5-0.9l2.3,3.6c0,0-1.1,5-4.9,1.4c0,0-0.9,1.7-2.5,1.9c-1.6,0.2-2.7-1.9-2.7-1.9
			s-0.9,2.1-2.4,2.1c-1.5,0-2.8-2-2.8-2s-0.7,2.7-2.5,2.5c-1.8-0.1-2.7-2.5-2.7-2.5L481.9,473.7z"/>
		
			<rect x="481.9" y="469.8" transform="matrix(0.9979 -6.424943e-002 6.424943e-002 0.9979 -29.2806 32.4637)" fill="none" width="16.4" height="3.4"/>
		<path fill="none" d="M482.9,480.5c1.8,0.1,2.5-2.5,2.5-2.5s1.3,2,2.8,2c1.5,0,2.4-2.1,2.4-2.1s1.1,2.1,2.7,1.9
			c1.6-0.2,2.5-1.9,2.5-1.9c3.4,3.2,4.6-0.4,4.9-1.2l-20.5,1.3C480.3,478,481.1,480.3,482.9,480.5z"/>
		<g>
			<g>
				<g>
					<path fill="#6DBCFD" d="M483.2,481c-1.7,0.1-3.2-1.3-3.3-3.1c0-0.1,0-0.1,0-0.2l1.3-4.2c0.1-0.2,0.3-0.4,0.5-0.4l3.5-0.2
						c0.3,0,0.6,0.2,0.6,0.5l0.3,4.1C486.2,479.3,484.9,480.9,483.2,481z M481,477.9c0.1,1.1,1,2,2.1,1.9c1.1-0.1,1.9-1.1,1.8-2.3
						l-0.2-3.5l-2.5,0.2L481,477.9z"/>
				</g>
			</g>
			<g>
				<g>
					<path fill="#6DBCFD" d="M488.3,480.7c-1.7,0.1-3.2-1.3-3.3-3.1l-0.3-4.1c0-0.3,0.2-0.6,0.5-0.6l5.1-0.3c0.3,0,0.6,0.2,0.6,0.5
						l0.3,4.1C491.3,479,490,480.6,488.3,480.7z M485.9,474l0.2,3.5c0.1,1.2,1,2.1,2.1,2c1.1-0.1,1.9-1.1,1.8-2.3l-0.2-3.5
						L485.9,474z"/>
				</g>
			</g>
			<g>
				<g>
					<path fill="#6DBCFD" d="M493.4,480.3c-1.7,0.1-3.2-1.3-3.3-3.1l-0.3-4.1c0-0.3,0.2-0.6,0.5-0.6l5.1-0.3c0.3,0,0.6,0.2,0.6,0.5
						l0.3,4.1C496.4,478.7,495.1,480.2,493.4,480.3z M490.9,473.7l0.2,3.5c0.1,1.2,1,2.1,2.1,2c1.1-0.1,1.9-1.1,1.8-2.3l-0.2-3.5
						L490.9,473.7z"/>
				</g>
			</g>
			<g>
				<g>
					<path fill="#6DBCFD" d="M498.4,480c-1.7,0.1-3.2-1.3-3.3-3.1l-0.3-4.1c0-0.3,0.2-0.6,0.5-0.6l3.3-0.2c0.2,0,0.4,0.1,0.5,0.3
						l2.1,4c0,0.1,0.1,0.1,0.1,0.2C501.4,478.4,500.1,479.9,498.4,480z M496,473.4l0.2,3.5c0.1,1.2,1,2.1,2.1,2
						c1.1-0.1,1.9-1,1.8-2.2l-1.8-3.5L496,473.4z"/>
				</g>
			</g>
		</g>
		<g>
			<path fill="#3E3B3A" d="M480.1,472"/>
		</g>
		<g>
			<path fill="#6DBCFD" d="M498.5,473.2l-16.5,1.1c-0.3,0-0.6-0.2-0.6-0.5l-0.2-3.5c0-0.3,0.2-0.6,0.5-0.6l16.5-1.1
				c0.3,0,0.6,0.2,0.6,0.5l0.2,3.5C499,472.9,498.8,473.2,498.5,473.2z M482.5,473.1l15.4-1l-0.2-2.4l-15.4,1L482.5,473.1z"/>
		</g>
		<g>
			<path fill="#6DBCFD" d="M494,488.8l-5.5,0.4c-0.2,0-0.5-0.2-0.5-0.4l-0.4-6.5c0-0.6,0.4-1.2,1.1-1.2l4.2-0.3
				c0.6,0,1.2,0.4,1.2,1.1l0.4,6.5C494.4,488.5,494.2,488.8,494,488.8z M488.8,488.2l4.6-0.3l-0.4-6.1c0-0.1-0.1-0.2-0.2-0.2
				l-4.2,0.3c-0.1,0-0.2,0.1-0.2,0.2L488.8,488.2z"/>
		</g>
		<g>
			<path fill="#6DBCFD" d="M498.4,479.5l0.5,8.2l-15.2,1l-0.5-8.2l-1.2,0.1l0.6,8.7c0,0.3,0.3,0.6,0.6,0.5l16.3-1.1
				c0.3,0,0.6-0.3,0.5-0.6l-0.6-8.7L498.4,479.5z"/>
		</g>
	</g>
	<g opacity="0.22">
		
			<rect x="481.6" y="479.2" transform="matrix(0.9979 -6.424943e-002 6.424943e-002 0.9979 -30.1198 32.4715)" fill="none" width="16.4" height="10.8"/>
		
			<rect x="487.3" y="482.6" transform="matrix(0.9979 -6.424943e-002 6.424943e-002 0.9979 -30.2227 32.4823)" fill="none" width="5.4" height="7.1"/>
		<path fill="none" d="M480.9,475l16.5-0.9l2.3,3.6c0,0-1.1,5-4.9,1.4c0,0-0.9,1.7-2.5,1.9c-1.6,0.2-2.7-1.9-2.7-1.9
			s-0.9,2.1-2.4,2.1c-1.5,0-2.8-2-2.8-2s-0.7,2.7-2.5,2.5c-1.8-0.1-2.7-2.5-2.7-2.5L480.9,475z"/>
		
			<rect x="480.8" y="471" transform="matrix(0.9979 -6.424943e-002 6.424943e-002 0.9979 -29.3602 32.398)" fill="none" width="16.4" height="3.4"/>
		<path fill="none" d="M481.9,481.7c1.8,0.1,2.5-2.5,2.5-2.5s1.3,2,2.8,2c1.5,0,2.4-2.1,2.4-2.1s1.1,2.1,2.7,1.9
			c1.6-0.2,2.5-1.9,2.5-1.9c3.4,3.2,4.6-0.4,4.9-1.2l-20.5,1.3C479.2,479.2,480.1,481.5,481.9,481.7z"/>
		<g>
			<g>
				<g>
					<path fill="#6DBCFD" d="M482.2,482.2c-1.7,0.1-3.2-1.3-3.3-3.1c0-0.1,0-0.1,0-0.2l1.3-4.2c0.1-0.2,0.3-0.4,0.5-0.4l3.5-0.2
						c0.3,0,0.6,0.2,0.6,0.5l0.3,4.1C485.2,480.5,483.9,482.1,482.2,482.2z M480,479.2c0.1,1.1,1,2,2.1,1.9c1.1-0.1,1.9-1.1,1.8-2.3
						l-0.2-3.5l-2.5,0.2L480,479.2z"/>
				</g>
			</g>
			<g>
				<g>
					<path fill="#6DBCFD" d="M487.2,481.9c-1.7,0.1-3.2-1.3-3.3-3.1l-0.3-4.1c0-0.3,0.2-0.6,0.5-0.6l5.1-0.3c0.3,0,0.6,0.2,0.6,0.5
						l0.3,4.1C490.2,480.2,488.9,481.8,487.2,481.9z M484.8,475.2l0.2,3.5c0.1,1.2,1,2.1,2.1,2c1.1-0.1,1.9-1.1,1.8-2.3l-0.2-3.5
						L484.8,475.2z"/>
				</g>
			</g>
			<g>
				<g>
					<path fill="#6DBCFD" d="M492.3,481.6c-1.7,0.1-3.2-1.3-3.3-3.1l-0.3-4.1c0-0.3,0.2-0.6,0.5-0.6l5.1-0.3c0.3,0,0.6,0.2,0.6,0.5
						l0.3,4.1C495.3,479.9,494,481.4,492.3,481.6z M489.9,474.9l0.2,3.5c0.1,1.2,1,2.1,2.1,2c1.1-0.1,1.9-1.1,1.8-2.3l-0.2-3.5
						L489.9,474.9z"/>
				</g>
			</g>
			<g>
				<g>
					<path fill="#6DBCFD" d="M497.4,481.2c-1.7,0.1-3.2-1.3-3.3-3.1l-0.3-4.1c0-0.3,0.2-0.6,0.5-0.6l3.3-0.2c0.2,0,0.4,0.1,0.5,0.3
						l2.1,4c0,0.1,0.1,0.1,0.1,0.2C500.4,479.6,499.1,481.1,497.4,481.2z M495,474.6l0.2,3.5c0.1,1.2,1,2.1,2.1,2
						c1.1-0.1,1.9-1,1.8-2.2l-1.8-3.5L495,474.6z"/>
				</g>
			</g>
		</g>
		<g>
			<path fill="#3E3B3A" d="M479,473.2"/>
		</g>
		<g>
			<path fill="#6DBCFD" d="M497.4,474.4l-16.5,1.1c-0.3,0-0.6-0.2-0.6-0.5l-0.2-3.5c0-0.3,0.2-0.6,0.5-0.6l16.5-1.1
				c0.3,0,0.6,0.2,0.6,0.5l0.2,3.5C498,474.1,497.7,474.4,497.4,474.4z M481.4,474.3l15.4-1l-0.2-2.4l-15.4,1L481.4,474.3z"/>
		</g>
		<g>
			<path fill="#6DBCFD" d="M492.9,490l-5.5,0.4c-0.2,0-0.5-0.2-0.5-0.4l-0.4-6.5c0-0.6,0.4-1.2,1.1-1.2l4.2-0.3
				c0.6,0,1.2,0.4,1.2,1.1l0.4,6.5C493.3,489.7,493.2,490,492.9,490z M487.8,489.4l4.6-0.3L492,483c0-0.1-0.1-0.2-0.2-0.2l-4.2,0.3
				c-0.1,0-0.2,0.1-0.2,0.2L487.8,489.4z"/>
		</g>
		<g>
			<path fill="#6DBCFD" d="M497.3,480.7l0.5,8.2l-15.2,1l-0.5-8.2l-1.2,0.1l0.6,8.7c0,0.3,0.3,0.6,0.6,0.5l16.3-1.1
				c0.3,0,0.6-0.3,0.5-0.6l-0.6-8.7L497.3,480.7z"/>
		</g>
	</g>
</g>
<g>
	<g>
		
			<rect x="553.6" y="633.8" transform="matrix(0.9979 -6.424943e-002 6.424943e-002 0.9979 -39.9038 37.4178)" fill="none" width="16.4" height="10.8"/>
		
			<rect x="559.3" y="637.2" transform="matrix(0.9979 -6.424943e-002 6.424943e-002 0.9979 -40.0066 37.4286)" fill="none" width="5.4" height="7.1"/>
		<path fill="none" d="M552.9,629.5l16.5-0.9l2.3,3.6c0,0-1.1,5-4.9,1.4c0,0-0.9,1.7-2.5,1.9c-1.6,0.2-2.7-1.9-2.7-1.9
			s-0.9,2.1-2.4,2.1c-1.5,0-2.8-2-2.8-2s-0.7,2.7-2.5,2.5c-1.8-0.1-2.7-2.5-2.7-2.5L552.9,629.5z"/>
		
			<rect x="552.9" y="625.6" transform="matrix(0.9979 -6.424943e-002 6.424943e-002 0.9979 -39.1442 37.3443)" fill="none" width="16.4" height="3.4"/>
		<path fill="none" d="M553.9,636.3c1.8,0.1,2.5-2.5,2.5-2.5s1.3,2,2.8,2c1.5,0,2.4-2.1,2.4-2.1s1.1,2.1,2.7,1.9
			c1.6-0.2,2.5-1.9,2.5-1.9c3.4,3.2,4.6-0.4,4.9-1.2l-20.5,1.3C551.2,633.8,552.1,636.1,553.9,636.3z"/>
		<g>
			<g>
				<g>
					<path fill="#6DBCFD" d="M554.2,636.8c-1.7,0.1-3.2-1.3-3.3-3.1c0-0.1,0-0.1,0-0.2l1.3-4.2c0.1-0.2,0.3-0.4,0.5-0.4l3.5-0.2
						c0.3,0,0.6,0.2,0.6,0.5l0.3,4.1C557.2,635.1,555.9,636.7,554.2,636.8z M552,633.7c0.1,1.1,1,2,2.1,1.9c1.1-0.1,1.9-1.1,1.8-2.3
						l-0.2-3.5l-2.5,0.2L552,633.7z"/>
				</g>
			</g>
			<g>
				<g>
					<path fill="#6DBCFD" d="M559.2,636.5c-1.7,0.1-3.2-1.3-3.3-3.1l-0.3-4.1c0-0.3,0.2-0.6,0.5-0.6l5.1-0.3c0.3,0,0.6,0.2,0.6,0.5
						l0.3,4.1C562.2,634.8,560.9,636.4,559.2,636.5z M556.8,629.8l0.2,3.5c0.1,1.2,1,2.1,2.1,2c1.1-0.1,1.9-1.1,1.8-2.3l-0.2-3.5
						L556.8,629.8z"/>
				</g>
			</g>
			<g>
				<g>
					<path fill="#6DBCFD" d="M564.3,636.2c-1.7,0.1-3.2-1.3-3.3-3.1l-0.3-4.1c0-0.3,0.2-0.6,0.5-0.6l5.1-0.3c0.3,0,0.6,0.2,0.6,0.5
						l0.3,4.1C567.3,634.5,566,636,564.3,636.2z M561.9,629.5l0.2,3.5c0.1,1.2,1,2.1,2.1,2c1.1-0.1,1.9-1.1,1.8-2.3l-0.2-3.5
						L561.9,629.5z"/>
				</g>
			</g>
			<g>
				<g>
					<path fill="#6DBCFD" d="M569.4,635.8c-1.7,0.1-3.2-1.3-3.3-3.1l-0.3-4.1c0-0.3,0.2-0.6,0.5-0.6l3.3-0.2c0.2,0,0.4,0.1,0.5,0.3
						l2.1,4c0,0.1,0.1,0.1,0.1,0.2C572.4,634.2,571.1,635.7,569.4,635.8z M567,629.2l0.2,3.5c0.1,1.2,1,2.1,2.1,2
						c1.1-0.1,1.9-1,1.8-2.2l-1.8-3.5L567,629.2z"/>
				</g>
			</g>
		</g>
		<g>
			<path fill="#3E3B3A" d="M551,627.8"/>
		</g>
		<g>
			<path fill="#6DBCFD" d="M569.4,629l-16.5,1.1c-0.3,0-0.6-0.2-0.6-0.5l-0.2-3.5c0-0.3,0.2-0.6,0.5-0.6l16.5-1.1
				c0.3,0,0.6,0.2,0.6,0.5l0.2,3.5C570,628.7,569.7,629,569.4,629z M553.4,628.9l15.4-1l-0.2-2.4l-15.4,1L553.4,628.9z"/>
		</g>
		<g>
			<path fill="#6DBCFD" d="M564.9,644.6l-5.5,0.4c-0.2,0-0.5-0.2-0.5-0.4l-0.4-6.5c0-0.6,0.4-1.2,1.1-1.2l4.2-0.3
				c0.6,0,1.2,0.4,1.2,1.1l0.4,6.5C565.4,644.3,565.2,644.6,564.9,644.6z M559.8,644l4.6-0.3l-0.4-6.1c0-0.1-0.1-0.2-0.2-0.2
				l-4.2,0.3c-0.1,0-0.2,0.1-0.2,0.2L559.8,644z"/>
		</g>
		<g>
			<path fill="#6DBCFD" d="M569.3,635.3l0.5,8.2l-15.2,1l-0.5-8.2l-1.2,0.1l0.6,8.7c0,0.3,0.3,0.6,0.6,0.5l16.3-1.1
				c0.3,0,0.6-0.3,0.5-0.6l-0.6-8.7L569.3,635.3z"/>
		</g>
	</g>
	<g opacity="0.22">
		
			<rect x="552.6" y="635" transform="matrix(0.9979 -6.424943e-002 6.424943e-002 0.9979 -39.9835 37.3522)" fill="none" width="16.4" height="10.8"/>
		
			<rect x="558.2" y="638.4" transform="matrix(0.9979 -6.424943e-002 6.424943e-002 0.9979 -40.0863 37.363)" fill="none" width="5.4" height="7.1"/>
		<path fill="none" d="M551.8,630.8l16.5-0.9l2.3,3.6c0,0-1.1,5-4.9,1.4c0,0-0.9,1.7-2.5,1.9s-2.7-1.9-2.7-1.9s-0.9,2.1-2.4,2.1
			c-1.5,0-2.8-2-2.8-2s-0.7,2.7-2.5,2.5c-1.8-0.1-2.7-2.5-2.7-2.5L551.8,630.8z"/>
		
			<rect x="551.8" y="626.8" transform="matrix(0.9979 -6.424943e-002 6.424943e-002 0.9979 -39.2239 37.2787)" fill="none" width="16.4" height="3.4"/>
		<path fill="none" d="M552.8,637.5c1.8,0.1,2.5-2.5,2.5-2.5s1.3,2,2.8,2c1.5,0,2.4-2.1,2.4-2.1s1.1,2.1,2.7,1.9s2.5-1.9,2.5-1.9
			c3.4,3.2,4.6-0.4,4.9-1.2l-20.5,1.3C550.2,635,551,637.3,552.8,637.5z"/>
		<g>
			<g>
				<g>
					<path fill="#6DBCFD" d="M553.1,638c-1.7,0.1-3.2-1.3-3.3-3.1c0-0.1,0-0.1,0-0.2l1.3-4.2c0.1-0.2,0.3-0.4,0.5-0.4l3.5-0.2
						c0.3,0,0.6,0.2,0.6,0.5l0.3,4.1C556.1,636.3,554.8,637.9,553.1,638z M550.9,635c0.1,1.1,1,2,2.1,1.9c1.1-0.1,1.9-1.1,1.8-2.3
						l-0.2-3.5l-2.5,0.2L550.9,635z"/>
				</g>
			</g>
			<g>
				<g>
					<path fill="#6DBCFD" d="M558.2,637.7c-1.7,0.1-3.2-1.3-3.3-3.1l-0.3-4.1c0-0.3,0.2-0.6,0.5-0.6l5.1-0.3c0.3,0,0.6,0.2,0.6,0.5
						l0.3,4.1C561.2,636,559.9,637.6,558.2,637.7z M555.8,631l0.2,3.5c0.1,1.2,1,2.1,2.1,2c1.1-0.1,1.9-1.1,1.8-2.3l-0.2-3.5
						L555.8,631z"/>
				</g>
			</g>
			<g>
				<g>
					<path fill="#6DBCFD" d="M563.3,637.4c-1.7,0.1-3.2-1.3-3.3-3.1l-0.3-4.1c0-0.3,0.2-0.6,0.5-0.6l5.1-0.3c0.3,0,0.6,0.2,0.6,0.5
						l0.3,4.1C566.3,635.7,565,637.2,563.3,637.4z M560.8,630.7l0.2,3.5c0.1,1.2,1,2.1,2.1,2c1.1-0.1,1.9-1.1,1.8-2.3l-0.2-3.5
						L560.8,630.7z"/>
				</g>
			</g>
			<g>
				<g>
					<path fill="#6DBCFD" d="M568.3,637c-1.7,0.1-3.2-1.3-3.3-3.1l-0.3-4.1c0-0.3,0.2-0.6,0.5-0.6l3.3-0.2c0.2,0,0.4,0.1,0.5,0.3
						l2.1,4c0,0.1,0.1,0.1,0.1,0.2C571.3,635.4,570,636.9,568.3,637z M565.9,630.4l0.2,3.5c0.1,1.2,1,2.1,2.1,2
						c1.1-0.1,1.9-1,1.8-2.2l-1.8-3.5L565.9,630.4z"/>
				</g>
			</g>
		</g>
		<g>
			<path fill="#3E3B3A" d="M550,629"/>
		</g>
		<g>
			<path fill="#6DBCFD" d="M568.4,630.2l-16.5,1.1c-0.3,0-0.6-0.2-0.6-0.5l-0.2-3.5c0-0.3,0.2-0.6,0.5-0.6l16.5-1.1
				c0.3,0,0.6,0.2,0.6,0.5l0.2,3.5C568.9,630,568.7,630.2,568.4,630.2z M552.3,630.1l15.4-1l-0.2-2.4l-15.4,1L552.3,630.1z"/>
		</g>
		<g>
			<path fill="#6DBCFD" d="M563.9,645.8l-5.5,0.4c-0.2,0-0.5-0.2-0.5-0.4l-0.4-6.5c0-0.6,0.4-1.2,1.1-1.2l4.2-0.3
				c0.6,0,1.2,0.4,1.2,1.1l0.4,6.5C564.3,645.5,564.1,645.8,563.9,645.8z M558.7,645.2l4.6-0.3l-0.4-6.1c0-0.1-0.1-0.2-0.2-0.2
				l-4.2,0.3c-0.1,0-0.2,0.1-0.2,0.2L558.7,645.2z"/>
		</g>
		<g>
			<path fill="#6DBCFD" d="M568.3,636.5l0.5,8.2l-15.2,1l-0.5-8.2l-1.2,0.1l0.6,8.7c0,0.3,0.3,0.6,0.6,0.5l16.3-1.1
				c0.3,0,0.6-0.3,0.5-0.6l-0.6-8.7L568.3,636.5z"/>
		</g>
	</g>
</g>
<g>
	<g>
		
			<rect x="319" y="498.5" transform="matrix(0.9979 -6.424943e-002 6.424943e-002 0.9979 -31.6962 22.0638)" fill="none" width="16.4" height="10.8"/>
		
			<rect x="324.6" y="501.9" transform="matrix(0.9979 -6.424943e-002 6.424943e-002 0.9979 -31.799 22.0746)" fill="none" width="5.4" height="7.1"/>
		<path fill="none" d="M318.2,494.3l16.5-0.9l2.3,3.6c0,0-1.1,5-4.9,1.4c0,0-0.9,1.7-2.5,1.9c-1.6,0.2-2.7-1.9-2.7-1.9
			s-0.9,2.1-2.4,2.1c-1.5,0-2.8-2-2.8-2s-0.7,2.7-2.5,2.5c-1.8-0.1-2.7-2.5-2.7-2.5L318.2,494.3z"/>
		
			<rect x="318.2" y="490.3" transform="matrix(0.9979 -6.424943e-002 6.424943e-002 0.9979 -30.9366 21.9903)" fill="none" width="16.4" height="3.4"/>
		<path fill="none" d="M319.3,501c1.8,0.1,2.5-2.5,2.5-2.5s1.3,2,2.8,2c1.5,0,2.4-2.1,2.4-2.1s1.1,2.1,2.7,1.9
			c1.6-0.2,2.5-1.9,2.5-1.9c3.4,3.2,4.6-0.4,4.9-1.2l-20.5,1.3C316.6,498.5,317.4,500.8,319.3,501z"/>
		<g>
			<g>
				<g>
					<path fill="#6DBCFD" d="M319.5,501.5c-1.7,0.1-3.2-1.3-3.3-3.1c0-0.1,0-0.1,0-0.2l1.3-4.2c0.1-0.2,0.3-0.4,0.5-0.4l3.5-0.2
						c0.3,0,0.6,0.2,0.6,0.5l0.3,4.1C322.5,499.8,321.3,501.4,319.5,501.5z M317.4,498.5c0.1,1.1,1,2,2.1,1.9
						c1.1-0.1,1.9-1.1,1.8-2.3l-0.2-3.5l-2.5,0.2L317.4,498.5z"/>
				</g>
			</g>
			<g>
				<g>
					<path fill="#6DBCFD" d="M324.6,501.2c-1.7,0.1-3.2-1.3-3.3-3.1L321,494c0-0.3,0.2-0.6,0.5-0.6l5.1-0.3c0.3,0,0.6,0.2,0.6,0.5
						l0.3,4.1C327.6,499.5,326.3,501.1,324.6,501.2z M322.2,494.5l0.2,3.5c0.1,1.2,1,2.1,2.1,2c1.1-0.1,1.9-1.1,1.8-2.3l-0.2-3.5
						L322.2,494.5z"/>
				</g>
			</g>
			<g>
				<g>
					<path fill="#6DBCFD" d="M329.7,500.9c-1.7,0.1-3.2-1.3-3.3-3.1l-0.3-4.1c0-0.3,0.2-0.6,0.5-0.6l5.1-0.3c0.3,0,0.6,0.2,0.6,0.5
						l0.3,4.1C332.7,499.2,331.4,500.8,329.7,500.9z M327.3,494.2l0.2,3.5c0.1,1.2,1,2.1,2.1,2c1.1-0.1,1.9-1.1,1.8-2.3l-0.2-3.5
						L327.3,494.2z"/>
				</g>
			</g>
			<g>
				<g>
					<path fill="#6DBCFD" d="M334.8,500.5c-1.7,0.1-3.2-1.3-3.3-3.1l-0.3-4.1c0-0.3,0.2-0.6,0.5-0.6l3.3-0.2c0.2,0,0.4,0.1,0.5,0.3
						l2.1,4c0,0.1,0.1,0.1,0.1,0.2C337.8,498.9,336.5,500.4,334.8,500.5z M332.4,493.9l0.2,3.5c0.1,1.2,1,2.1,2.1,2
						c1.1-0.1,1.9-1,1.8-2.2l-1.8-3.5L332.4,493.9z"/>
				</g>
			</g>
		</g>
		<g>
			<path fill="#3E3B3A" d="M316.4,492.5"/>
		</g>
		<g>
			<path fill="#6DBCFD" d="M334.8,493.7l-16.5,1.1c-0.3,0-0.6-0.2-0.6-0.5l-0.2-3.5c0-0.3,0.2-0.6,0.5-0.6l16.5-1.1
				c0.3,0,0.6,0.2,0.6,0.5l0.2,3.5C335.4,493.5,335.1,493.7,334.8,493.7z M318.8,493.6l15.4-1l-0.2-2.4l-15.4,1L318.8,493.6z"/>
		</g>
		<g>
			<path fill="#6DBCFD" d="M330.3,509.3l-5.5,0.4c-0.2,0-0.5-0.2-0.5-0.4l-0.4-6.5c0-0.6,0.4-1.2,1.1-1.2l4.2-0.3
				c0.6,0,1.2,0.4,1.2,1.1l0.4,6.5C330.7,509,330.6,509.3,330.3,509.3z M325.1,508.7l4.6-0.3l-0.4-6.1c0-0.1-0.1-0.2-0.2-0.2
				l-4.2,0.3c-0.1,0-0.2,0.1-0.2,0.2L325.1,508.7z"/>
		</g>
		<g>
			<path fill="#6DBCFD" d="M334.7,500l0.5,8.2l-15.2,1l-0.5-8.2l-1.2,0.1l0.6,8.7c0,0.3,0.3,0.6,0.6,0.5l16.3-1.1
				c0.3,0,0.6-0.3,0.5-0.6l-0.6-8.7L334.7,500z"/>
		</g>
	</g>
	<g opacity="0.22">
		
			<rect x="317.9" y="499.7" transform="matrix(0.9979 -6.424943e-002 6.424943e-002 0.9979 -31.7759 21.9982)" fill="none" width="16.4" height="10.8"/>
		
			<rect x="323.6" y="503.1" transform="matrix(0.9979 -6.424943e-002 6.424943e-002 0.9979 -31.8787 22.009)" fill="none" width="5.4" height="7.1"/>
		<path fill="none" d="M317.2,495.5l16.5-0.9l2.3,3.6c0,0-1.1,5-4.9,1.4c0,0-0.9,1.7-2.5,1.9c-1.6,0.2-2.7-1.9-2.7-1.9
			s-0.9,2.1-2.4,2.1c-1.5,0-2.8-2-2.8-2s-0.7,2.7-2.5,2.5c-1.8-0.1-2.7-2.5-2.7-2.5L317.2,495.5z"/>
		
			<rect x="317.2" y="491.5" transform="matrix(0.9979 -6.424943e-002 6.424943e-002 0.9979 -31.0163 21.9247)" fill="none" width="16.4" height="3.4"/>
		<path fill="none" d="M318.2,502.2c1.8,0.1,2.5-2.5,2.5-2.5s1.3,2,2.8,2c1.5,0,2.4-2.1,2.4-2.1s1.1,2.1,2.7,1.9
			c1.6-0.2,2.5-1.9,2.5-1.9c3.4,3.2,4.6-0.4,4.9-1.2l-20.5,1.3C315.5,499.7,316.4,502,318.2,502.2z"/>
		<g>
			<g>
				<g>
					<path fill="#6DBCFD" d="M318.5,502.7c-1.7,0.1-3.2-1.3-3.3-3.1c0-0.1,0-0.1,0-0.2l1.3-4.2c0.1-0.2,0.3-0.4,0.5-0.4l3.5-0.2
						c0.3,0,0.6,0.2,0.6,0.5l0.3,4.1C321.5,501,320.2,502.6,318.5,502.7z M316.3,499.7c0.1,1.1,1,2,2.1,1.9c1.1-0.1,1.9-1.1,1.8-2.3
						l-0.2-3.5l-2.5,0.2L316.3,499.7z"/>
				</g>
			</g>
			<g>
				<g>
					<path fill="#6DBCFD" d="M323.6,502.4c-1.7,0.1-3.2-1.3-3.3-3.1l-0.3-4.1c0-0.3,0.2-0.6,0.5-0.6l5.1-0.3c0.3,0,0.6,0.2,0.6,0.5
						l0.3,4.1C326.6,500.7,325.3,502.3,323.6,502.4z M321.1,495.7l0.2,3.5c0.1,1.2,1,2.1,2.1,2c1.1-0.1,1.9-1.1,1.8-2.3l-0.2-3.5
						L321.1,495.7z"/>
				</g>
			</g>
			<g>
				<g>
					<path fill="#6DBCFD" d="M328.6,502.1c-1.7,0.1-3.2-1.3-3.3-3.1l-0.3-4.1c0-0.3,0.2-0.6,0.5-0.6l5.1-0.3c0.3,0,0.6,0.2,0.6,0.5
						l0.3,4.1C331.6,500.4,330.3,502,328.6,502.1z M326.2,495.4l0.2,3.5c0.1,1.2,1,2.1,2.1,2c1.1-0.1,1.9-1.1,1.8-2.3l-0.2-3.5
						L326.2,495.4z"/>
				</g>
			</g>
			<g>
				<g>
					<path fill="#6DBCFD" d="M333.7,501.7c-1.7,0.1-3.2-1.3-3.3-3.1l-0.3-4.1c0-0.3,0.2-0.6,0.5-0.6l3.3-0.2c0.2,0,0.4,0.1,0.5,0.3
						l2.1,4c0,0.1,0.1,0.1,0.1,0.2C336.7,500.1,335.4,501.6,333.7,501.7z M331.3,495.1l0.2,3.5c0.1,1.2,1,2.1,2.1,2
						c1.1-0.1,1.9-1,1.8-2.2l-1.8-3.5L331.3,495.1z"/>
				</g>
			</g>
		</g>
		<g>
			<path fill="#3E3B3A" d="M315.4,493.7"/>
		</g>
		<g>
			<path fill="#6DBCFD" d="M333.8,494.9l-16.5,1.1c-0.3,0-0.6-0.2-0.6-0.5l-0.2-3.5c0-0.3,0.2-0.6,0.5-0.6l16.5-1.1
				c0.3,0,0.6,0.2,0.6,0.5l0.2,3.5C334.3,494.7,334.1,494.9,333.8,494.9z M317.7,494.8l15.4-1l-0.2-2.4l-15.4,1L317.7,494.8z"/>
		</g>
		<g>
			<path fill="#6DBCFD" d="M329.2,510.5l-5.5,0.4c-0.2,0-0.5-0.2-0.5-0.4l-0.4-6.5c0-0.6,0.4-1.2,1.1-1.2l4.2-0.3
				c0.6,0,1.2,0.4,1.2,1.1l0.4,6.5C329.7,510.3,329.5,510.5,329.2,510.5z M324.1,509.9l4.6-0.3l-0.4-6.1c0-0.1-0.1-0.2-0.2-0.2
				l-4.2,0.3c-0.1,0-0.2,0.1-0.2,0.2L324.1,509.9z"/>
		</g>
		<g>
			<path fill="#6DBCFD" d="M333.6,501.2l0.5,8.2l-15.2,1l-0.5-8.2l-1.2,0.1l0.6,8.7c0,0.3,0.3,0.6,0.6,0.5l16.3-1.1
				c0.3,0,0.6-0.3,0.5-0.6l-0.6-8.7L333.6,501.2z"/>
		</g>
	</g>
</g>
<g>
	<g>
		
			<rect x="360.6" y="601.8" transform="matrix(0.9979 -6.424943e-002 6.424943e-002 0.9979 -38.247 24.9488)" fill="none" width="16.4" height="10.8"/>
		
			<rect x="366.2" y="605.2" transform="matrix(0.9979 -6.424943e-002 6.424943e-002 0.9979 -38.3498 24.9596)" fill="none" width="5.4" height="7.1"/>
		<path fill="none" d="M359.8,597.6l16.5-0.9l2.3,3.6c0,0-1.1,5-4.9,1.4c0,0-0.9,1.7-2.5,1.9c-1.6,0.2-2.7-1.9-2.7-1.9
			s-0.9,2.1-2.4,2.1c-1.5,0-2.8-2-2.8-2s-0.7,2.7-2.5,2.5c-1.8-0.1-2.7-2.5-2.7-2.5L359.8,597.6z"/>
		
			<rect x="359.8" y="593.6" transform="matrix(0.9979 -6.424943e-002 6.424943e-002 0.9979 -37.4874 24.8753)" fill="none" width="16.4" height="3.4"/>
		<path fill="none" d="M360.8,604.3c1.8,0.1,2.5-2.5,2.5-2.5s1.3,2,2.8,2c1.5,0,2.4-2.1,2.4-2.1s1.1,2.1,2.7,1.9
			c1.6-0.2,2.5-1.9,2.5-1.9c3.4,3.2,4.6-0.4,4.9-1.2l-20.5,1.3C358.2,601.8,359,604.1,360.8,604.3z"/>
		<g>
			<g>
				<g>
					<path fill="#6DBCFD" d="M361.1,604.8c-1.7,0.1-3.2-1.3-3.3-3.1c0-0.1,0-0.1,0-0.2l1.3-4.2c0.1-0.2,0.3-0.4,0.5-0.4l3.5-0.2
						c0.3,0,0.6,0.2,0.6,0.5l0.3,4.1C364.1,603.1,362.8,604.7,361.1,604.8z M358.9,601.8c0.1,1.1,1,2,2.1,1.9
						c1.1-0.1,1.9-1.1,1.8-2.3l-0.2-3.5l-2.5,0.2L358.9,601.8z"/>
				</g>
			</g>
			<g>
				<g>
					<path fill="#6DBCFD" d="M366.2,604.5c-1.7,0.1-3.2-1.3-3.3-3.1l-0.3-4.1c0-0.3,0.2-0.6,0.5-0.6l5.1-0.3c0.3,0,0.6,0.2,0.6,0.5
						l0.3,4.1C369.2,602.8,367.9,604.4,366.2,604.5z M363.8,597.8l0.2,3.5c0.1,1.2,1,2.1,2.1,2c1.1-0.1,1.9-1.1,1.8-2.3l-0.2-3.5
						L363.8,597.8z"/>
				</g>
			</g>
			<g>
				<g>
					<path fill="#6DBCFD" d="M371.3,604.2c-1.7,0.1-3.2-1.3-3.3-3.1l-0.3-4.1c0-0.3,0.2-0.6,0.5-0.6l5.1-0.3c0.3,0,0.6,0.2,0.6,0.5
						l0.3,4.1C374.3,602.5,373,604,371.3,604.2z M368.9,597.5l0.2,3.5c0.1,1.2,1,2.1,2.1,2c1.1-0.1,1.9-1.1,1.8-2.3l-0.2-3.5
						L368.9,597.5z"/>
				</g>
			</g>
			<g>
				<g>
					<path fill="#6DBCFD" d="M376.3,603.8c-1.7,0.1-3.2-1.3-3.3-3.1l-0.3-4.1c0-0.3,0.2-0.6,0.5-0.6l3.3-0.2c0.2,0,0.4,0.1,0.5,0.3
						l2.1,4c0,0.1,0.1,0.1,0.1,0.2C379.3,602.2,378.1,603.7,376.3,603.8z M373.9,597.2l0.2,3.5c0.1,1.2,1,2.1,2.1,2
						c1.1-0.1,1.9-1,1.8-2.2l-1.8-3.5L373.9,597.2z"/>
				</g>
			</g>
		</g>
		<g>
			<path fill="#3E3B3A" d="M358,595.8"/>
		</g>
		<g>
			<path fill="#6DBCFD" d="M376.4,597l-16.5,1.1c-0.3,0-0.6-0.2-0.6-0.5l-0.2-3.5c0-0.3,0.2-0.6,0.5-0.6l16.5-1.1
				c0.3,0,0.6,0.2,0.6,0.5l0.2,3.5C376.9,596.8,376.7,597,376.4,597z M360.4,596.9l15.4-1l-0.2-2.4l-15.4,1L360.4,596.9z"/>
		</g>
		<g>
			<path fill="#6DBCFD" d="M371.9,612.6l-5.5,0.4c-0.2,0-0.5-0.2-0.5-0.4l-0.4-6.5c0-0.6,0.4-1.2,1.1-1.2l4.2-0.3
				c0.6,0,1.2,0.4,1.2,1.1l0.4,6.5C372.3,612.3,372.1,612.6,371.9,612.6z M366.7,612l4.6-0.3l-0.4-6.1c0-0.1-0.1-0.2-0.2-0.2
				l-4.2,0.3c-0.1,0-0.2,0.1-0.2,0.2L366.7,612z"/>
		</g>
		<g>
			<path fill="#6DBCFD" d="M376.3,603.3l0.5,8.2l-15.2,1l-0.5-8.2l-1.2,0.1l0.6,8.7c0,0.3,0.3,0.6,0.6,0.5l16.3-1.1
				c0.3,0,0.6-0.3,0.5-0.6l-0.6-8.7L376.3,603.3z"/>
		</g>
	</g>
	<g opacity="0.22">
		
			<rect x="359.5" y="603" transform="matrix(0.9979 -6.424943e-002 6.424943e-002 0.9979 -38.3267 24.8832)" fill="none" width="16.4" height="10.8"/>
		
			<rect x="365.2" y="606.4" transform="matrix(0.9979 -6.424943e-002 6.424943e-002 0.9979 -38.4295 24.894)" fill="none" width="5.4" height="7.1"/>
		<path fill="none" d="M358.8,598.8l16.5-0.9l2.3,3.6c0,0-1.1,5-4.9,1.4c0,0-0.9,1.7-2.5,1.9c-1.6,0.2-2.7-1.9-2.7-1.9
			s-0.9,2.1-2.4,2.1c-1.5,0-2.8-2-2.8-2s-0.7,2.7-2.5,2.5c-1.8-0.1-2.7-2.5-2.7-2.5L358.8,598.8z"/>
		
			<rect x="358.8" y="594.8" transform="matrix(0.9979 -6.424943e-002 6.424943e-002 0.9979 -37.5671 24.8097)" fill="none" width="16.4" height="3.4"/>
		<path fill="none" d="M359.8,605.5c1.8,0.1,2.5-2.5,2.5-2.5s1.3,2,2.8,2c1.5,0,2.4-2.1,2.4-2.1s1.1,2.1,2.7,1.9
			c1.6-0.2,2.5-1.9,2.5-1.9c3.4,3.2,4.6-0.4,4.9-1.2l-20.5,1.3C357.1,603,358,605.3,359.8,605.5z"/>
		<g>
			<g>
				<g>
					<path fill="#6DBCFD" d="M360.1,606c-1.7,0.1-3.2-1.3-3.3-3.1c0-0.1,0-0.1,0-0.2l1.3-4.2c0.1-0.2,0.3-0.4,0.5-0.4l3.5-0.2
						c0.3,0,0.6,0.2,0.6,0.5l0.3,4.1C363.1,604.3,361.8,605.9,360.1,606z M357.9,603c0.1,1.1,1,2,2.1,1.9c1.1-0.1,1.9-1.1,1.8-2.3
						l-0.2-3.5l-2.5,0.2L357.9,603z"/>
				</g>
			</g>
			<g>
				<g>
					<path fill="#6DBCFD" d="M365.1,605.7c-1.7,0.1-3.2-1.3-3.3-3.1l-0.3-4.1c0-0.3,0.2-0.6,0.5-0.6l5.1-0.3c0.3,0,0.6,0.2,0.6,0.5
						l0.3,4.1C368.1,604,366.8,605.6,365.1,605.7z M362.7,599l0.2,3.5c0.1,1.2,1,2.1,2.1,2c1.1-0.1,1.9-1.1,1.8-2.3l-0.2-3.5
						L362.7,599z"/>
				</g>
			</g>
			<g>
				<g>
					<path fill="#6DBCFD" d="M370.2,605.4c-1.7,0.1-3.2-1.3-3.3-3.1l-0.3-4.1c0-0.3,0.2-0.6,0.5-0.6l5.1-0.3c0.3,0,0.6,0.2,0.6,0.5
						l0.3,4.1C373.2,603.7,371.9,605.3,370.2,605.4z M367.8,598.7l0.2,3.5c0.1,1.2,1,2.1,2.1,2c1.1-0.1,1.9-1.1,1.8-2.3l-0.2-3.5
						L367.8,598.7z"/>
				</g>
			</g>
			<g>
				<g>
					<path fill="#6DBCFD" d="M375.3,605c-1.7,0.1-3.2-1.3-3.3-3.1l-0.3-4.1c0-0.3,0.2-0.6,0.5-0.6l3.3-0.2c0.2,0,0.4,0.1,0.5,0.3
						l2.1,4c0,0.1,0.1,0.1,0.1,0.2C378.3,603.4,377,604.9,375.3,605z M372.9,598.4l0.2,3.5c0.1,1.2,1,2.1,2.1,2
						c1.1-0.1,1.9-1,1.8-2.2l-1.8-3.5L372.9,598.4z"/>
				</g>
			</g>
		</g>
		<g>
			<path fill="#3E3B3A" d="M356.9,597"/>
		</g>
		<g>
			<path fill="#6DBCFD" d="M375.3,598.2l-16.5,1.1c-0.3,0-0.6-0.2-0.6-0.5l-0.2-3.5c0-0.3,0.2-0.6,0.5-0.6l16.5-1.1
				c0.3,0,0.6,0.2,0.6,0.5l0.2,3.5C375.9,598,375.6,598.2,375.3,598.2z M359.3,598.1l15.4-1l-0.2-2.4l-15.4,1L359.3,598.1z"/>
		</g>
		<g>
			<path fill="#6DBCFD" d="M370.8,613.8l-5.5,0.4c-0.2,0-0.5-0.2-0.5-0.4l-0.4-6.5c0-0.6,0.4-1.2,1.1-1.2l4.2-0.3
				c0.6,0,1.2,0.4,1.2,1.1l0.4,6.5C371.3,613.5,371.1,613.8,370.8,613.8z M365.7,613.2l4.6-0.3l-0.4-6.1c0-0.1-0.1-0.2-0.2-0.2
				l-4.2,0.3c-0.1,0-0.2,0.1-0.2,0.2L365.7,613.2z"/>
		</g>
		<g>
			<path fill="#6DBCFD" d="M375.2,604.5l0.5,8.2l-15.2,1l-0.5-8.2l-1.2,0.1l0.6,8.7c0,0.3,0.3,0.6,0.6,0.5l16.3-1.1
				c0.3,0,0.6-0.3,0.5-0.6l-0.6-8.7L375.2,604.5z"/>
		</g>
	</g>
</g>
<g>
	<g>
		
			<rect x="445.5" y="633.9" transform="matrix(0.9979 -6.424943e-002 6.424943e-002 0.9979 -40.1359 30.4722)" fill="none" width="16.4" height="10.8"/>
		
			<rect x="451.2" y="637.3" transform="matrix(0.9979 -6.424943e-002 6.424943e-002 0.9979 -40.2387 30.483)" fill="none" width="5.4" height="7.1"/>
		<path fill="none" d="M444.8,629.7l16.5-0.9l2.3,3.6c0,0-1.1,5-4.9,1.4c0,0-0.9,1.7-2.5,1.9c-1.6,0.2-2.7-1.9-2.7-1.9
			s-0.9,2.1-2.4,2.1c-1.5,0-2.8-2-2.8-2s-0.7,2.7-2.5,2.5c-1.8-0.1-2.7-2.5-2.7-2.5L444.8,629.7z"/>
		
			<rect x="444.7" y="625.7" transform="matrix(0.9979 -6.424943e-002 6.424943e-002 0.9979 -39.3763 30.3987)" fill="none" width="16.4" height="3.4"/>
		<path fill="none" d="M445.8,636.4c1.8,0.1,2.5-2.5,2.5-2.5s1.3,2,2.8,2c1.5,0,2.4-2.1,2.4-2.1s1.1,2.1,2.7,1.9
			c1.6-0.2,2.5-1.9,2.5-1.9c3.4,3.2,4.6-0.4,4.9-1.2l-20.5,1.3C443.1,633.9,444,636.3,445.8,636.4z"/>
		<g>
			<g>
				<g>
					<path fill="#6DBCFD" d="M446.1,636.9c-1.7,0.1-3.2-1.3-3.3-3.1c0-0.1,0-0.1,0-0.2l1.3-4.2c0.1-0.2,0.3-0.4,0.5-0.4l3.5-0.2
						c0.3,0,0.6,0.2,0.6,0.5l0.3,4.1C449.1,635.3,447.8,636.8,446.1,636.9z M443.9,633.9c0.1,1.1,1,2,2.1,1.9
						c1.1-0.1,1.9-1.1,1.8-2.3l-0.2-3.5l-2.5,0.2L443.9,633.9z"/>
				</g>
			</g>
			<g>
				<g>
					<path fill="#6DBCFD" d="M451.1,636.6c-1.7,0.1-3.2-1.3-3.3-3.1l-0.3-4.1c0-0.3,0.2-0.6,0.5-0.6l5.1-0.3c0.3,0,0.6,0.2,0.6,0.5
						l0.3,4.1C454.1,634.9,452.8,636.5,451.1,636.6z M448.7,630l0.2,3.5c0.1,1.2,1,2.1,2.1,2c1.1-0.1,1.9-1.1,1.8-2.3l-0.2-3.5
						L448.7,630z"/>
				</g>
			</g>
			<g>
				<g>
					<path fill="#6DBCFD" d="M456.2,636.3c-1.7,0.1-3.2-1.3-3.3-3.1l-0.3-4.1c0-0.3,0.2-0.6,0.5-0.6l5.1-0.3c0.3,0,0.6,0.2,0.6,0.5
						l0.3,4.1C459.2,634.6,457.9,636.2,456.2,636.3z M453.8,629.6l0.2,3.5c0.1,1.2,1,2.1,2.1,2c1.1-0.1,1.9-1.1,1.8-2.3l-0.2-3.5
						L453.8,629.6z"/>
				</g>
			</g>
			<g>
				<g>
					<path fill="#6DBCFD" d="M461.3,636c-1.7,0.1-3.2-1.3-3.3-3.1l-0.3-4.1c0-0.3,0.2-0.6,0.5-0.6l3.3-0.2c0.2,0,0.4,0.1,0.5,0.3
						l2.1,4c0,0.1,0.1,0.1,0.1,0.2C464.3,634.3,463,635.9,461.3,636z M458.9,629.3l0.2,3.5c0.1,1.2,1,2.1,2.1,2
						c1.1-0.1,1.9-1,1.8-2.2l-1.8-3.5L458.9,629.3z"/>
				</g>
			</g>
		</g>
		<g>
			<path fill="#3E3B3A" d="M442.9,628"/>
		</g>
		<g>
			<path fill="#6DBCFD" d="M461.3,629.2l-16.5,1.1c-0.3,0-0.6-0.2-0.6-0.5l-0.2-3.5c0-0.3,0.2-0.6,0.5-0.6l16.5-1.1
				c0.3,0,0.6,0.2,0.6,0.5l0.2,3.5C461.9,628.9,461.6,629.2,461.3,629.2z M445.3,629.1l15.4-1l-0.2-2.4l-15.4,1L445.3,629.1z"/>
		</g>
		<g>
			<path fill="#6DBCFD" d="M456.8,644.7l-5.5,0.4c-0.2,0-0.5-0.2-0.5-0.4l-0.4-6.5c0-0.6,0.4-1.2,1.1-1.2l4.2-0.3
				c0.6,0,1.2,0.4,1.2,1.1l0.4,6.5C457.3,644.5,457.1,644.7,456.8,644.7z M451.7,644.1l4.6-0.3l-0.4-6.1c0-0.1-0.1-0.2-0.2-0.2
				l-4.2,0.3c-0.1,0-0.2,0.1-0.2,0.2L451.7,644.1z"/>
		</g>
		<g>
			<path fill="#6DBCFD" d="M461.2,635.4l0.5,8.2l-15.2,1l-0.5-8.2l-1.2,0.1l0.6,8.7c0,0.3,0.3,0.6,0.6,0.5l16.3-1.1
				c0.3,0,0.6-0.3,0.5-0.6l-0.6-8.7L461.2,635.4z"/>
		</g>
	</g>
	<g opacity="0.22">
		
			<rect x="444.5" y="635.1" transform="matrix(0.9979 -6.424943e-002 6.424943e-002 0.9979 -40.2155 30.4066)" fill="none" width="16.4" height="10.8"/>
		
			<rect x="450.1" y="638.5" transform="matrix(0.9979 -6.424943e-002 6.424943e-002 0.9979 -40.3184 30.4174)" fill="none" width="5.4" height="7.1"/>
		<path fill="none" d="M443.7,630.9l16.5-0.9l2.3,3.6c0,0-1.1,5-4.9,1.4c0,0-0.9,1.7-2.5,1.9c-1.6,0.2-2.7-1.9-2.7-1.9
			s-0.9,2.1-2.4,2.1c-1.5,0-2.8-2-2.8-2s-0.7,2.7-2.5,2.5c-1.8-0.1-2.7-2.5-2.7-2.5L443.7,630.9z"/>
		
			<rect x="443.7" y="626.9" transform="matrix(0.9979 -6.424943e-002 6.424943e-002 0.9979 -39.4559 30.3331)" fill="none" width="16.4" height="3.4"/>
		<path fill="none" d="M444.7,637.6c1.8,0.1,2.5-2.5,2.5-2.5s1.3,2,2.8,2c1.5,0,2.4-2.1,2.4-2.1s1.1,2.1,2.7,1.9
			c1.6-0.2,2.5-1.9,2.5-1.9c3.4,3.2,4.6-0.4,4.9-1.2l-20.5,1.3C442.1,635.1,442.9,637.5,444.7,637.6z"/>
		<g>
			<g>
				<g>
					<path fill="#6DBCFD" d="M445,638.1c-1.7,0.1-3.2-1.3-3.3-3.1c0-0.1,0-0.1,0-0.2l1.3-4.2c0.1-0.2,0.3-0.4,0.5-0.4l3.5-0.2
						c0.3,0,0.6,0.2,0.6,0.5l0.3,4.1C448,636.5,446.7,638,445,638.1z M442.8,635.1c0.1,1.1,1,2,2.1,1.9c1.1-0.1,1.9-1.1,1.8-2.3
						l-0.2-3.5l-2.5,0.2L442.8,635.1z"/>
				</g>
			</g>
			<g>
				<g>
					<path fill="#6DBCFD" d="M450.1,637.8c-1.7,0.1-3.2-1.3-3.3-3.1l-0.3-4.1c0-0.3,0.2-0.6,0.5-0.6l5.1-0.3c0.3,0,0.6,0.2,0.6,0.5
						l0.3,4.1C453.1,636.1,451.8,637.7,450.1,637.8z M447.7,631.2l0.2,3.5c0.1,1.2,1,2.1,2.1,2c1.1-0.1,1.9-1.1,1.8-2.3l-0.2-3.5
						L447.7,631.2z"/>
				</g>
			</g>
			<g>
				<g>
					<path fill="#6DBCFD" d="M455.1,637.5c-1.7,0.1-3.2-1.3-3.3-3.1l-0.3-4.1c0-0.3,0.2-0.6,0.5-0.6l5.1-0.3c0.3,0,0.6,0.2,0.6,0.5
						l0.3,4.1C458.2,635.8,456.9,637.4,455.1,637.5z M452.7,630.8l0.2,3.5c0.1,1.2,1,2.1,2.1,2c1.1-0.1,1.9-1.1,1.8-2.3l-0.2-3.5
						L452.7,630.8z"/>
				</g>
			</g>
			<g>
				<g>
					<path fill="#6DBCFD" d="M460.2,637.2c-1.7,0.1-3.2-1.3-3.3-3.1l-0.3-4.1c0-0.3,0.2-0.6,0.5-0.6l3.3-0.2c0.2,0,0.4,0.1,0.5,0.3
						l2.1,4c0,0.1,0.1,0.1,0.1,0.2C463.2,635.5,461.9,637.1,460.2,637.2z M457.8,630.5l0.2,3.5c0.1,1.2,1,2.1,2.1,2
						c1.1-0.1,1.9-1,1.8-2.2l-1.8-3.5L457.8,630.5z"/>
				</g>
			</g>
		</g>
		<g>
			<path fill="#3E3B3A" d="M441.9,629.2"/>
		</g>
		<g>
			<path fill="#6DBCFD" d="M460.3,630.4l-16.5,1.1c-0.3,0-0.6-0.2-0.6-0.5l-0.2-3.5c0-0.3,0.2-0.6,0.5-0.6l16.5-1.1
				c0.3,0,0.6,0.2,0.6,0.5l0.2,3.5C460.8,630.1,460.6,630.4,460.3,630.4z M444.2,630.3l15.4-1l-0.2-2.4l-15.4,1L444.2,630.3z"/>
		</g>
		<g>
			<path fill="#6DBCFD" d="M455.8,645.9l-5.5,0.4c-0.2,0-0.5-0.2-0.5-0.4l-0.4-6.5c0-0.6,0.4-1.2,1.1-1.2l4.2-0.3
				c0.6,0,1.2,0.4,1.2,1.1l0.4,6.5C456.2,645.7,456,645.9,455.8,645.9z M450.6,645.3l4.6-0.3l-0.4-6.1c0-0.1-0.1-0.2-0.2-0.2
				l-4.2,0.3c-0.1,0-0.2,0.1-0.2,0.2L450.6,645.3z"/>
		</g>
		<g>
			<path fill="#6DBCFD" d="M460.2,636.6l0.5,8.2l-15.2,1l-0.5-8.2l-1.2,0.1l0.6,8.7c0,0.3,0.3,0.6,0.6,0.5l16.3-1.1
				c0.3,0,0.6-0.3,0.5-0.6l-0.6-8.7L460.2,636.6z"/>
		</g>
	</g>
</g>
<g>
	<g>
		
			<rect x="452.8" y="776.6" transform="matrix(0.9979 -6.424943e-002 6.424943e-002 0.9979 -49.2886 31.234)" fill="none" width="16.4" height="10.8"/>
		
			<rect x="458.4" y="780" transform="matrix(0.9979 -6.424943e-002 6.424943e-002 0.9979 -49.3914 31.2448)" fill="none" width="5.4" height="7.1"/>
		<path fill="none" d="M452,772.4l16.5-0.9l2.3,3.6c0,0-1.1,5-4.9,1.4c0,0-0.9,1.7-2.5,1.9c-1.6,0.2-2.7-1.9-2.7-1.9
			s-0.9,2.1-2.4,2.1c-1.5,0-2.8-2-2.8-2s-0.7,2.7-2.5,2.5c-1.8-0.1-2.7-2.5-2.7-2.5L452,772.4z"/>
		
			<rect x="452" y="768.4" transform="matrix(0.9979 -6.424943e-002 6.424943e-002 0.9979 -48.529 31.1605)" fill="none" width="16.4" height="3.4"/>
		<path fill="none" d="M453,779.1c1.8,0.1,2.5-2.5,2.5-2.5s1.3,2,2.8,2c1.5,0,2.4-2.1,2.4-2.1s1.1,2.1,2.7,1.9
			c1.6-0.2,2.5-1.9,2.5-1.9c3.4,3.2,4.6-0.4,4.9-1.2l-20.5,1.3C450.4,776.6,451.2,778.9,453,779.1z"/>
		<g>
			<g>
				<g>
					<path fill="#6DBCFD" d="M453.3,779.6c-1.7,0.1-3.2-1.3-3.3-3.1c0-0.1,0-0.1,0-0.2l1.3-4.2c0.1-0.2,0.3-0.4,0.5-0.4l3.5-0.2
						c0.3,0,0.6,0.2,0.6,0.5l0.3,4.1C456.3,778,455,779.5,453.3,779.6z M451.2,776.6c0.1,1.1,1,2,2.1,1.9c1.1-0.1,1.9-1.1,1.8-2.3
						l-0.2-3.5l-2.5,0.2L451.2,776.6z"/>
				</g>
			</g>
			<g>
				<g>
					<path fill="#6DBCFD" d="M458.4,779.3c-1.7,0.1-3.2-1.3-3.3-3.1l-0.3-4.1c0-0.3,0.2-0.6,0.5-0.6l5.1-0.3c0.3,0,0.6,0.2,0.6,0.5
						l0.3,4.1C461.4,777.6,460.1,779.2,458.4,779.3z M456,772.6l0.2,3.5c0.1,1.2,1,2.1,2.1,2c1.1-0.1,1.9-1.1,1.8-2.3l-0.2-3.5
						L456,772.6z"/>
				</g>
			</g>
			<g>
				<g>
					<path fill="#6DBCFD" d="M463.5,779c-1.7,0.1-3.2-1.3-3.3-3.1l-0.3-4.1c0-0.3,0.2-0.6,0.5-0.6l5.1-0.3c0.3,0,0.6,0.2,0.6,0.5
						l0.3,4.1C466.5,777.3,465.2,778.9,463.5,779z M461.1,772.3l0.2,3.5c0.1,1.2,1,2.1,2.1,2c1.1-0.1,1.9-1.1,1.8-2.3l-0.2-3.5
						L461.1,772.3z"/>
				</g>
			</g>
			<g>
				<g>
					<path fill="#6DBCFD" d="M468.5,778.7c-1.7,0.1-3.2-1.3-3.3-3.1l-0.3-4.1c0-0.3,0.2-0.6,0.5-0.6l3.3-0.2c0.2,0,0.4,0.1,0.5,0.3
						l2.1,4c0,0.1,0.1,0.1,0.1,0.2C471.6,777,470.3,778.5,468.5,778.7z M466.1,772l0.2,3.5c0.1,1.2,1,2.1,2.1,2
						c1.1-0.1,1.9-1,1.8-2.2l-1.8-3.5L466.1,772z"/>
				</g>
			</g>
		</g>
		<g>
			<path fill="#3E3B3A" d="M450.2,770.6"/>
		</g>
		<g>
			<path fill="#6DBCFD" d="M468.6,771.9l-16.5,1.1c-0.3,0-0.6-0.2-0.6-0.5l-0.2-3.5c0-0.3,0.2-0.6,0.5-0.6l16.5-1.1
				c0.3,0,0.6,0.2,0.6,0.5l0.2,3.5C469.1,771.6,468.9,771.8,468.6,771.9z M452.6,771.8l15.4-1l-0.2-2.4l-15.4,1L452.6,771.8z"/>
		</g>
		<g>
			<path fill="#6DBCFD" d="M464.1,787.4l-5.5,0.4c-0.2,0-0.5-0.2-0.5-0.4l-0.4-6.5c0-0.6,0.4-1.2,1.1-1.2l4.2-0.3
				c0.6,0,1.2,0.4,1.2,1.1l0.4,6.5C464.5,787.2,464.3,787.4,464.1,787.4z M458.9,786.8l4.6-0.3l-0.4-6.1c0-0.1-0.1-0.2-0.2-0.2
				l-4.2,0.3c-0.1,0-0.2,0.1-0.2,0.2L458.9,786.8z"/>
		</g>
		<g>
			<path fill="#6DBCFD" d="M468.5,778.1l0.5,8.2l-15.2,1l-0.5-8.2l-1.2,0.1l0.6,8.7c0,0.3,0.3,0.6,0.6,0.5l16.3-1.1
				c0.3,0,0.6-0.3,0.5-0.6l-0.6-8.7L468.5,778.1z"/>
		</g>
	</g>
	<g opacity="0.22">
		
			<rect x="451.7" y="777.8" transform="matrix(0.9979 -6.424943e-002 6.424943e-002 0.9979 -49.3683 31.1684)" fill="none" width="16.4" height="10.8"/>
		
			<rect x="457.4" y="781.2" transform="matrix(0.9979 -6.424943e-002 6.424943e-002 0.9979 -49.4711 31.1792)" fill="none" width="5.4" height="7.1"/>
		<path fill="none" d="M451,773.6l16.5-0.9l2.3,3.6c0,0-1.1,5-4.9,1.4c0,0-0.9,1.7-2.5,1.9c-1.6,0.2-2.7-1.9-2.7-1.9
			s-0.9,2.1-2.4,2.1c-1.5,0-2.8-2-2.8-2s-0.7,2.7-2.5,2.5c-1.8-0.1-2.7-2.5-2.7-2.5L451,773.6z"/>
		
			<rect x="451" y="769.6" transform="matrix(0.9979 -6.424943e-002 6.424943e-002 0.9979 -48.6087 31.0949)" fill="none" width="16.4" height="3.4"/>
		<path fill="none" d="M452,780.3c1.8,0.1,2.5-2.5,2.5-2.5s1.3,2,2.8,2c1.5,0,2.4-2.1,2.4-2.1s1.1,2.1,2.7,1.9
			c1.6-0.2,2.5-1.9,2.5-1.9c3.4,3.2,4.6-0.4,4.9-1.2l-20.5,1.3C449.3,777.8,450.2,780.2,452,780.3z"/>
		<g>
			<g>
				<g>
					<path fill="#6DBCFD" d="M452.3,780.8c-1.7,0.1-3.2-1.3-3.3-3.1c0-0.1,0-0.1,0-0.2l1.3-4.2c0.1-0.2,0.3-0.4,0.5-0.4l3.5-0.2
						c0.3,0,0.6,0.2,0.6,0.5l0.3,4.1C455.3,779.2,454,780.7,452.3,780.8z M450.1,777.8c0.1,1.1,1,2,2.1,1.9c1.1-0.1,1.9-1.1,1.8-2.3
						l-0.2-3.5l-2.5,0.2L450.1,777.8z"/>
				</g>
			</g>
			<g>
				<g>
					<path fill="#6DBCFD" d="M457.3,780.5c-1.7,0.1-3.2-1.3-3.3-3.1l-0.3-4.1c0-0.3,0.2-0.6,0.5-0.6l5.1-0.3c0.3,0,0.6,0.2,0.6,0.5
						l0.3,4.1C460.3,778.8,459,780.4,457.3,780.5z M454.9,773.9l0.2,3.5c0.1,1.2,1,2.1,2.1,2c1.1-0.1,1.9-1.1,1.8-2.3l-0.2-3.5
						L454.9,773.9z"/>
				</g>
			</g>
			<g>
				<g>
					<path fill="#6DBCFD" d="M462.4,780.2c-1.7,0.1-3.2-1.3-3.3-3.1l-0.3-4.1c0-0.3,0.2-0.6,0.5-0.6l5.1-0.3c0.3,0,0.6,0.2,0.6,0.5
						l0.3,4.1C465.4,778.5,464.1,780.1,462.4,780.2z M460,773.5l0.2,3.5c0.1,1.2,1,2.1,2.1,2c1.1-0.1,1.9-1.1,1.8-2.3l-0.2-3.5
						L460,773.5z"/>
				</g>
			</g>
			<g>
				<g>
					<path fill="#6DBCFD" d="M467.5,779.9c-1.7,0.1-3.2-1.3-3.3-3.1l-0.3-4.1c0-0.3,0.2-0.6,0.5-0.6l3.3-0.2c0.2,0,0.4,0.1,0.5,0.3
						l2.1,4c0,0.1,0.1,0.1,0.1,0.2C470.5,778.2,469.2,779.7,467.5,779.9z M465.1,773.2l0.2,3.5c0.1,1.2,1,2.1,2.1,2
						c1.1-0.1,1.9-1,1.8-2.2l-1.8-3.5L465.1,773.2z"/>
				</g>
			</g>
		</g>
		<g>
			<path fill="#3E3B3A" d="M449.1,771.9"/>
		</g>
		<g>
			<path fill="#6DBCFD" d="M467.5,773.1l-16.5,1.1c-0.3,0-0.6-0.2-0.6-0.5l-0.2-3.5c0-0.3,0.2-0.6,0.5-0.6l16.5-1.1
				c0.3,0,0.6,0.2,0.6,0.5l0.2,3.5C468.1,772.8,467.8,773,467.5,773.1z M451.5,773l15.4-1l-0.2-2.4l-15.4,1L451.5,773z"/>
		</g>
		<g>
			<path fill="#6DBCFD" d="M463,788.6l-5.5,0.4c-0.2,0-0.5-0.2-0.5-0.4l-0.4-6.5c0-0.6,0.4-1.2,1.1-1.2l4.2-0.3
				c0.6,0,1.2,0.4,1.2,1.1l0.4,6.5C463.5,788.4,463.3,788.6,463,788.6z M457.9,788l4.6-0.3l-0.4-6.1c0-0.1-0.1-0.2-0.2-0.2l-4.2,0.3
				c-0.1,0-0.2,0.1-0.2,0.2L457.9,788z"/>
		</g>
		<g>
			<path fill="#6DBCFD" d="M467.4,779.3l0.5,8.2l-15.2,1l-0.5-8.2l-1.2,0.1l0.6,8.7c0,0.3,0.3,0.6,0.6,0.5l16.3-1.1
				c0.3,0,0.6-0.3,0.5-0.6l-0.6-8.7L467.4,779.3z"/>
		</g>
	</g>
</g>
<g>
	<g>
		
			<rect x="128.1" y="203.3" transform="matrix(0.9979 -6.424943e-002 6.424943e-002 0.9979 -13.1281 9.189)" fill="none" width="16.4" height="10.8"/>
		
			<rect x="133.7" y="206.8" transform="matrix(0.9979 -6.424943e-002 6.424943e-002 0.9979 -13.231 9.1998)" fill="none" width="5.4" height="7.1"/>
		<path fill="none" d="M127.4,199.1l16.5-0.9l2.3,3.6c0,0-1.1,5-4.9,1.4c0,0-0.9,1.7-2.5,1.9c-1.6,0.2-2.7-1.9-2.7-1.9
			s-0.9,2.1-2.4,2.1c-1.5,0-2.8-2-2.8-2s-0.7,2.7-2.5,2.5c-1.8-0.1-2.7-2.5-2.7-2.5L127.4,199.1z"/>
		
			<rect x="127.3" y="195.1" transform="matrix(0.9979 -6.424943e-002 6.424943e-002 0.9979 -12.3685 9.1155)" fill="none" width="16.4" height="3.4"/>
		<path fill="none" d="M128.4,205.8c1.8,0.1,2.5-2.5,2.5-2.5s1.3,2,2.8,2c1.5,0,2.4-2.1,2.4-2.1s1.1,2.1,2.7,1.9
			c1.6-0.2,2.5-1.9,2.5-1.9c3.4,3.2,4.6-0.4,4.9-1.2l-20.5,1.3C125.7,203.4,126.6,205.7,128.4,205.8z"/>
		<g>
			<g>
				<g>
					<path fill="#6DBCFD" d="M128.6,206.4c-1.7,0.1-3.2-1.3-3.3-3.1c0-0.1,0-0.1,0-0.2l1.3-4.2c0.1-0.2,0.3-0.4,0.5-0.4l3.5-0.2
						c0.3,0,0.6,0.2,0.6,0.5l0.3,4.1C131.7,204.7,130.4,206.3,128.6,206.4z M126.5,203.3c0.1,1.1,1,2,2.1,1.9
						c1.1-0.1,1.9-1.1,1.8-2.3l-0.2-3.5l-2.5,0.2L126.5,203.3z"/>
				</g>
			</g>
			<g>
				<g>
					<path fill="#6DBCFD" d="M133.7,206c-1.7,0.1-3.2-1.3-3.3-3.1l-0.3-4.1c0-0.3,0.2-0.6,0.5-0.6l5.1-0.3c0.3,0,0.6,0.2,0.6,0.5
						l0.3,4.1C136.7,204.4,135.4,205.9,133.7,206z M131.3,199.4l0.2,3.5c0.1,1.2,1,2.1,2.1,2c1.1-0.1,1.9-1.1,1.8-2.3l-0.2-3.5
						L131.3,199.4z"/>
				</g>
			</g>
			<g>
				<g>
					<path fill="#6DBCFD" d="M138.8,205.7c-1.7,0.1-3.2-1.3-3.3-3.1l-0.3-4.1c0-0.3,0.2-0.6,0.5-0.6l5.1-0.3c0.3,0,0.6,0.2,0.6,0.5
						l0.3,4.1C141.8,204,140.5,205.6,138.8,205.7z M136.4,199.1l0.2,3.5c0.1,1.2,1,2.1,2.1,2c1.1-0.1,1.9-1.1,1.8-2.3l-0.2-3.5
						L136.4,199.1z"/>
				</g>
			</g>
			<g>
				<g>
					<path fill="#6DBCFD" d="M143.9,205.4c-1.7,0.1-3.2-1.3-3.3-3.1l-0.3-4.1c0-0.3,0.2-0.6,0.5-0.6l3.3-0.2c0.2,0,0.4,0.1,0.5,0.3
						l2.1,4c0,0.1,0.1,0.1,0.1,0.2C146.9,203.7,145.6,205.3,143.9,205.4z M141.5,198.7l0.2,3.5c0.1,1.2,1,2.1,2.1,2
						c1.1-0.1,1.9-1,1.8-2.2l-1.8-3.5L141.5,198.7z"/>
				</g>
			</g>
		</g>
		<g>
			<path fill="#3E3B3A" d="M125.5,197.4"/>
		</g>
		<g>
			<path fill="#6DBCFD" d="M143.9,198.6l-16.5,1.1c-0.3,0-0.6-0.2-0.6-0.5l-0.2-3.5c0-0.3,0.2-0.6,0.5-0.6l16.5-1.1
				c0.3,0,0.6,0.2,0.6,0.5l0.2,3.5C144.5,198.3,144.2,198.6,143.9,198.6z M127.9,198.5l15.4-1l-0.2-2.4l-15.4,1L127.9,198.5z"/>
		</g>
		<g>
			<path fill="#6DBCFD" d="M139.4,214.1l-5.5,0.4c-0.2,0-0.5-0.2-0.5-0.4l-0.4-6.5c0-0.6,0.4-1.2,1.1-1.2l4.2-0.3
				c0.6,0,1.2,0.4,1.2,1.1l0.4,6.5C139.8,213.9,139.7,214.1,139.4,214.1z M134.3,213.6l4.6-0.3l-0.4-6.1c0-0.1-0.1-0.2-0.2-0.2
				l-4.2,0.3c-0.1,0-0.2,0.1-0.2,0.2L134.3,213.6z"/>
		</g>
		<g>
			<path fill="#6DBCFD" d="M143.8,204.8l0.5,8.2l-15.2,1l-0.5-8.2l-1.2,0.1l0.6,8.7c0,0.3,0.3,0.6,0.6,0.5l16.3-1.1
				c0.3,0,0.6-0.3,0.5-0.6l-0.6-8.7L143.8,204.8z"/>
		</g>
	</g>
	<g opacity="0.22">
		
			<rect x="127" y="204.5" transform="matrix(0.9979 -6.424943e-002 6.424943e-002 0.9979 -13.2078 9.1234)" fill="none" width="16.4" height="10.8"/>
		
			<rect x="132.7" y="208" transform="matrix(0.9979 -6.424943e-002 6.424943e-002 0.9979 -13.3106 9.1342)" fill="none" width="5.4" height="7.1"/>
		<path fill="none" d="M126.3,200.3l16.5-0.9l2.3,3.6c0,0-1.1,5-4.9,1.4c0,0-0.9,1.7-2.5,1.9c-1.6,0.2-2.7-1.9-2.7-1.9
			s-0.9,2.1-2.4,2.1c-1.5,0-2.8-2-2.8-2s-0.7,2.7-2.5,2.5c-1.8-0.1-2.7-2.5-2.7-2.5L126.3,200.3z"/>
		
			<rect x="126.3" y="196.4" transform="matrix(0.9979 -6.424943e-002 6.424943e-002 0.9979 -12.4482 9.0499)" fill="none" width="16.4" height="3.4"/>
		<path fill="none" d="M127.3,207c1.8,0.1,2.5-2.5,2.5-2.5s1.3,2,2.8,2c1.5,0,2.4-2.1,2.4-2.1s1.1,2.1,2.7,1.9
			c1.6-0.2,2.5-1.9,2.5-1.9c3.4,3.2,4.6-0.4,4.9-1.2l-20.5,1.3C124.6,204.6,125.5,206.9,127.3,207z"/>
		<g>
			<g>
				<g>
					<path fill="#6DBCFD" d="M127.6,207.6c-1.7,0.1-3.2-1.3-3.3-3.1c0-0.1,0-0.1,0-0.2l1.3-4.2c0.1-0.2,0.3-0.4,0.5-0.4l3.5-0.2
						c0.3,0,0.6,0.2,0.6,0.5l0.3,4.1C130.6,205.9,129.3,207.5,127.6,207.6z M125.4,204.5c0.1,1.1,1,2,2.1,1.9
						c1.1-0.1,1.9-1.1,1.8-2.3l-0.2-3.5l-2.5,0.2L125.4,204.5z"/>
				</g>
			</g>
			<g>
				<g>
					<path fill="#6DBCFD" d="M132.7,207.3c-1.7,0.1-3.2-1.3-3.3-3.1l-0.3-4.1c0-0.3,0.2-0.6,0.5-0.6l5.1-0.3c0.3,0,0.6,0.2,0.6,0.5
						l0.3,4.1C135.7,205.6,134.4,207.1,132.7,207.3z M130.2,200.6l0.2,3.5c0.1,1.2,1,2.1,2.1,2c1.1-0.1,1.9-1.1,1.8-2.3l-0.2-3.5
						L130.2,200.6z"/>
				</g>
			</g>
			<g>
				<g>
					<path fill="#6DBCFD" d="M137.7,206.9c-1.7,0.1-3.2-1.3-3.3-3.1l-0.3-4.1c0-0.3,0.2-0.6,0.5-0.6l5.1-0.3c0.3,0,0.6,0.2,0.6,0.5
						l0.3,4.1C140.7,205.3,139.4,206.8,137.7,206.9z M135.3,200.3l0.2,3.5c0.1,1.2,1,2.1,2.1,2c1.1-0.1,1.9-1.1,1.8-2.3l-0.2-3.5
						L135.3,200.3z"/>
				</g>
			</g>
			<g>
				<g>
					<path fill="#6DBCFD" d="M142.8,206.6c-1.7,0.1-3.2-1.3-3.3-3.1l-0.3-4.1c0-0.3,0.2-0.6,0.5-0.6l3.3-0.2c0.2,0,0.4,0.1,0.5,0.3
						l2.1,4c0,0.1,0.1,0.1,0.1,0.2C145.8,204.9,144.5,206.5,142.8,206.6z M140.4,199.9l0.2,3.5c0.1,1.2,1,2.1,2.1,2
						c1.1-0.1,1.9-1,1.8-2.2l-1.8-3.5L140.4,199.9z"/>
				</g>
			</g>
		</g>
		<g>
			<path fill="#3E3B3A" d="M124.5,198.6"/>
		</g>
		<g>
			<path fill="#6DBCFD" d="M142.9,199.8l-16.5,1.1c-0.3,0-0.6-0.2-0.6-0.5l-0.2-3.5c0-0.3,0.2-0.6,0.5-0.6l16.5-1.1
				c0.3,0,0.6,0.2,0.6,0.5l0.2,3.5C143.4,199.5,143.2,199.8,142.9,199.8z M126.8,199.7l15.4-1l-0.2-2.4l-15.4,1L126.8,199.7z"/>
		</g>
		<g>
			<path fill="#6DBCFD" d="M138.3,215.3l-5.5,0.4c-0.2,0-0.5-0.2-0.5-0.4l-0.4-6.5c0-0.6,0.4-1.2,1.1-1.2l4.2-0.3
				c0.6,0,1.2,0.4,1.2,1.1l0.4,6.5C138.8,215.1,138.6,215.3,138.3,215.3z M133.2,214.8l4.6-0.3l-0.4-6.1c0-0.1-0.1-0.2-0.2-0.2
				l-4.2,0.3c-0.1,0-0.2,0.1-0.2,0.2L133.2,214.8z"/>
		</g>
		<g>
			<path fill="#6DBCFD" d="M142.7,206l0.5,8.2l-15.2,1l-0.5-8.2l-1.2,0.1l0.6,8.7c0,0.3,0.3,0.6,0.6,0.5l16.3-1.1
				c0.3,0,0.6-0.3,0.5-0.6l-0.6-8.7L142.7,206z"/>
		</g>
	</g>
</g>
<g>
	<circle id="XMLID_1_" opacity="0.27" fill="#6DBCFD" cx="405.9" cy="457.5" r="10.2"/>
</g>
<g>
	<circle id="XMLID_9_" opacity="0.27" fill="#6DBCFD" cx="542" cy="521.6" r="10.2"/>
</g>
<g>
	<circle id="XMLID_10_" opacity="0.27" fill="#6DBCFD" cx="572.3" cy="566.6" r="10.2"/>
</g>
<g>
	<circle id="XMLID_11_" opacity="0.27" fill="#6DBCFD" cx="407.1" cy="578.9" r="10.2"/>
</g>
<g>
	<circle id="XMLID_12_" opacity="0.27" fill="#6DBCFD" cx="397" cy="692.6" r="10.2"/>
</g>
<g>
	<circle id="XMLID_13_" opacity="0.27" fill="#6DBCFD" cx="525.6" cy="695.6" r="10.2"/>
</g>
<g>
	<circle id="XMLID_14_" opacity="0.27" fill="#6DBCFD" cx="433.9" cy="722.7" r="10.2"/>
</g>
<g>
	<circle id="XMLID_2_" opacity="0.27" fill="#6DBCFD" cx="355.6" cy="344.7" r="10.2"/>
</g>
<g>
	<circle id="XMLID_3_" opacity="0.27" fill="#6DBCFD" cx="313.3" cy="283.8" r="10.2"/>
</g>
<g>
	<circle id="XMLID_5_" opacity="0.27" fill="#6DBCFD" cx="386.9" cy="205.8" r="10.2"/>
</g>
<g>
	<circle id="XMLID_6_" opacity="0.27" fill="#6DBCFD" cx="264.8" cy="126.9" r="10.2"/>
</g>
<g>
	<circle id="XMLID_7_" opacity="0.27" fill="#6DBCFD" cx="218.9" cy="77.4" r="10.2"/>
</g>
<g>
	<circle id="XMLID_8_" opacity="0.27" fill="#6DBCFD" cx="209.8" cy="31.1" r="10.2"/>
</g>
<g>
	<circle id="XMLID_4_" opacity="0.27" fill="#6DBCFD" cx="180.4" cy="231.7" r="10.2"/>
</g>
</svg>
