<?xml version="1.0" encoding="utf-8"?>
<!-- Generator: Adobe Illustrator 17.1.0, SVG Export Plug-In . SVG Version: 6.00 Build 0)  -->
<!DOCTYPE svg PUBLIC "-//W3C//DTD SVG 1.1//EN" "http://www.w3.org/Graphics/SVG/1.1/DTD/svg11.dtd">
<svg version="1.1" id="Слой_1" xmlns="http://www.w3.org/2000/svg" xmlns:xlink="http://www.w3.org/1999/xlink" x="0px" y="0px"
	 viewBox="0 0 461.8 325" enable-background="new 0 0 461.8 325" xml:space="preserve">
<line fill="none" stroke="#6DBCFD" stroke-width="5.966" stroke-miterlimit="10" x1="370.2" y1="127.3" x2="437.5" y2="127.3"/>
<polyline fill="none" stroke="#6DBCFD" stroke-width="5.966" stroke-miterlimit="10" points="252.5,189.2 412.5,202.8 310.7,95.4 
	"/>
<polyline fill="none" stroke="#6DBCFD" stroke-width="5.966" stroke-miterlimit="10" points="154.5,185.1 251.5,187.5 306.5,98.3 
	344.5,312.4 412.5,206.4 296.1,266.7 "/>
<polyline fill="none" stroke="#6DBCFD" stroke-width="5.966" stroke-miterlimit="10" points="51.2,268.4 152,182.1 55.7,149.7 "/>
<polygon fill="none" stroke="#6DBCFD" stroke-width="5.966" stroke-miterlimit="10" points="152,182.1 197.1,79.4 306.5,93 "/>
<polygon fill="none" stroke="#6DBCFD" stroke-width="5.966" stroke-miterlimit="10" points="51.2,149.7 197.1,79.4 279,39.2 
	306.5,93 372.7,130.8 406.7,26.4 440.1,126.3 417.1,206.4 417.1,291.5 344.5,310.4 296.1,268.4 251.5,187.5 170.9,268.4 51.2,272.6 
	"/>
<circle fill="#FFFFFF" stroke="#6DBCFD" stroke-width="5.4139" stroke-miterlimit="10" cx="51.2" cy="149.1" r="35.4"/>
<circle fill="#FFFFFF" stroke="#6DBCFD" stroke-width="5.4139" stroke-miterlimit="10" cx="197.1" cy="79.4" r="35.4"/>
<circle fill="#FFFFFF" stroke="#6DBCFD" stroke-width="5.4139" stroke-miterlimit="10" cx="251.5" cy="187.5" r="35.4"/>
<path fill="#FFFFFF" stroke="#6DBCFD" stroke-width="5.966" stroke-miterlimit="10" d="M325.1,89.3c2.5,13.3-8.9,24.8-22.2,22.2
	c-7.4-1.4-13.4-7.4-14.8-14.8c-2.5-13.3,8.9-24.8,22.2-22.2C317.6,75.8,323.7,81.9,325.1,89.3z"/>
<path fill="#FFFFFF" stroke="#6DBCFD" stroke-width="5.966" stroke-miterlimit="10" d="M435.6,202.7c2.5,13.3-8.9,24.8-22.2,22.2
	c-7.4-1.4-13.4-7.4-14.8-14.8c-2.5-13.3,8.9-24.8,22.2-22.2C428.2,189.2,434.2,195.3,435.6,202.7z"/>
<path fill="#FFFFFF" stroke="#6DBCFD" stroke-width="5.966" stroke-miterlimit="10" d="M435.6,287.8c2.5,13.3-8.9,24.8-22.2,22.2
	c-7.4-1.4-13.4-7.4-14.8-14.8c-2.5-13.3,8.9-24.8,22.2-22.2C428.2,274.4,434.2,280.4,435.6,287.8z"/>
<path fill="#FFFFFF" stroke="#6DBCFD" stroke-width="5.966" stroke-miterlimit="10" d="M69.7,268.9c2.5,13.3-8.9,24.8-22.2,22.2
	c-7.4-1.4-13.4-7.4-14.8-14.8c-2.5-13.3,8.9-24.8,22.2-22.2C62.3,255.5,68.3,261.5,69.7,268.9z"/>
<path fill="#FFFFFF" stroke="#6DBCFD" stroke-width="5.966" stroke-miterlimit="10" d="M170.6,178.4c2.5,13.3-8.9,24.8-22.2,22.2
	c-7.4-1.4-13.4-7.4-14.8-14.8c-2.5-13.3,8.9-24.8,22.2-22.2C163.1,164.9,169.2,171,170.6,178.4z"/>
<circle fill="#6DBCFD" cx="279" cy="34.9" r="8.6"/>
<circle fill="#6DBCFD" cx="372.7" cy="127.3" r="8.6"/>
<circle fill="#6DBCFD" cx="406.7" cy="26.4" r="8.6"/>
<circle fill="#6DBCFD" cx="440.1" cy="126.3" r="8.6"/>
<circle fill="#6DBCFD" cx="344.5" cy="310.4" r="8.6"/>
<circle fill="#6DBCFD" cx="170.9" cy="268.4" r="8.6"/>
<circle fill="#6DBCFD" cx="296.1" cy="268.4" r="8.6"/>
<g>
	<g>
		
			<rect x="183.3" y="76" transform="matrix(0.9979 -6.424943e-002 6.424943e-002 0.9979 -5.1162 12.9383)" fill="none" width="30.6" height="20"/>
		
			<rect x="193.8" y="82.4" transform="matrix(0.9979 -6.424943e-002 6.424943e-002 0.9979 -5.3077 12.9584)" fill="none" width="10" height="13.2"/>
		<path fill="none" d="M181.9,68.1l30.7-1.6l4.4,6.7c0,0-2,9.3-9.1,2.6c0,0-1.7,3.2-4.7,3.5c-3,0.3-5-3.6-5-3.6s-1.7,3.9-4.5,3.9
			c-2.8,0-5.2-3.8-5.2-3.8s-1.3,4.9-4.7,4.7c-3.4-0.3-5-4.6-5-4.6L181.9,68.1z"/>
		
			<rect x="181.9" y="60.8" transform="matrix(0.9979 -6.424943e-002 6.424943e-002 0.9979 -3.7015 12.8014)" fill="none" width="30.6" height="6.4"/>
		<path fill="none" d="M183.8,80.6c3.4,0.3,4.7-4.7,4.7-4.7s2.4,3.8,5.2,3.8c2.8,0,4.5-3.9,4.5-3.9s2,3.9,5,3.6
			c3-0.3,4.7-3.5,4.7-3.5c6.3,5.9,8.6-0.7,9.1-2.3L178.9,76C178.9,76,180.4,80.4,183.8,80.6z"/>
		<g>
			<g>
				<g>
					<path fill="#6DBCFD" d="M184.3,81.7c-3.2,0.2-6-2.4-6.2-5.7c0-0.1,0-0.3,0-0.4l2.5-7.8c0.1-0.4,0.5-0.7,0.9-0.7l6.5-0.4
						c0.6,0,1.1,0.4,1.1,1l0.5,7.6C189.9,78.5,187.5,81.5,184.3,81.7z M180.3,76c0.2,2.1,1.9,3.7,3.9,3.6c2-0.1,3.6-2,3.4-4.2
						l-0.4-6.5l-4.7,0.3L180.3,76z"/>
				</g>
			</g>
			<g>
				<g>
					<path fill="#6DBCFD" d="M193.8,81.1c-3.2,0.2-6-2.4-6.2-5.7l-0.5-7.6c0-0.6,0.4-1.1,1-1.1l9.4-0.6c0.6,0,1.1,0.4,1.1,1l0.5,7.6
						C199.4,77.9,197,80.8,193.8,81.1z M189.3,68.7l0.4,6.5c0.1,2.2,1.9,3.9,3.9,3.8c2-0.1,3.6-2,3.4-4.2l-0.4-6.5L189.3,68.7z"/>
				</g>
			</g>
			<g>
				<g>
					<path fill="#6DBCFD" d="M203.2,80.4c-3.2,0.2-6-2.4-6.2-5.7l-0.5-7.6c0-0.6,0.4-1.1,1-1.1l9.4-0.6c0.6,0,1.1,0.4,1.1,1l0.5,7.6
						C208.8,77.3,206.4,80.2,203.2,80.4z M198.7,68l0.4,6.5c0.1,2.2,1.9,3.9,3.9,3.8c2-0.1,3.6-2,3.4-4.2l-0.4-6.5L198.7,68z"/>
				</g>
			</g>
			<g>
				<g>
					<path fill="#6DBCFD" d="M212.7,79.8c-3.2,0.2-6-2.4-6.2-5.7l-0.5-7.6c0-0.6,0.4-1.1,1-1.1l6.1-0.4c0.4,0,0.8,0.2,1,0.6l3.9,7.4
						c0.1,0.1,0.1,0.3,0.1,0.4C218.3,76.7,215.9,79.6,212.7,79.8z M208.2,67.4l0.4,6.5c0.1,2.2,1.9,3.9,3.9,3.8c2-0.1,3.5-1.9,3.4-4
						l-3.4-6.5L208.2,67.4z"/>
				</g>
			</g>
		</g>
		<g>
			<path fill="#3E3B3A" d="M178.5,64.9"/>
		</g>
		<g>
			<path fill="#6DBCFD" d="M212.8,67.2l-30.8,2c-0.6,0-1.1-0.4-1.1-1l-0.4-6.5c0-0.6,0.4-1.1,1-1.1l30.8-2c0.6,0,1.1,0.4,1.1,1
				l0.4,6.5C213.8,66.7,213.4,67.2,212.8,67.2z M182.9,67l28.7-1.8l-0.3-4.4l-28.7,1.8L182.9,67z"/>
		</g>
		<g>
			<path fill="#6DBCFD" d="M204.4,96.1L194,96.8c-0.5,0-0.9-0.3-0.9-0.8l-0.8-12.2c-0.1-1.2,0.8-2.2,2-2.2l7.8-0.5
				c1.2-0.1,2.2,0.8,2.2,2l0.8,12.2C205.2,95.7,204.8,96.1,204.4,96.1z M194.8,95.1l8.6-0.6l-0.7-11.3c0-0.2-0.2-0.4-0.4-0.4
				l-7.8,0.5c-0.2,0-0.4,0.2-0.4,0.4L194.8,95.1z"/>
		</g>
		<g>
			<path fill="#6DBCFD" d="M212.6,78.8l1,15.2l-28.3,1.8l-1-15.2l-2.2,0.1l1,16.3c0,0.6,0.6,1.1,1.2,1l30.4-2c0.6,0,1.1-0.6,1-1.2
				l-1-16.3L212.6,78.8z"/>
		</g>
	</g>
	<g opacity="0.22">
		
			<rect x="181.3" y="78.2" transform="matrix(0.9979 -6.424943e-002 6.424943e-002 0.9979 -5.2646 12.816)" fill="none" width="30.6" height="20"/>
		
			<rect x="191.9" y="84.6" transform="matrix(0.9979 -6.424943e-002 6.424943e-002 0.9979 -5.4561 12.8362)" fill="none" width="10" height="13.2"/>
		<path fill="none" d="M180,70.4l30.7-1.6l4.4,6.7c0,0-2,9.3-9.1,2.6c0,0-1.7,3.2-4.7,3.5c-3,0.3-5-3.6-5-3.6s-1.7,3.9-4.5,3.9
			c-2.8,0-5.2-3.8-5.2-3.8s-1.3,4.9-4.7,4.7c-3.4-0.3-5-4.6-5-4.6L180,70.4z"/>
		
			<rect x="179.9" y="63" transform="matrix(0.9979 -6.424943e-002 6.424943e-002 0.9979 -3.8499 12.6792)" fill="none" width="30.6" height="6.4"/>
		<path fill="none" d="M181.8,82.9c3.4,0.3,4.7-4.7,4.7-4.7s2.4,3.8,5.2,3.8c2.8,0,4.5-3.9,4.5-3.9s2,3.9,5,3.6
			c3-0.3,4.7-3.5,4.7-3.5c6.3,5.9,8.6-0.7,9.1-2.3l-38.1,2.5C176.9,78.3,178.5,82.6,181.8,82.9z"/>
		<g>
			<g>
				<g>
					<path fill="#6DBCFD" d="M182.4,83.9c-3.2,0.2-6-2.4-6.2-5.7c0-0.1,0-0.3,0-0.4l2.5-7.8c0.1-0.4,0.5-0.7,0.9-0.7l6.5-0.4
						c0.6,0,1.1,0.4,1.1,1l0.5,7.6C188,80.8,185.5,83.7,182.4,83.9z M178.3,78.2c0.2,2.1,1.9,3.7,3.9,3.6c2-0.1,3.6-2,3.4-4.2
						l-0.4-6.5l-4.7,0.3L178.3,78.2z"/>
				</g>
			</g>
			<g>
				<g>
					<path fill="#6DBCFD" d="M191.8,83.3c-3.2,0.2-6-2.4-6.2-5.7l-0.5-7.6c0-0.6,0.4-1.1,1-1.1l9.4-0.6c0.6,0,1.1,0.4,1.1,1l0.5,7.6
						C197.4,80.2,195,83.1,191.8,83.3z M187.3,70.9l0.4,6.5c0.1,2.2,1.9,3.9,3.9,3.8c2-0.1,3.6-2,3.4-4.2l-0.4-6.5L187.3,70.9z"/>
				</g>
			</g>
			<g>
				<g>
					<path fill="#6DBCFD" d="M201.3,82.7c-3.2,0.2-6-2.4-6.2-5.7l-0.5-7.6c0-0.6,0.4-1.1,1-1.1l9.4-0.6c0.6,0,1.1,0.4,1.1,1l0.5,7.6
						C206.9,79.6,204.4,82.5,201.3,82.7z M196.8,70.3l0.4,6.5c0.1,2.2,1.9,3.9,3.9,3.8c2-0.1,3.6-2,3.4-4.2l-0.4-6.5L196.8,70.3z"/>
				</g>
			</g>
			<g>
				<g>
					<path fill="#6DBCFD" d="M210.7,82.1c-3.2,0.2-6-2.4-6.2-5.7l-0.5-7.6c0-0.6,0.4-1.1,1-1.1l6.1-0.4c0.4,0,0.8,0.2,1,0.6l3.9,7.4
						c0.1,0.1,0.1,0.3,0.1,0.4C216.3,79,213.9,81.9,210.7,82.1z M206.2,69.7l0.4,6.5c0.1,2.2,1.9,3.9,3.9,3.8c2-0.1,3.5-1.9,3.4-4
						l-3.4-6.5L206.2,69.7z"/>
				</g>
			</g>
		</g>
		<g>
			<path fill="#3E3B3A" d="M176.5,67.2"/>
		</g>
		<g>
			<path fill="#6DBCFD" d="M210.8,69.4l-30.8,2c-0.6,0-1.1-0.4-1.1-1l-0.4-6.5c0-0.6,0.4-1.1,1-1.1l30.8-2c0.6,0,1.1,0.4,1.1,1
				l0.4,6.5C211.8,68.9,211.4,69.4,210.8,69.4z M180.9,69.2l28.7-1.8l-0.3-4.4l-28.7,1.8L180.9,69.2z"/>
		</g>
		<g>
			<path fill="#6DBCFD" d="M202.4,98.4L192.1,99c-0.5,0-0.9-0.3-0.9-0.8l-0.8-12.2c-0.1-1.2,0.8-2.2,2-2.2l7.8-0.5
				c1.2-0.1,2.2,0.8,2.2,2l0.8,12.2C203.2,97.9,202.9,98.3,202.4,98.4z M192.8,97.3l8.6-0.6l-0.7-11.3c0-0.2-0.2-0.4-0.4-0.4
				l-7.8,0.5c-0.2,0-0.4,0.2-0.4,0.4L192.8,97.3z"/>
		</g>
		<g>
			<path fill="#6DBCFD" d="M210.6,81l1,15.2L183.3,98l-1-15.2l-2.2,0.1l1,16.3c0,0.6,0.6,1.1,1.2,1l30.4-2c0.6,0,1.1-0.6,1-1.2
				l-1-16.3L210.6,81z"/>
		</g>
	</g>
</g>
<g>
	<g>
		
			<rect x="237.5" y="185.7" transform="matrix(0.9979 -6.424943e-002 6.424943e-002 0.9979 -12.0505 16.6442)" fill="none" width="30.6" height="20"/>
		
			<rect x="248" y="192.1" transform="matrix(0.9979 -6.424943e-002 6.424943e-002 0.9979 -12.242 16.6643)" fill="none" width="10" height="13.2"/>
		<path fill="none" d="M236.1,177.8l30.7-1.6l4.4,6.7c0,0-2,9.3-9.1,2.6c0,0-1.7,3.2-4.7,3.5c-3,0.3-5-3.6-5-3.6s-1.7,3.9-4.5,3.9
			c-2.8,0-5.2-3.8-5.2-3.8s-1.3,4.9-4.7,4.7c-3.4-0.3-5-4.6-5-4.6L236.1,177.8z"/>
		
			<rect x="236.1" y="170.4" transform="matrix(0.9979 -6.424943e-002 6.424943e-002 0.9979 -10.6358 16.5073)" fill="none" width="30.6" height="6.4"/>
		<path fill="none" d="M238,190.3c3.4,0.3,4.7-4.7,4.7-4.7s2.4,3.8,5.2,3.8c2.8,0,4.5-3.9,4.5-3.9s2,3.9,5,3.6
			c3-0.3,4.7-3.5,4.7-3.5c6.3,5.9,8.6-0.7,9.1-2.3l-38.1,2.5C233,185.7,234.6,190.1,238,190.3z"/>
		<g>
			<g>
				<g>
					<path fill="#6DBCFD" d="M238.5,191.3c-3.2,0.2-6-2.4-6.2-5.7c0-0.1,0-0.3,0-0.4l2.5-7.8c0.1-0.4,0.5-0.7,0.9-0.7l6.5-0.4
						c0.6,0,1.1,0.4,1.1,1l0.5,7.6C244.1,188.2,241.7,191.1,238.5,191.3z M234.4,185.6c0.2,2.1,1.9,3.7,3.9,3.6c2-0.1,3.6-2,3.4-4.2
						l-0.4-6.5l-4.7,0.3L234.4,185.6z"/>
				</g>
			</g>
			<g>
				<g>
					<path fill="#6DBCFD" d="M247.9,190.7c-3.2,0.2-6-2.4-6.2-5.7l-0.5-7.6c0-0.6,0.4-1.1,1-1.1l9.4-0.6c0.6,0,1.1,0.4,1.1,1
						l0.5,7.6C253.5,187.6,251.1,190.5,247.9,190.7z M243.5,178.3l0.4,6.5c0.1,2.2,1.9,3.9,3.9,3.8c2-0.1,3.6-2,3.4-4.2l-0.4-6.5
						L243.5,178.3z"/>
				</g>
			</g>
			<g>
				<g>
					<path fill="#6DBCFD" d="M257.4,190.1c-3.2,0.2-6-2.4-6.2-5.7l-0.5-7.6c0-0.6,0.4-1.1,1-1.1l9.4-0.6c0.6,0,1.1,0.4,1.1,1
						l0.5,7.6C263,187,260.6,189.9,257.4,190.1z M252.9,177.7l0.4,6.5c0.1,2.2,1.9,3.9,3.9,3.8c2-0.1,3.6-2,3.4-4.2l-0.4-6.5
						L252.9,177.7z"/>
				</g>
			</g>
			<g>
				<g>
					<path fill="#6DBCFD" d="M266.8,189.5c-3.2,0.2-6-2.4-6.2-5.7l-0.5-7.6c0-0.6,0.4-1.1,1-1.1l6.1-0.4c0.4,0,0.8,0.2,1,0.6
						l3.9,7.4c0.1,0.1,0.1,0.3,0.1,0.4C272.4,186.4,270,189.3,266.8,189.5z M262.3,177.1l0.4,6.5c0.1,2.2,1.9,3.9,3.9,3.8
						c2-0.1,3.5-1.9,3.4-4l-3.4-6.5L262.3,177.1z"/>
				</g>
			</g>
		</g>
		<g>
			<path fill="#3E3B3A" d="M232.7,174.6"/>
		</g>
		<g>
			<path fill="#6DBCFD" d="M266.9,176.9l-30.8,2c-0.6,0-1.1-0.4-1.1-1l-0.4-6.5c0-0.6,0.4-1.1,1-1.1l30.8-2c0.6,0,1.1,0.4,1.1,1
				l0.4,6.5C267.9,176.3,267.5,176.8,266.9,176.9z M237.1,176.7l28.7-1.8l-0.3-4.4l-28.7,1.8L237.1,176.7z"/>
		</g>
		<g>
			<path fill="#6DBCFD" d="M258.5,205.8l-10.3,0.7c-0.5,0-0.9-0.3-0.9-0.8l-0.8-12.2c-0.1-1.2,0.8-2.2,2-2.2l7.8-0.5
				c1.2-0.1,2.2,0.8,2.2,2l0.8,12.2C259.3,205.4,259,205.8,258.5,205.8z M248.9,204.7l8.6-0.6l-0.7-11.3c0-0.2-0.2-0.4-0.4-0.4
				l-7.8,0.5c-0.2,0-0.4,0.2-0.4,0.4L248.9,204.7z"/>
		</g>
		<g>
			<path fill="#6DBCFD" d="M266.7,188.5l1,15.2l-28.3,1.8l-1-15.2l-2.2,0.1l1,16.3c0,0.6,0.6,1.1,1.2,1l30.4-2c0.6,0,1.1-0.6,1-1.2
				l-1-16.3L266.7,188.5z"/>
		</g>
	</g>
	<g opacity="0.22">
		
			<rect x="235.5" y="187.9" transform="matrix(0.9979 -6.424943e-002 6.424943e-002 0.9979 -12.1989 16.522)" fill="none" width="30.6" height="20"/>
		
			<rect x="246" y="194.3" transform="matrix(0.9979 -6.424943e-002 6.424943e-002 0.9979 -12.3904 16.5421)" fill="none" width="10" height="13.2"/>
		<path fill="none" d="M234.1,180.1l30.7-1.6l4.4,6.7c0,0-2,9.3-9.1,2.6c0,0-1.7,3.2-4.7,3.5c-3,0.3-5-3.6-5-3.6s-1.7,3.9-4.5,3.9
			c-2.8,0-5.2-3.8-5.2-3.8s-1.3,4.9-4.7,4.7c-3.4-0.3-5-4.6-5-4.6L234.1,180.1z"/>
		
			<rect x="234.1" y="172.7" transform="matrix(0.9979 -6.424943e-002 6.424943e-002 0.9979 -10.7842 16.3851)" fill="none" width="30.6" height="6.4"/>
		<path fill="none" d="M236,192.6c3.4,0.3,4.7-4.7,4.7-4.7s2.4,3.8,5.2,3.8c2.8,0,4.5-3.9,4.5-3.9s2,3.9,5,3.6
			c3-0.3,4.7-3.5,4.7-3.5c6.3,5.9,8.6-0.7,9.1-2.3l-38.1,2.5C231,187.9,232.6,192.3,236,192.6z"/>
		<g>
			<g>
				<g>
					<path fill="#6DBCFD" d="M236.5,193.6c-3.2,0.2-6-2.4-6.2-5.7c0-0.1,0-0.3,0-0.4l2.5-7.8c0.1-0.4,0.5-0.7,0.9-0.7l6.5-0.4
						c0.6,0,1.1,0.4,1.1,1l0.5,7.6C242.1,190.5,239.7,193.4,236.5,193.6z M232.5,187.9c0.2,2.1,1.9,3.7,3.9,3.6c2-0.1,3.6-2,3.4-4.2
						l-0.4-6.5l-4.7,0.3L232.5,187.9z"/>
				</g>
			</g>
			<g>
				<g>
					<path fill="#6DBCFD" d="M246,193c-3.2,0.2-6-2.4-6.2-5.7l-0.5-7.6c0-0.6,0.4-1.1,1-1.1l9.4-0.6c0.6,0,1.1,0.4,1.1,1l0.5,7.6
						C251.6,189.9,249.1,192.8,246,193z M241.5,180.6l0.4,6.5c0.1,2.2,1.9,3.9,3.9,3.8c2-0.1,3.6-2,3.4-4.2l-0.4-6.5L241.5,180.6z"
						/>
				</g>
			</g>
			<g>
				<g>
					<path fill="#6DBCFD" d="M255.4,192.4c-3.2,0.2-6-2.4-6.2-5.7l-0.5-7.6c0-0.6,0.4-1.1,1-1.1l9.4-0.6c0.6,0,1.1,0.4,1.1,1
						l0.5,7.6C261,189.2,258.6,192.2,255.4,192.4z M250.9,180l0.4,6.5c0.1,2.2,1.9,3.9,3.9,3.8c2-0.1,3.6-2,3.4-4.2l-0.4-6.5
						L250.9,180z"/>
				</g>
			</g>
			<g>
				<g>
					<path fill="#6DBCFD" d="M264.9,191.8c-3.2,0.2-6-2.4-6.2-5.7l-0.5-7.6c0-0.6,0.4-1.1,1-1.1l6.1-0.4c0.4,0,0.8,0.2,1,0.6
						l3.9,7.4c0.1,0.1,0.1,0.3,0.1,0.4C270.5,188.6,268,191.5,264.9,191.8z M260.4,179.3l0.4,6.5c0.1,2.2,1.9,3.9,3.9,3.8
						c2-0.1,3.5-1.9,3.4-4l-3.4-6.5L260.4,179.3z"/>
				</g>
			</g>
		</g>
		<g>
			<path fill="#3E3B3A" d="M230.7,176.8"/>
		</g>
		<g>
			<path fill="#6DBCFD" d="M265,179.1l-30.8,2c-0.6,0-1.1-0.4-1.1-1l-0.4-6.5c0-0.6,0.4-1.1,1-1.1l30.8-2c0.6,0,1.1,0.4,1.1,1
				l0.4,6.5C266,178.6,265.5,179.1,265,179.1z M235.1,178.9l28.7-1.8l-0.3-4.4l-28.7,1.8L235.1,178.9z"/>
		</g>
		<g>
			<path fill="#6DBCFD" d="M256.6,208l-10.3,0.7c-0.5,0-0.9-0.3-0.9-0.8l-0.8-12.2c-0.1-1.2,0.8-2.2,2-2.2l7.8-0.5
				c1.2-0.1,2.2,0.8,2.2,2l0.8,12.2C257.4,207.6,257,208,256.6,208z M247,207l8.6-0.6l-0.7-11.3c0-0.2-0.2-0.4-0.4-0.4l-7.8,0.5
				c-0.2,0-0.4,0.2-0.4,0.4L247,207z"/>
		</g>
		<g>
			<path fill="#6DBCFD" d="M264.8,190.7l1,15.2l-28.3,1.8l-1-15.2l-2.2,0.1l1,16.3c0,0.6,0.6,1.1,1.2,1l30.4-2c0.6,0,1.1-0.6,1-1.2
				l-1-16.3L264.8,190.7z"/>
		</g>
	</g>
</g>
<g>
	<g>
		
			<rect x="35.7" y="146" transform="matrix(0.9979 -6.424943e-002 6.424943e-002 0.9979 -9.921 3.6004)" fill="none" width="30.6" height="20"/>
		
			<rect x="46.3" y="152.4" transform="matrix(0.9979 -6.424943e-002 6.424943e-002 0.9979 -10.1126 3.6206)" fill="none" width="10" height="13.2"/>
		<path fill="none" d="M34.3,138.2l30.7-1.6l4.4,6.7c0,0-2,9.3-9.1,2.6c0,0-1.7,3.2-4.7,3.5c-3,0.3-5-3.6-5-3.6s-1.7,3.9-4.5,3.9
			c-2.8,0-5.2-3.8-5.2-3.8s-1.3,4.9-4.7,4.7c-3.4-0.3-5-4.6-5-4.6L34.3,138.2z"/>
		
			<rect x="34.3" y="130.8" transform="matrix(0.9979 -6.424943e-002 6.424943e-002 0.9979 -8.5064 3.4636)" fill="none" width="30.6" height="6.4"/>
		<path fill="none" d="M36.2,150.7c3.4,0.3,4.7-4.7,4.7-4.7s2.4,3.8,5.2,3.8c2.8,0,4.5-3.9,4.5-3.9s2,3.9,5,3.6
			c3-0.3,4.7-3.5,4.7-3.5c6.3,5.9,8.6-0.7,9.1-2.3l-38.1,2.5C31.3,146.1,32.8,150.4,36.2,150.7z"/>
		<g>
			<g>
				<g>
					<path fill="#6DBCFD" d="M36.7,151.7c-3.2,0.2-6-2.4-6.2-5.7c0-0.1,0-0.3,0-0.4l2.5-7.8c0.1-0.4,0.5-0.7,0.9-0.7l6.5-0.4
						c0.6,0,1.1,0.4,1.1,1l0.5,7.6C42.3,148.6,39.9,151.5,36.7,151.7z M32.7,146c0.2,2.1,1.9,3.7,3.9,3.6c2-0.1,3.6-2,3.4-4.2
						l-0.4-6.5l-4.7,0.3L32.7,146z"/>
				</g>
			</g>
			<g>
				<g>
					<path fill="#6DBCFD" d="M46.2,151.1c-3.2,0.2-6-2.4-6.2-5.7l-0.5-7.6c0-0.6,0.4-1.1,1-1.1L50,136c0.6,0,1.1,0.4,1.1,1l0.5,7.6
						C51.8,148,49.4,150.9,46.2,151.1z M41.7,138.7l0.4,6.5c0.1,2.2,1.9,3.9,3.9,3.8c2-0.1,3.6-2,3.4-4.2l-0.4-6.5L41.7,138.7z"/>
				</g>
			</g>
			<g>
				<g>
					<path fill="#6DBCFD" d="M55.6,150.5c-3.2,0.2-6-2.4-6.2-5.7l-0.5-7.6c0-0.6,0.4-1.1,1-1.1l9.4-0.6c0.6,0,1.1,0.4,1.1,1L61,144
						C61.2,147.4,58.8,150.3,55.6,150.5z M51.2,138.1l0.4,6.5c0.1,2.2,1.9,3.9,3.9,3.8c2-0.1,3.6-2,3.4-4.2l-0.4-6.5L51.2,138.1z"/>
				</g>
			</g>
			<g>
				<g>
					<path fill="#6DBCFD" d="M65.1,149.9c-3.2,0.2-6-2.4-6.2-5.7l-0.5-7.6c0-0.6,0.4-1.1,1-1.1l6.1-0.4c0.4,0,0.8,0.2,1,0.6l3.9,7.4
						c0.1,0.1,0.1,0.3,0.1,0.4C70.7,146.8,68.3,149.7,65.1,149.9z M60.6,137.5L61,144c0.1,2.2,1.9,3.9,3.9,3.8c2-0.1,3.5-1.9,3.4-4
						l-3.4-6.5L60.6,137.5z"/>
				</g>
			</g>
		</g>
		<g>
			<path fill="#3E3B3A" d="M30.9,135"/>
		</g>
		<g>
			<path fill="#6DBCFD" d="M65.2,137.2l-30.8,2c-0.6,0-1.1-0.4-1.1-1l-0.4-6.5c0-0.6,0.4-1.1,1-1.1l30.8-2c0.6,0,1.1,0.4,1.1,1
				l0.4,6.5C66.2,136.7,65.8,137.2,65.2,137.2z M35.3,137l28.7-1.8l-0.3-4.4L35,132.6L35.3,137z"/>
		</g>
		<g>
			<path fill="#6DBCFD" d="M56.8,166.2l-10.3,0.7c-0.5,0-0.9-0.3-0.9-0.8l-0.8-12.2c-0.1-1.2,0.8-2.2,2-2.2l7.8-0.5
				c1.2-0.1,2.2,0.8,2.2,2l0.8,12.2C57.6,165.7,57.2,166.1,56.8,166.2z M47.2,165.1l8.6-0.6l-0.7-11.3c0-0.2-0.2-0.4-0.4-0.4
				l-7.8,0.5c-0.2,0-0.4,0.2-0.4,0.4L47.2,165.1z"/>
		</g>
		<g>
			<path fill="#6DBCFD" d="M65,148.8l1,15.2l-28.3,1.8l-1-15.2l-2.2,0.1l1,16.3c0,0.6,0.6,1.1,1.2,1l30.4-2c0.6,0,1.1-0.6,1-1.2
				l-1-16.3L65,148.8z"/>
		</g>
	</g>
	<g opacity="0.22">
		
			<rect x="33.8" y="148.3" transform="matrix(0.9979 -6.424943e-002 6.424943e-002 0.9979 -10.0694 3.4782)" fill="none" width="30.6" height="20"/>
		
			<rect x="44.3" y="154.7" transform="matrix(0.9979 -6.424943e-002 6.424943e-002 0.9979 -10.261 3.4983)" fill="none" width="10" height="13.2"/>
		<path fill="none" d="M32.4,140.4l30.7-1.6l4.4,6.7c0,0-2,9.3-9.1,2.6c0,0-1.7,3.2-4.7,3.5c-3,0.3-5-3.6-5-3.6s-1.7,3.9-4.5,3.9
			c-2.8,0-5.2-3.8-5.2-3.8s-1.3,4.9-4.7,4.7c-3.4-0.3-5-4.6-5-4.6L32.4,140.4z"/>
		
			<rect x="32.3" y="133" transform="matrix(0.9979 -6.424943e-002 6.424943e-002 0.9979 -8.6548 3.3414)" fill="none" width="30.6" height="6.4"/>
		<path fill="none" d="M34.3,152.9c3.4,0.3,4.7-4.7,4.7-4.7s2.4,3.8,5.2,3.8c2.8,0,4.5-3.9,4.5-3.9s2,3.9,5,3.6
			c3-0.3,4.7-3.5,4.7-3.5c6.3,5.9,8.6-0.7,9.1-2.3l-38.1,2.5C29.3,148.3,30.9,152.7,34.3,152.9z"/>
		<g>
			<g>
				<g>
					<path fill="#6DBCFD" d="M34.8,153.9c-3.2,0.2-6-2.4-6.2-5.7c0-0.1,0-0.3,0-0.4l2.5-7.8c0.1-0.4,0.5-0.7,0.9-0.7l6.5-0.4
						c0.6,0,1.1,0.4,1.1,1l0.5,7.6C40.4,150.8,38,153.7,34.8,153.9z M30.7,148.3c0.2,2.1,1.9,3.7,3.9,3.6c2-0.1,3.6-2,3.4-4.2
						l-0.4-6.5l-4.7,0.3L30.7,148.3z"/>
				</g>
			</g>
			<g>
				<g>
					<path fill="#6DBCFD" d="M44.2,153.3c-3.2,0.2-6-2.4-6.2-5.7l-0.5-7.6c0-0.6,0.4-1.1,1-1.1l9.4-0.6c0.6,0,1.1,0.4,1.1,1l0.5,7.6
						C49.8,150.2,47.4,153.1,44.2,153.3z M39.7,140.9l0.4,6.5c0.1,2.2,1.9,3.9,3.9,3.8c2-0.1,3.6-2,3.4-4.2l-0.4-6.5L39.7,140.9z"/>
				</g>
			</g>
			<g>
				<g>
					<path fill="#6DBCFD" d="M53.7,152.7c-3.2,0.2-6-2.4-6.2-5.7l-0.5-7.6c0-0.6,0.4-1.1,1-1.1l9.4-0.6c0.6,0,1.1,0.4,1.1,1l0.5,7.6
						C59.3,149.6,56.9,152.5,53.7,152.7z M49.2,140.3l0.4,6.5c0.1,2.2,1.9,3.9,3.9,3.8c2-0.1,3.6-2,3.4-4.2l-0.4-6.5L49.2,140.3z"/>
				</g>
			</g>
			<g>
				<g>
					<path fill="#6DBCFD" d="M63.1,152.1c-3.2,0.2-6-2.4-6.2-5.7l-0.5-7.6c0-0.6,0.4-1.1,1-1.1l6.1-0.4c0.4,0,0.8,0.2,1,0.6l3.9,7.4
						c0.1,0.1,0.1,0.3,0.1,0.4C68.7,149,66.3,151.9,63.1,152.1z M58.6,139.7l0.4,6.5c0.1,2.2,1.9,3.9,3.9,3.8c2-0.1,3.5-1.9,3.4-4
						l-3.4-6.5L58.6,139.7z"/>
				</g>
			</g>
		</g>
		<g>
			<path fill="#3E3B3A" d="M29,137.2"/>
		</g>
		<g>
			<path fill="#6DBCFD" d="M63.2,139.5l-30.8,2c-0.6,0-1.1-0.4-1.1-1l-0.4-6.5c0-0.6,0.4-1.1,1-1.1l30.8-2c0.6,0,1.1,0.4,1.1,1
				l0.4,6.5C64.2,138.9,63.8,139.4,63.2,139.5z M33.4,139.3l28.7-1.8l-0.3-4.4l-28.7,1.8L33.4,139.3z"/>
		</g>
		<g>
			<path fill="#6DBCFD" d="M54.8,168.4l-10.3,0.7c-0.5,0-0.9-0.3-0.9-0.8l-0.8-12.2c-0.1-1.2,0.8-2.2,2-2.2l7.8-0.5
				c1.2-0.1,2.2,0.8,2.2,2l0.8,12.2C55.6,168,55.3,168.4,54.8,168.4z M45.2,167.3l8.6-0.6l-0.7-11.3c0-0.2-0.2-0.4-0.4-0.4l-7.8,0.5
				c-0.2,0-0.4,0.2-0.4,0.4L45.2,167.3z"/>
		</g>
		<g>
			<path fill="#6DBCFD" d="M63,151.1l1,15.2l-28.3,1.8l-1-15.2l-2.2,0.1l1,16.3c0,0.6,0.6,1.1,1.2,1l30.4-2c0.6,0,1.1-0.6,1-1.2
				l-1-16.3L63,151.1z"/>
		</g>
	</g>
</g>
<g>
	<circle id="XMLID_36_" opacity="0.27" fill="#6DBCFD" cx="315.1" cy="95.9" r="18.9"/>
</g>
<g>
	<circle id="XMLID_37_" opacity="0.27" fill="#6DBCFD" cx="162.3" cy="185.5" r="18.9"/>
</g>
</svg>
