<?xml version="1.0" encoding="utf-8"?>
<!-- Generator: Adobe Illustrator 19.0.0, SVG Export Plug-In . SVG Version: 6.00 Build 0)  -->
<svg version="1.1" id="Layer_1" xmlns="http://www.w3.org/2000/svg" xmlns:xlink="http://www.w3.org/1999/xlink" x="0px" y="0px"
	 viewBox="0 0 1000 1000" style="enable-background:new 0 0 1000 1000;" xml:space="preserve">
<style type="text/css">
	.st0{fill:none;stroke:#6DBCFD;stroke-width:19.9382;stroke-miterlimit:10;}
	.st1{opacity:0.17;fill:#6DBCFD;stroke:#6DBCFD;stroke-width:25.0552;stroke-miterlimit:10;}
	.st2{fill:#6DBCFD;}
	.st3{fill:none;stroke:#6DBCFD;stroke-width:21.5212;stroke-miterlimit:10;}
	.st4{fill:none;stroke:#6DBCFD;stroke-width:25.9197;stroke-miterlimit:10;}
	.st5{opacity:0.25;fill:#6DBCFD;}
	.st6{fill:none;stroke:#6DBCFD;stroke-width:10.0367;stroke-miterlimit:10;}
	.st7{opacity:0.22;fill:#6DBCFD;}
	.st8{opacity:0.26;fill:#6DBCFD;}
</style>
<path id="XMLID_9_" class="st0" d="M432,866.3"/>
<path id="XMLID_2_" class="st0" d="M622.7,851.7"/>
<path id="XMLID_49_" class="st1" d="M575.5,706.2h-161c-51.8,0-93.8-42-93.8-93.8V383.7h254.8V706.2z"/>
<g id="XMLID_44_">
	<path id="XMLID_15_" class="st0" d="M738.1,78.5c31,17.5,60.4,38.6,87.7,63.4"/>
	<path id="XMLID_17_" class="st0" d="M556.4,19.4c32.1,3.7,64,10.7,95,20.8"/>
	<path id="XMLID_4_" class="st0" d="M947.2,312.7c74.4,176.5,39.7,388-104.1,531.8c-189.5,189.5-496.7,189.5-686.3,0
		s-189.5-496.7,0-686.3C228.2,87,316.3,42.5,408.4,24.9"/>
	<circle id="XMLID_6_" class="st2" cx="947.4" cy="313.3" r="10"/>
	<circle id="XMLID_14_" class="st2" cx="825.9" cy="141.9" r="10"/>
	<circle id="XMLID_16_" class="st2" cx="737.3" cy="78" r="10"/>
	<circle id="XMLID_18_" class="st2" cx="651.4" cy="40.3" r="10"/>
	<circle id="XMLID_19_" class="st2" cx="555.2" cy="19.3" r="10"/>
	<circle id="XMLID_20_" class="st2" cx="410.1" cy="24.6" r="10"/>
</g>
<g id="XMLID_43_">
	<path id="XMLID_24_" class="st3" d="M229.9,206.1c157.2-144,401.4-139.8,553.6,12.4c156.4,156.4,156.4,410.1,0,566.5
		c-44,44-95.7,75.6-150.8,94.9"/>
	<path id="XMLID_23_" class="st3" d="M109.9,411.5c11.9-51.7,34.2-101.5,66.8-146.1"/>
	<path id="XMLID_7_" class="st3" d="M426.8,895.5C350,881.3,276.5,844.4,217,784.9c-74.4-74.4-113.4-170.7-117-268.1"/>
	<path id="XMLID_5_" class="st3" d="M504.4,902.3"/>
	<path id="XMLID_8_" class="st3" d="M560.8,897.7c-18.7,2.8-37.6,4.4-56.4,4.6"/>
	<path id="XMLID_10_" class="st3" d="M560.8,897.7"/>
	<circle id="XMLID_21_" class="st2" cx="561.7" cy="897.6" r="10.8"/>
	<circle id="XMLID_12_" class="st2" cx="631.8" cy="880.1" r="10.8"/>
	<circle id="XMLID_11_" class="st2" cx="504.4" cy="902.3" r="10.8"/>
	<circle id="XMLID_13_" class="st2" cx="426.8" cy="895.5" r="10.8"/>
	<circle id="XMLID_22_" class="st2" cx="100" cy="514.9" r="10.8"/>
	<circle id="XMLID_25_" class="st2" cx="109.9" cy="411.5" r="10.8"/>
	<circle id="XMLID_26_" class="st2" cx="176.8" cy="265.4" r="10.8"/>
	<circle id="XMLID_27_" class="st2" cx="229.9" cy="206.1" r="10.8"/>
</g>
<g id="XMLID_28_">
	<path id="XMLID_30_" class="st4" d="M283,597.6"/>
	<polyline id="XMLID_41_" class="st4" points="283,582.2 283,343.5 539.5,343.5 539.5,597.6 	"/>
	<path id="XMLID_42_" class="st4" d="M283,582.2"/>
	<path id="XMLID_38_" class="st4" d="M283,597.6"/>
	<path id="XMLID_39_" class="st4" d="M613.2,657.7H360.5c-42.8,0-77.5-34.7-77.5-77.5V403.6"/>
	<path id="XMLID_40_" class="st4" d="M613.2,657.7"/>
	<path id="XMLID_31_" class="st4" d="M613.2,403.6"/>
	<path id="XMLID_33_" class="st4" d="M660.9,577.2v-115c0-33.5,27.2-60.7,60.7-60.7h0c33.5,0,60.7,27.2,60.7,60.7v115"/>
	<path id="XMLID_34_" class="st4" d="M660.9,577.2"/>
	<path id="XMLID_32_" class="st4" d="M782.3,577.2"/>
	<line id="XMLID_37_" class="st4" x1="317.4" y1="404.5" x2="505" y2="404.5"/>
	<line id="XMLID_51_" class="st4" x1="539.5" y1="401.5" x2="727" y2="401.5"/>
	<line id="XMLID_47_" class="st4" x1="317.4" y1="506.1" x2="488.1" y2="506.1"/>
	<line id="XMLID_46_" class="st4" x1="317.4" y1="456" x2="432.3" y2="456"/>
	<line id="XMLID_48_" class="st4" x1="317.4" y1="555.8" x2="432.3" y2="555.8"/>
	<path id="XMLID_50_" class="st4" d="M505,585.6"/>
	<path id="XMLID_45_" class="st4" d="M317.4,585.6"/>
	<path id="XMLID_35_" class="st4" d="M660.9,464.2V598c0,33.5-27.2,60.7-60.7,60.7h0c-33.5,0-60.7-27.2-60.7-60.7V404.5"/>
	<path id="XMLID_36_" class="st4" d="M660.9,462.2"/>
	<path id="XMLID_29_" class="st4" d="M660.9,402.5"/>
</g>
<path id="XMLID_54_" class="st2" d="M590.9,290.4l31.9-31.9c1.9-1.9,5.1-1.9,7,0l1.1,1.1c1.9,1.9,1.9,5.1,0,7l-31.9,31.9
	c-1.9,1.9-5.1,1.9-7,0l-1.1-1.1C588.9,295.5,588.9,292.3,590.9,290.4z"/>
<path id="XMLID_55_" class="st2" d="M630.8,290.4l-31.9-31.9c-1.9-1.9-5.1-1.9-7,0l-1.1,1.1c-1.9,1.9-1.9,5.1,0,7l31.9,31.9
	c1.9,1.9,5.1,1.9,7,0l1.1-1.1C632.7,295.5,632.7,292.3,630.8,290.4z"/>
<path id="XMLID_56_" class="st5" d="M595.8,298.2l31.9-31.9c1.9-1.9,5.1-1.9,7,0l1.1,1.1c1.9,1.9,1.9,5.1,0,7l-31.9,31.9
	c-1.9,1.9-5.1,1.9-7,0l-1.1-1.1C593.9,303.2,593.9,300.1,595.8,298.2z"/>
<path id="XMLID_53_" class="st5" d="M635.8,298.2l-31.9-31.9c-1.9-1.9-5.1-1.9-7,0l-1.1,1.1c-1.9,1.9-1.9,5.1,0,7l31.9,31.9
	c1.9,1.9,5.1,1.9,7,0l1.1-1.1C637.7,303.2,637.7,300.1,635.8,298.2z"/>
<path id="XMLID_62_" class="st2" d="M310.4,758.9l-1-45.1c-0.1-2.7,2.1-5,4.8-5.1l1.5,0c2.7-0.1,5,2.1,5.1,4.8l1,45.1
	c0.1,2.7-2.1,5-4.8,5.1l-1.5,0C312.7,763.8,310.4,761.7,310.4,758.9z"/>
<path id="XMLID_61_" class="st2" d="M338,730l-45.1,1c-2.7,0.1-4.9,2.3-4.8,5.1l0,1.5c0.1,2.7,2.3,4.9,5.1,4.8l45.1-1
	c2.7-0.1,4.9-2.3,4.8-5.1l0-1.5C343,732.1,340.7,730,338,730z"/>
<path id="XMLID_60_" class="st5" d="M319.4,760.7l-1-45.1c-0.1-2.7,2.1-5,4.8-5.1l1.5,0c2.7-0.1,5,2.1,5.1,4.8l1,45.1
	c0.1,2.7-2.1,5-4.8,5.1l-1.5,0C321.8,765.6,319.5,763.4,319.4,760.7z"/>
<path id="XMLID_59_" class="st5" d="M347,731.8l-45.1,1c-2.7,0.1-4.9,2.3-4.8,5.1l0,1.5c0.1,2.7,2.3,4.9,5.1,4.8l45.1-1
	c2.7-0.1,4.9-2.3,4.8-5.1l0-1.5C352,733.9,349.8,731.7,347,731.8z"/>
<circle id="XMLID_52_" class="st6" cx="419.2" cy="235.2" r="23.2"/>
<circle id="XMLID_58_" class="st7" cx="430" cy="243" r="27.7"/>
<circle id="XMLID_64_" class="st6" cx="700.1" cy="684.3" r="23.2"/>
<circle id="XMLID_63_" class="st7" cx="710.8" cy="692.1" r="27.7"/>
<circle id="XMLID_57_" class="st8" cx="180.2" cy="498.7" r="7.4"/>
<circle id="XMLID_71_" class="st8" cx="545.2" cy="169.4" r="7.4"/>
<circle id="XMLID_70_" class="st8" cx="194.9" cy="631.6" r="7.4"/>
<circle id="XMLID_67_" class="st8" cx="532.6" cy="783.6" r="7.4"/>
<circle id="XMLID_66_" class="st8" cx="789.4" cy="358.8" r="7.4"/>
<circle id="XMLID_69_" class="st8" cx="219.1" cy="329.3" r="7.4"/>
<circle id="XMLID_68_" class="st8" cx="825.9" cy="598.5" r="7.4"/>
</svg>
