<?xml version="1.0" encoding="utf-8"?>
<!-- Generator: Adobe Illustrator 19.0.0, SVG Export Plug-In . SVG Version: 6.00 Build 0)  -->
<svg version="1.1" id="Layer_1" xmlns="http://www.w3.org/2000/svg" xmlns:xlink="http://www.w3.org/1999/xlink" x="0px" y="0px"
	 viewBox="0 0 1000 1000" style="enable-background:new 0 0 1000 1000;" xml:space="preserve">
<style type="text/css">
	.st0{fill:none;stroke:#6DBCFD;stroke-width:19.9176;stroke-miterlimit:10;}
	.st1{fill:#6DBCFD;}
	.st2{fill:none;stroke:#6DBCFD;stroke-width:21.4989;stroke-miterlimit:10;}
	.st3{opacity:0.25;fill:#6DBCFD;}
	.st4{fill:none;stroke:#6DBCFD;stroke-width:10.0263;stroke-miterlimit:10;}
	.st5{opacity:0.22;fill:#6DBCFD;}
	.st6{opacity:0.1;fill:none;stroke:#6DBCFD;stroke-width:19.9176;stroke-miterlimit:10;}
	.st7{opacity:0.52;fill:#6DBCFD;}
	.st8{opacity:0.18;fill:none;stroke:#6DBCFD;stroke-width:19.9176;stroke-miterlimit:10;}
	.st9{opacity:0.17;fill:none;stroke:#6DBCFD;stroke-width:19.9176;stroke-miterlimit:10;}
	.st10{opacity:0.17;fill:#6DBCFD;}
	.st11{opacity:0.3;fill:#6DBCFD;}
	.st12{opacity:0.27;fill:#6DBCFD;}
</style>
<g id="XMLID_325_">
	<path id="XMLID_334_" class="st0" d="M847,838.1c-24.8,25.4-52.7,48.5-83.7,68.5"/>
	<path id="XMLID_333_" class="st0" d="M950.5,677.7c-11.8,30.1-26.7,59.1-44.5,86.4"/>
	<path id="XMLID_332_" class="st0" d="M567.3,980c-189.5,26.6-384.9-61-486.9-236.7C-54,511.8,24.6,215.1,256.2,80.6
		s528.2-55.8,662.6,175.8c50.6,87.2,71,183.6,64.4,277.1"/>
	<circle id="XMLID_331_" class="st1" cx="566.7" cy="980" r="10"/>
	<circle id="XMLID_330_" class="st1" cx="763.3" cy="906.6" r="10"/>
	<circle id="XMLID_329_" class="st1" cx="847.7" cy="837.4" r="10"/>
	<circle id="XMLID_328_" class="st1" cx="906.1" cy="764.1" r="10"/>
	<circle id="XMLID_327_" class="st1" cx="951" cy="676.6" r="10"/>
	<circle id="XMLID_326_" class="st1" cx="983" cy="535.1" r="10"/>
</g>
<g id="XMLID_309_">
	<path id="XMLID_324_" class="st2" d="M241.4,201C403.1,62.4,646.8,74.6,793.7,231.5c151,161.3,142.7,414.6-18.7,565.6
		c-45.4,42.5-98,72.4-153.7,89.8"/>
	<path id="XMLID_323_" class="st2" d="M114.8,402.1c13.6-51.2,37.5-100.2,71.5-143.7"/>
	<path id="XMLID_322_" class="st2" d="M415.3,895.8c-76.3-16.8-148.4-56-205.8-117.3c-71.8-76.7-107.6-174.1-108-271.5"/>
	<path id="XMLID_321_" class="st2" d="M492.5,905.1"/>
	<path id="XMLID_320_" class="st2" d="M549,902.4c-18.8,2.2-37.6,3.1-56.5,2.7"/>
	<path id="XMLID_319_" class="st2" d="M549,902.4"/>
	<circle id="XMLID_318_" class="st1" cx="549.9" cy="902.3" r="10.8"/>
	<circle id="XMLID_317_" class="st1" cx="620.5" cy="887.1" r="10.8"/>
	<circle id="XMLID_316_" class="st1" cx="492.5" cy="905.1" r="10.8"/>
	<circle id="XMLID_315_" class="st1" cx="415.3" cy="895.8" r="10.8"/>
	<circle id="XMLID_314_" class="st1" cx="101.5" cy="505" r="10.8"/>
	<circle id="XMLID_313_" class="st1" cx="114.8" cy="402.1" r="10.8"/>
	<circle id="XMLID_312_" class="st1" cx="186.4" cy="258.4" r="10.8"/>
	<circle id="XMLID_311_" class="st1" cx="241.4" cy="201" r="10.8"/>
</g>
<path id="XMLID_295_" class="st1" d="M763.2,581.1l-1-44.1c-0.1-3,2.3-5.5,5.3-5.5l0.5,0c3-0.1,5.5,2.3,5.5,5.3l1,44.1
	c0.1,3-2.3,5.5-5.3,5.5l-0.5,0C765.8,586.5,763.3,584.1,763.2,581.1z"/>
<path id="XMLID_294_" class="st1" d="M790.4,552.8l-44.1,1c-3,0.1-5.4,2.6-5.3,5.5l0,0.5c0.1,3,2.6,5.4,5.5,5.3l44.1-1
	c3-0.1,5.4-2.6,5.3-5.5l0-0.5C795.8,555.1,793.4,552.7,790.4,552.8z"/>
<path id="XMLID_293_" class="st3" d="M772.3,582.9l-1-44.1c-0.1-3,2.3-5.5,5.3-5.5l0.5,0c3-0.1,5.5,2.3,5.5,5.3l1,44.1
	c0.1,3-2.3,5.5-5.3,5.5l-0.5,0C774.8,588.3,772.4,585.9,772.3,582.9z"/>
<path id="XMLID_290_" class="st3" d="M799.4,554.6l-44.1,1c-3,0.1-5.4,2.6-5.3,5.5l0,0.5c0.1,3,2.6,5.4,5.5,5.3l44.1-1
	c3-0.1,5.4-2.6,5.3-5.5l0-0.5C804.9,556.9,802.4,554.5,799.4,554.6z"/>
<path id="XMLID_382_" class="st1" d="M492.5,823l30.5-31.9c2.1-2.2,5.5-2.2,7.7-0.2l0.4,0.4c2.2,2.1,2.2,5.5,0.2,7.7l-30.5,31.9
	c-2.1,2.2-5.5,2.2-7.7,0.2l-0.4-0.4C490.5,828.6,490.4,825.1,492.5,823z"/>
<path id="XMLID_381_" class="st1" d="M531.7,822.1l-31.9-30.5c-2.2-2.1-5.6-2-7.7,0.2l-0.4,0.4c-2.1,2.2-2,5.6,0.2,7.7l31.9,30.5
	c2.2,2.1,5.6,2,7.7-0.2l0.4-0.4C533.9,827.6,533.9,824.1,531.7,822.1z"/>
<path id="XMLID_380_" class="st3" d="M497.6,830.6l30.5-31.9c2.1-2.2,5.5-2.2,7.7-0.2l0.4,0.4c2.2,2.1,2.2,5.5,0.2,7.7l-30.5,31.9
	c-2.1,2.2-5.5,2.2-7.7,0.2l-0.4-0.4C495.6,836.2,495.5,832.8,497.6,830.6z"/>
<path id="XMLID_379_" class="st3" d="M536.8,829.7L505,799.2c-2.2-2.1-5.6-2-7.7,0.2l-0.4,0.4c-2.1,2.2-2,5.6,0.2,7.7l31.9,30.5
	c2.2,2.1,5.6,2,7.7-0.2l0.4-0.4C539.1,835.2,539,831.8,536.8,829.7z"/>
<circle id="XMLID_375_" class="st4" cx="233.7" cy="303.3" r="23.2"/>
<circle id="XMLID_376_" class="st5" cx="248.5" cy="314.4" r="27.6"/>
<circle id="XMLID_378_" class="st5" cx="576.3" cy="179.8" r="7"/>
<circle id="XMLID_377_" class="st5" cx="265.3" cy="570.5" r="15.7"/>
<circle id="XMLID_383_" class="st5" cx="771.3" cy="326.6" r="15.7"/>
<polyline id="XMLID_349_" class="st1" points="490.4,502.4 490.4,272 514.4,272 514.4,502.4 "/>
<path id="XMLID_352_" class="st1" d="M490.4,502.4"/>
<path id="XMLID_344_" class="st1" d="M490.4,577.5"/>
<polyline id="XMLID_351_" class="st1" points="514.4,578.7 514.4,702.9 490.4,702.9 490.4,577.5 "/>
<polyline id="XMLID_356_" class="st1" points="616,350.1 616,272 640,272 640,348.6 "/>
<path id="XMLID_357_" class="st1" d="M616,350.1"/>
<path id="XMLID_336_" class="st1" d="M616,424.6"/>
<polyline id="XMLID_337_" class="st1" points="640,425.3 640,702.9 616,702.9 616,424.6 "/>
<circle id="XMLID_339_" class="st1" cx="502.4" cy="272" r="12"/>
<circle id="XMLID_340_" class="st1" cx="628" cy="272" r="12"/>
<g id="XMLID_354_">
	<path id="XMLID_358_" class="st1" d="M366.3,702.9c0,6.6,5.4,12,12,12c6.6,0,12-5.4,12-12V478l-24,0V702.9z"/>
	<path id="XMLID_359_" class="st1" d="M378.3,260c-6.6,0-12,5.4-12,12v120.7l24,0.5V272C390.3,265.4,385,260,378.3,260z"/>
</g>
<circle id="XMLID_342_" class="st1" cx="502.4" cy="702.9" r="12"/>
<circle id="XMLID_341_" class="st1" cx="628" cy="702.9" r="12"/>
<circle id="XMLID_338_" class="st0" cx="378.3" cy="437" r="41"/>
<circle id="XMLID_355_" class="st6" cx="394.8" cy="444.7" r="41"/>
<circle id="XMLID_280_" class="st7" cx="378.3" cy="437" r="16.5"/>
<circle id="XMLID_353_" class="st0" cx="628" cy="387.2" r="41"/>
<circle id="XMLID_369_" class="st8" cx="640" cy="396" r="41"/>
<circle id="XMLID_350_" class="st7" cx="628" cy="387.2" r="16.5"/>
<circle id="XMLID_348_" class="st0" cx="502.4" cy="543.4" r="41"/>
<circle id="XMLID_363_" class="st9" cx="514.4" cy="549.9" r="41"/>
<circle id="XMLID_347_" class="st7" cx="502.4" cy="543.4" r="16.5"/>
<path id="XMLID_361_" class="st3" d="M406.8,476.6"/>
<path id="XMLID_343_" class="st3" d="M406.8,399.3"/>
<path id="XMLID_360_" class="st3" d="M382.8,396V279c0-6.6,5.4-12,12-12h0c6.6,0,12,5.4,12,12v120.2"/>
<path id="XMLID_362_" class="st3" d="M382.8,396"/>
<path id="XMLID_346_" class="st3" d="M382.8,478"/>
<path id="XMLID_335_" class="st3" d="M406.8,476.6v233.3c0,6.6-5.4,12-12,12h0c-6.6,0-12-5.4-12-12V478"/>
<path id="XMLID_368_" class="st10" d="M522.1,580.8"/>
<path id="XMLID_364_" class="st10" d="M522.1,499.5"/>
<path id="XMLID_367_" class="st11" d="M501.6,502.3V281.9c0-6.6,5.4-12,12-12l0,0c6.6,0,12,5.4,12,12v220.5"/>
<path id="XMLID_345_" class="st11" d="M525.6,583.6v129.1c0,6.6-5.4,12-12,12l0,0c-6.6,0-12-5.4-12-12v-127"/>
<path id="XMLID_374_" class="st12" d="M628,343.7"/>
<path id="XMLID_370_" class="st12" d="M628,426.7"/>
<path id="XMLID_372_" class="st12" d="M652,419.1v291.5c0,6.6-5.4,12-12,12h0c-6.6,0-12-5.4-12-12V426.7"/>
<path id="XMLID_373_" class="st12" d="M652,419.1"/>
<path id="XMLID_366_" class="st12" d="M652,345.1"/>
<path id="XMLID_365_" class="st12" d="M628,343.7v-63.9c0-6.6,5.4-12,12-12h0c6.6,0,12,5.4,12,12v65.3"/>
</svg>
