<?xml version="1.0" encoding="utf-8"?>
<!-- Generator: Adobe Illustrator 19.0.0, SVG Export Plug-In . SVG Version: 6.00 Build 0)  -->
<svg version="1.1" id="Layer_1" xmlns="http://www.w3.org/2000/svg" xmlns:xlink="http://www.w3.org/1999/xlink" x="0px" y="0px"
	 viewBox="0 0 1000 1000" style="enable-background:new 0 0 1000 1000;" xml:space="preserve">
<style type="text/css">
	.st0{fill:none;stroke:#6DBCFD;stroke-width:19.9411;stroke-miterlimit:10;}
	.st1{fill:#6DBCFD;}
	.st2{fill:none;stroke:#6DBCFD;stroke-width:21.5243;stroke-miterlimit:10;}
	.st3{opacity:0.25;fill:#6DBCFD;}
	.st4{fill:none;stroke:#6DBCFD;stroke-width:10.0381;stroke-miterlimit:10;}
	.st5{opacity:0.22;fill:#6DBCFD;}
	.st6{opacity:0.26;fill:#6DBCFD;}
	.st7{fill:none;}
	.st8{fill:#3E3B3A;}
	.st9{display:none;opacity:0.22;}
	.st10{display:inline;}
	.st11{fill:#6DBCFD;stroke:#6DBCFD;stroke-width:5.9823;stroke-miterlimit:10;}
	.st12{fill:none;stroke:#6DBCFD;stroke-width:15.9529;stroke-miterlimit:10;}
	.st13{fill:#6DBCFD;stroke:#6DBCFD;stroke-width:3.9882;stroke-miterlimit:10;}
	.st14{fill:none;stroke:#6DBCFD;stroke-width:7.9764;stroke-miterlimit:10;}
	.st15{opacity:0.49;}
	.st16{fill:#6DBCFD;stroke:#6DBCFD;stroke-width:1.9941;stroke-miterlimit:10;}
	.st17{opacity:0.49;fill:none;stroke:#6DBCFD;stroke-width:3.9882;stroke-miterlimit:10;}
	.st18{opacity:0.18;fill:none;stroke:#6DBCFD;stroke-width:7.9764;stroke-miterlimit:10;}
	.st19{opacity:0.18;fill:none;stroke:#6DBCFD;stroke-width:5.9823;stroke-miterlimit:10;}
	.st20{opacity:0.18;fill:none;stroke:#6DBCFD;stroke-width:10.7454;stroke-miterlimit:10;}
	.st21{opacity:0.18;fill:none;stroke:#6DBCFD;stroke-width:8.0591;stroke-miterlimit:10;}
	.st22{opacity:0.18;fill:none;stroke:#6DBCFD;stroke-width:7.9072;stroke-miterlimit:10;}
	.st23{opacity:0.18;fill:none;stroke:#6DBCFD;stroke-width:5.9304;stroke-miterlimit:10;}
	.st24{opacity:0.18;fill:none;stroke:#6DBCFD;stroke-width:5.3942;stroke-miterlimit:10;}
	.st25{opacity:0.18;fill:none;stroke:#6DBCFD;stroke-width:4.0457;stroke-miterlimit:10;}
	.st26{opacity:0.23;}
</style>
<g id="XMLID_210_">
	<path id="XMLID_233_" class="st0" d="M922,737.8c-17.5,31-38.6,60.4-63.4,87.7"/>
	<path id="XMLID_230_" class="st0" d="M981,556c-3.7,32.2-10.7,64-20.8,95"/>
	<path id="XMLID_229_" class="st0" d="M687.7,946.9c-176.5,74.4-388.1,39.7-531.9-104.1c-189.5-189.5-189.5-496.8,0-686.4
		s496.8-189.5,686.4,0C913.5,227.8,958,315.8,975.6,408"/>
	<circle id="XMLID_225_" class="st1" cx="687.1" cy="947.1" r="10"/>
	<circle id="XMLID_224_" class="st1" cx="858.6" cy="825.5" r="10"/>
	<circle id="XMLID_220_" class="st1" cx="922.4" cy="736.9" r="10"/>
	<circle id="XMLID_216_" class="st1" cx="960.2" cy="651" r="10"/>
	<circle id="XMLID_214_" class="st1" cx="981.2" cy="554.8" r="10"/>
	<circle id="XMLID_212_" class="st1" cx="975.8" cy="409.7" r="10"/>
</g>
<g id="XMLID_168_">
	<path id="XMLID_208_" class="st2" d="M794.3,229.5c144,157.2,139.9,401.4-12.4,553.7c-156.5,156.5-410.1,156.5-566.6,0
		c-44-44-75.6-95.7-94.9-150.8"/>
	<path id="XMLID_206_" class="st2" d="M588.9,109.5c51.7,11.9,101.5,34.2,146.1,66.9"/>
	<path id="XMLID_205_" class="st2" d="M104.8,426.4c14.3-76.9,51.1-150.4,110.6-209.8c74.4-74.4,170.7-113.4,268.1-117.1"/>
	<path id="XMLID_200_" class="st2" d="M98.1,504"/>
	<path id="XMLID_199_" class="st2" d="M102.6,560.4c-2.8-18.7-4.4-37.6-4.6-56.4"/>
	<path id="XMLID_194_" class="st2" d="M102.6,560.4"/>
	<circle id="XMLID_193_" class="st1" cx="102.8" cy="561.3" r="10.8"/>
	<circle id="XMLID_188_" class="st1" cx="120.2" cy="631.5" r="10.8"/>
	<circle id="XMLID_187_" class="st1" cx="98.1" cy="504" r="10.8"/>
	<circle id="XMLID_181_" class="st1" cx="104.8" cy="426.4" r="10.8"/>
	<circle id="XMLID_178_" class="st1" cx="485.5" cy="99.5" r="10.8"/>
	<circle id="XMLID_177_" class="st1" cx="588.9" cy="109.5" r="10.8"/>
	<circle id="XMLID_173_" class="st1" cx="735.1" cy="176.3" r="10.8"/>
	<circle id="XMLID_172_" class="st1" cx="794.3" cy="229.5" r="10.8"/>
</g>
<path id="XMLID_107_" class="st1" d="M374.5,194.6l30.8-30.8c2.2-2.2,5.8-2.2,8.1,0l0,0c2.2,2.2,2.2,5.8,0,8.1l-30.8,30.8
	c-2.2,2.2-5.8,2.2-8.1,0v0C372.2,200.5,372.2,196.8,374.5,194.6z"/>
<path id="XMLID_106_" class="st1" d="M413.4,194.6l-30.8-30.8c-2.2-2.2-5.8-2.2-8.1,0v0c-2.2,2.2-2.2,5.8,0,8.1l30.8,30.8
	c2.2,2.2,5.8,2.2,8.1,0l0,0C415.6,200.5,415.6,196.8,413.4,194.6z"/>
<path id="XMLID_105_" class="st3" d="M379.5,202.4l30.8-30.8c2.2-2.2,5.8-2.2,8.1,0v0c2.2,2.2,2.2,5.8,0,8.1l-30.8,30.8
	c-2.2,2.2-5.8,2.2-8.1,0v0C377.2,208.2,377.2,204.6,379.5,202.4z"/>
<path id="XMLID_104_" class="st3" d="M418.4,202.4l-30.8-30.8c-2.2-2.2-5.8-2.2-8.1,0v0c-2.2,2.2-2.2,5.8,0,8.1l30.8,30.8
	c2.2,2.2,5.8,2.2,8.1,0v0C420.6,208.2,420.6,204.6,418.4,202.4z"/>
<circle id="XMLID_103_" class="st4" cx="738.2" cy="292.8" r="23.2"/>
<circle id="XMLID_101_" class="st5" cx="749" cy="300.6" r="27.7"/>
<circle id="XMLID_109_" class="st6" cx="210.7" cy="560.4" r="7.4"/>
<circle id="XMLID_108_" class="st6" cx="201.2" cy="402.6" r="7.4"/>
<circle id="XMLID_176_" class="st6" cx="709.8" cy="739.4" r="7.4"/>
<circle id="XMLID_111_" class="st6" cx="352" cy="777.6" r="7.4"/>
<circle id="XMLID_110_" class="st6" cx="781" cy="465.4" r="7.4"/>
<g id="XMLID_164_">
	<g id="XMLID_217_">
		<g id="XMLID_263_">
			<path id="XMLID_160_" class="st7" d="M335.4,339.1l306.3,2l39.2,70.1c0,0-27.1,90.6-93.5,21.6c0,0-18.1,31.5-48,32.4
				c-29.9,0.9-46.5-38-46.5-38s-18.5,36.9-48.2,35.1c-27-1.6-49.1-40.9-49.1-40.9s-16.4,47.8-48.7,43.2
				c-32.3-4.6-45.9-48.8-45.9-48.8L335.4,339.1z"/>
		</g>
		<g id="XMLID_261_">
			
				<rect id="XMLID_159_" x="337.2" y="274.8" transform="matrix(-1 4.841110e-03 -4.841110e-03 -1 979.1127 612.2094)" class="st7" width="303.2" height="65"/>
		</g>
		<g id="XMLID_259_">
			<path id="XMLID_158_" class="st7" d="M346.9,464.6c32.3,4.6,48.7-43.2,48.7-43.2s22.1,39.3,49.1,40.9c27,1.6,48.2-35.1,48.2-35.1
				s16.5,41.7,46.5,38c29.9-0.9,48-32.4,48-32.4c58.6,63.1,87-3,90.5-16.3l-379.7,1.8C301,415.7,314.6,459.9,346.9,464.6z"/>
		</g>
		<g id="XMLID_234_">
			<g id="XMLID_253_">
				<g id="XMLID_254_">
					<g id="XMLID_255_">
						<path id="XMLID_256_" class="st1" d="M351.7,475.7c-32.4,0.8-57.7-27.5-58.8-59.8c0-0.4,0-0.9,0-1.3l0,0
							c0.1-1.4,0.4-2.7,0.8-3.9l28.3-75c0.3-5.4,5.9-7.8,8.6-7.6l65.2-1.5c5.4,0.3,10.6,3.3,10.2,11.5l0.9,76
							C410.3,446.6,384.3,474.9,351.7,475.7z M323.7,441.6c6.5,8.3,15.9,13.2,26.5,12.3c18.9,1.1,36.3-16.8,37.7-41.1l-1.5-65.2
							l-46.1,0l-21.8,58.3C314,417.9,315.8,431.5,323.7,441.6z"/>
					</g>
				</g>
			</g>
			<g id="XMLID_247_">
				<g id="XMLID_248_">
					<g id="XMLID_249_">
						<path id="XMLID_250_" class="st1" d="M446.6,475.9c-32.6,0.8-58-27.9-58.8-60.4l-0.9-76c0.3-5.4,3.3-10.6,11.5-10.2l94.9,0.2
							c5.4,0.3,10.6,3.3,10.2,11.5l0.9,76C502.5,446.7,479.1,475.1,446.6,475.9z M408,348.9l1.5,65.2c1.4,21.8,16.7,39,35.6,40.1
							c18.9,1.1,36.3-16.8,37.7-41.1l-1.5-65.2L408,348.9z"/>
					</g>
				</g>
			</g>
			<g id="XMLID_241_">
				<g id="XMLID_242_">
					<g id="XMLID_243_">
						<path id="XMLID_244_" class="st1" d="M541.6,473.4c-32.6,0.8-58-27.9-58.8-60.4l-0.9-76c0.3-5.4,3.3-10.6,11.5-10.2l94.9,0.2
							c5.4,0.3,10.6,3.3,10.2,11.5l0.9,76C597.4,446.9,571.3,475.2,541.6,473.4z M502.9,349.1l1.5,65.2c1.4,21.8,16.7,39,35.6,40.1
							c18.9,1.1,36.3-16.8,37.7-41.1l-1.5-65.2L502.9,349.1z"/>
					</g>
				</g>
			</g>
			<g id="XMLID_235_">
				<g id="XMLID_236_">
					<g id="XMLID_237_">
						<path id="XMLID_238_" class="st1" d="M633.8,473.5c-32.6,0.8-58-27.9-58.8-60.4l-0.9-76c0.3-5.4,3.3-10.6,11.5-10.2l59.6,0.8
							c5.4,0.3,7.9,3.2,10.5,6l31.3,70.3c1.4,3.2,2.1,6.8,1.9,10.4l0,0C692.3,447.2,666.4,472.7,633.8,473.5z M598,346.6l1.5,65.2
							c1.4,21.8,16.7,39,35.6,40.1c16.3,1,31.5-12.3,36.1-29.8c1.3-4.9,0.7-10.1-1.4-14.7l-28.4-60.9L598,346.6z"/>
					</g>
				</g>
			</g>
		</g>
		<g id="XMLID_231_">
			<g id="XMLID_232_">
				<path id="XMLID_149_" class="st8" d="M304.9,304.8"/>
			</g>
		</g>
		<g id="XMLID_226_">
			<g id="XMLID_227_">
				<path id="XMLID_228_" class="st1" d="M644,346.6l-309,0.7c-5.4-0.3-10.7-3.4-10.2-11.5l-1.6-65.7c0.3-5.4,3.4-10.7,11.5-10.2
					l309-0.7c5.4,0.3,10.7,3.4,10.2,11.5l1.6,65.7C652.5,341.6,649.6,344.2,644,346.6z M344.5,326l287.2-2l-0.1-43.7l-287.2,2
					L344.5,326z"/>
			</g>
		</g>
	</g>
	<g id="XMLID_165_" class="st9">
		<g id="XMLID_215_" class="st10">
			
				<rect id="XMLID_143_" x="-411.5" y="-300.5" transform="matrix(-1 4.841110e-03 -4.841110e-03 -1 -703.8922 -519.7396)" class="st7" width="120.3" height="79.5"/>
		</g>
		<g id="XMLID_213_" class="st10">
			
				<rect id="XMLID_142_" x="-370.3" y="-274.7" transform="matrix(-1 4.841110e-03 -4.841110e-03 -1 -702.0096 -494.9861)" class="st7" width="39.7" height="52.6"/>
		</g>
		<g id="XMLID_211_" class="st10">
			<path id="XMLID_141_" class="st7" d="M-412.4-335.3l121.6,0.8l15.6,27.8c0,0-10.7,35.9-37.1,8.6c0,0-7.2,12.5-19.1,12.9
				c-11.9,0.4-18.5-15.1-18.5-15.1s-7.3,14.6-19.1,13.9c-10.7-0.6-19.5-16.2-19.5-16.2s-6.5,19-19.3,17.1
				c-12.8-1.8-18.2-19.4-18.2-19.4L-412.4-335.3z"/>
		</g>
		<g id="XMLID_209_" class="st10">
			
				<rect id="XMLID_140_" x="-411.7" y="-360.8" transform="matrix(-1 4.841110e-03 -4.841110e-03 -1 -704.6841 -694.1096)" class="st7" width="120.3" height="25.8"/>
		</g>
		<g id="XMLID_207_" class="st10">
			<path id="XMLID_139_" class="st7" d="M-407.8-285.5c12.8,1.8,19.3-17.1,19.3-17.1s8.8,15.6,19.5,16.2s19.1-13.9,19.1-13.9
				s6.5,16.5,18.5,15.1c11.9-0.4,19.1-12.9,19.1-12.9c23.3,25.1,34.5-1.2,35.9-6.5l-150.7,0.7C-426-304.9-420.6-287.3-407.8-285.5z"
				/>
		</g>
		<g id="XMLID_179_" class="st10">
			<g id="XMLID_180_">
				<path id="XMLID_130_" class="st8" d="M-425.6-347.9"/>
			</g>
		</g>
	</g>
</g>
<g id="XMLID_133_">
	<path id="XMLID_134_" class="st11" d="M521.9,744.1l-55.2-105.7l-0.1-0.2c-4-10.9-5.3-22.1-3.7-33.3c1.5-10.6,5.5-20.8,11.7-29.7
		c6.1-8.8,14.4-16.2,23.7-21.3c10-5.4,21-8.1,32.5-8.1s22.5,2.7,32.5,8.1c9.4,5.1,17.6,12.4,23.7,21.3c6.1,8.8,10.2,19.1,11.7,29.7
		c1.6,11.3,0.3,22.5-3.7,33.3l-0.1,0.2l-0.1,0.2l-55.1,105.5C535.9,751.2,525.6,751.2,521.9,744.1z M474.4,634.9l53.8,102.9
		c1.1,2.1,4.2,2.1,5.3,0l53.8-102.9c3.5-9.4,4.5-19.2,3.2-29c-1.3-9.3-4.8-18.3-10.2-26c-5.4-7.8-12.6-14.2-20.8-18.7
		c-8.8-4.7-18.4-7.1-28.5-7.1h0c-10.2,0-19.8,2.4-28.5,7.1c-8.2,4.4-15.4,10.9-20.8,18.7s-8.9,16.8-10.2,26
		C469.8,615.7,470.9,625.4,474.4,634.9z"/>
</g>
<circle id="XMLID_132_" class="st12" cx="530.8" cy="611.9" r="29.4"/>
<g id="XMLID_138_">
	<path id="XMLID_144_" class="st13" d="M347.4,658l-28.9-55.4l0-0.1c-2.1-5.7-2.8-11.6-1.9-17.5c0.8-5.5,2.9-10.9,6.1-15.5
		c3.2-4.6,7.5-8.5,12.4-11.1c5.2-2.8,11-4.3,17-4.3s11.8,1.4,17,4.3c4.9,2.7,9.2,6.5,12.4,11.1c3.2,4.6,5.3,10,6.1,15.5
		c0.8,5.9,0.2,11.8-1.9,17.5l0,0.1l-0.1,0.1L356.7,658C354.7,661.7,349.3,661.7,347.4,658z M322.5,600.8l28.2,53.9
		c0.6,1.1,2.2,1.1,2.8,0l28.2-53.9c1.8-5,2.4-10.1,1.7-15.2c-0.7-4.9-2.5-9.6-5.4-13.6c-2.8-4.1-6.6-7.4-10.9-9.8
		c-4.6-2.5-9.6-3.7-14.9-3.7h0c-5.3,0-10.4,1.3-14.9,3.7c-4.3,2.3-8.1,5.7-10.9,9.8c-2.8,4.1-4.7,8.8-5.4,13.6
		C320.1,590.7,320.6,595.8,322.5,600.8z"/>
</g>
<circle id="XMLID_137_" class="st14" cx="352" cy="588.7" r="15.4"/>
<g id="XMLID_162_">
	<path id="XMLID_163_" class="st13" d="M655.3,595.4L626.4,540l0-0.1c-2.1-5.7-2.8-11.6-1.9-17.5c0.8-5.5,2.9-10.9,6.1-15.5
		c3.2-4.6,7.5-8.5,12.4-11.1c5.2-2.8,11-4.3,17-4.3s11.8,1.4,17,4.3c4.9,2.7,9.2,6.5,12.4,11.1c3.2,4.6,5.3,10,6.1,15.5
		c0.8,5.9,0.2,11.8-1.9,17.5l0,0.1l-0.1,0.1l-28.9,55.3C662.6,599.1,657.3,599.1,655.3,595.4z M630.4,538.2l28.2,53.9
		c0.6,1.1,2.2,1.1,2.8,0l28.2-53.9c1.8-5,2.4-10.1,1.7-15.2c-0.7-4.9-2.5-9.6-5.4-13.6c-2.8-4.1-6.6-7.4-10.9-9.8
		c-4.6-2.5-9.6-3.7-14.9-3.7h0c-5.3,0-10.4,1.3-14.9,3.7c-4.3,2.3-8.1,5.7-10.9,9.8s-4.7,8.8-5.4,13.6
		C628,528.1,628.6,533.2,630.4,538.2z"/>
</g>
<circle id="XMLID_161_" class="st14" cx="660" cy="526.1" r="15.4"/>
<g id="XMLID_170_" class="st15">
	<path id="XMLID_171_" class="st16" d="M443.5,539.4l-11.8-22.5l0-0.1c-0.9-2.3-1.1-4.7-0.8-7.1c0.3-2.3,1.2-4.4,2.5-6.3
		c1.3-1.9,3.1-3.5,5.1-4.5c2.1-1.2,4.5-1.7,6.9-1.7s4.8,0.6,6.9,1.7c2,1.1,3.8,2.6,5.1,4.5c1.3,1.9,2.2,4.1,2.5,6.3
		c0.3,2.4,0.1,4.8-0.8,7.1l0,0.1l0,0.1l-11.8,22.5C446.5,540.9,444.3,540.9,443.5,539.4z M433.4,516.1l11.5,21.9
		c0.2,0.5,0.9,0.5,1.1,0l11.5-21.9c0.7-2,1-4.1,0.7-6.2c-0.3-2-1-3.9-2.2-5.5c-1.2-1.7-2.7-3-4.4-4c-1.9-1-3.9-1.5-6.1-1.5h0
		c-2.2,0-4.2,0.5-6.1,1.5c-1.8,0.9-3.3,2.3-4.4,4c-1.2,1.7-1.9,3.6-2.2,5.5C432.4,512,432.7,514.1,433.4,516.1z"/>
</g>
<circle id="XMLID_169_" class="st17" cx="445.4" cy="511.2" r="6.3"/>
<path id="XMLID_131_" class="st18" d="M360.5,647.1c15.8,1.2,27.5,5.8,27.5,11.3c0,6.4-16.1,11.6-35.9,11.6
	c-19.8,0-35.9-5.2-35.9-11.6c0-5.5,11.9-10.2,27.9-11.3"/>
<path id="XMLID_182_" class="st19" d="M366.2,635.7c33.3,2.1,58.3,11.6,58.3,23c0,13-32.5,23.5-72.5,23.5s-72.5-10.5-72.5-23.5
	c0-11.4,25-20.9,58.3-23"/>
<path id="XMLID_184_" class="st20" d="M542.3,730.4c21.2,1.7,36.9,7.9,36.9,15.2c0,8.6-21.7,15.7-48.4,15.7
	c-26.7,0-48.4-7-48.4-15.7c0-7.3,15.5-13.5,36.4-15.2"/>
<path id="XMLID_183_" class="st21" d="M550.3,715.1c44.6,2.9,78.1,15.7,78.1,31c0,17.5-43.7,31.6-97.7,31.6
	c-53.9,0-97.7-14.1-97.7-31.6c0-15.3,33.8-28.1,78.5-31"/>
<path id="XMLID_186_" class="st22" d="M668.7,584.3c15.5,1.3,26.9,5.8,26.9,11.2c0,6.4-15.9,11.5-35.6,11.5s-35.6-5.2-35.6-11.5
	c0-5.4,11.6-10,27.2-11.2"/>
<path id="XMLID_100_" class="st23" d="M590.5,589.7c6.9-8.4,27.9-14.8,54.2-16.7"/>
<path id="XMLID_185_" class="st23" d="M675.1,573c32.4,2.3,56.7,11.6,56.7,22.7c0,12.8-32.2,23.3-71.9,23.3
	c-30.5,0-56.5-6.1-67-14.8"/>
<path id="XMLID_190_" class="st24" d="M450.8,531.1c10.8,0.8,18.9,3.9,18.9,7.7c0,4.3-10.9,7.9-24.3,7.9s-24.3-3.5-24.3-7.9
	c0-3.7,8.1-6.9,18.9-7.7"/>
<path id="XMLID_102_" class="st25" d="M455.1,523.4c22.5,1.5,39.4,7.9,39.4,15.6c0,8.8-21.9,15.9-49,15.9c-27.1,0-49-7.1-49-15.9
	c0-7.7,17.1-14.2,39.8-15.6"/>
<g id="XMLID_286_" class="st26">
	<path id="XMLID_288_" class="st1" d="M700.5,445.3c0.2-3.3-0.4-6.7-1.8-9.8l-29.5-66.2c-0.1-0.1-0.1-0.2-0.2-0.2l-1.4-59.3
		c0.5-7.7-4.5-10.6-9.7-10.9l-291.1,0.7c-7.7-0.5-10.6,4.5-10.9,9.7l1.3,56.8c-1.3,1.2-2.3,2.8-2.5,5l-26.6,70.7
		c-0.4,1.2-0.7,2.4-0.8,3.7c0,0.4,0,0.8,0,1.3c1,30.4,24.9,57,55.4,56.3c18.5-0.4,34.7-10.2,44-24.7c9.9,15.1,26.4,25.4,45.4,24.9
		c19.4-0.5,35.3-11.3,44.8-26.3c10,14.6,26.1,24.4,44.7,23.9c17,1,32.7-8.4,42.9-22.8c10,14,25.8,23.3,44,22.8
		C679.4,500.2,703.8,476.1,700.5,445.3z"/>
</g>
</svg>
