<?xml version="1.0" encoding="utf-8"?>
<!-- Generator: Adobe Illustrator 19.0.0, SVG Export Plug-In . SVG Version: 6.00 Build 0)  -->
<svg version="1.1" id="Layer_1" xmlns="http://www.w3.org/2000/svg" xmlns:xlink="http://www.w3.org/1999/xlink" x="0px" y="0px"
	 viewBox="0 0 1000 1000" style="enable-background:new 0 0 1000 1000;" xml:space="preserve">
<style type="text/css">
	.st0{fill:none;stroke:#6DBCFD;stroke-width:19.3109;stroke-miterlimit:10;}
	.st1{fill:#6DBCFD;}
	.st2{fill:none;stroke:#6DBCFD;stroke-width:20.8441;stroke-miterlimit:10;}
	.st3{opacity:0.25;fill:#6DBCFD;}
	.st4{fill:none;stroke:#6DBCFD;stroke-width:9.7209;stroke-miterlimit:10;}
	.st5{opacity:0.22;fill:#6DBCFD;}
	.st6{fill:none;stroke:#6DBCFD;stroke-width:5.5048;stroke-miterlimit:10;}
	.st7{fill:none;stroke:#6DBCFD;stroke-width:23.1731;stroke-miterlimit:10;}
	.st8{fill:none;stroke:#6DBCFD;stroke-width:21.242;stroke-miterlimit:10;}
	.st9{fill:#6DBCFD;stroke:#6DBCFD;stroke-width:3.8622;stroke-miterlimit:10;}
	.st10{fill:none;stroke:#6DBCFD;stroke-width:14.3719;stroke-miterlimit:10;}
	.st11{opacity:0.16;fill:#6DBCFD;}
</style>
<g id="XMLID_223_">
	<path id="XMLID_260_" class="st0" d="M268.5,898.5c-30-16.9-58.5-37.4-85-61.4"/>
	<path id="XMLID_258_" class="st0" d="M444.5,955.7c-31.1-3.6-62-10.4-92-20.2"/>
	<path id="XMLID_257_" class="st0" d="M66,671.6C-6.1,500.7,27.5,295.8,166.8,156.5C350.3-27,647.9-27,831.5,156.5
		s183.5,481.1,0,664.7c-69.1,69.1-154.4,112.2-243.6,129.3"/>
	<circle id="XMLID_252_" class="st1" cx="65.8" cy="671.1" r="9.7"/>
	<circle id="XMLID_251_" class="st1" cx="183.5" cy="837.1" r="9.7"/>
	<circle id="XMLID_246_" class="st1" cx="269.3" cy="898.9" r="9.7"/>
	<circle id="XMLID_245_" class="st1" cx="352.5" cy="935.5" r="9.7"/>
	<circle id="XMLID_240_" class="st1" cx="445.7" cy="955.8" r="9.7"/>
	<circle id="XMLID_239_" class="st1" cx="586.2" cy="950.6" r="9.7"/>
</g>
<g id="XMLID_189_">
	<path id="XMLID_222_" class="st2" d="M760.7,774.9c-152.2,139.4-388.8,135.4-536.2-12C73,611.4,73,365.7,224.5,214.2
		c42.6-42.6,92.7-73.3,146-91.9"/>
	<path id="XMLID_221_" class="st2" d="M876.9,576c-11.5,50.1-33.1,98.3-64.7,141.5"/>
	<path id="XMLID_219_" class="st2" d="M570,107.1c74.4,13.8,145.6,49.5,203.2,107.1c72,72,109.8,165.3,113.4,259.6"/>
	<path id="XMLID_218_" class="st2" d="M494.9,100.6"/>
	<path id="XMLID_204_" class="st2" d="M440.2,105c18.1-2.8,36.4-4.2,54.7-4.4"/>
	<path id="XMLID_203_" class="st2" d="M440.2,105"/>
	<circle id="XMLID_202_" class="st1" cx="439.4" cy="105.2" r="10.4"/>
	<circle id="XMLID_201_" class="st1" cx="371.4" cy="122.1" r="10.4"/>
	<circle id="XMLID_198_" class="st1" cx="494.9" cy="100.6" r="10.4"/>
	<circle id="XMLID_197_" class="st1" cx="570" cy="107.1" r="10.4"/>
	<circle id="XMLID_196_" class="st1" cx="886.6" cy="475.8" r="10.4"/>
	<circle id="XMLID_195_" class="st1" cx="876.9" cy="576" r="10.4"/>
	<circle id="XMLID_192_" class="st1" cx="812.2" cy="717.5" r="10.4"/>
	<circle id="XMLID_191_" class="st1" cx="760.7" cy="774.8" r="10.4"/>
</g>
<path id="XMLID_301_" class="st1" d="M609.6,752.7l26.4-35.5c1.5-2,4.3-2.4,6.3-0.9l1.6,1.2c2,1.5,2.4,4.3,0.9,6.3l-26.4,35.5
	c-1.5,2-4.3,2.4-6.3,0.9l-1.6-1.2C608.5,757.5,608.1,754.7,609.6,752.7z"/>
<path id="XMLID_300_" class="st1" d="M648.3,747l-35.5-26.4c-2-1.5-4.8-1.1-6.3,0.9l-1.2,1.6c-1.5,2-1.1,4.8,0.9,6.3l35.5,26.4
	c2,1.5,4.8,1.1,6.3-0.9l1.2-1.6C650.7,751.3,650.3,748.5,648.3,747z"/>
<path id="XMLID_299_" class="st3" d="M615.4,759.4l26.4-35.5c1.5-2,4.3-2.4,6.3-0.9l1.6,1.2c2,1.5,2.4,4.3,0.9,6.3L624.3,766
	c-1.5,2-4.3,2.4-6.3,0.9l-1.6-1.2C614.4,764.2,614,761.4,615.4,759.4z"/>
<path id="XMLID_298_" class="st3" d="M654.1,753.8l-35.5-26.4c-2-1.5-4.8-1.1-6.3,0.9l-1.2,1.6c-1.5,2-1.1,4.8,0.9,6.3l35.5,26.4
	c2,1.5,4.8,1.1,6.3-0.9l1.2-1.6C656.5,758.1,656.1,755.2,654.1,753.8z"/>
<circle id="XMLID_297_" class="st4" cx="308.5" cy="244.9" r="22.5"/>
<circle id="XMLID_296_" class="st5" cx="318.9" cy="252.4" r="26.8"/>
<circle id="XMLID_303_" class="st6" cx="458" cy="790.8" r="12.7"/>
<circle id="XMLID_302_" class="st5" cx="463.9" cy="795.1" r="15.2"/>
<circle id="XMLID_304_" class="st5" cx="193.2" cy="458.7" r="15.2"/>
<circle id="XMLID_307_" class="st5" cx="208.4" cy="605.1" r="6.8"/>
<circle id="XMLID_308_" class="st5" cx="801.7" cy="512.6" r="6.8"/>
<circle id="XMLID_305_" class="st5" cx="771.2" cy="346.6" r="15.2"/>
<path id="XMLID_267_" class="st7" d="M303.8,531.5v-99.8c0-22.3,18.1-40.3,40.3-40.3h335.3c22.3,0,40.3,18.1,40.3,40.3v161.8
	c0,22.3-18.1,40.3-40.3,40.3H521.2"/>
<g id="XMLID_262_">
	<path id="XMLID_277_" class="st1" d="M375.8,702.7c-58.3,0-105.7-47.4-105.7-105.7c0-58.3,47.4-105.7,105.7-105.7
		s105.7,47.4,105.7,105.7C481.5,655.2,434.1,702.7,375.8,702.7z M375.8,510.5c-47.7,0-86.4,38.8-86.4,86.4
		c0,47.7,38.8,86.4,86.4,86.4s86.4-38.8,86.4-86.4C462.2,549.3,423.4,510.5,375.8,510.5z"/>
</g>
<path id="XMLID_265_" class="st8" d="M451.1,543.1c39.2,3,70.1,35.8,70.1,75.8c0,42-34.1,76.1-76.1,76.1c-11.7,0-22.8-2.6-32.6-7.3"
	/>
<g id="XMLID_89_">
	<path id="XMLID_273_" class="st9" d="M372.5,588.8c6.8,0.6,12.6,3.4,17.2,8.4c4.7,5.1,7.1,11,7.1,17.9c0,7.3-2.6,13.5-7.8,18.7
		c-5.2,5.2-11.4,7.8-18.7,7.8c-7.3,0-13.5-2.6-18.7-7.8c-5.2-5.2-7.8-11.4-7.8-18.7h4.3c0,5.7,1.9,10.7,5.8,14.9
		c3.8,4.2,8.6,6.5,14.2,7.1v-44.3c-4.6-0.5-8.4-2.5-11.5-6c-3.1-3.5-4.7-7.6-4.7-12.2c0-5.1,1.8-9.4,5.4-13c3.6-3.6,7.9-5.4,13-5.4
		c5.1,0,9.4,1.8,13,5.4c3.6,3.6,5.4,7.9,5.4,13h-4.3c0-3.5-1.1-6.5-3.4-9.1c-2.3-2.6-5.1-4.2-8.4-4.7V588.8z M356.4,574.7
		c0,3.5,1.1,6.5,3.4,9.1c2.3,2.6,5.1,4.2,8.4,4.7v-27.7c-3.3,0.5-6.1,2.1-8.4,4.7C357.5,568.2,356.4,571.2,356.4,574.7z
		 M372.5,637.1c5.6-0.6,10.4-2.9,14.2-7.1c3.8-4.2,5.8-9.2,5.8-14.9c0-5.7-1.9-10.7-5.8-14.9c-3.8-4.2-8.6-6.5-14.2-7.1V637.1z"/>
</g>
<g id="XMLID_264_">
	<circle id="XMLID_289_" class="st1" cx="386.5" cy="576.7" r="4.1"/>
</g>
<g id="XMLID_270_">
	<circle id="XMLID_306_" class="st1" cx="353.5" cy="507.2" r="4.1"/>
</g>
<g id="XMLID_268_">
	<ellipse id="XMLID_285_" class="st1" cx="346.1" cy="613.3" rx="4.1" ry="4.1"/>
</g>
<g id="XMLID_266_">
	<rect id="XMLID_283_" x="366.3" y="548.1" class="st1" width="8.2" height="16.3"/>
</g>
<g id="XMLID_272_">
	<circle id="XMLID_284_" class="st1" cx="370.4" cy="648.8" r="4.1"/>
</g>
<g id="XMLID_282_">
	<circle id="XMLID_287_" class="st1" cx="370.4" cy="548.1" r="4.1"/>
</g>
<g id="XMLID_271_">
	<rect id="XMLID_281_" x="366.3" y="632.5" class="st1" width="8.2" height="16.3"/>
</g>
<path id="XMLID_269_" class="st7" d="M719.7,535.9H596.8c-11.9,0-21.6-9.7-21.6-21.6v-9.7c0-11.9,9.7-21.6,21.6-21.6h122.9V535.9z"
	/>
<path id="XMLID_292_" class="st10" d="M545.2,388.5l-79.3-117.1l-23.1,15.7c8.3,12.2,5.1,28.8-7.1,37c-12.2,8.3-28.8,5.1-37-7.1
	l-23.1,15.7l39.8,58.7"/>
<path id="XMLID_291_" class="st10" d="M618.6,388.5l23.1-32.6L619,339.7c-8.5,12-25.2,14.8-37.2,6.3c-12-8.5-14.8-25.2-6.3-37.2
	l-22.8-16.2l-34.4,48.5"/>
<path id="XMLID_310_" class="st11" d="M597.8,502.6h149.1v-42.1c0-25.3-20.5-45.8-45.8-45.8H376.8c-25.3,0-45.8,20.5-45.8,45.8v51.2
	c11.4-4.8,24-7.5,37.2-7.5c53.1,0,96.1,43,96.1,96.1c0,21.3-6.9,40.9-18.6,56.8h255.5c25.3,0,45.8-20.5,45.8-45.8v-42.1H597.8
	c-18.4,0-33.4-14.9-33.4-33.4C564.4,517.5,579.3,502.6,597.8,502.6z"/>
</svg>
