<?xml version="1.0" encoding="utf-8"?>
<!-- Generator: Adobe Illustrator 19.0.0, SVG Export Plug-In . SVG Version: 6.00 Build 0)  -->
<svg version="1.1" id="Слой_1" xmlns="http://www.w3.org/2000/svg" xmlns:xlink="http://www.w3.org/1999/xlink" x="0px" y="0px"
	 viewBox="-196.2 490.8 231 177" style="enable-background:new -196.2 490.8 231 177;" xml:space="preserve">
<style type="text/css">
	.st0{fill:#6DBCFD;}
	.st1{fill:#0075C4;}
	.st2{fill:#FFFFFF;}
	.st3{fill:none;}
	.st4{opacity:0.22;}
	.st5{fill:#3E3B3A;}
	.st6{opacity:0.27;}
	.st7{fill:none;stroke:#0075C4;stroke-width:2.8346;stroke-miterlimit:10;}
</style>
<g>
	<rect x="-24.2" y="562.3" class="st0" width="28.3" height="2.5"/>
</g>
<g>
	<polygon class="st0" points="-3.2,596.9 -73.9,590.8 -73.7,588.3 -9.6,593.8 -50.2,550.9 -48.4,549.2 	"/>
</g>
<g>
	<path class="st0" d="M-74.8,587.8l24.5-39.8l11.4,64.5l36.2-18.8l-33,51.2l-5.1-28.8l-14,7.3l-1.2-2.2l14.7-7.6l-10.4-58.7
		l-21.8,35.4 M-38.5,614.9l4.1,23.2l24.4-38L-38.5,614.9z"/>
</g>
<g>
	<polyline class="st0" points="-133,602.7 -157.8,623.9 -159.5,622 -135.1,601.1 	"/>
</g>
<g>
	<path class="st0" d="M-35.4,642l-21-18.3l-0.1-0.2l-18-32.6l-33.1,33.3l-52.2,1.8v-53.9l62.2-29.9l35.6-17.5l12,23.4l26.2,15
		l15-46.2L6.6,563l-9.7,34v36.7L-35.4,642z M-54.4,622.1l19.7,17.1l29-7.5v-35.1l9.6-33.5L-8.8,525l-13.6,41.9l-29.6-17L-63.2,528
		l-33.4,16.4l-60.8,29.3v49.7l48.7-1.7l34.8-34.9L-54.4,622.1z"/>
</g>
<g>
	<circle class="st1" cx="-158.6" cy="572.7" r="14.9"/>
	<path class="st1" d="M-158.6,588.7c-8.9,0-16.1-7.2-16.1-16.1c0-8.9,7.2-16.1,16.1-16.1s16.1,7.2,16.1,16.1
		C-142.6,581.5-149.8,588.7-158.6,588.7z M-158.6,558.9c-7.6,0-13.8,6.2-13.8,13.8s6.2,13.8,13.8,13.8s13.8-6.2,13.8-13.8
		S-151,558.9-158.6,558.9z"/>
</g>
<g>
	<path class="st2" d="M-43.2,547.5c1.1,5.6-3.8,10.4-9.4,9.4c-3.1-0.6-5.7-3.1-6.3-6.3c-1.1-5.6,3.8-10.4,9.4-9.4
		C-46.4,541.8-43.8,544.4-43.2,547.5z"/>
	<path class="st0" d="M-51,558.2c-0.6,0-1.2-0.1-1.8-0.2c-3.6-0.7-6.6-3.6-7.3-7.3c-0.5-2.8,0.2-5.5,1.9-7.7
		c2.1-2.6,5.5-3.8,8.9-3.2c3.6,0.7,6.6,3.6,7.3,7.3c0.5,2.8-0.2,5.5-1.9,7.7C-45.7,557-48.3,558.2-51,558.2z M-51,542.3
		c-2,0-3.9,0.9-5.2,2.4c-1.3,1.6-1.8,3.6-1.4,5.6c0.5,2.6,2.7,4.8,5.3,5.3c2.5,0.5,4.9-0.4,6.5-2.3c1.3-1.6,1.8-3.6,1.4-5.6
		c-0.5-2.6-2.7-4.8-5.3-5.3C-50.2,542.4-50.6,542.3-51,542.3z"/>
</g>
<g>
	<path class="st2" d="M3.4,595.3c1.1,5.6-3.8,10.4-9.4,9.4c-3.1-0.6-5.7-3.1-6.3-6.3c-1.1-5.6,3.8-10.4,9.4-9.4
		C0.2,589.6,2.8,592.1,3.4,595.3z"/>
	<path class="st0" d="M-4.5,606c-0.6,0-1.2-0.1-1.8-0.2c-3.6-0.7-6.6-3.6-7.3-7.3c-0.5-2.8,0.2-5.5,1.9-7.7c2.1-2.6,5.5-3.8,8.9-3.2
		c3.6,0.7,6.6,3.6,7.3,7.3c0.5,2.8-0.2,5.5-1.9,7.7S-1.7,606-4.5,606z M-4.5,590.1c-2,0-3.9,0.9-5.2,2.4c-1.3,1.6-1.8,3.6-1.4,5.6
		c0.5,2.6,2.7,4.8,5.3,5.3c2.5,0.5,4.9-0.4,6.5-2.3c1.3-1.6,1.8-3.6,1.4-5.6c-0.5-2.6-2.7-4.8-5.3-5.3C-3.6,590.1-4,590.1-4.5,590.1
		z"/>
</g>
<g>
	<path class="st2" d="M3.4,631.1c1.1,5.6-3.8,10.4-9.4,9.4c-3.1-0.6-5.7-3.1-6.3-6.3c-1.1-5.6,3.8-10.4,9.4-9.4
		C0.2,625.5,2.8,628,3.4,631.1z"/>
	<path class="st0" d="M-4.5,641.9c-0.6,0-1.2-0.1-1.8-0.2c-3.6-0.7-6.6-3.6-7.3-7.3c-0.5-2.8,0.2-5.5,1.9-7.7
		c2.1-2.6,5.5-3.8,8.9-3.2c3.6,0.7,6.6,3.6,7.3,7.3c0.5,2.8-0.2,5.5-1.9,7.7S-1.7,641.9-4.5,641.9z M-4.5,626c-2,0-3.9,0.9-5.2,2.4
		c-1.3,1.6-1.8,3.6-1.4,5.6c0.5,2.6,2.7,4.8,5.3,5.3c2.5,0.5,4.9-0.4,6.5-2.3c1.3-1.6,1.8-3.6,1.4-5.6c-0.5-2.6-2.7-4.8-5.3-5.3
		C-3.6,626-4,626-4.5,626z"/>
</g>
<g>
	<path class="st2" d="M-150.8,623.2c1.1,5.6-3.8,10.4-9.4,9.4c-3.1-0.6-5.7-3.1-6.3-6.3c-1.1-5.6,3.8-10.4,9.4-9.4
		C-154,617.5-151.4,620.1-150.8,623.2z"/>
	<path class="st0" d="M-158.6,634c-0.6,0-1.2-0.1-1.8-0.2c-3.6-0.7-6.6-3.6-7.3-7.3c-0.5-2.8,0.2-5.5,1.9-7.7
		c2.1-2.6,5.5-3.8,8.9-3.2c3.6,0.7,6.6,3.6,7.3,7.3c0.5,2.8-0.2,5.5-1.9,7.7C-153.3,632.7-155.9,634-158.6,634z M-158.6,618
		c-2,0-3.9,0.9-5.2,2.4c-1.3,1.6-1.8,3.6-1.4,5.6c0.5,2.6,2.7,4.8,5.3,5.3c2.5,0.5,4.9-0.4,6.5-2.3c1.3-1.6,1.8-3.6,1.4-5.6
		c-0.5-2.6-2.7-4.8-5.3-5.3C-157.8,618.1-158.2,618-158.6,618z"/>
</g>
<g>
	<path class="st2" d="M-120.5,593.8c1.1,5.6-3.8,10.4-9.4,9.4c-3.1-0.6-5.7-3.1-6.3-6.3c-1.1-5.6,3.8-10.4,9.4-9.4
		C-123.7,588.2-121.1,590.7-120.5,593.8z"/>
	<path class="st0" d="M-128.4,604.6c-0.6,0-1.2-0.1-1.8-0.2c-3.6-0.7-6.6-3.6-7.3-7.3c-0.5-2.8,0.2-5.5,1.9-7.7
		c2.1-2.6,5.5-3.8,8.9-3.2c3.6,0.7,6.6,3.6,7.3,7.3c0.5,2.8-0.2,5.5-1.9,7.7S-125.6,604.6-128.4,604.6z M-128.4,588.7
		c-2,0-3.9,0.9-5.2,2.4c-1.3,1.6-1.8,3.6-1.4,5.6c0.5,2.6,2.7,4.8,5.3,5.3c2.5,0.5,4.9-0.4,6.5-2.3c1.3-1.6,1.8-3.6,1.4-5.6
		c-0.5-2.6-2.7-4.8-5.3-5.3C-127.5,588.7-127.9,588.7-128.4,588.7z"/>
</g>
<g>
	<circle class="st0" cx="-62.6" cy="526.5" r="3.6"/>
</g>
<g>
	<circle class="st0" cx="-23.2" cy="563.5" r="3.6"/>
</g>
<g>
	<circle class="st0" cx="-8.8" cy="521" r="3.6"/>
</g>
<g>
	<circle class="st0" cx="5.2" cy="563.1" r="3.6"/>
</g>
<g>
	<circle class="st0" cx="-35.1" cy="640.7" r="3.6"/>
</g>
<g>
	<circle class="st0" cx="-108.2" cy="623" r="3.6"/>
</g>
<g>
	<circle class="st0" cx="-55.4" cy="623" r="3.6"/>
</g>
<g>
	<g>
		<g>
			
				<rect x="-103" y="541.9" transform="matrix(-0.9979 6.425160e-02 -6.425160e-02 -0.9979 -157.8422 1097.2429)" class="st3" width="12.9" height="8.4"/>
		</g>
		<g>
			
				<rect x="-98.5" y="544.6" transform="matrix(-0.9979 6.425160e-02 -6.425160e-02 -0.9979 -157.4542 1099.8226)" class="st3" width="4.2" height="5.6"/>
		</g>
		<g>
			<path class="st3" d="M-102.8,543.8c1.4,0.1,2-2,2-2s1,1.6,2.2,1.6s1.9-1.7,1.9-1.7s0.8,1.7,2.1,1.5c1.3-0.1,2-1.5,2-1.5
				c2.7,2.5,3.6-0.3,3.8-1l-16.1,1C-104.8,541.9-104.2,543.7-102.8,543.8z"/>
		</g>
		<g>
			<g>
				<path class="st0" d="M-94.1,550.4l-4.4,0.3c-0.2,0-0.4-0.1-0.4-0.3l-0.3-5.1c0-0.5,0.3-0.9,0.8-0.9l3.3-0.2
					c0.5,0,0.9,0.3,0.9,0.8l0.3,5.1C-93.7,550.2-93.9,550.3-94.1,550.4z M-98.1,549.9l3.6-0.2l-0.3-4.8c0-0.1-0.1-0.2-0.2-0.2
					l-3.3,0.2c-0.1,0-0.2,0.1-0.2,0.2L-98.1,549.9z"/>
			</g>
		</g>
		<g>
			<g>
				<path class="st0" d="M-90.6,543l0.4,6.4l-11.9,0.8l-0.4-6.4l-0.9,0.1l0.4,6.9c0,0.3,0.2,0.4,0.5,0.4l12.8-0.8
					c0.3,0,0.4-0.2,0.4-0.5l-0.4-6.9H-90.6z"/>
			</g>
		</g>
	</g>
	<g class="st4">
		<g>
			
				<rect x="-103.8" y="542.8" transform="matrix(-0.9979 6.425160e-02 -6.425160e-02 -0.9979 -159.3888 1099.0886)" class="st3" width="12.9" height="8.4"/>
		</g>
		<g>
			
				<rect x="-99.4" y="545.5" transform="matrix(-0.9979 6.425160e-02 -6.425160e-02 -0.9979 -159.1998 1101.6876)" class="st3" width="4.2" height="5.6"/>
		</g>
		<g>
			<path class="st3" d="M-103.6,544.8c1.4,0.1,2-2,2-2s1,1.6,2.2,1.6s1.9-1.7,1.9-1.7s0.8,1.7,2.1,1.5c1.3-0.1,2-1.5,2-1.5
				c2.7,2.5,3.6-0.3,3.8-1l-16.1,1C-105.7,542.8-105,544.7-103.6,544.8z"/>
		</g>
		<g>
			<g>
				<g>
					<g>
						<path class="st0" d="M-105.1,542.8c0.1,0.9,0.8,1.6,1.7,1.5c0.9-0.1,1.5-0.9,1.4-1.8l-0.2-2.7l-2,0.1L-105.1,542.8z"/>
					</g>
				</g>
			</g>
			<g>
				<g>
					<g>
						<path class="st0" d="M-101.3,539.7l0.2,2.7c0.1,0.9,0.8,1.6,1.7,1.6c0.9-0.1,1.5-0.9,1.4-1.8l-0.2-2.7L-101.3,539.7z"/>
					</g>
				</g>
			</g>
			<g>
				<g>
					<g>
						<path class="st0" d="M-97.3,539.5l0.2,2.7c0.1,0.9,0.8,1.6,1.7,1.6c0.9-0.1,1.5-0.9,1.4-1.8l-0.2-2.7L-97.3,539.5z"/>
					</g>
				</g>
			</g>
			<g>
				<g>
					<g>
						<path class="st0" d="M-93.3,539.2l0.2,2.7c0.1,0.9,0.8,1.6,1.7,1.6c0.8-0.1,1.5-0.8,1.4-1.7l-1.4-2.8L-93.3,539.2z"/>
					</g>
				</g>
			</g>
		</g>
		<g>
			<g>
				<path class="st0" d="M-94.9,551.3l-4.4,0.3c-0.2,0-0.4-0.1-0.4-0.3l-0.3-5.1c0-0.5,0.3-0.9,0.8-0.9l3.3-0.2
					c0.5,0,0.9,0.3,0.9,0.8l0.3,5.1C-94.6,551.1-94.7,551.3-94.9,551.3z M-99,550.8l3.6-0.2l-0.3-4.8c0-0.1-0.1-0.2-0.2-0.2
					l-3.3,0.2c-0.1,0-0.2,0.1-0.2,0.2L-99,550.8z"/>
			</g>
		</g>
		<g>
			<g>
				<path class="st0" d="M-91.5,544l0.4,6.4l-11.9,0.8l-0.4-6.4l-0.9,0.1l0.4,6.9c0,0.3,0.2,0.4,0.5,0.4l12.8-0.8
					c0.3,0,0.4-0.2,0.4-0.5l-0.4-6.9H-91.5z"/>
			</g>
		</g>
	</g>
</g>
<g>
	<g>
		<g>
			
				<rect x="-164.2" y="571.4" transform="matrix(-0.9979 6.425160e-02 -6.425160e-02 -0.9979 -278.2168 1160.1128)" class="st3" width="12.9" height="8.4"/>
		</g>
		<g>
			
				<rect x="-159.7" y="574.1" transform="matrix(-0.9979 6.425160e-02 -6.425160e-02 -0.9979 -277.8288 1162.6925)" class="st3" width="4.2" height="5.6"/>
		</g>
		<g>
			<path class="st3" d="M-164.7,568.1l13-0.7l1.8,2.8c0,0-0.9,3.9-3.9,1.1c0,0-0.7,1.3-2,1.5c-1.3,0.1-2.1-1.5-2.1-1.5
				s-0.7,1.6-1.9,1.7c-1.2,0-2.2-1.6-2.2-1.6s-0.5,2.1-2,2c-1.4-0.1-2.1-1.9-2.1-1.9L-164.7,568.1z"/>
		</g>
		<g>
			
				<rect x="-164.8" y="565" transform="matrix(-0.9979 6.425160e-02 -6.425160e-02 -0.9979 -280.0037 1141.6708)" class="st3" width="12.9" height="2.7"/>
		</g>
		<g>
			<path class="st3" d="M-163.9,573.3c1.4,0.1,2-2,2-2s1,1.6,2.2,1.6s1.9-1.7,1.9-1.7s0.8,1.7,2.1,1.5c1.3-0.1,2-1.5,2-1.5
				c2.7,2.5,3.6-0.3,3.8-1l-16.1,1C-166,571.4-165.4,573.2-163.9,573.3z"/>
		</g>
		<g>
			<g>
				<g>
					<g>
						<path class="st2" d="M-163.7,573.8c-1.3,0.1-2.5-1-2.6-2.4c0-0.1,0-0.1,0-0.2l1-3.3c0.1-0.2,0.2-0.3,0.4-0.3l2.7-0.2
							c0.2,0,0.5,0.2,0.5,0.4l0.2,3.2C-161.4,572.5-162.4,573.7-163.7,573.8z M-165.4,571.4c0.1,0.9,0.8,1.6,1.7,1.5
							c0.9-0.1,1.5-0.9,1.4-1.8l-0.2-2.7l-2,0.1L-165.4,571.4z"/>
					</g>
				</g>
			</g>
			<g>
				<g>
					<g>
						<path class="st2" d="M-159.7,573.5c-1.3,0.1-2.5-1-2.6-2.4l-0.2-3.2c0-0.2,0.2-0.5,0.4-0.5l4-0.3c0.2,0,0.5,0.2,0.5,0.4
							l0.2,3.2C-157.4,572.2-158.4,573.4-159.7,573.5z M-161.6,568.3l0.2,2.7c0.1,0.9,0.8,1.6,1.7,1.6c0.9-0.1,1.5-0.9,1.4-1.8
							l-0.2-2.7L-161.6,568.3z"/>
					</g>
				</g>
			</g>
			<g>
				<g>
					<g>
						<path class="st2" d="M-155.8,573.3c-1.3,0.1-2.5-1-2.6-2.4l-0.2-3.2c0-0.2,0.2-0.5,0.4-0.5l4-0.3c0.2,0,0.5,0.2,0.5,0.4
							l0.2,3.2C-153.4,571.9-154.4,573.2-155.8,573.3z M-157.7,568l0.2,2.7c0.1,0.9,0.8,1.6,1.7,1.6c0.9-0.1,1.5-0.9,1.4-1.8
							l-0.2-2.7L-157.7,568z"/>
					</g>
				</g>
			</g>
			<g>
				<g>
					<g>
						<path class="st2" d="M-151.8,573c-1.3,0.1-2.5-1-2.6-2.4l-0.2-3.2c0-0.2,0.2-0.5,0.4-0.5l2.6-0.2c0.2,0,0.3,0.1,0.4,0.2
							l1.6,3.1c0,0.1,0,0.1,0,0.2C-149.4,571.7-150.4,572.9-151.8,573z M-153.7,567.8l0.2,2.7c0.1,0.9,0.8,1.6,1.7,1.6
							c0.8-0.1,1.5-0.8,1.4-1.7l-1.4-2.8L-153.7,567.8z"/>
					</g>
				</g>
			</g>
		</g>
		<g>
			<g>
				<path class="st5" d="M-166.2,566.7"/>
			</g>
		</g>
		<g>
			<g>
				<path class="st2" d="M-151.7,567.7l-13,0.8c-0.2,0-0.5-0.2-0.5-0.4l-0.2-2.7c0-0.2,0.2-0.5,0.4-0.5l13-0.8
					c0.2,0,0.5,0.2,0.5,0.4l0.2,2.7C-151.3,567.4-151.5,567.7-151.7,567.7z M-164.3,567.6l12.1-0.8l-0.1-1.9l-12.1,0.8L-164.3,567.6
					z"/>
			</g>
		</g>
		<g>
			<g>
				<path class="st2" d="M-155.3,579.9l-4.4,0.3c-0.2,0-0.4-0.1-0.4-0.3l-0.3-5.1c0-0.5,0.3-0.9,0.8-0.9l3.3-0.2
					c0.5,0,0.9,0.3,0.9,0.8l0.3,5.1C-154.9,579.7-155.1,579.9-155.3,579.9z M-159.3,579.4l3.6-0.2l-0.3-4.8c0-0.1-0.1-0.2-0.2-0.2
					l-3.3,0.2c-0.1,0-0.2,0.1-0.2,0.2L-159.3,579.4z"/>
			</g>
		</g>
		<g>
			<g>
				<path class="st2" d="M-151.8,572.6l0.4,6.4l-11.9,0.8l-0.4-6.4l-0.9,0.1l0.4,6.9c0,0.3,0.2,0.4,0.5,0.4l12.8-0.8
					c0.3,0,0.4-0.2,0.4-0.5l-0.4-6.9H-151.8z"/>
			</g>
		</g>
	</g>
	<g class="st4">
		<g>
			
				<rect x="-165" y="572.3" transform="matrix(-0.9979 6.425160e-02 -6.425160e-02 -0.9979 -279.7634 1161.9585)" class="st3" width="12.9" height="8.4"/>
		</g>
		<g>
			
				<rect x="-160.6" y="575" transform="matrix(-0.9979 6.425160e-02 -6.425160e-02 -0.9979 -279.5743 1164.5575)" class="st3" width="4.2" height="5.6"/>
		</g>
		<g>
			<path class="st3" d="M-165.6,569l13-0.7l1.8,2.8c0,0-0.9,3.9-3.9,1.1c0,0-0.7,1.3-2,1.5c-1.3,0.1-2.1-1.5-2.1-1.5
				s-0.7,1.6-1.9,1.7c-1.2,0-2.2-1.6-2.2-1.6s-0.5,2.1-2,2c-1.4-0.1-2.1-1.9-2.1-1.9L-165.6,569z"/>
		</g>
		<g>
			
				<rect x="-165.6" y="565.9" transform="matrix(-0.9979 6.425160e-02 -6.425160e-02 -0.9979 -281.5504 1143.5166)" class="st3" width="12.9" height="2.7"/>
		</g>
		<g>
			<path class="st3" d="M-164.8,574.3c1.4,0.1,2-2,2-2s1,1.6,2.2,1.6s1.9-1.7,1.9-1.7s0.8,1.7,2.1,1.5c1.3-0.1,2-1.5,2-1.5
				c2.7,2.5,3.6-0.3,3.8-1l-16.1,1C-166.9,572.3-166.2,574.2-164.8,574.3z"/>
		</g>
		<g>
			<g>
				<g>
					<g>
						<path class="st2" d="M-164.6,574.7c-1.3,0.1-2.5-1-2.6-2.4c0-0.1,0-0.1,0-0.2l1-3.3c0.1-0.2,0.2-0.3,0.4-0.3l2.7-0.2
							c0.2,0,0.5,0.2,0.5,0.4l0.2,3.2C-162.2,573.4-163.2,574.6-164.6,574.7z M-166.3,572.3c0.1,0.9,0.8,1.6,1.7,1.5
							c0.9-0.1,1.5-0.9,1.4-1.8l-0.2-2.7l-2,0.1L-166.3,572.3z"/>
					</g>
				</g>
			</g>
			<g>
				<g>
					<g>
						<path class="st2" d="M-160.6,574.5c-1.3,0.1-2.5-1-2.6-2.4l-0.2-3.2c0-0.2,0.2-0.5,0.4-0.5l4-0.3c0.2,0,0.5,0.2,0.5,0.4
							l0.2,3.2C-158.2,573.2-159.2,574.4-160.6,574.5z M-162.5,569.2l0.2,2.7c0.1,0.9,0.8,1.6,1.7,1.6c0.9-0.1,1.5-0.9,1.4-1.8
							l-0.2-2.7L-162.5,569.2z"/>
					</g>
				</g>
			</g>
			<g>
				<g>
					<g>
						<path class="st2" d="M-156.6,574.2c-1.3,0.1-2.5-1-2.6-2.4l-0.2-3.2c0-0.2,0.2-0.5,0.4-0.5l4-0.3c0.2,0,0.5,0.2,0.5,0.4
							l0.2,3.2C-154.2,572.9-155.3,574.1-156.6,574.2z M-158.5,569l0.2,2.7c0.1,0.9,0.8,1.6,1.7,1.6c0.9-0.1,1.5-0.9,1.4-1.8
							l-0.2-2.7L-158.5,569z"/>
					</g>
				</g>
			</g>
			<g>
				<g>
					<g>
						<path class="st2" d="M-152.6,574c-1.3,0.1-2.5-1-2.6-2.4l-0.2-3.2c0-0.2,0.2-0.5,0.4-0.5l2.6-0.2c0.2,0,0.3,0.1,0.4,0.2
							l1.6,3.1c0,0.1,0,0.1,0,0.2C-150.3,572.6-151.3,573.9-152.6,574z M-154.5,568.7l0.2,2.7c0.1,0.9,0.8,1.6,1.7,1.6
							c0.8-0.1,1.5-0.8,1.4-1.7l-1.4-2.8L-154.5,568.7z"/>
					</g>
				</g>
			</g>
		</g>
		<g>
			<g>
				<path class="st5" d="M-167,567.7"/>
			</g>
		</g>
		<g>
			<g>
				<path class="st2" d="M-152.6,568.6l-13,0.8c-0.2,0-0.5-0.2-0.5-0.4l-0.2-2.7c0-0.2,0.2-0.5,0.4-0.5l13-0.8
					c0.2,0,0.5,0.2,0.5,0.4l0.2,2.7C-152.1,568.4-152.3,568.6-152.6,568.6z M-165.2,568.5l12.1-0.8l-0.1-1.9l-12.1,0.8L-165.2,568.5
					z"/>
			</g>
		</g>
		<g>
			<g>
				<path class="st2" d="M-156.1,580.8l-4.4,0.3c-0.2,0-0.4-0.1-0.4-0.3l-0.3-5.1c0-0.5,0.3-0.9,0.8-0.9l3.3-0.2
					c0.5,0,0.9,0.3,0.9,0.8l0.3,5.1C-155.8,580.6-155.9,580.8-156.1,580.8z M-160.2,580.4l3.6-0.2l-0.3-4.8c0-0.1-0.1-0.2-0.2-0.2
					l-3.3,0.2c-0.1,0-0.2,0.1-0.2,0.2L-160.2,580.4z"/>
			</g>
		</g>
		<g>
			<g>
				<path class="st2" d="M-152.7,573.5l0.4,6.4l-11.9,0.8l-0.4-6.4l-0.9,0.1l0.4,6.9c0,0.3,0.2,0.4,0.5,0.4l12.8-0.8
					c0.3,0,0.4-0.2,0.4-0.5l-0.4-6.9H-152.7z"/>
			</g>
		</g>
	</g>
</g>
<g>
	<circle class="st1" cx="-96.8" cy="543.9" r="14.9"/>
	<path class="st1" d="M-96.8,559.9c-8.9,0-16.1-7.2-16.1-16.1c0-8.9,7.2-16.1,16.1-16.1s16.1,7.2,16.1,16.1
		C-80.8,552.7-88,559.9-96.8,559.9z M-96.8,530.1c-7.6,0-13.8,6.2-13.8,13.8s6.2,13.8,13.8,13.8s13.8-6.2,13.8-13.8
		S-89.2,530.1-96.8,530.1z"/>
</g>
<g>
	<g>
		<g>
			
				<rect x="-102.5" y="542.6" transform="matrix(-0.9979 6.425160e-02 -6.425160e-02 -0.9979 -156.6961 1098.5624)" class="st3" width="12.9" height="8.4"/>
		</g>
		<g>
			
				<rect x="-98" y="545.3" transform="matrix(-0.9979 6.425160e-02 -6.425160e-02 -0.9979 -156.3081 1101.142)" class="st3" width="4.2" height="5.6"/>
		</g>
		<g>
			<path class="st3" d="M-102.9,539.3l13-0.7l1.8,2.8c0,0-0.9,3.9-3.9,1.1c0,0-0.7,1.3-2,1.5c-1.3,0.1-2.1-1.5-2.1-1.5
				s-0.7,1.6-1.9,1.7c-1.2,0-2.2-1.6-2.2-1.6s-0.5,2.1-2,2c-1.4-0.1-2.1-1.9-2.1-1.9L-102.9,539.3z"/>
		</g>
		<g>
			
				<rect x="-103.1" y="536.2" transform="matrix(-0.9979 6.425160e-02 -6.425160e-02 -0.9979 -158.483 1080.1202)" class="st3" width="12.9" height="2.7"/>
		</g>
		<g>
			<path class="st3" d="M-102.1,544.5c1.4,0.1,2-2,2-2s1,1.6,2.2,1.6s1.9-1.7,1.9-1.7s0.8,1.7,2.1,1.5c1.3-0.1,2-1.5,2-1.5
				c2.7,2.5,3.6-0.3,3.8-1l-16.1,1C-104.2,542.6-103.6,544.4-102.1,544.5z"/>
		</g>
		<g>
			<g>
				<g>
					<g>
						<path class="st2" d="M-101.9,545c-1.3,0.1-2.5-1-2.6-2.4c0-0.1,0-0.1,0-0.2l1-3.3c0.1-0.2,0.2-0.3,0.4-0.3l2.7-0.2
							c0.2,0,0.5,0.2,0.5,0.4l0.2,3.2C-99.6,543.7-100.6,544.9-101.9,545z M-103.6,542.6c0.1,0.9,0.8,1.6,1.7,1.5
							c0.9-0.1,1.5-0.9,1.4-1.8l-0.2-2.7l-2,0.1L-103.6,542.6z"/>
					</g>
				</g>
			</g>
			<g>
				<g>
					<g>
						<path class="st2" d="M-97.9,544.7c-1.3,0.1-2.5-1-2.6-2.4l-0.2-3.2c0-0.2,0.2-0.5,0.4-0.5l4-0.3c0.2,0,0.5,0.2,0.5,0.4
							l0.2,3.2C-95.6,543.4-96.6,544.6-97.9,544.7z M-99.8,539.5l0.2,2.7c0.1,0.9,0.8,1.6,1.7,1.6c0.9-0.1,1.5-0.9,1.4-1.8l-0.2-2.7
							L-99.8,539.5z"/>
					</g>
				</g>
			</g>
			<g>
				<g>
					<g>
						<path class="st2" d="M-94,544.5c-1.3,0.1-2.5-1-2.6-2.4l-0.2-3.2c0-0.2,0.2-0.5,0.4-0.5l4-0.3c0.2,0,0.5,0.2,0.5,0.4l0.2,3.2
							C-91.6,543.1-92.6,544.4-94,544.5z M-95.9,539.2l0.2,2.7c0.1,0.9,0.8,1.6,1.7,1.6c0.9-0.1,1.5-0.9,1.4-1.8l-0.2-2.7
							L-95.9,539.2z"/>
					</g>
				</g>
			</g>
			<g>
				<g>
					<g>
						<path class="st2" d="M-90,544.2c-1.3,0.1-2.5-1-2.6-2.4l-0.2-3.2c0-0.2,0.2-0.5,0.4-0.5l2.6-0.2c0.2,0,0.3,0.1,0.4,0.2
							l1.6,3.1c0,0.1,0,0.1,0,0.2C-87.6,542.9-88.6,544.1-90,544.2z M-91.9,539l0.2,2.7c0.1,0.9,0.8,1.6,1.7,1.6
							c0.8-0.1,1.5-0.8,1.4-1.7l-1.4-2.8L-91.9,539z"/>
					</g>
				</g>
			</g>
		</g>
		<g>
			<g>
				<path class="st5" d="M-104.4,537.9"/>
			</g>
		</g>
		<g>
			<g>
				<path class="st2" d="M-89.9,538.9l-13,0.8c-0.2,0-0.5-0.2-0.5-0.4l-0.2-2.7c0-0.2,0.2-0.5,0.4-0.5l13-0.8c0.2,0,0.5,0.2,0.5,0.4
					l0.2,2.7C-89.5,538.6-89.7,538.9-89.9,538.9z M-102.5,538.8l12.1-0.8l-0.1-1.9l-12.1,0.8L-102.5,538.8z"/>
			</g>
		</g>
		<g>
			<g>
				<path class="st2" d="M-93.5,551.1l-4.4,0.3c-0.2,0-0.4-0.1-0.4-0.3l-0.3-5.1c0-0.5,0.3-0.9,0.8-0.9l3.3-0.2
					c0.5,0,0.9,0.3,0.9,0.8l0.3,5.1C-93.1,550.9-93.3,551.1-93.5,551.1z M-97.5,550.6l3.6-0.2l-0.3-4.8c0-0.1-0.1-0.2-0.2-0.2
					l-3.3,0.2c-0.1,0-0.2,0.1-0.2,0.2L-97.5,550.6z"/>
			</g>
		</g>
		<g>
			<g>
				<path class="st2" d="M-90,543.8l0.4,6.4l-11.9,0.8l-0.4-6.4l-0.9,0.1l0.4,6.9c0,0.3,0.2,0.4,0.5,0.4l12.8-0.8
					c0.3,0,0.4-0.2,0.4-0.5l-0.4-6.9H-90z"/>
			</g>
		</g>
	</g>
	<g class="st4">
		<g>
			
				<rect x="-103.3" y="543.5" transform="matrix(-0.9979 6.425160e-02 -6.425160e-02 -0.9979 -158.2427 1100.4081)" class="st3" width="12.9" height="8.4"/>
		</g>
		<g>
			
				<rect x="-98.9" y="546.2" transform="matrix(-0.9979 6.425160e-02 -6.425160e-02 -0.9979 -158.0537 1103.0071)" class="st3" width="4.2" height="5.6"/>
		</g>
		<g>
			<path class="st3" d="M-103.8,540.2l13-0.7l1.8,2.8c0,0-0.9,3.9-3.9,1.1c0,0-0.7,1.3-2,1.5c-1.3,0.1-2.1-1.5-2.1-1.5
				s-0.7,1.6-1.9,1.7c-1.2,0-2.2-1.6-2.2-1.6s-0.5,2.1-2,2c-1.4-0.1-2.1-1.9-2.1-1.9L-103.8,540.2z"/>
		</g>
		<g>
			
				<rect x="-103.9" y="537.1" transform="matrix(-0.9979 6.425160e-02 -6.425160e-02 -0.9979 -160.0297 1081.9661)" class="st3" width="12.9" height="2.7"/>
		</g>
		<g>
			<path class="st3" d="M-103,545.5c1.4,0.1,2-2,2-2s1,1.6,2.2,1.6s1.9-1.7,1.9-1.7s0.8,1.7,2.1,1.5c1.3-0.1,2-1.5,2-1.5
				c2.7,2.5,3.6-0.3,3.8-1l-16.1,1C-105.1,543.5-104.4,545.4-103,545.5z"/>
		</g>
		<g>
			<g>
				<g>
					<g>
						<path class="st2" d="M-102.8,545.9c-1.3,0.1-2.5-1-2.6-2.4c0-0.1,0-0.1,0-0.2l1-3.3c0.1-0.2,0.2-0.3,0.4-0.3l2.7-0.2
							c0.2,0,0.5,0.2,0.5,0.4l0.2,3.2C-100.4,544.6-101.4,545.8-102.8,545.9z M-104.5,543.5c0.1,0.9,0.8,1.6,1.7,1.5
							c0.9-0.1,1.5-0.9,1.4-1.8l-0.2-2.7l-2,0.1L-104.5,543.5z"/>
					</g>
				</g>
			</g>
			<g>
				<g>
					<g>
						<path class="st2" d="M-98.8,545.7c-1.3,0.1-2.5-1-2.6-2.4l-0.2-3.2c0-0.2,0.2-0.5,0.4-0.5l4-0.3c0.2,0,0.5,0.2,0.5,0.4
							l0.2,3.2C-96.4,544.4-97.4,545.6-98.8,545.7z M-100.7,540.4l0.2,2.7c0.1,0.9,0.8,1.6,1.7,1.6c0.9-0.1,1.5-0.9,1.4-1.8
							l-0.2-2.7L-100.7,540.4z"/>
					</g>
				</g>
			</g>
			<g>
				<g>
					<g>
						<path class="st2" d="M-94.8,545.4c-1.3,0.1-2.5-1-2.6-2.4l-0.2-3.2c0-0.2,0.2-0.5,0.4-0.5l4-0.3c0.2,0,0.5,0.2,0.5,0.4
							l0.2,3.2C-92.4,544.1-93.5,545.3-94.8,545.4z M-96.7,540.2l0.2,2.7c0.1,0.9,0.8,1.6,1.7,1.6c0.9-0.1,1.5-0.9,1.4-1.8l-0.2-2.7
							L-96.7,540.2z"/>
					</g>
				</g>
			</g>
			<g>
				<g>
					<g>
						<path class="st2" d="M-90.8,545.2c-1.3,0.1-2.5-1-2.6-2.4l-0.2-3.2c0-0.2,0.2-0.5,0.4-0.5l2.6-0.2c0.2,0,0.3,0.1,0.4,0.2
							l1.6,3.1c0,0.1,0,0.1,0,0.2C-88.5,543.8-89.5,545.1-90.8,545.2z M-92.7,539.9l0.2,2.7c0.1,0.9,0.8,1.6,1.7,1.6
							c0.8-0.1,1.5-0.8,1.4-1.7l-1.4-2.8L-92.7,539.9z"/>
					</g>
				</g>
			</g>
		</g>
		<g>
			<g>
				<path class="st5" d="M-105.2,538.9"/>
			</g>
		</g>
		<g>
			<g>
				<path class="st2" d="M-90.8,539.8l-13,0.8c-0.2,0-0.5-0.2-0.5-0.4l-0.2-2.7c0-0.2,0.2-0.5,0.4-0.5l13-0.8c0.2,0,0.5,0.2,0.5,0.4
					l0.2,2.7C-90.3,539.6-90.5,539.8-90.8,539.8z M-103.4,539.7l12.1-0.8l-0.1-1.9l-12.1,0.8L-103.4,539.7z"/>
			</g>
		</g>
		<g>
			<g>
				<path class="st2" d="M-94.3,552l-4.4,0.3c-0.2,0-0.4-0.1-0.4-0.3l-0.3-5.1c0-0.5,0.3-0.9,0.8-0.9l3.3-0.2c0.5,0,0.9,0.3,0.9,0.8
					l0.3,5.1C-94,551.8-94.1,552-94.3,552z M-98.4,551.6l3.6-0.2l-0.3-4.8c0-0.1-0.1-0.2-0.2-0.2l-3.3,0.2c-0.1,0-0.2,0.1-0.2,0.2
					L-98.4,551.6z"/>
			</g>
		</g>
		<g>
			<g>
				<path class="st2" d="M-90.9,544.7l0.4,6.4l-11.9,0.8l-0.4-6.4l-0.9,0.1l0.4,6.9c0,0.3,0.2,0.4,0.5,0.4l12.8-0.8
					c0.3,0,0.4-0.2,0.4-0.5l-0.4-6.9H-90.9z"/>
			</g>
		</g>
	</g>
</g>
<g>
	<circle class="st1" cx="-73.9" cy="589.7" r="14.9"/>
	<path class="st1" d="M-73.9,605.7c-8.9,0-16.1-7.2-16.1-16.1c0-8.9,7.2-16.1,16.1-16.1s16.1,7.2,16.1,16.1
		C-57.9,598.5-65.1,605.7-73.9,605.7z M-73.9,575.9c-7.6,0-13.8,6.2-13.8,13.8s6.2,13.8,13.8,13.8s13.8-6.2,13.8-13.8
		S-66.3,575.9-73.9,575.9z"/>
</g>
<g>
	<g>
		<g>
			
				<rect x="-79.5" y="588.4" transform="matrix(-0.9979 6.425160e-02 -6.425160e-02 -0.9979 -107.8995 1188.6355)" class="st3" width="12.9" height="8.4"/>
		</g>
		<g>
			
				<rect x="-75" y="591.1" transform="matrix(-0.9979 6.425160e-02 -6.425160e-02 -0.9979 -107.5115 1191.2151)" class="st3" width="4.2" height="5.6"/>
		</g>
		<g>
			<path class="st3" d="M-80,585.1l13-0.7l1.8,2.8c0,0-0.9,3.9-3.9,1.1c0,0-0.7,1.3-2,1.5c-1.3,0.1-2.1-1.5-2.1-1.5
				s-0.7,1.6-1.9,1.7c-1.2,0-2.2-1.6-2.2-1.6s-0.5,2.1-2,2c-1.4-0.1-2.1-1.9-2.1-1.9L-80,585.1z"/>
		</g>
		<g>
			
				<rect x="-80.1" y="582" transform="matrix(-0.9979 6.425160e-02 -6.425160e-02 -0.9979 -109.6864 1170.1934)" class="st3" width="12.9" height="2.7"/>
		</g>
		<g>
			<path class="st3" d="M-79.2,590.3c1.4,0.1,2-2,2-2s1,1.6,2.2,1.6s1.9-1.7,1.9-1.7s0.8,1.7,2.1,1.5c1.3-0.1,2-1.5,2-1.5
				c2.7,2.5,3.6-0.3,3.8-1l-16.1,1C-81.3,588.4-80.7,590.2-79.2,590.3z"/>
		</g>
		<g>
			<g>
				<g>
					<g>
						<path class="st2" d="M-79,590.8c-1.3,0.1-2.5-1-2.6-2.4c0-0.1,0-0.1,0-0.2l1-3.3c0.1-0.2,0.2-0.3,0.4-0.3l2.7-0.2
							c0.2,0,0.5,0.2,0.5,0.4l0.2,3.2C-76.7,589.5-77.7,590.7-79,590.8z M-80.7,588.4c0.1,0.9,0.8,1.6,1.7,1.5
							c0.9-0.1,1.5-0.9,1.4-1.8l-0.2-2.7l-2,0.1L-80.7,588.4z"/>
					</g>
				</g>
			</g>
			<g>
				<g>
					<g>
						<path class="st2" d="M-75,590.5c-1.3,0.1-2.5-1-2.6-2.4l-0.2-3.2c0-0.2,0.2-0.5,0.4-0.5l4-0.3c0.2,0,0.5,0.2,0.5,0.4l0.2,3.2
							C-72.7,589.2-73.7,590.4-75,590.5z M-76.9,585.3l0.2,2.7c0.1,0.9,0.8,1.6,1.7,1.6c0.9-0.1,1.5-0.9,1.4-1.8l-0.2-2.7
							L-76.9,585.3z"/>
					</g>
				</g>
			</g>
			<g>
				<g>
					<g>
						<path class="st2" d="M-71.1,590.3c-1.3,0.1-2.5-1-2.6-2.4l-0.2-3.2c0-0.2,0.2-0.5,0.4-0.5l4-0.3c0.2,0,0.5,0.2,0.5,0.4
							l0.2,3.2C-68.7,588.9-69.7,590.2-71.1,590.3z M-73,585l0.2,2.7c0.1,0.9,0.8,1.6,1.7,1.6c0.9-0.1,1.5-0.9,1.4-1.8l-0.2-2.7
							L-73,585z"/>
					</g>
				</g>
			</g>
			<g>
				<g>
					<g>
						<path class="st2" d="M-67.1,590c-1.3,0.1-2.5-1-2.6-2.4l-0.2-3.2c0-0.2,0.2-0.5,0.4-0.5l2.6-0.2c0.2,0,0.3,0.1,0.4,0.2
							l1.6,3.1c0,0.1,0,0.1,0,0.2C-64.7,588.7-65.7,589.9-67.1,590z M-69,584.8l0.2,2.7c0.1,0.9,0.8,1.6,1.7,1.6
							c0.8-0.1,1.5-0.8,1.4-1.7l-1.4-2.8L-69,584.8z"/>
					</g>
				</g>
			</g>
		</g>
		<g>
			<g>
				<path class="st5" d="M-81.5,583.7"/>
			</g>
		</g>
		<g>
			<g>
				<path class="st2" d="M-67,584.7l-13,0.8c-0.2,0-0.5-0.2-0.5-0.4l-0.2-2.7c0-0.2,0.2-0.5,0.4-0.5l13-0.8c0.2,0,0.5,0.2,0.5,0.4
					l0.2,2.7C-66.6,584.4-66.8,584.7-67,584.7z M-79.6,584.6l12.1-0.8l-0.1-1.9l-12.1,0.8L-79.6,584.6z"/>
			</g>
		</g>
		<g>
			<g>
				<path class="st2" d="M-70.6,596.9l-4.4,0.3c-0.2,0-0.4-0.1-0.4-0.3l-0.3-5.1c0-0.5,0.3-0.9,0.8-0.9l3.3-0.2
					c0.5,0,0.9,0.3,0.9,0.8l0.3,5.1C-70.2,596.7-70.4,596.9-70.6,596.9z M-74.6,596.4l3.6-0.2l-0.3-4.8c0-0.1-0.1-0.2-0.2-0.2
					l-3.3,0.2c-0.1,0-0.2,0.1-0.2,0.2L-74.6,596.4z"/>
			</g>
		</g>
		<g>
			<g>
				<path class="st2" d="M-67.1,589.6l0.4,6.4l-11.9,0.8l-0.4-6.4l-0.9,0.1l0.4,6.9c0,0.3,0.2,0.4,0.5,0.4l12.8-0.8
					c0.3,0,0.4-0.2,0.4-0.5l-0.4-6.9H-67.1z"/>
			</g>
		</g>
	</g>
	<g class="st4">
		<g>
			
				<rect x="-80.3" y="589.3" transform="matrix(-0.9979 6.425160e-02 -6.425160e-02 -0.9979 -109.4461 1190.4811)" class="st3" width="12.9" height="8.4"/>
		</g>
		<g>
			
				<rect x="-75.9" y="592" transform="matrix(-0.9979 6.425160e-02 -6.425160e-02 -0.9979 -109.2571 1193.0802)" class="st3" width="4.2" height="5.6"/>
		</g>
		<g>
			<path class="st3" d="M-80.9,586l13-0.7l1.8,2.8c0,0-0.9,3.9-3.9,1.1c0,0-0.7,1.3-2,1.5c-1.3,0.1-2.1-1.5-2.1-1.5
				s-0.7,1.6-1.9,1.7c-1.2,0-2.2-1.6-2.2-1.6s-0.5,2.1-2,2c-1.4-0.1-2.1-1.9-2.1-1.9L-80.9,586z"/>
		</g>
		<g>
			
				<rect x="-80.9" y="582.9" transform="matrix(-0.9979 6.425160e-02 -6.425160e-02 -0.9979 -111.2331 1172.0392)" class="st3" width="12.9" height="2.7"/>
		</g>
		<g>
			<path class="st3" d="M-80.1,591.3c1.4,0.1,2-2,2-2s1,1.6,2.2,1.6s1.9-1.7,1.9-1.7s0.8,1.7,2.1,1.5c1.3-0.1,2-1.5,2-1.5
				c2.7,2.5,3.6-0.3,3.8-1l-16.1,1C-82.2,589.3-81.5,591.2-80.1,591.3z"/>
		</g>
		<g>
			<g>
				<g>
					<g>
						<path class="st2" d="M-79.9,591.7c-1.3,0.1-2.5-1-2.6-2.4c0-0.1,0-0.1,0-0.2l1-3.3c0.1-0.2,0.2-0.3,0.4-0.3l2.7-0.2
							c0.2,0,0.5,0.2,0.5,0.4l0.2,3.2C-77.5,590.4-78.5,591.6-79.9,591.7z M-81.6,589.3c0.1,0.9,0.8,1.6,1.7,1.5
							c0.9-0.1,1.5-0.9,1.4-1.8l-0.2-2.7l-2,0.1L-81.6,589.3z"/>
					</g>
				</g>
			</g>
			<g>
				<g>
					<g>
						<path class="st2" d="M-75.9,591.5c-1.3,0.1-2.5-1-2.6-2.4l-0.2-3.2c0-0.2,0.2-0.5,0.4-0.5l4-0.3c0.2,0,0.5,0.2,0.5,0.4
							l0.2,3.2C-73.5,590.2-74.5,591.4-75.9,591.5z M-77.8,586.2l0.2,2.7c0.1,0.9,0.8,1.6,1.7,1.6c0.9-0.1,1.5-0.9,1.4-1.8l-0.2-2.7
							L-77.8,586.2z"/>
					</g>
				</g>
			</g>
			<g>
				<g>
					<g>
						<path class="st2" d="M-71.9,591.2c-1.3,0.1-2.5-1-2.6-2.4l-0.2-3.2c0-0.2,0.2-0.5,0.4-0.5l4-0.3c0.2,0,0.5,0.2,0.5,0.4
							l0.2,3.2C-69.5,589.9-70.6,591.1-71.9,591.2z M-73.8,586l0.2,2.7c0.1,0.9,0.8,1.6,1.7,1.6c0.9-0.1,1.5-0.9,1.4-1.8l-0.2-2.7
							L-73.8,586z"/>
					</g>
				</g>
			</g>
			<g>
				<g>
					<g>
						<path class="st2" d="M-67.9,591c-1.3,0.1-2.5-1-2.6-2.4l-0.2-3.2c0-0.2,0.2-0.5,0.4-0.5l2.6-0.2c0.2,0,0.3,0.1,0.4,0.2
							l1.6,3.1c0,0.1,0,0.1,0,0.2C-65.6,589.6-66.6,590.9-67.9,591z M-69.8,585.7l0.2,2.7c0.1,0.9,0.8,1.6,1.7,1.6
							c0.8-0.1,1.5-0.8,1.4-1.7l-1.4-2.8L-69.8,585.7z"/>
					</g>
				</g>
			</g>
		</g>
		<g>
			<g>
				<path class="st5" d="M-82.3,584.7"/>
			</g>
		</g>
		<g>
			<g>
				<path class="st2" d="M-67.9,585.6l-13,0.8c-0.2,0-0.5-0.2-0.5-0.4l-0.2-2.7c0-0.2,0.2-0.5,0.4-0.5l13-0.8c0.2,0,0.5,0.2,0.5,0.4
					l0.2,2.7C-67.4,585.4-67.6,585.6-67.9,585.6z M-80.5,585.5l12.1-0.8l-0.1-1.9l-12.1,0.8L-80.5,585.5z"/>
			</g>
		</g>
		<g>
			<g>
				<path class="st2" d="M-71.4,597.8l-4.4,0.3c-0.2,0-0.4-0.1-0.4-0.3l-0.3-5.1c0-0.5,0.3-0.9,0.8-0.9l3.3-0.2
					c0.5,0,0.9,0.3,0.9,0.8l0.3,5.1C-71.1,597.6-71.2,597.8-71.4,597.8z M-75.5,597.4l3.6-0.2l-0.3-4.8c0-0.1-0.1-0.2-0.2-0.2
					l-3.3,0.2c-0.1,0-0.2,0.1-0.2,0.2L-75.5,597.4z"/>
			</g>
		</g>
		<g>
			<g>
				<path class="st2" d="M-68,590.5l0.4,6.4l-11.9,0.8l-0.4-6.4l-0.9,0.1l0.4,6.9c0,0.3,0.2,0.4,0.5,0.4l12.8-0.8
					c0.3,0,0.4-0.2,0.4-0.5l-0.4-6.9H-68z"/>
			</g>
		</g>
	</g>
</g>
<g>
	<g id="XMLID_36_" class="st6">
		<circle class="st0" cx="-47.4" cy="550.3" r="8"/>
	</g>
</g>
<g>
	<g id="XMLID_37_" class="st6">
		<circle class="st0" cx="-124.6" cy="595.3" r="8"/>
	</g>
</g>
<line class="st7" x1="-147.5" y1="567.6" x2="-109.5" y2="549"/>
<line class="st7" x1="-149.4" y1="576.6" x2="-85.8" y2="588.3"/>
<path class="st7" d="M-73,593.3"/>
<line class="st7" x1="-91.6" y1="555.3" x2="-81.3" y2="576.3"/>
</svg>
